<svg width="1860" height="331" viewBox="0 0 1860 331" fill="none" xmlns="http://www.w3.org/2000/svg">
<path d="M137.097 261.193L151 261C149.849 261.334 148.603 261.351 147.401 261.435L142.006 261.732C141.039 261.722 139.957 261.613 139.027 261.872C138.583 262.291 138.569 262.559 138.57 263.147C138.57 263.887 138.614 267.14 139.244 267.587C139.608 267.845 139.933 267.872 140.365 267.968L140.487 268L136.96 267.88C136.58 267.721 136.734 267.769 136.338 267.668L136.064 267.601L136.333 267.108L136.005 263.525C135.954 262.431 136.281 261.958 137.097 261.193Z" fill="#FCE49A"/>
<path d="M140.974 268L140.848 267.969C140.404 267.878 140.07 267.852 139.695 267.606C139.046 267.181 139 264.083 139 263.377C139 262.817 139.014 262.563 139.471 262.163C140.429 261.916 141.542 262.02 142.539 262.029C142.055 262.366 141.885 262.397 141.819 262.942C141.718 263.771 141.869 266.52 142.532 267.098C143.077 267.572 144.331 267.636 145.083 267.632L153.967 267.321C155.58 267.244 157.399 267.047 159 267.204C156.956 267.548 154.838 267.611 152.762 267.728L140.974 268Z" fill="#FEF5A5"/>
<path d="M123.708 266.939C117.231 265.66 111.046 264.057 104.794 261.841C102.247 260.937 99.8224 259.479 97.2403 258.77L97 258.707L100.673 252.209L100.765 252C102.495 252.796 104.267 253.307 106.041 253.97C109.632 255.314 113.059 256.72 116.808 257.596C119.416 258.205 122.229 258.43 124.777 259.163L131.926 260.114L137 260.402C136.194 261.272 135.871 261.809 135.921 263.052L136.246 267.123L135.979 267.683L136.25 267.759C136.641 267.874 136.489 267.82 136.865 268L131.599 267.811L123.708 266.939Z" fill="url(#paint0_linear_957_39)"/>
<path d="M67.64 92.945C71.0442 89.2043 75.3595 86.2227 79.2374 83C80.5975 84.513 82.0702 86.277 83 88.088C82.9121 88.5808 82.8812 88.739 82.511 89.112C81.3095 90.3221 79.5664 91.3725 78.2266 92.4899C76.7654 93.7083 75.4077 95.2096 73.9036 96.3421L69.2979 100.963C64.6667 106.256 60.1932 112.079 56.6564 118.157L53.9325 122.847C53.2193 124.213 52.6142 125.713 51.7695 127C51.7718 126.682 51.7512 126.341 51.8284 126.029L51.8822 125.858C52.1875 124.792 53.034 123.242 53.6464 122.299L55.2009 119.777C54.7615 119.714 54.386 119.561 53.9562 119.481L53.6961 119.437L53.698 119.17C52.6295 118.821 51.1365 118.428 50.3282 117.622L50.204 117.491L50 117.286C50.0084 116.782 49.9618 116.198 50.1929 115.737L50.3492 115.496L50.6357 114.931C50.8794 114.507 51.0364 114.302 51.0299 113.806L51.0169 113.425C51.0529 113.12 51.5388 112.522 51.7164 112.236C53.8038 108.08 57.1034 103.938 60.3425 100.585C61.6292 98.7518 63.2413 97.2283 64.8145 95.644C65.7543 94.6976 66.5485 93.7362 67.64 92.945Z" fill="url(#paint1_linear_957_39)"/>
<path d="M51.6392 112.252L51.8216 112.087C53.281 110.731 53.9848 109.106 55.0173 107.411C55.7338 106.234 56.7167 104.987 57.6522 104C59.0988 104.487 60.3337 105.135 61.7169 105.742C62.2568 105.979 62.606 106.373 63 106.817C60.1517 111.025 57.1381 115.348 54.9669 120C54.5474 119.936 54.1887 119.779 53.7783 119.696L53.5298 119.65L53.5317 119.376C52.5112 119.018 51.0854 118.614 50.3134 117.786L50.1948 117.651L50 117.441C50.008 116.923 49.9635 116.322 50.1842 115.849L50.3335 115.601L50.6071 115.021C50.8399 114.586 50.9898 114.375 50.9836 113.865L50.9712 113.474C51.0055 113.16 51.4696 112.546 51.6392 112.252Z" fill="#FEFEF8"/>
<path d="M150.869 260.257C156.249 259.57 161.591 258.838 166.866 257.507C172.626 256.054 178.083 254.005 183.665 252C184.284 252.925 184.81 253.927 185.446 254.832C186.255 255.982 187.652 257.178 188 258.569C179.422 262.093 170.668 265.349 161.529 266.941C160.396 267.138 159.114 267.509 157.968 267.474C156.39 267.281 154.597 267.522 153.005 267.617L144.246 268C143.505 268.005 142.268 267.926 141.731 267.343C141.077 266.633 140.929 263.255 141.028 262.235C141.093 261.566 141.26 261.528 141.738 261.114L147.216 260.767C148.436 260.669 149.7 260.648 150.869 260.257Z" fill="#FEFEF8"/>
<path d="M246.361 141L248.116 150.056L248.869 160.783C249.171 162.675 248.871 164.854 248.76 166.776C248.043 179.189 244.945 191.009 239.563 202.305C238.659 204.202 237.931 206.247 236.754 208C234.583 206.623 232.153 205.864 230 204.466C232.712 200.343 234.435 196.224 236.078 191.628C238.669 184.374 240.486 176.8 241.113 169.139C241.362 166.091 241.253 162.933 241.184 159.875L240.677 152.858C240.312 149.173 239.597 145.523 238.579 141.953L238.838 141.509C239.368 142.54 239.734 143.758 239.918 144.894L240.263 146.256L240.532 146.038L240.7 146.934C240.968 146.85 241.201 146.759 241.456 146.645L241.858 146.482C242.827 146.28 243.754 145.955 244.621 145.455C246.554 144.338 245.721 142.974 246.247 141.33L246.361 141Z" fill="url(#paint2_linear_957_39)"/>
<path d="M246.212 141L248 150.085C246.906 150.469 245.893 150.709 244.75 150.914C244.369 150.982 244.119 151.052 243.726 150.944L243.467 150.858C242.677 150.69 241.78 150.733 241.113 150.211C240.522 149.748 240.119 147.102 240 146.274L240.274 146.054L240.445 146.953C240.718 146.869 240.956 146.778 241.215 146.664L241.624 146.5C242.612 146.297 243.557 145.971 244.439 145.469C246.408 144.349 245.56 142.981 246.096 141.331L246.212 141Z" fill="url(#paint3_linear_957_39)"/>
<path d="M216.633 101.622C211.948 96.9669 207.47 92.2156 202 88.43C202.894 86.5112 204.159 84.7756 205.308 83C209.322 85.6125 212.758 88.565 216.296 91.7743C218.987 94.2145 221.661 96.6536 224 99.4376L226.253 102.251C228.217 104.487 229.888 106.941 231.585 109.379C233.204 111.707 234.905 114.102 236.221 116.611C238.413 119.915 240.511 123.9 241.892 127.611L243.349 131.47C243.651 132.354 243.836 133.388 244.212 134.229L246 141.131L245.891 141.457C245.389 143.084 246.184 144.433 244.338 145.537C243.511 146.032 242.625 146.353 241.7 146.553L241.316 146.715C241.072 146.827 240.85 146.917 240.594 147L240.434 146.114L240.177 146.33L239.848 144.983C239.672 143.859 239.322 142.654 238.816 141.634L238.568 142.073C237.258 134.46 233.274 127.348 230.027 120.437C228.482 118.318 227.333 115.703 225.941 113.45C223.889 110.13 221.362 107.054 218.846 104.074L216.633 101.622Z" fill="#F6AF16"/>
<path d="M238.967 140.456L238.421 138.781L238.225 138.187C238.081 137.603 237.803 137.063 237.692 136.485C237.612 136.068 237.693 136.336 237.553 135.91L236.21 131.936C235.595 129.991 234.786 127.706 233.828 125.915L233.563 125.414C233.413 125.065 233.371 124.82 233.162 124.484C232.939 124.126 232.993 124.211 233.052 123.817L233.469 123.729L233.754 123.631C235.281 123.143 236.86 121.205 237.966 120C240.442 124.155 242.581 129.167 243.681 133.919L244.222 133.726L246 140.9L245.892 141.239C245.392 142.93 246.183 144.332 244.347 145.48C243.524 145.994 242.643 146.328 241.722 146.536L241.341 146.704C241.099 146.82 240.877 146.914 240.623 147L240.463 146.079L240.208 146.304L239.88 144.903C239.705 143.736 239.357 142.483 238.854 141.423L238.967 140.456Z" fill="#FEFEF8"/>
<path d="M243.728 134.189L244.258 134L246 141.026L245.894 141.358C245.405 143.013 246.179 144.387 244.381 145.511C243.575 146.015 242.711 146.342 241.81 146.545L241.436 146.71C241.199 146.824 240.982 146.915 240.733 147L240.576 146.098L240.326 146.318L240.005 144.947C239.834 143.803 239.493 142.576 239 141.538L239.11 140.591L239.471 141.373L239.583 141.666C239.917 141.818 239.747 141.703 240.054 142.061L239.96 143.027L240.081 142.83L240.361 142.735L240.294 142.314C240.437 142.102 240.572 141.927 240.75 141.743C241.059 141.422 241.961 141.569 242.415 141.569L242.604 141.377C242.943 141.383 243.27 141.404 243.604 141.334L243.821 141.279C244.429 141.147 244.704 141.082 245.152 140.599C245.229 140.199 245.253 140.301 245.192 139.974L245.137 139.725L245.037 139.241C244.959 138.973 244.868 138.764 244.82 138.483L243.728 134.189Z" fill="#FEF5A5"/>
<path d="M116.243 271L125.069 275.634C128.799 277.727 132.503 280.033 136.499 281.585C138.283 282.278 140.183 282.526 142 283.101C141.677 283.995 141.29 284.979 141.189 285.929C140.99 287.803 141.168 289.839 141.115 291.741C140.89 299.768 140.771 308.007 141.397 316L126.105 306.27L120.234 302.492C118.401 301.232 116.521 299.834 114.539 298.828C114.293 297.976 114.084 297.149 114.041 296.255C113.867 292.567 114.298 288.807 114.336 285.111V279.079C114.316 277.906 114.173 276.611 114.302 275.451C114.691 276.057 114.475 277.761 114.477 278.578C114.486 281.948 114.783 285.628 114.479 288.965C114.288 291.056 114.279 293.084 114.282 295.2C114.283 295.784 114.163 296.745 114.287 297.284C114.358 297.59 114.861 298.19 115.029 298.511L115.2 298.844C115.883 299.168 116.461 299.657 117.122 300.023L117.746 300.367C118.123 300.627 118.641 300.831 118.953 301.114L119.139 301.301L119.189 300.76L119.38 300.467C119.203 300.154 119.177 299.963 119.207 299.603C119.243 299.185 119.307 298.822 119.24 298.402C119.023 297.048 119.336 295.482 119.236 294.077C119.18 293.278 119.538 292.651 119.432 291.871C119.232 290.406 119.438 288.81 119.284 287.295C119.129 285.782 119.334 284.239 119.213 282.724L119.189 282.478C119.463 282.196 119.38 282.168 119.382 281.79C119.024 281.424 119.235 279.91 119.236 279.333C119.239 278.265 119.432 276.57 119.189 275.598L119.044 275.205C119.025 274.618 118.946 274.096 119.284 273.633C119.64 273.565 119.655 273.547 119.957 273.288L116.161 271.322L116.243 271Z" fill="#F6AF16"/>
<path d="M38.9067 140.848C39.7862 136.282 41.8444 131.578 43.6972 127.312C45.6414 122.834 47.7432 117.882 50.7397 114L50.7529 114.386C50.7595 114.889 50.5996 115.098 50.3515 115.528L50.0597 116.101L49.9006 116.346C49.6652 116.813 49.7127 117.406 49.7042 117.917L49.9119 118.125L50.0383 118.258C50.8614 119.076 52.3816 119.474 53.4697 119.828L53.4677 120.099L53.7326 120.144C54.1703 120.226 54.5526 120.381 55 120.445L53.4172 123.003C52.7936 123.96 51.9316 125.533 51.6208 126.614L51.5659 126.788C51.4873 127.104 51.5083 127.45 51.506 127.773C48.9748 132.665 46.9913 138.179 45.8106 143.548L45.5807 144.485L43.8108 156.19C43.4521 160.594 43.5665 165.024 43.8159 169.43C43.9372 171.576 43.98 173.796 44.2745 175.925C44.9708 180.958 46.2786 186.309 47.9914 191.099C49.0993 194.198 50.5771 197.323 51.9292 200.335C52.5843 201.794 53.1223 203.301 53.8314 204.736C51.7756 205.805 49.4046 206.641 47.544 208C45.79 204.406 44.001 200.758 42.5773 197.024C37.9622 184.92 35.2839 171.621 36.1677 158.69L36.2253 158.6C36.2016 155.802 36.6139 153.054 36.985 150.286C37.2884 148.024 37.5806 145.43 38.3193 143.265C38.4601 142.428 38.6262 141.65 38.9067 140.848Z" fill="url(#paint4_linear_957_39)"/>
<path d="M18.4851 217.444L24.8046 214C24.9884 214.772 25.0251 215.841 25.8256 216.216C26.0079 216.301 26.0847 216.297 26.2654 216.316C27.3852 216.477 28.4563 217.597 29.4192 218.188C31.1071 219.224 33.0721 220.112 34.6393 221.3L48.2572 229.87C49.8545 230.901 51.7679 231.811 53.233 232.996C56.2256 234.523 59.0352 236.829 61.8971 238.609L83.2456 252.119L95.6945 260.255C98.1286 261.688 100.698 262.834 103.215 264.107L110.688 267.994L115.479 270.479C116.055 270.801 116.802 271.123 117.275 271.573L117.193 271.886L121 273.795C120.697 274.047 120.682 274.065 120.325 274.131C119.986 274.58 120.065 275.087 120.085 275.657L120.23 276.039C120.473 276.982 120.28 278.629 120.277 279.666C120.276 280.226 120.064 281.697 120.423 282.052C120.421 282.419 120.504 282.446 120.23 282.72L120.254 282.959C120.375 284.43 120.17 285.928 120.325 287.398C120.48 288.87 120.273 290.419 120.473 291.842C120.579 292.6 120.221 293.208 120.277 293.984C120.377 295.349 120.064 296.87 120.281 298.185C120.348 298.592 120.284 298.945 120.248 299.351C120.218 299.701 120.244 299.886 120.421 300.191L120.23 300.475L120.18 301L119.994 300.819C119.68 300.543 119.16 300.346 118.783 300.093L118.157 299.759C117.494 299.404 116.914 298.928 116.229 298.614L116.057 298.291C115.889 297.979 115.384 297.396 115.314 297.099C115.189 296.576 115.31 295.642 115.309 295.075C115.306 293.02 115.315 291.051 115.506 289.02C115.811 285.779 115.513 282.206 115.504 278.932C115.502 278.139 115.719 276.485 115.329 275.895C115.199 277.023 115.343 278.28 115.363 279.419V285.277C115.325 288.866 114.893 292.518 115.067 296.099C115.11 296.968 115.319 297.771 115.566 298.599C113.633 297.753 111.971 296.357 110.19 295.244L97.1673 287.217L83.2252 278.821C81.5142 277.769 79.9427 276.501 78.2144 275.472L54.2036 260.477L32.6419 247.112C32.0464 246.927 31.242 246.171 30.6684 245.84L9.70036 232.631C8.79571 232.198 8.0013 231.537 7.16565 230.986L3.89626 229.051C3.3258 228.803 2.81816 228.082 2.28085 227.724C1.8449 227.434 1.43247 227.312 1 226.965C1.39123 227.009 1.9879 227.132 2.36295 227.003C3.5139 226.607 4.90923 225.143 5.99697 224.466L13.7622 220.114L18.4851 217.444Z" fill="url(#paint5_linear_957_39)"/>
<path d="M13 219.827L18.051 217C18.3458 217.86 18.4501 219.365 19 219.985L13.5553 223C13.4646 222.815 13.5252 222.907 13.3224 222.707C13.0054 222.393 13.0697 220.422 13 219.827Z" fill="#3F1C01"/>
<path d="M18 217.299L24.4979 214C24.6869 214.739 24.7246 215.763 25.5478 216.123C25.7352 216.204 25.8141 216.2 26 216.219L18.9124 220C18.3837 219.439 18.2834 218.078 18 217.299Z" fill="url(#paint6_linear_957_39)"/>
<path d="M13.4918 220C13.5556 220.566 13.4967 222.441 13.7868 222.74C13.9725 222.931 13.917 222.843 14 223.019L13.8344 223.225C11.9917 224.005 10.2758 225.216 8.53809 226.213C6.9437 227.128 5.19084 227.701 3.83489 229C3.27652 228.751 2.77964 228.024 2.25371 227.664C1.827 227.372 1.42331 227.249 1 226.899C1.38294 226.943 1.96697 227.067 2.33407 226.937C3.46063 226.539 4.82639 225.064 5.89108 224.382L13.4918 220Z" fill="#6D3704"/>
<path d="M138.494 192.199L165.992 192.197L170.957 192.165C171.89 192.132 172.884 191.897 173.809 192.053C175.927 192.413 177.949 193.793 179.798 194.833L187.757 199.267L203.942 207.901C210.893 211.733 217.761 215.71 225 219L135.277 218.745L125.404 218.732L75.5168 218.74L59.3559 218.758L59 218.786C59.3158 218.449 60.2032 218.189 60.636 217.995L65.243 215.896C68.7408 214.195 72.2016 211.876 75.8107 210.472C78.8448 208.566 82.3857 206.97 85.5923 205.32L93.4252 201.092C94.2278 200.686 95.0901 200.396 95.8847 199.975C96.9183 199.426 97.88 198.749 98.9291 198.224L104.843 195.365C106.58 194.47 108.748 192.499 110.689 192.241C111.456 192.139 112.311 192.234 113.089 192.227L118.744 192.194L138.494 192.199Z" fill="url(#paint7_linear_957_39)"/>
<path d="M0.779331 226.905L0.554303 226.641C0.203388 226.136 0.240372 225.234 0.224242 224.64L0.131396 220.083L0 201.163L0.0318631 168.961L0.197884 124.369L0.434318 117.994L0.387502 100.59L0.385143 94.4516C0.393797 93.3419 0.307639 92.2249 0.707729 91.1704C1.25417 90.9347 1.35724 90.983 1.956 91.0803C2.84587 92.0885 4.06542 92.8461 5.16498 93.6301C7.82635 95.5276 10.5983 97.1945 13.4095 98.8709L18.8636 102.144C19.1866 102.348 20.0938 102.786 20.2402 103.049L24.6089 105.434C25.3005 105.797 26.0464 106.014 26.5385 106.638L27 125.265L26.9622 198.473C26.9618 199.799 26.7345 211.538 26.9264 211.94C26.76 212.741 26.8328 212.849 26.1282 213.317L25.0751 213.893L18.6252 217.349L13.8049 220.029L5.8794 224.396C4.76922 225.076 3.3451 226.546 2.1704 226.943C1.78762 227.072 1.17863 226.948 0.779331 226.905Z" fill="url(#paint8_linear_957_39)"/>
<path d="M13.6077 99L18.6459 102.289C18.9443 102.495 19.7823 102.934 19.9175 103.199L20.0029 103.351C20.4106 104.049 20.8561 104.227 21.4888 104.633C22.6571 105.382 23.9 105.91 25 106.786C23.578 107.618 22.2091 108.584 20.6824 109.19C18.1412 110.199 16.0847 111.577 13.7458 113L13.1418 112.059L13.2734 106.798C13.2596 104.871 12.7101 102.208 13.2087 100.362L13.2941 100.118L13.6077 99Z" fill="#FCE49A"/>
<path d="M280.855 90L282.37 91.1871C282.712 91.2502 282.868 91.2258 283.136 91.4587L283.537 91.764C283.969 95.1589 283.739 98.7306 283.71 102.147L283.739 119.973L284 179.837L283.965 221.739C283.932 223.222 284.203 225.805 283.356 227L282.72 226.753C280.992 226.103 279.339 224.754 277.765 223.765C275.394 222.273 272.893 220.782 270.366 219.575L260.358 214.179C259.506 213.868 258.976 213.519 258.314 212.902C257.903 211.982 258.018 210.513 258.007 209.513L258.032 202.281L258.091 158.165L258.075 158.15L258.554 106.187L258.728 104.006L258.304 103.706C258.734 103.142 259.592 102.67 260.195 102.292L265.921 99.0642L280.855 90Z" fill="url(#paint9_linear_957_39)"/>
<path d="M280.704 90L282.229 91.1734C282.574 91.2358 282.73 91.2116 283 91.4419C281.737 91.6994 280.343 93.2033 279.255 93.9384L270.815 99.4509C268.076 101.159 265.093 102.457 262.354 104.165C261.328 104.714 260.358 105.26 259.231 105.584C258.875 105.686 258.579 105.832 258.251 106L258.427 103.844L258 103.547C258.433 102.99 259.296 102.523 259.904 102.149L265.668 98.9593L280.704 90Z" fill="#3F1C01"/>
<path d="M257.546 216C260.911 217.206 264.088 219.391 267.21 221.133C267.839 221.484 269.024 222.359 269.666 222.444C269.931 222.616 270.989 223.19 271.104 223.416L276.784 226.43C278.185 227.172 279.682 227.783 280.974 228.708C281.077 229.285 280.86 229.5 280.598 230.015C277.908 231.279 275.632 233.496 272.915 234.673C271.587 235.848 269.649 236.71 268.127 237.649L254.46 246.02L217.341 269.213L200.45 279.642L200.1 279.462C199.629 280.164 198.714 280.709 198.009 281.168L191.156 285.26L186.317 288.431L180 292.183L176.342 294.671L161.651 303.55L155.958 307.014C151.735 309.724 147.531 312.616 143.109 315L143.176 291.598L143.146 288.472C143.093 287.544 142.88 286.537 143.092 285.622L143.156 285.372C143.257 284.953 143.623 283.077 143.924 282.844C144.379 282.491 146.229 282.233 146.824 282.039C147.986 281.661 149.154 281.142 150.29 280.689C154.252 279.108 157.932 276.688 161.665 274.647L183.12 263.49C187.397 261.379 191.35 258.798 195.328 256.201L207.562 248.397C208.329 247.907 209.184 247.572 209.958 247.095L216.022 243.08L235.382 230.657L243.241 225.821L247.244 223.083C250.722 220.9 254.516 218.768 257.546 216Z" fill="url(#paint10_linear_957_39)"/>
<path d="M173.879 51.8323L147.1 35.7625C146 35.0564 144.177 33.8298 143.634 32.6316C143.037 31.3145 143.359 28.3735 143.359 26.9197L143.402 9.07923C143.391 6.30333 143.719 2.98381 143.072 0.286446L143 0C144.105 0.954817 145.209 1.92966 146.427 2.73701C147.678 3.56632 149.042 4.21044 150.273 5.07054L164.169 14.6684C168.18 17.3438 172.412 19.7709 176.304 22.6107L236.399 61.6188L281 90.1074L266.109 99.2294L260.4 102.477C259.799 102.858 258.943 103.334 258.515 103.9L258.085 104L231.326 86.4849C229.853 86.0148 228.264 84.5903 226.947 83.7382L216.645 77.2104L204.878 70.3696L187.522 59.7974L178.661 54.5855C177.058 53.6611 175.408 52.8911 173.879 51.8323Z" fill="url(#paint11_linear_957_39)"/>
<path d="M43.6811 63.6792L142 0L141.939 23.3425L141.891 30.2291C141.87 30.7441 141.941 31.7228 141.769 32.1816C141.621 32.5763 140.483 33.5478 140.134 33.8894C139.202 34.8021 138.178 35.2903 137.064 35.9373L131.35 39.2614L106.594 53.9339L88.7801 64.6274L84.1831 67.1043L58.9365 82.2987L42.1183 92.7097L29.5083 100.55C28.3774 101.253 27.4758 102.181 26.1688 102.567L25.7541 102.902L25.7959 103.06C26.029 104.02 25.9898 105.018 25.994 106C25.5137 105.378 24.7856 105.163 24.1106 104.8L19.8465 102.424C19.7036 102.162 18.8181 101.726 18.5029 101.523L13.1793 98.2626C10.4354 96.5925 7.72982 94.9321 5.13216 93.0418C4.05892 92.2608 2.86857 91.5061 2 90.5018L2.50532 90.2812C2.80061 89.6384 3.02908 89.3693 3.60966 88.9578L25.4104 75.3354C25.6101 75.012 26.4441 74.5944 26.7751 74.3746L31.5349 71.3418C35.5457 68.8213 39.4976 65.8958 43.6811 63.6792Z" fill="url(#paint12_linear_957_39)"/>
<path d="M2 90.5402L2.5227 90.3201C2.82814 89.6789 3.06447 89.4105 3.66503 89C6.6809 90.4778 9.30633 92.4079 12.1788 94.1008L20.4027 98.731L24.63 101.587C25.2524 101.981 26.0463 102.527 26.8093 102.559L27 102.575L26.571 102.91L26.6143 103.067C26.8554 104.025 26.8149 105.021 26.8193 106C26.3224 105.379 25.5693 105.165 24.8711 104.803L20.4603 102.433C20.3125 102.172 19.3966 101.737 19.0705 101.534L13.5638 98.2817C10.7255 96.6158 7.92688 94.9595 5.23989 93.0739C4.12974 92.2948 2.89845 91.542 2 90.5402Z" fill="#6D3704"/>
<path d="M140 58.7729C140.703 57.0835 141.761 55.5475 142.729 54L233.865 217.787L234 218C232.709 217.55 231.366 217.141 230.116 216.588C228.675 215.951 227.317 215.088 225.889 214.412C218.886 211.097 212.278 207.299 205.598 203.378L194.591 197.199C193.125 196.358 191.56 196.047 190.276 194.843C188.777 193.438 187.91 191.295 186.926 189.529L183.995 184.399L158.126 138.239L149.84 122.902C149.193 121.639 148.156 120.138 147.782 118.791C147.561 117.999 147.597 117.126 147.537 116.312L147.119 111.123L145.048 77.8979L144.026 60.4565C143.903 59.285 143.638 55.8709 142.887 55.123L142.641 56.2274C141.747 56.5332 141.506 57.0725 141.027 57.8649C140.722 58.3698 140.53 58.5277 140 58.7729Z" fill="#F6AF16"/>
<path d="M139.357 57.5683C139.887 57.3209 140.08 57.1616 140.385 56.6522C140.865 55.8527 141.106 55.3086 142 55C141.394 58.6257 141.301 62.3299 141.132 65.9967L140.524 78.2705L139.57 96.2931L138.315 116.47C138.235 118.273 136.101 121.138 135.239 122.743L129.799 132.927L125.357 140.332L115.144 158.516L103.688 178.097L97.5979 188.869L95.3072 193.225C95.051 193.725 94.7049 194.631 94.2785 194.976C92.8589 196.123 90.6687 197.023 89.0278 197.866L82.2114 201.53L58.5281 214.44C56.0373 215.682 53.6234 217.049 51 218C51.5224 216.36 52.4184 214.931 53.1963 213.411L57.8512 204.762L64.518 192.299L81.6982 160.317L110.812 107.737L115.476 99.1254L128.126 77.2051L139.328 57.5756L139.357 57.5683Z" fill="url(#paint13_linear_957_39)"/>
<path d="M396 167H369.68L412.72 47.08H439.76L482.72 167H456L429.68 82.84L426 69.08L422.24 82.84L396 167ZM394.08 141.8L397.36 123.96H451.92L455.2 141.8H394.08ZM494.664 167V37H519.144V167H494.664ZM581.086 168.28C567.38 168.28 556.873 164.2 549.566 156.04C542.26 147.88 538.606 136.6 538.606 122.2C538.606 113.56 540.26 105.827 543.566 99C546.926 92.1733 551.78 86.7867 558.126 82.84C564.473 78.84 572.233 76.8133 581.406 76.76C586.046 76.7067 590.473 77.2933 594.686 78.52C598.9 79.7467 602.66 81.7467 605.966 84.52C609.273 87.24 611.913 90.8667 613.886 95.4C615.913 99.88 616.953 105.373 617.006 111.88C617.006 115.133 616.953 118.147 616.846 120.92C616.74 123.693 616.5 126.067 616.126 128.04H551.726L553.326 114.84H594.286C594.553 110.52 594.313 106.733 593.566 103.48C592.873 100.173 591.486 97.6133 589.406 95.8C587.326 93.9333 584.393 93 580.606 93C576.926 93 573.7 94.0133 570.926 96.04C568.206 98.0667 566.1 101.56 564.606 106.52C563.166 111.427 562.553 118.2 562.766 126.84C562.98 132.653 564.1 137.32 566.126 140.84C568.206 144.307 571.006 146.813 574.526 148.36C578.1 149.853 582.233 150.6 586.926 150.6C589.486 150.6 592.286 150.387 595.326 149.96C598.366 149.533 601.246 148.973 603.966 148.28C606.686 147.533 608.766 146.787 610.206 146.04L614.286 159.32C612.313 160.92 609.593 162.413 606.126 163.8C602.713 165.133 598.82 166.2 594.446 167C590.126 167.853 585.673 168.28 581.086 168.28ZM623.62 167L656.26 119.72L656.66 125L623.62 77.88H650.5L665.86 101.72L672.1 112.2H665.94L671.3 101.64L686.1 77.88H712.82L679.46 124.52V118.36L713.46 167H686.26L670.18 141.64L663.94 131.16H670.82L665.62 141.72L650.9 167H623.62ZM749.891 168.28C744.238 168.28 739.278 167.133 735.011 164.84C730.745 162.547 727.411 159.347 725.011 155.24C722.665 151.133 721.491 146.36 721.491 140.92C721.491 135.48 722.958 130.813 725.891 126.92C728.878 123.027 732.905 119.987 737.971 117.8C741.438 116.36 745.225 115.24 749.331 114.44C753.491 113.64 757.625 113.08 761.731 112.76C765.891 112.44 769.758 112.28 773.331 112.28L777.411 117.32L773.331 125.16C771.411 125.16 769.251 125.293 766.851 125.56C764.451 125.827 762.131 126.227 759.891 126.76C757.705 127.24 755.865 127.8 754.371 128.44C752.291 129.4 750.425 130.68 748.771 132.28C747.171 133.88 746.371 136.333 746.371 139.64C746.371 143.96 747.571 147.16 749.971 149.24C752.371 151.267 755.465 152.28 759.251 152.28C761.225 152.28 763.171 152.013 765.091 151.48C767.065 150.947 768.798 150.333 770.291 149.64C771.785 148.893 772.798 148.2 773.331 147.56L777.571 152.6L774.611 159.48C772.211 161.613 768.905 163.613 764.691 165.48C760.531 167.347 755.598 168.28 749.891 168.28ZM797.731 167H774.611V153.72H773.331V105.72C773.331 101.187 772.131 98.2267 769.731 96.84C767.331 95.4 763.891 94.68 759.411 94.68C756.051 94.68 752.531 94.9733 748.851 95.56C745.225 96.1467 741.785 96.92 738.531 97.88C735.278 98.84 732.558 99.88 730.371 101L725.091 85.64C726.905 84.5733 729.731 83.32 733.571 81.88C737.411 80.44 741.811 79.1867 746.771 78.12C751.731 77 756.718 76.44 761.731 76.44C769.945 76.44 776.691 77.4 781.971 79.32C787.305 81.24 791.251 84.4933 793.811 89.08C796.425 93.6667 797.731 100.013 797.731 108.12V167ZM821.699 167V77.96H843.859L844.259 87.96C846.285 86.2533 848.872 84.5467 852.019 82.84C855.165 81.08 858.632 79.6133 862.419 78.44C866.259 77.2667 870.125 76.6533 874.019 76.6C883.299 76.3867 890.125 78.8667 894.499 84.04C898.872 89.16 901.059 98.1733 901.059 111.08V167H876.579V114.52C876.579 107.587 875.672 102.733 873.859 99.96C872.045 97.1867 868.499 95.9067 863.219 96.12C861.619 96.1733 859.805 96.4667 857.779 97C855.805 97.48 853.779 98.2267 851.699 99.24C849.672 100.2 847.779 101.4 846.019 102.84V167H821.699ZM980.82 167V155.88L979.06 154.68V94.28L979.7 93.72L979.06 71.16V37H1003.22V167H980.82ZM954.58 168.28C948.287 168.28 942.473 166.733 937.14 163.64C931.86 160.493 927.593 155.773 924.34 149.48C921.087 143.187 919.46 135.213 919.46 125.56C919.46 115.693 921.327 107.107 925.06 99.8C928.793 92.44 934.02 86.76 940.74 82.76C947.46 78.76 955.353 76.76 964.42 76.76C969.913 76.76 974.42 77.3467 977.94 78.52C981.513 79.6933 983.807 80.68 984.82 81.48L979.14 96.92C977.807 95.8 975.913 95.0267 973.46 94.6C971.007 94.12 968.207 93.88 965.06 93.88C961.22 93.88 957.753 95 954.66 97.24C951.62 99.4267 949.193 102.76 947.38 107.24C945.62 111.667 944.74 117.213 944.74 123.88C944.633 133.107 946.153 139.72 949.3 143.72C952.5 147.72 956.873 149.72 962.42 149.72C965.833 149.72 969.033 149.133 972.02 147.96C975.06 146.787 977.433 145.587 979.14 144.36L982.1 156.52C980.873 157.853 979.113 159.453 976.82 161.32C974.527 163.133 971.567 164.76 967.94 166.2C964.313 167.587 959.86 168.28 954.58 168.28ZM1065.46 168.28C1051.75 168.28 1041.25 164.2 1033.94 156.04C1026.63 147.88 1022.98 136.6 1022.98 122.2C1022.98 113.56 1024.63 105.827 1027.94 99C1031.3 92.1733 1036.15 86.7867 1042.5 82.84C1048.85 78.84 1056.61 76.8133 1065.78 76.76C1070.42 76.7067 1074.85 77.2933 1079.06 78.52C1083.27 79.7467 1087.03 81.7467 1090.34 84.52C1093.65 87.24 1096.29 90.8667 1098.26 95.4C1100.29 99.88 1101.33 105.373 1101.38 111.88C1101.38 115.133 1101.33 118.147 1101.22 120.92C1101.11 123.693 1100.87 126.067 1100.5 128.04H1036.1L1037.7 114.84H1078.66C1078.93 110.52 1078.69 106.733 1077.94 103.48C1077.25 100.173 1075.86 97.6133 1073.78 95.8C1071.7 93.9333 1068.77 93 1064.98 93C1061.3 93 1058.07 94.0133 1055.3 96.04C1052.58 98.0667 1050.47 101.56 1048.98 106.52C1047.54 111.427 1046.93 118.2 1047.14 126.84C1047.35 132.653 1048.47 137.32 1050.5 140.84C1052.58 144.307 1055.38 146.813 1058.9 148.36C1062.47 149.853 1066.61 150.6 1071.3 150.6C1073.86 150.6 1076.66 150.387 1079.7 149.96C1082.74 149.533 1085.62 148.973 1088.34 148.28C1091.06 147.533 1093.14 146.787 1094.58 146.04L1098.66 159.32C1096.69 160.92 1093.97 162.413 1090.5 163.8C1087.09 165.133 1083.19 166.2 1078.82 167C1074.5 167.853 1070.05 168.28 1065.46 168.28ZM1142.84 108.92L1141.72 91.8C1142.68 89.24 1144.44 86.8133 1147 84.52C1149.56 82.1733 1152.6 80.28 1156.12 78.84C1159.64 77.3467 1163.34 76.6 1167.24 76.6C1168.84 76.6 1170.3 76.68 1171.64 76.84C1173.02 77 1174.04 77.2667 1174.68 77.64V101.4C1173.93 100.92 1172.78 100.44 1171.24 99.96C1169.69 99.48 1167.34 99.24 1164.2 99.24C1160.36 99.24 1157.05 99.8 1154.28 100.92C1151.5 101.987 1149.16 103.293 1147.24 104.84C1145.37 106.333 1143.9 107.693 1142.84 108.92ZM1119.88 167V77.96H1141L1142.36 91.88L1144.28 96.12V167H1119.88ZM1252.63 168.28C1247.13 168.28 1241.93 167.88 1237.03 167.08C1232.12 166.28 1227.88 165.32 1224.31 164.2C1220.73 163.08 1218.2 162.067 1216.71 161.16L1220.47 141.32C1222.44 142.493 1225.03 143.667 1228.23 144.84C1231.48 145.96 1235.05 146.92 1238.95 147.72C1242.84 148.467 1246.76 148.84 1250.71 148.84C1257.05 148.84 1261.77 147.853 1264.87 145.88C1267.96 143.907 1269.51 140.733 1269.51 136.36C1269.51 133.267 1268.65 130.68 1266.95 128.6C1265.24 126.467 1262.55 124.387 1258.87 122.36C1255.24 120.333 1250.52 117.933 1244.71 115.16C1239.75 112.76 1235.08 109.907 1230.71 106.6C1226.33 103.293 1222.79 99.3467 1220.07 94.76C1217.35 90.1733 1215.99 84.8133 1215.99 78.68C1215.99 73.1333 1217.05 68.36 1219.19 64.36C1221.37 60.3067 1224.36 57 1228.15 54.44C1231.93 51.8267 1236.31 49.9067 1241.27 48.68C1246.28 47.4533 1251.64 46.84 1257.35 46.84C1265.56 46.84 1272.31 47.6133 1277.59 49.16C1282.87 50.7067 1286.55 52.1467 1288.63 53.48L1284.39 72.52C1281.88 70.7067 1278.41 69.08 1273.99 67.64C1269.56 66.1467 1264.49 65.4 1258.79 65.4C1255 65.4 1251.69 65.8533 1248.87 66.76C1246.09 67.6667 1243.93 69 1242.39 70.76C1240.84 72.4667 1240.07 74.5733 1240.07 77.08C1240.07 80.0667 1240.79 82.6267 1242.23 84.76C1243.72 86.84 1246.07 88.8667 1249.27 90.84C1252.47 92.76 1256.63 94.9733 1261.75 97.48C1266.39 99.6667 1270.68 101.96 1274.63 104.36C1278.57 106.707 1282.04 109.293 1285.03 112.12C1288.01 114.947 1290.33 118.173 1291.99 121.8C1293.64 125.427 1294.47 129.587 1294.47 134.28C1294.47 141.427 1292.79 147.56 1289.43 152.68C1286.07 157.747 1281.24 161.613 1274.95 164.28C1268.71 166.947 1261.27 168.28 1252.63 168.28ZM1336.14 168.28C1330.49 168.28 1325.53 167.133 1321.26 164.84C1316.99 162.547 1313.66 159.347 1311.26 155.24C1308.91 151.133 1307.74 146.36 1307.74 140.92C1307.74 135.48 1309.21 130.813 1312.14 126.92C1315.13 123.027 1319.15 119.987 1324.22 117.8C1327.69 116.36 1331.47 115.24 1335.58 114.44C1339.74 113.64 1343.87 113.08 1347.98 112.76C1352.14 112.44 1356.01 112.28 1359.58 112.28L1363.66 117.32L1359.58 125.16C1357.66 125.16 1355.5 125.293 1353.1 125.56C1350.7 125.827 1348.38 126.227 1346.14 126.76C1343.95 127.24 1342.11 127.8 1340.62 128.44C1338.54 129.4 1336.67 130.68 1335.02 132.28C1333.42 133.88 1332.62 136.333 1332.62 139.64C1332.62 143.96 1333.82 147.16 1336.22 149.24C1338.62 151.267 1341.71 152.28 1345.5 152.28C1347.47 152.28 1349.42 152.013 1351.34 151.48C1353.31 150.947 1355.05 150.333 1356.54 149.64C1358.03 148.893 1359.05 148.2 1359.58 147.56L1363.82 152.6L1360.86 159.48C1358.46 161.613 1355.15 163.613 1350.94 165.48C1346.78 167.347 1341.85 168.28 1336.14 168.28ZM1383.98 167H1360.86V153.72H1359.58V105.72C1359.58 101.187 1358.38 98.2267 1355.98 96.84C1353.58 95.4 1350.14 94.68 1345.66 94.68C1342.3 94.68 1338.78 94.9733 1335.1 95.56C1331.47 96.1467 1328.03 96.92 1324.78 97.88C1321.53 98.84 1318.81 99.88 1316.62 101L1311.34 85.64C1313.15 84.5733 1315.98 83.32 1319.82 81.88C1323.66 80.44 1328.06 79.1867 1333.02 78.12C1337.98 77 1342.97 76.44 1347.98 76.44C1356.19 76.44 1362.94 77.4 1368.22 79.32C1373.55 81.24 1377.5 84.4933 1380.06 89.08C1382.67 93.6667 1383.98 100.013 1383.98 108.12V167ZM1407.95 167V77.96H1430.11L1430.51 87.96C1432.54 86.2533 1435.12 84.5467 1438.27 82.84C1441.42 81.08 1444.88 79.6133 1448.67 78.44C1452.51 77.2667 1456.38 76.6533 1460.27 76.6C1469.55 76.3867 1476.38 78.8667 1480.75 84.04C1485.12 89.16 1487.31 98.1733 1487.31 111.08V167H1462.83V114.52C1462.83 107.587 1461.92 102.733 1460.11 99.96C1458.3 97.1867 1454.75 95.9067 1449.47 96.12C1447.87 96.1733 1446.06 96.4667 1444.03 97C1442.06 97.48 1440.03 98.2267 1437.95 99.24C1435.92 100.2 1434.03 101.4 1432.27 102.84V167H1407.95ZM1504.59 123.4C1504.59 114.653 1506.19 106.76 1509.39 99.72C1512.59 92.68 1517.44 87.1067 1523.95 83C1530.51 78.84 1538.83 76.76 1548.91 76.76C1554.72 76.76 1559.74 77.24 1563.95 78.2C1568.22 79.16 1571.07 80.1467 1572.51 81.16L1569.47 99.8C1567.5 98.5733 1565.02 97.5867 1562.03 96.84C1559.1 96.0933 1555.44 95.72 1551.07 95.72C1547.6 95.72 1544.19 96.52 1540.83 98.12C1537.52 99.72 1534.75 102.36 1532.51 106.04C1530.32 109.72 1529.15 114.653 1528.99 120.84C1528.83 127.507 1529.71 132.973 1531.63 137.24C1533.6 141.453 1536.27 144.573 1539.63 146.6C1543.04 148.573 1546.83 149.56 1550.99 149.56C1555.04 149.56 1558.8 149.133 1562.27 148.28C1565.74 147.427 1568.43 146.52 1570.35 145.56L1573.95 160.52C1571.39 163.08 1567.52 165.027 1562.35 166.36C1557.23 167.64 1551.82 168.28 1546.11 168.28C1536.88 168.28 1529.2 166.333 1523.07 162.44C1516.94 158.493 1512.32 153.133 1509.23 146.36C1506.14 139.587 1504.59 131.933 1504.59 123.4ZM1590.52 167V37H1614.92V71.8L1613.64 90.12L1612.84 87.88C1614.81 86.1733 1617.35 84.4667 1620.44 82.76C1623.59 81.0533 1627.03 79.6133 1630.76 78.44C1634.49 77.2667 1638.33 76.6533 1642.28 76.6C1651.99 76.3333 1659.08 79.0267 1663.56 84.68C1668.09 90.3333 1670.36 99.3467 1670.36 111.72V167H1645.8V114.52C1645.8 107.48 1644.79 102.627 1642.76 99.96C1640.73 97.2933 1637.21 96.04 1632.2 96.2C1629.96 96.2533 1627.21 96.7867 1623.96 97.8C1620.71 98.8133 1617.69 100.493 1614.92 102.84V167H1590.52ZM1731.56 168.28C1717.85 168.28 1707.34 164.2 1700.04 156.04C1692.73 147.88 1689.08 136.6 1689.08 122.2C1689.08 113.56 1690.73 105.827 1694.04 99C1697.4 92.1733 1702.25 86.7867 1708.6 82.84C1714.94 78.84 1722.7 76.8133 1731.88 76.76C1736.52 76.7067 1740.94 77.2933 1745.16 78.52C1749.37 79.7467 1753.13 81.7467 1756.44 84.52C1759.74 87.24 1762.38 90.8667 1764.36 95.4C1766.38 99.88 1767.42 105.373 1767.48 111.88C1767.48 115.133 1767.42 118.147 1767.32 120.92C1767.21 123.693 1766.97 126.067 1766.6 128.04H1702.2L1703.8 114.84H1744.76C1745.02 110.52 1744.78 106.733 1744.04 103.48C1743.34 100.173 1741.96 97.6133 1739.88 95.8C1737.8 93.9333 1734.86 93 1731.08 93C1727.4 93 1724.17 94.0133 1721.4 96.04C1718.68 98.0667 1716.57 101.56 1715.08 106.52C1713.64 111.427 1713.02 118.2 1713.24 126.84C1713.45 132.653 1714.57 137.32 1716.6 140.84C1718.68 144.307 1721.48 146.813 1725 148.36C1728.57 149.853 1732.7 150.6 1737.4 150.6C1739.96 150.6 1742.76 150.387 1745.8 149.96C1748.84 149.533 1751.72 148.973 1754.44 148.28C1757.16 147.533 1759.24 146.787 1760.68 146.04L1764.76 159.32C1762.78 160.92 1760.06 162.413 1756.6 163.8C1753.18 165.133 1749.29 166.2 1744.92 167C1740.6 167.853 1736.14 168.28 1731.56 168.28ZM1780.55 167L1777.19 160.52L1816.47 101.96L1821.11 95H1783.03L1783.11 77.88H1850.87L1853.67 85.4L1814.95 142.76L1810.07 149.72H1851.35V167H1780.55Z" fill="white"/>
<path d="M382.576 302H370.672L397.744 229.904H408.736L435.424 302H423.184L405.376 248.384L403.36 241.52L401.248 248.384L382.576 302ZM384.112 284.48L386.032 276.176H418.768L420.784 284.48H384.112ZM445.742 302V230.672H457.07V302H445.742ZM495.116 302.768C490.764 302.768 487.068 302 484.028 300.464C480.988 298.928 478.524 296.832 476.636 294.176C474.748 291.52 473.372 288.48 472.508 285.056C471.676 281.6 471.276 277.968 471.308 274.16C471.404 268.432 472.54 263.616 474.716 259.712C476.892 255.808 479.836 252.864 483.548 250.88C487.26 248.864 491.436 247.856 496.076 247.856C501.9 247.856 506.556 249.184 510.044 251.84C513.564 254.464 516.092 257.952 517.628 262.304C519.196 266.624 519.948 271.312 519.884 276.368C519.788 282.096 518.652 286.928 516.476 290.864C514.332 294.768 511.404 297.728 507.692 299.744C504.012 301.76 499.82 302.768 495.116 302.768ZM495.404 294.944C499.788 295.008 503.084 293.36 505.292 290C507.532 286.608 508.652 281.92 508.652 275.936C508.652 272.224 508.204 268.864 507.308 265.856C506.412 262.816 505.004 260.384 503.084 258.56C501.196 256.736 498.764 255.808 495.788 255.776C491.436 255.68 488.156 257.248 485.948 260.48C483.74 263.712 482.636 268.32 482.636 274.304C482.636 278.016 483.084 281.424 483.98 284.528C484.876 287.632 486.268 290.128 488.156 292.016C490.044 293.904 492.46 294.88 495.404 294.944ZM548.984 302V239.312H527.001V230.672H582.249V239.312H560.313V302H548.984ZM628.667 302.768C625.563 302.768 622.619 302.528 619.835 302.048C617.083 301.6 614.715 301.056 612.731 300.416C610.747 299.776 609.323 299.184 608.459 298.64L610.811 289.472C612.027 290.176 613.547 290.864 615.371 291.536C617.195 292.208 619.195 292.768 621.371 293.216C623.547 293.632 625.755 293.84 627.995 293.84C632.379 293.84 635.723 293.104 638.027 291.632C640.331 290.16 641.483 287.76 641.483 284.432C641.483 282.192 640.907 280.32 639.755 278.816C638.603 277.28 636.875 275.84 634.571 274.496C632.299 273.152 629.451 271.664 626.027 270.032C623.115 268.592 620.283 266.864 617.531 264.848C614.811 262.832 612.571 260.464 610.811 257.744C609.051 255.024 608.171 251.904 608.171 248.384C608.171 244.928 608.843 242.032 610.187 239.696C611.563 237.328 613.403 235.424 615.707 233.984C618.011 232.544 620.571 231.504 623.387 230.864C626.235 230.224 629.147 229.904 632.123 229.904C636.475 229.904 640.075 230.336 642.923 231.2C645.771 232.032 647.819 232.864 649.067 233.696L646.859 242.576C645.227 241.552 643.307 240.64 641.099 239.84C638.923 239.008 635.931 238.592 632.123 238.592C629.787 238.592 627.627 238.896 625.643 239.504C623.659 240.112 622.059 241.04 620.843 242.288C619.627 243.536 619.019 245.136 619.019 247.088C619.019 249.296 619.467 251.152 620.363 252.656C621.291 254.128 622.779 255.52 624.827 256.832C626.875 258.112 629.563 259.616 632.891 261.344C635.291 262.592 637.659 263.92 639.995 265.328C642.331 266.704 644.443 268.24 646.331 269.936C648.251 271.632 649.771 273.584 650.891 275.792C652.043 277.968 652.619 280.464 652.619 283.28C652.619 287.632 651.595 291.264 649.547 294.176C647.531 297.056 644.715 299.216 641.099 300.656C637.515 302.064 633.371 302.768 628.667 302.768ZM664.276 325.712V248.528H674.356V255.056L675.316 256.208V297.584L675.22 299.792L675.316 308.528V325.712H664.276ZM684.004 302.768C680.708 302.768 677.956 302.352 675.748 301.52C673.54 300.688 672.116 300.016 671.476 299.504L675.316 292.4C676.34 293.264 677.62 293.888 679.156 294.272C680.724 294.624 682.596 294.8 684.772 294.8C687.524 294.8 690.004 294.032 692.212 292.496C694.42 290.928 696.164 288.656 697.444 285.68C698.756 282.672 699.444 279.008 699.508 274.688C699.572 268.288 698.452 263.648 696.148 260.768C693.876 257.856 690.692 256.4 686.596 256.4C684.1 256.4 681.876 256.88 679.924 257.84C678.004 258.768 676.468 259.68 675.316 260.576L673.588 255.104C674.324 254.336 675.332 253.376 676.612 252.224C677.892 251.072 679.588 250.064 681.7 249.2C683.812 248.304 686.468 247.856 689.668 247.856C693.444 247.856 696.932 248.784 700.132 250.64C703.364 252.464 705.956 255.264 707.908 259.04C709.86 262.784 710.836 267.536 710.836 273.296C710.836 279.088 709.716 284.208 707.476 288.656C705.268 293.072 702.148 296.528 698.116 299.024C694.116 301.52 689.412 302.768 684.004 302.768ZM743.985 302.768C736.305 302.768 730.385 300.336 726.225 295.472C722.065 290.608 719.985 283.856 719.985 275.216C719.985 270.032 720.897 265.392 722.721 261.296C724.577 257.2 727.297 253.952 730.881 251.552C734.497 249.152 738.929 247.92 744.177 247.856C746.865 247.792 749.393 248.176 751.761 249.008C754.129 249.84 756.225 251.104 758.049 252.8C759.873 254.464 761.313 256.576 762.369 259.136C763.457 261.696 764.049 264.688 764.145 268.112C764.145 270.128 764.129 271.936 764.097 273.536C764.065 275.104 763.921 276.496 763.665 277.712H726.417L727.377 270.704H753.777C753.937 268.144 753.777 265.728 753.297 263.456C752.849 261.152 751.857 259.296 750.321 257.888C748.817 256.448 746.577 255.728 743.601 255.728C741.105 255.728 738.865 256.432 736.881 257.84C734.897 259.216 733.361 261.552 732.273 264.848C731.185 268.144 730.737 272.656 730.929 278.384C731.121 282.416 731.937 285.6 733.377 287.936C734.817 290.272 736.705 291.936 739.041 292.928C741.377 293.92 743.985 294.416 746.865 294.416C748.081 294.416 749.569 294.288 751.329 294.032C753.089 293.744 754.785 293.392 756.417 292.976C758.081 292.528 759.345 292.048 760.209 291.536L762.321 297.872C761.137 298.832 759.521 299.68 757.473 300.416C755.457 301.152 753.265 301.728 750.897 302.144C748.529 302.56 746.225 302.768 743.985 302.768ZM772.653 275.888C772.653 270.608 773.613 265.856 775.533 261.632C777.453 257.408 780.333 254.064 784.173 251.6C788.013 249.104 792.813 247.856 798.573 247.856C801.933 247.856 804.781 248.16 807.117 248.768C809.453 249.376 811.053 249.968 811.917 250.544L810.189 259.28C808.845 258.352 807.229 257.664 805.341 257.216C803.453 256.736 801.165 256.496 798.477 256.496C796.077 256.496 793.757 257.088 791.517 258.272C789.277 259.424 787.405 261.28 785.901 263.84C784.397 266.4 783.565 269.776 783.405 273.968C783.277 278.384 783.853 282.112 785.133 285.152C786.445 288.16 788.237 290.448 790.509 292.016C792.813 293.552 795.373 294.32 798.189 294.32C800.845 294.32 803.293 293.984 805.533 293.312C807.805 292.64 809.517 291.952 810.669 291.248L812.781 297.68C811.149 299.216 808.845 300.448 805.869 301.376C802.893 302.304 799.725 302.768 796.365 302.768C791.277 302.768 786.973 301.584 783.453 299.216C779.933 296.848 777.245 293.648 775.389 289.616C773.565 285.552 772.653 280.976 772.653 275.888ZM824.328 302V248.624H835.368V302H824.328ZM829.224 239.168C827.368 239.168 825.736 238.576 824.328 237.392C822.952 236.208 822.264 234.592 822.264 232.544C822.264 231.136 822.648 229.872 823.416 228.752C824.216 227.6 825.224 226.688 826.44 226.016C827.656 225.312 828.92 224.96 830.232 224.96C832.504 224.96 834.216 225.6 835.368 226.88C836.52 228.16 837.096 229.728 837.096 231.584C837.096 233.792 836.296 235.616 834.696 237.056C833.128 238.464 831.304 239.168 829.224 239.168ZM864.928 302.768C861.728 302.768 858.88 302.144 856.384 300.896C853.92 299.616 851.968 297.824 850.528 295.52C849.12 293.184 848.416 290.432 848.416 287.264C848.416 283.84 849.328 280.944 851.152 278.576C853.008 276.176 855.488 274.304 858.592 272.96C860.64 272.128 862.864 271.472 865.264 270.992C867.664 270.48 870.064 270.128 872.464 269.936C874.864 269.712 877.088 269.6 879.136 269.6L881.44 272.528L879.136 276.416C877.888 276.416 876.384 276.512 874.624 276.704C872.896 276.864 871.184 277.136 869.488 277.52C867.792 277.872 866.352 278.336 865.168 278.912C863.536 279.648 862.176 280.592 861.088 281.744C860 282.896 859.456 284.496 859.456 286.544C859.456 289.232 860.192 291.264 861.664 292.64C863.168 294.016 865.392 294.704 868.336 294.704C869.84 294.704 871.36 294.48 872.896 294.032C874.432 293.584 875.76 293.072 876.88 292.496C878.032 291.92 878.784 291.424 879.136 291.008L881.344 293.36L879.76 297.488C878.352 298.768 876.32 299.968 873.664 301.088C871.008 302.208 868.096 302.768 864.928 302.768ZM890.224 302H879.76V294.032H879.136V264.56C879.136 261.424 878.304 259.36 876.64 258.368C875.008 257.344 872.672 256.832 869.632 256.832C867.616 256.832 865.536 257.04 863.392 257.456C861.248 257.84 859.28 258.336 857.488 258.944C855.696 259.52 854.32 260.112 853.36 260.72L850.768 252.752C851.504 252.304 852.912 251.68 854.992 250.88C857.104 250.08 859.552 249.36 862.336 248.72C865.152 248.048 867.936 247.712 870.688 247.712C874.688 247.712 878.144 248.176 881.056 249.104C884 250.032 886.256 251.76 887.824 254.288C889.424 256.784 890.224 260.416 890.224 265.184V302ZM906.265 302V223.952H917.401V302H906.265ZM934.671 302V248.624H945.711V302H934.671ZM939.567 239.168C937.711 239.168 936.079 238.576 934.671 237.392C933.295 236.208 932.607 234.592 932.607 232.544C932.607 231.136 932.991 229.872 933.759 228.752C934.559 227.6 935.567 226.688 936.783 226.016C937.999 225.312 939.263 224.96 940.575 224.96C942.847 224.96 944.559 225.6 945.711 226.88C946.863 228.16 947.439 229.728 947.439 231.584C947.439 233.792 946.639 235.616 945.039 237.056C943.471 238.464 941.647 239.168 939.567 239.168ZM959.336 298.832L960.872 290.672C961.352 291.024 962.344 291.504 963.848 292.112C965.384 292.688 967.208 293.232 969.32 293.744C971.464 294.224 973.672 294.48 975.944 294.512C979.016 294.544 981.352 294.016 982.952 292.928C984.552 291.84 985.352 290.32 985.352 288.368C985.352 286.992 984.872 285.792 983.912 284.768C982.952 283.744 981.624 282.8 979.928 281.936C978.264 281.04 976.36 280.112 974.216 279.152C971.336 277.84 968.792 276.416 966.584 274.88C964.376 273.344 962.648 271.536 961.4 269.456C960.184 267.376 959.592 264.88 959.624 261.968C959.688 258.8 960.6 256.176 962.36 254.096C964.152 251.984 966.52 250.416 969.464 249.392C972.408 248.368 975.688 247.856 979.304 247.856C982.664 247.856 985.608 248.208 988.136 248.912C990.664 249.584 992.328 250.16 993.128 250.64L991.496 258.992C990.92 258.512 990.024 258.048 988.808 257.6C987.624 257.12 986.248 256.736 984.68 256.448C983.112 256.16 981.512 256.016 979.88 256.016C976.616 256.016 974.152 256.496 972.488 257.456C970.824 258.384 969.96 259.696 969.896 261.392C969.864 263.728 970.664 265.472 972.296 266.624C973.96 267.776 975.944 268.912 978.248 270.032C981.544 271.632 984.52 273.216 987.176 274.784C989.832 276.32 991.928 278.096 993.464 280.112C995.032 282.096 995.816 284.56 995.816 287.504C995.816 292.496 994.104 296.288 990.68 298.88C987.256 301.472 982.568 302.768 976.616 302.768C974.152 302.768 971.752 302.576 969.416 302.192C967.112 301.808 965.064 301.312 963.272 300.704C961.512 300.096 960.2 299.472 959.336 298.832ZM1023.6 302.768C1021.08 302.768 1018.85 302.368 1016.93 301.568C1015.01 300.768 1013.51 299.36 1012.42 297.344C1011.36 295.296 1010.84 292.4 1010.84 288.656V256.688H1003.92V250.736C1006.29 250.064 1008.1 249.504 1009.35 249.056C1010.6 248.576 1011.51 247.568 1012.08 246.032C1012.34 245.328 1012.63 244.496 1012.95 243.536C1013.27 242.544 1013.62 241.456 1014 240.272C1014.39 239.056 1014.8 237.744 1015.25 236.336H1021.88V248.528H1036.85V256.688H1021.88V282.8C1021.88 286.256 1022.02 288.784 1022.31 290.384C1022.63 291.952 1023.2 292.96 1024.04 293.408C1024.9 293.824 1026.16 294.032 1027.83 294.032C1028.72 294.032 1029.75 293.936 1030.9 293.744C1032.08 293.52 1033.2 293.248 1034.26 292.928C1035.35 292.608 1036.18 292.272 1036.76 291.92L1038.58 298.256C1037.62 298.992 1036.32 299.712 1034.69 300.416C1033.09 301.088 1031.32 301.648 1029.36 302.096C1027.44 302.544 1025.52 302.768 1023.6 302.768Z" fill="white"/>
<rect x="370" y="203" width="1490" height="3" fill="white"/>
<defs>
<linearGradient id="paint0_linear_957_39" x1="100.129" y1="267.066" x2="134.489" y2="254.501" gradientUnits="userSpaceOnUse">
<stop stop-color="#6F2B00"/>
<stop offset="1" stop-color="#F2C151"/>
</linearGradient>
<linearGradient id="paint1_linear_957_39" x1="77.6648" y1="82.233" x2="52.467" y2="126.94" gradientUnits="userSpaceOnUse">
<stop stop-color="#D47C00"/>
<stop offset="1" stop-color="white"/>
</linearGradient>
<linearGradient id="paint2_linear_957_39" x1="249.366" y1="179.125" x2="226.893" y2="169.688" gradientUnits="userSpaceOnUse">
<stop stop-color="#7C4200"/>
<stop offset="1" stop-color="#F4AE28"/>
</linearGradient>
<linearGradient id="paint3_linear_957_39" x1="246.277" y1="150.779" x2="243.696" y2="145.786" gradientUnits="userSpaceOnUse">
<stop stop-color="#F8BC3B"/>
<stop offset="1" stop-color="#FFE87C"/>
</linearGradient>
<linearGradient id="paint4_linear_957_39" x1="31.5547" y1="167.213" x2="67.3398" y2="154.047" gradientUnits="userSpaceOnUse">
<stop stop-color="#914000"/>
<stop offset="1" stop-color="#FFFFE1"/>
</linearGradient>
<linearGradient id="paint5_linear_957_39" x1="112.683" y1="246.768" x2="18.2657" y2="275.533" gradientUnits="userSpaceOnUse">
<stop stop-color="#874200"/>
<stop offset="1" stop-color="#E1C47C"/>
</linearGradient>
<linearGradient id="paint6_linear_957_39" x1="18.9326" y1="216.953" x2="24.5619" y2="217.316" gradientUnits="userSpaceOnUse">
<stop stop-color="#391904"/>
<stop offset="1" stop-color="#1A0C05"/>
</linearGradient>
<linearGradient id="paint7_linear_957_39" x1="185.216" y1="177.824" x2="98.9579" y2="260.159" gradientUnits="userSpaceOnUse">
<stop stop-color="#FB9400"/>
<stop offset="1" stop-color="#FFFFD7"/>
</linearGradient>
<linearGradient id="paint8_linear_957_39" x1="28.9222" y1="157.543" x2="-3.02292" y2="159.096" gradientUnits="userSpaceOnUse">
<stop stop-color="#FBD56C"/>
<stop offset="1" stop-color="white"/>
</linearGradient>
<linearGradient id="paint9_linear_957_39" x1="256.464" y1="158.159" x2="286.041" y2="159.203" gradientUnits="userSpaceOnUse">
<stop stop-color="#F7BC56"/>
<stop offset="1" stop-color="#FFFFB0"/>
</linearGradient>
<linearGradient id="paint10_linear_957_39" x1="157.336" y1="248.889" x2="256.072" y2="287.175" gradientUnits="userSpaceOnUse">
<stop stop-color="#E8A030"/>
<stop offset="1" stop-color="#FACF6B"/>
</linearGradient>
<linearGradient id="paint11_linear_957_39" x1="137.867" y1="44.7656" x2="283.854" y2="61.497" gradientUnits="userSpaceOnUse">
<stop stop-color="#9A5600"/>
<stop offset="1" stop-color="#FFFE96"/>
</linearGradient>
<linearGradient id="paint12_linear_957_39" x1="141.947" y1="51.1111" x2="3.6525" y2="51.5057" gradientUnits="userSpaceOnUse">
<stop stop-color="#E99C14"/>
<stop offset="1" stop-color="#FFFFEF"/>
</linearGradient>
<linearGradient id="paint13_linear_957_39" x1="29.6138" y1="183.449" x2="165.185" y2="95.4831" gradientUnits="userSpaceOnUse">
<stop stop-color="#FFC14F"/>
<stop offset="1" stop-color="#FFFDAB"/>
</linearGradient>
</defs>
</svg>
