<svg width="1813" height="316" viewBox="0 0 1813 316" fill="none" xmlns="http://www.w3.org/2000/svg">
<path d="M130.821 261.193L144.088 261C142.989 261.334 141.801 261.351 140.654 261.435L135.506 261.732C134.582 261.722 133.551 261.613 132.663 261.872C132.24 262.291 132.226 262.559 132.226 263.147C132.227 263.887 132.269 267.14 132.87 267.587C133.218 267.845 133.528 267.872 133.939 267.968L134.056 268L130.691 267.88C130.327 267.721 130.475 267.769 130.097 267.668L129.835 267.601L130.092 267.108L129.779 263.525C129.73 262.431 130.042 261.958 130.821 261.193Z" fill="#FCE49A"/>
<path d="M134.522 268L134.402 267.969C133.978 267.878 133.658 267.852 133.301 267.606C132.682 267.181 132.638 264.083 132.638 263.377C132.637 262.817 132.651 262.563 133.087 262.163C134.001 261.916 135.064 262.02 136.015 262.029C135.552 262.366 135.391 262.397 135.328 262.942C135.232 263.771 135.375 266.52 136.008 267.098C136.528 267.572 137.725 267.636 138.442 267.632L146.919 267.321C148.459 267.244 150.195 267.047 151.722 267.204C149.772 267.548 147.75 267.611 145.769 267.728L134.522 268Z" fill="#FEF5A5"/>
<path d="M118.045 266.939C111.864 265.66 105.962 264.057 99.9971 261.841C97.5663 260.937 95.2527 259.479 92.7888 258.77L92.5596 258.707L96.0645 252.209L96.1518 252C97.8035 252.796 99.4942 253.307 101.186 253.97C104.614 255.314 107.884 256.72 111.461 257.596C113.95 258.205 116.633 258.43 119.066 259.163L125.887 260.114L130.729 260.402C129.959 261.272 129.651 261.809 129.699 263.052L130.009 267.123L129.755 267.683L130.013 267.759C130.386 267.874 130.241 267.82 130.6 268L125.575 267.811L118.045 266.939Z" fill="url(#paint0_linear_980_2)"/>
<path d="M64.5434 92.945C67.7918 89.2043 71.9096 86.2227 75.61 83C76.9078 84.513 78.3131 86.277 79.2004 88.088C79.1165 88.5808 79.087 88.739 78.7338 89.112C77.5873 90.3221 75.9239 91.3725 74.6455 92.4899C73.2511 93.7083 71.9556 95.2096 70.5204 96.3421L66.1255 100.963C61.7062 106.256 57.4375 112.079 54.0626 118.157L51.4635 122.847C50.7829 124.213 50.2055 125.713 49.3995 127C49.4017 126.682 49.382 126.341 49.4556 126.029L49.507 125.858C49.7983 124.792 50.6061 123.242 51.1904 122.299L52.6737 119.777C52.2545 119.714 51.8962 119.561 51.4861 119.481L51.2378 119.437L51.2397 119.17C50.22 118.821 48.7954 118.428 48.0241 117.622L47.9056 117.491L47.7109 117.286C47.719 116.782 47.6745 116.198 47.895 115.737L48.0441 115.496L48.3175 114.931C48.5501 114.507 48.6999 114.302 48.6937 113.806L48.6813 113.425C48.7156 113.12 49.1793 112.522 49.3488 112.236C51.3406 108.08 54.4891 103.938 57.58 100.585C58.8078 98.7518 60.3462 97.2283 61.8473 95.644C62.7441 94.6976 63.5019 93.7362 64.5434 92.945Z" fill="url(#paint1_linear_980_2)"/>
<path d="M49.2751 112.252L49.4492 112.087C50.8418 110.731 51.5133 109.106 52.4986 107.411C53.1823 106.234 54.1202 104.987 55.0128 104C56.3932 104.487 57.5717 105.135 58.8915 105.742C59.4067 105.979 59.7399 106.373 60.1159 106.817C57.3979 111.025 54.5223 115.348 52.4505 120C52.0502 119.936 51.7079 119.779 51.3163 119.696L51.0792 119.65L51.0809 119.376C50.1072 119.018 48.7466 118.614 48.01 117.786L47.8968 117.651L47.7109 117.441C47.7186 116.923 47.6761 116.322 47.8867 115.849L48.0291 115.601L48.2902 115.021C48.5124 114.586 48.6554 114.375 48.6495 113.865L48.6377 113.474C48.6704 113.16 49.1132 112.546 49.2751 112.252Z" fill="#FEFEF8"/>
<path d="M143.963 260.257C149.097 259.57 154.195 258.838 159.228 257.507C164.724 256.054 169.931 254.005 175.258 252C175.848 252.925 176.35 253.927 176.958 254.832C177.729 255.982 179.062 257.178 179.394 258.569C171.21 262.093 162.856 265.349 154.135 266.941C153.054 267.138 151.831 267.509 150.737 267.474C149.231 267.281 147.52 267.522 146.002 267.617L137.643 268C136.936 268.005 135.756 267.926 135.244 267.343C134.619 266.633 134.478 263.255 134.573 262.235C134.635 261.566 134.794 261.528 135.25 261.114L140.477 260.767C141.641 260.669 142.848 260.648 143.963 260.257Z" fill="#FEFEF8"/>
<path d="M235.084 141L236.758 150.056L237.477 160.783C237.765 162.675 237.479 164.854 237.373 166.776C236.689 179.189 233.733 191.009 228.597 202.305C227.734 204.202 227.039 206.247 225.917 208C223.845 206.623 221.526 205.864 219.472 204.466C222.059 200.343 223.704 196.224 225.271 191.628C227.744 184.374 229.478 176.8 230.076 169.139C230.313 166.091 230.209 162.933 230.143 159.875L229.66 152.858C229.312 149.173 228.629 145.523 227.658 141.953L227.905 141.509C228.411 142.54 228.76 143.758 228.936 144.894L229.265 146.256L229.522 146.038L229.682 146.934C229.938 146.85 230.16 146.759 230.403 146.645L230.787 146.482C231.711 146.28 232.597 145.955 233.423 145.455C235.267 144.338 234.473 142.974 234.975 141.33L235.084 141Z" fill="url(#paint2_linear_980_2)"/>
<path d="M234.941 141L236.647 150.085C235.604 150.469 234.637 150.709 233.546 150.914C233.183 150.982 232.944 151.052 232.569 150.944L232.322 150.858C231.568 150.69 230.712 150.733 230.075 150.211C229.511 149.748 229.127 147.102 229.014 146.274L229.275 146.054L229.439 146.953C229.699 146.869 229.925 146.778 230.173 146.664L230.564 146.5C231.506 146.297 232.408 145.971 233.25 145.469C235.129 144.349 234.32 142.981 234.831 141.331L234.941 141Z" fill="url(#paint3_linear_980_2)"/>
<path d="M206.717 101.622C202.246 96.9669 197.973 92.2156 192.754 88.43C193.607 86.5112 194.814 84.7756 195.91 83C199.741 85.6125 203.02 88.565 206.396 91.7743C208.963 94.2145 211.515 96.6536 213.747 99.4376L215.896 102.251C217.771 104.487 219.366 106.941 220.984 109.379C222.529 111.707 224.153 114.102 225.408 116.611C227.5 119.915 229.502 123.9 230.82 127.611L232.21 131.47C232.499 132.354 232.675 133.388 233.034 134.229L234.74 141.131L234.636 141.457C234.157 143.084 234.915 144.433 233.154 145.537C232.365 146.032 231.519 146.353 230.636 146.553L230.27 146.715C230.038 146.827 229.825 146.917 229.582 147L229.429 146.114L229.183 146.33L228.869 144.983C228.701 143.859 228.367 142.654 227.885 141.634L227.648 142.073C226.398 134.46 222.596 127.348 219.498 120.437C218.024 118.318 216.927 115.703 215.599 113.45C213.641 110.13 211.23 107.054 208.828 104.074L206.717 101.622Z" fill="#F6AF16"/>
<path d="M228.029 140.456L227.508 138.781L227.321 138.187C227.184 137.603 226.918 137.063 226.812 136.485C226.736 136.068 226.813 136.336 226.68 135.91L225.398 131.936C224.812 129.991 224.039 127.706 223.125 125.915L222.872 125.414C222.729 125.065 222.689 124.82 222.49 124.484C222.276 124.126 222.328 124.211 222.385 123.817L222.782 123.729L223.054 123.631C224.512 123.143 226.018 121.205 227.074 120C229.436 124.155 231.477 129.167 232.527 133.919L233.043 133.726L234.74 140.9L234.637 141.239C234.16 142.93 234.914 144.332 233.162 145.48C232.377 145.994 231.536 146.328 230.658 146.536L230.294 146.704C230.063 146.82 229.852 146.914 229.609 147L229.457 146.079L229.213 146.304L228.9 144.903C228.733 143.736 228.401 142.483 227.921 141.423L228.029 140.456Z" fill="#FEFEF8"/>
<path d="M232.571 134.189L233.077 134L234.739 141.026L234.638 141.358C234.171 143.013 234.91 144.387 233.194 145.511C232.425 146.015 231.601 146.342 230.741 146.545L230.384 146.71C230.158 146.824 229.951 146.915 229.713 147L229.564 146.098L229.325 146.318L229.019 144.947C228.855 143.803 228.53 142.576 228.06 141.538L228.165 140.591L228.509 141.373L228.615 141.666C228.934 141.818 228.772 141.703 229.066 142.061L228.976 143.027L229.091 142.83L229.358 142.735L229.294 142.314C229.431 142.102 229.56 141.927 229.73 141.743C230.025 141.422 230.885 141.569 231.319 141.569L231.499 141.377C231.822 141.383 232.134 141.404 232.453 141.334L232.66 141.279C233.24 141.147 233.502 141.082 233.93 140.599C234.003 140.199 234.026 140.301 233.968 139.974L233.915 139.725L233.82 139.241C233.746 138.973 233.659 138.764 233.613 138.483L232.571 134.189Z" fill="#FEF5A5"/>
<path d="M110.922 271L119.344 275.634C122.902 277.727 126.437 280.033 130.251 281.585C131.953 282.278 133.766 282.526 135.5 283.101C135.191 283.995 134.822 284.979 134.726 285.929C134.535 287.803 134.706 289.839 134.655 291.741C134.44 299.768 134.327 308.007 134.925 316L120.333 306.27L114.73 302.492C112.981 301.232 111.186 299.834 109.295 298.828C109.06 297.976 108.861 297.149 108.821 296.255C108.654 292.567 109.066 288.807 109.102 285.111V279.079C109.083 277.906 108.946 276.611 109.07 275.451C109.44 276.057 109.234 277.761 109.236 278.578C109.245 281.948 109.528 285.628 109.238 288.965C109.056 291.056 109.048 293.084 109.051 295.2C109.051 295.784 108.937 296.745 109.055 297.284C109.122 297.59 109.603 298.19 109.763 298.511L109.926 298.844C110.578 299.168 111.129 299.657 111.76 300.023L112.356 300.367C112.715 300.627 113.21 300.831 113.508 301.114L113.685 301.301L113.733 300.76L113.915 300.467C113.746 300.154 113.721 299.963 113.75 299.603C113.784 299.185 113.845 298.822 113.781 298.402C113.575 297.048 113.873 295.482 113.778 294.077C113.724 293.278 114.065 292.651 113.964 291.871C113.774 290.406 113.97 288.81 113.823 287.295C113.676 285.782 113.871 284.239 113.755 282.724L113.733 282.478C113.994 282.196 113.915 282.168 113.916 281.79C113.575 281.424 113.776 279.91 113.778 279.333C113.781 278.265 113.965 276.57 113.733 275.598L113.594 275.205C113.576 274.618 113.501 274.096 113.824 273.633C114.163 273.565 114.178 273.547 114.466 273.288L110.843 271.322L110.922 271Z" fill="#F6AF16"/>
<path d="M37.1261 140.848C37.9654 136.282 39.9294 131.578 41.6974 127.312C43.5526 122.834 45.5582 117.882 48.4175 114L48.4301 114.386C48.4364 114.889 48.2839 115.098 48.0471 115.528L47.7687 116.101L47.6168 116.346C47.3923 116.813 47.4376 117.406 47.4294 117.917L47.6276 118.125L47.7482 118.258C48.5337 119.076 49.9843 119.474 51.0225 119.828L51.0207 120.099L51.2735 120.144C51.6911 120.226 52.0559 120.381 52.4828 120.445L50.9724 123.003C50.3774 123.96 49.5548 125.533 49.2583 126.614L49.2059 126.788C49.1309 127.104 49.151 127.45 49.1488 127.773C46.7334 132.665 44.8407 138.179 43.7141 143.548L43.4947 144.485L41.8058 156.19C41.4636 160.594 41.5727 165.024 41.8106 169.43C41.9264 171.576 41.9673 173.796 42.2483 175.925C42.9127 180.958 44.1606 186.309 45.795 191.099C46.8522 194.198 48.2623 197.323 49.5526 200.335C50.1777 201.794 50.6911 203.301 51.3678 204.736C49.406 205.805 47.1436 206.641 45.3681 208C43.6944 204.406 41.9873 200.758 40.6287 197.024C36.2249 184.92 33.6692 171.621 34.5126 158.69L34.5675 158.6C34.5449 155.802 34.9383 153.054 35.2925 150.286C35.582 148.024 35.8607 145.43 36.5656 143.265C36.7 142.428 36.8585 141.65 37.1261 140.848Z" fill="url(#paint4_linear_980_2)"/>
<path d="M17.6389 217.444L23.669 214C23.8445 214.772 23.8794 215.841 24.6433 216.216C24.8173 216.301 24.8905 216.297 25.063 216.316C26.1315 216.477 27.1536 217.597 28.0724 218.188C29.683 219.224 31.5581 220.112 33.0536 221.3L46.0482 229.87C47.5723 230.901 49.3981 231.811 50.7962 232.996C53.6518 234.523 56.3327 236.829 59.0637 238.609L79.435 252.119L91.314 260.255C93.6367 261.688 96.0888 262.834 98.4906 264.107L105.622 267.994L110.193 270.479C110.743 270.801 111.456 271.123 111.907 271.573L111.828 271.886L115.461 273.795C115.172 274.047 115.158 274.065 114.817 274.131C114.493 274.58 114.569 275.087 114.588 275.657L114.727 276.039C114.959 276.982 114.774 278.629 114.772 279.666C114.77 280.226 114.568 281.697 114.911 282.052C114.909 282.419 114.988 282.446 114.727 282.72L114.749 282.959C114.865 284.43 114.669 285.928 114.817 287.398C114.965 288.87 114.768 290.419 114.958 291.842C115.06 292.6 114.717 293.208 114.772 293.984C114.867 295.349 114.568 296.87 114.775 298.185C114.839 298.592 114.778 298.945 114.744 299.351C114.714 299.701 114.74 299.886 114.909 300.191L114.727 300.475L114.679 301L114.501 300.819C114.202 300.543 113.706 300.346 113.346 300.093L112.748 299.759C112.115 299.404 111.562 298.928 110.909 298.614L110.745 298.291C110.584 297.979 110.103 297.396 110.035 297.099C109.916 296.576 110.031 295.642 110.03 295.075C110.028 293.02 110.036 291.051 110.219 289.02C110.51 285.779 110.225 282.206 110.217 278.932C110.215 278.139 110.421 276.485 110.05 275.895C109.926 277.023 110.063 278.28 110.082 279.419V285.277C110.046 288.866 109.633 292.518 109.8 296.099C109.84 296.968 110.04 297.771 110.276 298.599C108.431 297.753 106.846 296.357 105.146 295.244L92.7194 287.217L79.4155 278.821C77.7828 277.769 76.2832 276.501 74.634 275.472L51.7223 260.477L31.1476 247.112C30.5794 246.927 29.8117 246.171 29.2645 245.84L9.2562 232.631C8.39296 232.198 7.63492 231.537 6.83752 230.986L3.71779 229.051C3.17344 228.803 2.68904 228.082 2.17632 227.724C1.76033 227.434 1.36678 227.312 0.954102 226.965C1.32742 227.009 1.89679 227.132 2.25466 227.003C3.35293 226.607 4.68439 225.143 5.72233 224.466L13.1321 220.114L17.6389 217.444Z" fill="url(#paint5_linear_980_2)"/>
<path d="M12.4053 219.827L17.2251 217C17.5064 217.86 17.6059 219.365 18.1306 219.985L12.9351 223C12.8486 222.815 12.9064 222.907 12.7129 222.707C12.4104 222.393 12.4718 220.422 12.4053 219.827Z" fill="#3F1C01"/>
<path d="M17.1758 217.299L23.3762 214C23.5566 214.739 23.5926 215.763 24.3781 216.123C24.5569 216.204 24.6322 216.2 24.8096 216.219L18.0464 220C17.5419 219.439 17.4462 218.078 17.1758 217.299Z" fill="url(#paint6_linear_980_2)"/>
<path d="M12.8741 220C12.9349 220.566 12.8788 222.441 13.1556 222.74C13.3327 222.931 13.2798 222.843 13.359 223.019L13.201 223.225C11.4427 224.005 9.80535 225.216 8.14714 226.213C6.62573 227.128 4.95311 227.701 3.65923 229C3.12641 228.751 2.65228 228.024 2.15042 227.664C1.74325 227.372 1.35803 227.249 0.954102 226.899C1.31951 226.943 1.87681 227.067 2.2271 226.937C3.3021 226.539 4.60534 225.064 5.6213 224.382L12.8741 220Z" fill="#6D3704"/>
<path d="M132.154 192.199L158.393 192.197L163.131 192.165C164.022 192.132 164.97 191.897 165.852 192.053C167.874 192.413 169.803 193.793 171.568 194.833L179.162 199.267L194.606 207.901C201.239 211.733 207.793 215.71 214.7 219L129.085 218.745L119.663 218.732L72.0596 218.74L56.6384 218.758L56.2988 218.786C56.6002 218.449 57.4469 218.189 57.86 217.995L62.2561 215.896C65.5937 214.195 68.8961 211.876 72.34 210.472C75.2352 208.566 78.6141 206.97 81.6739 205.32L89.1482 201.092C89.9141 200.686 90.7369 200.396 91.4951 199.975C92.4815 199.426 93.3991 198.749 94.4002 198.224L100.043 195.365C101.701 194.47 103.769 192.499 105.622 192.241C106.354 192.139 107.17 192.234 107.912 192.227L113.308 192.194L132.154 192.199Z" fill="url(#paint7_linear_980_2)"/>
<path d="M0.743658 226.905L0.52893 226.641C0.194078 226.136 0.229369 225.234 0.213978 224.64L0.125382 220.083L0 201.163L0.0304046 168.961L0.188826 124.369L0.414437 117.994L0.369764 100.59L0.367513 94.4516C0.375771 93.3419 0.293557 92.2249 0.675333 91.1704C1.19676 90.9347 1.29511 90.983 1.86646 91.0803C2.7156 92.0885 3.87933 92.8461 4.92856 93.6301C7.4681 95.5276 10.1131 97.1945 12.7957 98.8709L18.0002 102.144C18.3084 102.348 19.174 102.786 19.3137 103.049L23.4824 105.434C24.1424 105.797 24.8541 106.014 25.3237 106.638L25.7641 125.265L25.728 198.473C25.7277 199.799 25.5107 211.538 25.6939 211.94C25.5351 212.741 25.6045 212.849 24.9322 213.317L23.9273 213.893L17.7727 217.349L13.173 220.029L5.61028 224.396C4.55091 225.076 3.19198 226.546 2.07105 226.943C1.70579 227.072 1.12468 226.948 0.743658 226.905Z" fill="url(#paint8_linear_980_2)"/>
<path d="M12.9852 99L17.7928 102.289C18.0775 102.495 18.8771 102.934 19.0061 103.199L19.0876 103.351C19.4767 104.049 19.9018 104.227 20.5055 104.633C21.6204 105.382 22.8063 105.91 23.856 106.786C22.4991 107.618 21.1928 108.584 19.736 109.19C17.3111 110.199 15.3487 111.577 13.117 113L12.5406 112.059L12.6662 106.798C12.653 104.871 12.1287 102.208 12.6044 100.362L12.6859 100.118L12.9852 99Z" fill="#FCE49A"/>
<path d="M267.999 90L269.444 91.1871C269.771 91.2502 269.92 91.2258 270.175 91.4587L270.558 91.764C270.971 95.1589 270.751 98.7306 270.723 102.147L270.751 119.973L271 179.837L270.967 221.739C270.935 223.222 271.194 225.805 270.386 227L269.779 226.753C268.13 226.103 266.552 224.754 265.051 223.765C262.788 222.273 260.402 220.782 257.991 219.575L248.441 214.179C247.627 213.868 247.122 213.519 246.49 212.902C246.098 211.982 246.207 210.513 246.197 209.513L246.221 202.281L246.277 158.165L246.262 158.15L246.719 106.187L246.885 104.006L246.481 103.706C246.891 103.142 247.709 102.67 248.285 102.292L253.749 99.0642L267.999 90Z" fill="url(#paint9_linear_980_2)"/>
<path d="M267.855 90L269.31 91.1734C269.639 91.2358 269.789 91.2116 270.046 91.4419C268.841 91.6994 267.51 93.2033 266.472 93.9384L258.418 99.4509C255.805 101.159 252.959 102.457 250.345 104.165C249.366 104.714 248.44 105.26 247.365 105.584C247.025 105.686 246.742 105.832 246.43 106L246.598 103.844L246.19 103.547C246.603 102.99 247.427 102.523 248.007 102.149L253.508 98.9593L267.855 90Z" fill="#3F1C01"/>
<path d="M245.757 216C248.968 217.206 251.999 219.391 254.979 221.133C255.578 221.484 256.71 222.359 257.322 222.444C257.575 222.616 258.585 223.19 258.694 223.416L264.114 226.43C265.451 227.172 266.879 227.783 268.112 228.708C268.21 229.285 268.004 229.5 267.754 230.015C265.187 231.279 263.015 233.496 260.423 234.673C259.155 235.848 257.306 236.71 255.853 237.649L242.812 246.02L207.392 269.213L191.274 279.642L190.94 279.462C190.491 280.164 189.617 280.709 188.945 281.168L182.406 285.26L177.788 288.431L171.761 292.183L168.27 294.671L154.251 303.55L148.818 307.014C144.79 309.724 140.777 312.616 136.558 315L136.622 291.598L136.593 288.472C136.543 287.544 136.34 286.537 136.542 285.622L136.603 285.372C136.699 284.953 137.049 283.077 137.336 282.844C137.77 282.491 139.535 282.233 140.104 282.039C141.212 281.661 142.326 281.142 143.411 280.689C147.191 279.108 150.703 276.688 154.265 274.647L174.738 263.49C178.819 261.379 182.591 258.798 186.387 256.201L198.06 248.397C198.793 247.907 199.609 247.572 200.347 247.095L206.133 243.08L224.607 230.657L232.106 225.821L235.927 223.083C239.245 220.9 242.865 218.768 245.757 216Z" fill="url(#paint10_linear_980_2)"/>
<path d="M165.92 51.8323L140.366 35.7625C139.317 35.0564 137.577 33.8298 137.059 32.6316C136.49 31.3145 136.796 28.3735 136.797 26.9197L136.838 9.07923C136.827 6.30333 137.14 2.98381 136.522 0.286446L136.454 0C137.508 0.954817 138.562 1.92966 139.724 2.73701C140.918 3.56632 142.219 4.21044 143.394 5.07054L156.654 14.6684C160.482 17.3438 164.52 19.7709 168.233 22.6107L225.578 61.6188L268.137 90.1074L253.928 99.2294L248.48 102.477C247.906 102.858 247.09 103.334 246.681 103.9L246.271 104L220.737 86.4849C219.331 86.0148 217.816 84.5903 216.559 83.7382L206.728 77.2104L195.5 70.3696L178.938 59.7974L170.483 54.5855C168.953 53.6611 167.379 52.8911 165.92 51.8323Z" fill="url(#paint11_linear_980_2)"/>
<path d="M41.6814 63.6792L135.5 0L135.442 23.3425L135.395 30.2291C135.376 30.7441 135.443 31.7228 135.28 32.1816C135.138 32.5763 134.052 33.5478 133.719 33.8894C132.83 34.8021 131.853 35.2903 130.79 35.9373L125.337 39.2614L101.715 53.9339L84.716 64.6274L80.3294 67.1043L56.2384 82.2987L40.1901 92.7097L28.1573 100.55C27.0782 101.253 26.2179 102.181 24.9706 102.567L24.5749 102.902L24.6149 103.06C24.8373 104.02 24.7999 105.018 24.8039 106C24.3456 105.378 23.6508 105.163 23.0067 104.8L18.9377 102.424C18.8014 102.162 17.9565 101.726 17.6557 101.523L12.5758 98.2626C9.95745 96.5925 7.37574 94.9321 4.89699 93.0418C3.87288 92.2608 2.73702 91.5061 1.9082 90.5018L2.39039 90.2812C2.67216 89.6384 2.89018 89.3693 3.44419 88.9578L24.247 75.3354C24.4375 75.012 25.2334 74.5944 25.5492 74.3746L30.0912 71.3418C33.9183 68.8213 37.6894 65.8958 41.6814 63.6792Z" fill="url(#paint12_linear_980_2)"/>
<path d="M1.9082 90.5402L2.40698 90.3201C2.69844 89.6789 2.92395 89.4105 3.49701 89C6.37483 90.4778 8.88009 92.4079 11.6211 94.1008L19.4685 98.731L23.5023 101.587C24.0962 101.981 24.8538 102.527 25.5819 102.559L25.7638 102.575L25.3545 102.91L25.3958 103.067C25.6259 104.025 25.5872 105.021 25.5914 106C25.1172 105.379 24.3986 105.165 23.7323 104.803L19.5234 102.433C19.3825 102.172 18.5085 101.737 18.1973 101.534L12.9427 98.2817C10.2343 96.6158 7.56379 94.9595 4.99979 93.0739C3.94045 92.2948 2.76552 91.542 1.9082 90.5402Z" fill="#6D3704"/>
<path d="M133.592 58.7729C134.263 57.0835 135.272 55.5475 136.196 54L223.16 217.787L223.289 218C222.057 217.55 220.776 217.141 219.583 216.588C218.208 215.951 216.912 215.088 215.55 214.412C208.867 211.097 202.561 207.299 196.187 203.378L185.683 197.199C184.285 196.358 182.792 196.047 181.566 194.843C180.136 193.438 179.309 191.295 178.37 189.529L175.573 184.399L150.888 138.239L142.981 122.902C142.364 121.639 141.375 120.138 141.017 118.791C140.807 117.999 140.841 117.126 140.783 116.312L140.385 111.123L138.409 77.8979L137.433 60.4565C137.316 59.285 137.063 55.8709 136.347 55.123L136.112 56.2274C135.259 56.5332 135.029 57.0725 134.572 57.8649C134.281 58.3698 134.097 58.5277 133.592 58.7729Z" fill="#F6AF16"/>
<path d="M132.978 57.5683C133.484 57.3209 133.667 57.1616 133.959 56.6522C134.416 55.8527 134.646 55.3086 135.5 55C134.922 58.6257 134.832 62.3299 134.672 65.9967L134.091 78.2705L133.18 96.2931L131.983 116.47C131.907 118.273 129.871 121.138 129.048 122.743L123.857 132.927L119.619 140.332L109.873 158.516L98.941 178.097L93.13 188.869L90.9441 193.225C90.6996 193.725 90.3694 194.631 89.9625 194.976C88.6079 196.123 86.518 197.023 84.9521 197.866L78.4477 201.53L55.8485 214.44C53.4718 215.682 51.1684 217.049 48.665 218C49.1635 216.36 50.0185 214.931 50.7608 213.411L55.2026 204.762L61.5643 192.299L77.958 160.317L105.739 107.737L110.189 99.1254L122.26 77.2051L132.95 57.5756L132.978 57.5683Z" fill="url(#paint13_linear_980_2)"/>
<path d="M344 215H317.68L360.72 95.08H387.76L430.72 215H404L377.68 130.84L374 117.08L370.24 130.84L344 215ZM342.08 189.8L345.36 171.96H399.92L403.2 189.8H342.08ZM442.664 215V85H467.144V215H442.664ZM529.086 216.28C515.38 216.28 504.873 212.2 497.566 204.04C490.26 195.88 486.606 184.6 486.606 170.2C486.606 161.56 488.26 153.827 491.566 147C494.926 140.173 499.78 134.787 506.126 130.84C512.473 126.84 520.233 124.813 529.406 124.76C534.046 124.707 538.473 125.293 542.686 126.52C546.9 127.747 550.66 129.747 553.966 132.52C557.273 135.24 559.913 138.867 561.886 143.4C563.913 147.88 564.953 153.373 565.006 159.88C565.006 163.133 564.953 166.147 564.846 168.92C564.74 171.693 564.5 174.067 564.126 176.04H499.726L501.326 162.84H542.286C542.553 158.52 542.313 154.733 541.566 151.48C540.873 148.173 539.486 145.613 537.406 143.8C535.326 141.933 532.393 141 528.606 141C524.926 141 521.7 142.013 518.926 144.04C516.206 146.067 514.1 149.56 512.606 154.52C511.166 159.427 510.553 166.2 510.766 174.84C510.98 180.653 512.1 185.32 514.126 188.84C516.206 192.307 519.006 194.813 522.526 196.36C526.1 197.853 530.233 198.6 534.926 198.6C537.486 198.6 540.286 198.387 543.326 197.96C546.366 197.533 549.246 196.973 551.966 196.28C554.686 195.533 556.766 194.787 558.206 194.04L562.286 207.32C560.313 208.92 557.593 210.413 554.126 211.8C550.713 213.133 546.82 214.2 542.446 215C538.126 215.853 533.673 216.28 529.086 216.28ZM571.62 215L604.26 167.72L604.66 173L571.62 125.88H598.5L613.86 149.72L620.1 160.2H613.94L619.3 149.64L634.1 125.88H660.82L627.46 172.52V166.36L661.46 215H634.26L618.18 189.64L611.94 179.16H618.82L613.62 189.72L598.9 215H571.62ZM697.891 216.28C692.238 216.28 687.278 215.133 683.011 212.84C678.745 210.547 675.411 207.347 673.011 203.24C670.665 199.133 669.491 194.36 669.491 188.92C669.491 183.48 670.958 178.813 673.891 174.92C676.878 171.027 680.905 167.987 685.971 165.8C689.438 164.36 693.225 163.24 697.331 162.44C701.491 161.64 705.625 161.08 709.731 160.76C713.891 160.44 717.758 160.28 721.331 160.28L725.411 165.32L721.331 173.16C719.411 173.16 717.251 173.293 714.851 173.56C712.451 173.827 710.131 174.227 707.891 174.76C705.705 175.24 703.865 175.8 702.371 176.44C700.291 177.4 698.425 178.68 696.771 180.28C695.171 181.88 694.371 184.333 694.371 187.64C694.371 191.96 695.571 195.16 697.971 197.24C700.371 199.267 703.465 200.28 707.251 200.28C709.225 200.28 711.171 200.013 713.091 199.48C715.065 198.947 716.798 198.333 718.291 197.64C719.785 196.893 720.798 196.2 721.331 195.56L725.571 200.6L722.611 207.48C720.211 209.613 716.905 211.613 712.691 213.48C708.531 215.347 703.598 216.28 697.891 216.28ZM745.731 215H722.611V201.72H721.331V153.72C721.331 149.187 720.131 146.227 717.731 144.84C715.331 143.4 711.891 142.68 707.411 142.68C704.051 142.68 700.531 142.973 696.851 143.56C693.225 144.147 689.785 144.92 686.531 145.88C683.278 146.84 680.558 147.88 678.371 149L673.091 133.64C674.905 132.573 677.731 131.32 681.571 129.88C685.411 128.44 689.811 127.187 694.771 126.12C699.731 125 704.718 124.44 709.731 124.44C717.945 124.44 724.691 125.4 729.971 127.32C735.305 129.24 739.251 132.493 741.811 137.08C744.425 141.667 745.731 148.013 745.731 156.12V215ZM769.699 215V125.96H791.859L792.259 135.96C794.285 134.253 796.872 132.547 800.019 130.84C803.165 129.08 806.632 127.613 810.419 126.44C814.259 125.267 818.125 124.653 822.019 124.6C831.299 124.387 838.125 126.867 842.499 132.04C846.872 137.16 849.059 146.173 849.059 159.08V215H824.579V162.52C824.579 155.587 823.672 150.733 821.859 147.96C820.045 145.187 816.499 143.907 811.219 144.12C809.619 144.173 807.805 144.467 805.779 145C803.805 145.48 801.779 146.227 799.699 147.24C797.672 148.2 795.779 149.4 794.019 150.84V215H769.699ZM928.82 215V203.88L927.06 202.68V142.28L927.7 141.72L927.06 119.16V85H951.22V215H928.82ZM902.58 216.28C896.287 216.28 890.473 214.733 885.14 211.64C879.86 208.493 875.593 203.773 872.34 197.48C869.087 191.187 867.46 183.213 867.46 173.56C867.46 163.693 869.327 155.107 873.06 147.8C876.793 140.44 882.02 134.76 888.74 130.76C895.46 126.76 903.353 124.76 912.42 124.76C917.913 124.76 922.42 125.347 925.94 126.52C929.513 127.693 931.807 128.68 932.82 129.48L927.14 144.92C925.807 143.8 923.913 143.027 921.46 142.6C919.007 142.12 916.207 141.88 913.06 141.88C909.22 141.88 905.753 143 902.66 145.24C899.62 147.427 897.193 150.76 895.38 155.24C893.62 159.667 892.74 165.213 892.74 171.88C892.633 181.107 894.153 187.72 897.3 191.72C900.5 195.72 904.873 197.72 910.42 197.72C913.833 197.72 917.033 197.133 920.02 195.96C923.06 194.787 925.433 193.587 927.14 192.36L930.1 204.52C928.873 205.853 927.113 207.453 924.82 209.32C922.527 211.133 919.567 212.76 915.94 214.2C912.313 215.587 907.86 216.28 902.58 216.28ZM1013.46 216.28C999.755 216.28 989.248 212.2 981.941 204.04C974.635 195.88 970.981 184.6 970.981 170.2C970.981 161.56 972.635 153.827 975.941 147C979.301 140.173 984.155 134.787 990.501 130.84C996.848 126.84 1004.61 124.813 1013.78 124.76C1018.42 124.707 1022.85 125.293 1027.06 126.52C1031.27 127.747 1035.03 129.747 1038.34 132.52C1041.65 135.24 1044.29 138.867 1046.26 143.4C1048.29 147.88 1049.33 153.373 1049.38 159.88C1049.38 163.133 1049.33 166.147 1049.22 168.92C1049.11 171.693 1048.87 174.067 1048.5 176.04H984.101L985.701 162.84H1026.66C1026.93 158.52 1026.69 154.733 1025.94 151.48C1025.25 148.173 1023.86 145.613 1021.78 143.8C1019.7 141.933 1016.77 141 1012.98 141C1009.3 141 1006.07 142.013 1003.3 144.04C1000.58 146.067 998.475 149.56 996.981 154.52C995.541 159.427 994.928 166.2 995.141 174.84C995.355 180.653 996.475 185.32 998.501 188.84C1000.58 192.307 1003.38 194.813 1006.9 196.36C1010.47 197.853 1014.61 198.6 1019.3 198.6C1021.86 198.6 1024.66 198.387 1027.7 197.96C1030.74 197.533 1033.62 196.973 1036.34 196.28C1039.06 195.533 1041.14 194.787 1042.58 194.04L1046.66 207.32C1044.69 208.92 1041.97 210.413 1038.5 211.8C1035.09 213.133 1031.19 214.2 1026.82 215C1022.5 215.853 1018.05 216.28 1013.46 216.28ZM1090.84 156.92L1089.72 139.8C1090.68 137.24 1092.44 134.813 1095 132.52C1097.56 130.173 1100.6 128.28 1104.12 126.84C1107.64 125.347 1111.34 124.6 1115.24 124.6C1116.84 124.6 1118.3 124.68 1119.64 124.84C1121.02 125 1122.04 125.267 1122.68 125.64V149.4C1121.93 148.92 1120.78 148.44 1119.24 147.96C1117.69 147.48 1115.34 147.24 1112.2 147.24C1108.36 147.24 1105.05 147.8 1102.28 148.92C1099.5 149.987 1097.16 151.293 1095.24 152.84C1093.37 154.333 1091.9 155.693 1090.84 156.92ZM1067.88 215V125.96H1089L1090.36 139.88L1092.28 144.12V215H1067.88ZM1200.63 216.28C1195.13 216.28 1189.93 215.88 1185.03 215.08C1180.12 214.28 1175.88 213.32 1172.31 212.2C1168.73 211.08 1166.2 210.067 1164.71 209.16L1168.47 189.32C1170.44 190.493 1173.03 191.667 1176.23 192.84C1179.48 193.96 1183.05 194.92 1186.95 195.72C1190.84 196.467 1194.76 196.84 1198.71 196.84C1205.05 196.84 1209.77 195.853 1212.87 193.88C1215.96 191.907 1217.51 188.733 1217.51 184.36C1217.51 181.267 1216.65 178.68 1214.95 176.6C1213.24 174.467 1210.55 172.387 1206.87 170.36C1203.24 168.333 1198.52 165.933 1192.71 163.16C1187.75 160.76 1183.08 157.907 1178.71 154.6C1174.33 151.293 1170.79 147.347 1168.07 142.76C1165.35 138.173 1163.99 132.813 1163.99 126.68C1163.99 121.133 1165.05 116.36 1167.19 112.36C1169.37 108.307 1172.36 105 1176.15 102.44C1179.93 99.8267 1184.31 97.9067 1189.27 96.68C1194.28 95.4533 1199.64 94.84 1205.35 94.84C1213.56 94.84 1220.31 95.6133 1225.59 97.16C1230.87 98.7067 1234.55 100.147 1236.63 101.48L1232.39 120.52C1229.88 118.707 1226.41 117.08 1221.99 115.64C1217.56 114.147 1212.49 113.4 1206.79 113.4C1203 113.4 1199.69 113.853 1196.87 114.76C1194.09 115.667 1191.93 117 1190.39 118.76C1188.84 120.467 1188.07 122.573 1188.07 125.08C1188.07 128.067 1188.79 130.627 1190.23 132.76C1191.72 134.84 1194.07 136.867 1197.27 138.84C1200.47 140.76 1204.63 142.973 1209.75 145.48C1214.39 147.667 1218.68 149.96 1222.63 152.36C1226.57 154.707 1230.04 157.293 1233.03 160.12C1236.01 162.947 1238.33 166.173 1239.99 169.8C1241.64 173.427 1242.47 177.587 1242.47 182.28C1242.47 189.427 1240.79 195.56 1237.43 200.68C1234.07 205.747 1229.24 209.613 1222.95 212.28C1216.71 214.947 1209.27 216.28 1200.63 216.28ZM1284.14 216.28C1278.49 216.28 1273.53 215.133 1269.26 212.84C1264.99 210.547 1261.66 207.347 1259.26 203.24C1256.91 199.133 1255.74 194.36 1255.74 188.92C1255.74 183.48 1257.21 178.813 1260.14 174.92C1263.13 171.027 1267.15 167.987 1272.22 165.8C1275.69 164.36 1279.47 163.24 1283.58 162.44C1287.74 161.64 1291.87 161.08 1295.98 160.76C1300.14 160.44 1304.01 160.28 1307.58 160.28L1311.66 165.32L1307.58 173.16C1305.66 173.16 1303.5 173.293 1301.1 173.56C1298.7 173.827 1296.38 174.227 1294.14 174.76C1291.95 175.24 1290.11 175.8 1288.62 176.44C1286.54 177.4 1284.67 178.68 1283.02 180.28C1281.42 181.88 1280.62 184.333 1280.62 187.64C1280.62 191.96 1281.82 195.16 1284.22 197.24C1286.62 199.267 1289.71 200.28 1293.5 200.28C1295.47 200.28 1297.42 200.013 1299.34 199.48C1301.31 198.947 1303.05 198.333 1304.54 197.64C1306.03 196.893 1307.05 196.2 1307.58 195.56L1311.82 200.6L1308.86 207.48C1306.46 209.613 1303.15 211.613 1298.94 213.48C1294.78 215.347 1289.85 216.28 1284.14 216.28ZM1331.98 215H1308.86V201.72H1307.58V153.72C1307.58 149.187 1306.38 146.227 1303.98 144.84C1301.58 143.4 1298.14 142.68 1293.66 142.68C1290.3 142.68 1286.78 142.973 1283.1 143.56C1279.47 144.147 1276.03 144.92 1272.78 145.88C1269.53 146.84 1266.81 147.88 1264.62 149L1259.34 133.64C1261.15 132.573 1263.98 131.32 1267.82 129.88C1271.66 128.44 1276.06 127.187 1281.02 126.12C1285.98 125 1290.97 124.44 1295.98 124.44C1304.19 124.44 1310.94 125.4 1316.22 127.32C1321.55 129.24 1325.5 132.493 1328.06 137.08C1330.67 141.667 1331.98 148.013 1331.98 156.12V215ZM1355.95 215V125.96H1378.11L1378.51 135.96C1380.54 134.253 1383.12 132.547 1386.27 130.84C1389.42 129.08 1392.88 127.613 1396.67 126.44C1400.51 125.267 1404.38 124.653 1408.27 124.6C1417.55 124.387 1424.38 126.867 1428.75 132.04C1433.12 137.16 1435.31 146.173 1435.31 159.08V215H1410.83V162.52C1410.83 155.587 1409.92 150.733 1408.11 147.96C1406.3 145.187 1402.75 143.907 1397.47 144.12C1395.87 144.173 1394.06 144.467 1392.03 145C1390.06 145.48 1388.03 146.227 1385.95 147.24C1383.92 148.2 1382.03 149.4 1380.27 150.84V215H1355.95ZM1452.59 171.4C1452.59 162.653 1454.19 154.76 1457.39 147.72C1460.59 140.68 1465.44 135.107 1471.95 131C1478.51 126.84 1486.83 124.76 1496.91 124.76C1502.72 124.76 1507.74 125.24 1511.95 126.2C1516.22 127.16 1519.07 128.147 1520.51 129.16L1517.47 147.8C1515.5 146.573 1513.02 145.587 1510.03 144.84C1507.1 144.093 1503.44 143.72 1499.07 143.72C1495.6 143.72 1492.19 144.52 1488.83 146.12C1485.52 147.72 1482.75 150.36 1480.51 154.04C1478.32 157.72 1477.15 162.653 1476.99 168.84C1476.83 175.507 1477.71 180.973 1479.63 185.24C1481.6 189.453 1484.27 192.573 1487.63 194.6C1491.04 196.573 1494.83 197.56 1498.99 197.56C1503.04 197.56 1506.8 197.133 1510.27 196.28C1513.74 195.427 1516.43 194.52 1518.35 193.56L1521.95 208.52C1519.39 211.08 1515.52 213.027 1510.35 214.36C1505.23 215.64 1499.82 216.28 1494.11 216.28C1484.88 216.28 1477.2 214.333 1471.07 210.44C1464.94 206.493 1460.32 201.133 1457.23 194.36C1454.14 187.587 1452.59 179.933 1452.59 171.4ZM1538.52 215V85H1562.92V119.8L1561.64 138.12L1560.84 135.88C1562.81 134.173 1565.35 132.467 1568.44 130.76C1571.59 129.053 1575.03 127.613 1578.76 126.44C1582.49 125.267 1586.33 124.653 1590.28 124.6C1599.99 124.333 1607.08 127.027 1611.56 132.68C1616.09 138.333 1618.36 147.347 1618.36 159.72V215H1593.8V162.52C1593.8 155.48 1592.79 150.627 1590.76 147.96C1588.73 145.293 1585.21 144.04 1580.2 144.2C1577.96 144.253 1575.21 144.787 1571.96 145.8C1568.71 146.813 1565.69 148.493 1562.92 150.84V215H1538.52ZM1679.56 216.28C1665.85 216.28 1655.34 212.2 1648.04 204.04C1640.73 195.88 1637.08 184.6 1637.08 170.2C1637.08 161.56 1638.73 153.827 1642.04 147C1645.4 140.173 1650.25 134.787 1656.6 130.84C1662.94 126.84 1670.7 124.813 1679.88 124.76C1684.52 124.707 1688.94 125.293 1693.16 126.52C1697.37 127.747 1701.13 129.747 1704.44 132.52C1707.74 135.24 1710.38 138.867 1712.36 143.4C1714.38 147.88 1715.42 153.373 1715.48 159.88C1715.48 163.133 1715.42 166.147 1715.32 168.92C1715.21 171.693 1714.97 174.067 1714.6 176.04H1650.2L1651.8 162.84H1692.76C1693.02 158.52 1692.78 154.733 1692.04 151.48C1691.34 148.173 1689.96 145.613 1687.88 143.8C1685.8 141.933 1682.86 141 1679.08 141C1675.4 141 1672.17 142.013 1669.4 144.04C1666.68 146.067 1664.57 149.56 1663.08 154.52C1661.64 159.427 1661.02 166.2 1661.24 174.84C1661.45 180.653 1662.57 185.32 1664.6 188.84C1666.68 192.307 1669.48 194.813 1673 196.36C1676.57 197.853 1680.7 198.6 1685.4 198.6C1687.96 198.6 1690.76 198.387 1693.8 197.96C1696.84 197.533 1699.72 196.973 1702.44 196.28C1705.16 195.533 1707.24 194.787 1708.68 194.04L1712.76 207.32C1710.78 208.92 1708.06 210.413 1704.6 211.8C1701.18 213.133 1697.29 214.2 1692.92 215C1688.6 215.853 1684.14 216.28 1679.56 216.28ZM1728.55 215L1725.19 208.52L1764.47 149.96L1769.11 143H1731.03L1731.11 125.88H1798.87L1801.67 133.4L1762.95 190.76L1758.07 197.72H1799.35V215H1728.55Z" fill="white"/>
<rect x="323" y="246" width="1490" height="3" fill="white"/>
<defs>
<linearGradient id="paint0_linear_980_2" x1="95.5452" y1="267.066" x2="128.682" y2="255.503" gradientUnits="userSpaceOnUse">
<stop stop-color="#6F2B00"/>
<stop offset="1" stop-color="#F2C151"/>
</linearGradient>
<linearGradient id="paint1_linear_980_2" x1="74.1094" y1="82.233" x2="48.3138" y2="125.906" gradientUnits="userSpaceOnUse">
<stop stop-color="#D47C00"/>
<stop offset="1" stop-color="white"/>
</linearGradient>
<linearGradient id="paint2_linear_980_2" x1="237.951" y1="179.125" x2="216.216" y2="170.415" gradientUnits="userSpaceOnUse">
<stop stop-color="#7C4200"/>
<stop offset="1" stop-color="#F4AE28"/>
</linearGradient>
<linearGradient id="paint3_linear_980_2" x1="235.003" y1="150.779" x2="232.353" y2="145.887" gradientUnits="userSpaceOnUse">
<stop stop-color="#F8BC3B"/>
<stop offset="1" stop-color="#FFE87C"/>
</linearGradient>
<linearGradient id="paint4_linear_980_2" x1="30.1108" y1="167.213" x2="64.6258" y2="155.096" gradientUnits="userSpaceOnUse">
<stop stop-color="#914000"/>
<stop offset="1" stop-color="#FFFFE1"/>
</linearGradient>
<linearGradient id="paint5_linear_980_2" x1="107.525" y1="246.768" x2="16.7398" y2="273.161" gradientUnits="userSpaceOnUse">
<stop stop-color="#874200"/>
<stop offset="1" stop-color="#E1C47C"/>
</linearGradient>
<linearGradient id="paint6_linear_980_2" x1="18.0657" y1="216.953" x2="23.4393" y2="217.284" gradientUnits="userSpaceOnUse">
<stop stop-color="#391904"/>
<stop offset="1" stop-color="#1A0C05"/>
</linearGradient>
<linearGradient id="paint7_linear_980_2" x1="176.737" y1="177.824" x2="90.7611" y2="256.133" gradientUnits="userSpaceOnUse">
<stop stop-color="#FB9400"/>
<stop offset="1" stop-color="#FFFFD7"/>
</linearGradient>
<linearGradient id="paint8_linear_980_2" x1="27.5983" y1="157.543" x2="-2.89098" y2="158.957" gradientUnits="userSpaceOnUse">
<stop stop-color="#FBD56C"/>
<stop offset="1" stop-color="white"/>
</linearGradient>
<linearGradient id="paint9_linear_980_2" x1="244.725" y1="158.159" x2="272.951" y2="159.109" gradientUnits="userSpaceOnUse">
<stop stop-color="#F7BC56"/>
<stop offset="1" stop-color="#FFFFB0"/>
</linearGradient>
<linearGradient id="paint10_linear_980_2" x1="150.133" y1="248.889" x2="245.464" y2="284.162" gradientUnits="userSpaceOnUse">
<stop stop-color="#E8A030"/>
<stop offset="1" stop-color="#FACF6B"/>
</linearGradient>
<linearGradient id="paint11_linear_980_2" x1="131.556" y1="44.7656" x2="271.022" y2="60.018" gradientUnits="userSpaceOnUse">
<stop stop-color="#9A5600"/>
<stop offset="1" stop-color="#FFFE96"/>
</linearGradient>
<linearGradient id="paint12_linear_980_2" x1="135.449" y1="51.1111" x2="3.48497" y2="51.4704" gradientUnits="userSpaceOnUse">
<stop stop-color="#E99C14"/>
<stop offset="1" stop-color="#FFFFEF"/>
</linearGradient>
<linearGradient id="paint13_linear_980_2" x1="28.2578" y1="183.449" x2="161.145" y2="101.171" gradientUnits="userSpaceOnUse">
<stop stop-color="#FFC14F"/>
<stop offset="1" stop-color="#FFFDAB"/>
</linearGradient>
</defs>
</svg>
