<svg width="260" height="250" viewBox="0 0 260 250" fill="none" xmlns="http://www.w3.org/2000/svg">
<path fill-rule="evenodd" clip-rule="evenodd" d="M259.813 116.341C262.512 151.832 235.529 181.511 209.702 205.888C184.842 229.353 154.644 247.216 120.531 247.806C85.8676 248.406 51.1456 235.159 28.2343 209.029C6.45352 184.188 7.21392 149.381 5.26126 116.341C3.11467 80.0192 -10.3588 36.2805 16.5874 11.9567C43.3751 -12.2241 84.9215 6.85348 120.531 12.2886C148.34 16.5331 174.48 22.6404 197.048 39.5003C224.563 60.0558 257.201 82.0019 259.813 116.341Z" fill="white"/>
<path d="M174.079 14.3785C170.267 15.414 167.016 18.8164 166.231 22.5887C165.969 23.8831 165.857 29.0607 165.932 37.6408C166.044 49.9931 166.081 50.7698 166.829 52.397C168.548 56.0583 171.949 58.5362 175.836 58.906C178.938 59.2389 178.938 59.2759 178.938 68.6326C178.938 74.217 179.088 76.8428 179.424 77.4715C180.62 79.8014 183.872 80.6151 185.927 79.1357C186.525 78.7289 189.366 74.4759 192.43 69.4092C195.458 64.4905 198.223 60.1265 198.56 59.7566C199.195 59.054 199.793 59.017 212.388 59.017C228.086 59.017 228.385 58.98 231.636 55.7625C234.29 53.0627 235 51.1026 235 46.0729C235 43.0033 234.888 42.3376 234.215 41.487C233.243 40.2666 231.337 40.1556 230.291 41.3021C229.73 41.9308 229.543 42.8554 229.394 46.0729C229.17 50.5848 228.684 51.6574 226.366 52.8038C225.245 53.3956 223.713 53.4695 211.977 53.4695C198.448 53.4695 197.401 53.5805 195.308 55.0228C194.71 55.4296 192.206 59.1649 189.403 63.7508L184.544 71.7761V66.0437C184.544 62.9002 184.357 59.6827 184.133 58.906C183.348 56.0953 179.985 53.5065 177.144 53.4695C175.313 53.4695 173.556 52.5819 172.547 51.2136L171.65 49.9561L171.538 37.0861C171.426 24.7707 171.463 24.105 172.173 22.6257C172.584 21.7751 173.481 20.7765 174.154 20.3697C175.35 19.6671 176.247 19.6301 200.055 19.5191L224.722 19.4452L226.366 20.2588C228.796 21.5162 229.394 22.8476 229.394 27.3225C229.394 31.3907 229.618 32.0933 231.225 32.7221C232.122 33.0919 232.496 33.0919 233.468 32.6111C234.925 31.8345 235.112 31.0578 234.925 26.0281C234.813 22.6257 234.626 21.5532 233.954 20.2958C232.683 17.8549 231.038 16.2276 228.721 15.1181L226.591 14.0826L201.176 14.0087C182.003 13.9717 175.35 14.0456 174.079 14.3785Z" fill="#2BAA4A"/>
<path d="M101.905 25.0651C96.2996 25.7285 90.9158 28.4191 86.6013 32.7313C83.4669 35.8642 81.5125 39.0707 80.0744 43.383C79.1894 46.0367 79.1156 46.8106 78.9681 54.8823L78.7838 63.5437L77.3087 64.6494C76.4606 65.276 75.3912 66.566 74.875 67.5979C73.9531 69.3302 73.9162 69.7725 73.8056 75.9645C73.6581 83.4096 74.0268 85.4367 75.9812 87.7955C77.7144 89.8964 79.6688 90.7441 83.2088 90.9284L86.1957 91.0758L87.007 94.5035C88.7401 102.059 93.202 108.693 99.4708 113.079L100.651 113.89V118.829C100.651 123.584 100.614 123.805 99.6921 124.874L98.7702 125.979L65.8036 126.2L63.7017 127.196C61.0098 128.449 58.8342 130.697 57.8385 133.314C57.101 135.267 57.0642 135.82 57.2854 141.386L57.5435 147.319L55.5523 150.415C52.8235 154.58 51.4222 157.455 49.9472 161.878C47.8084 168.291 47.5134 170.392 47.2922 179.643C47.1078 188.083 47.1078 188.12 46.0384 190.295C44.8953 192.653 44.7109 194.496 45.4115 196.818C45.9647 198.698 47.9559 201.02 49.9103 202.052L51.4222 202.863L117.982 202.973C165.183 203.047 185.022 202.973 186.202 202.679C191.844 201.315 194.609 195.012 191.77 189.963L190.701 188.083L190.516 179.09C190.369 170.908 190.258 169.692 189.41 166.338C187.787 160.072 185.575 155.059 181.961 149.605L180.375 147.209L180.67 142.049C180.855 139.211 180.855 136.226 180.707 135.378C180.044 131.766 177.536 128.596 174.07 126.974C172.447 126.237 171.747 126.2 155.632 126.016L138.891 125.832L138.116 124.8C137.452 123.878 137.342 123.141 137.231 118.903L137.121 114.038L138.485 113.116C140.771 111.605 144.053 108.399 145.86 105.929L147.556 103.607L151.502 103.46C154.747 103.349 155.78 103.165 157.476 102.391C159.873 101.248 161.901 99.2949 163.044 96.9361C163.855 95.2775 163.892 94.8721 164.003 82.8936C164.15 68.4088 164.077 68.1139 161.274 65.3128L159.356 63.3963L159.209 54.9929C159.061 46.8844 159.025 46.5158 158.103 44.5255C156.222 40.4344 152.682 37.7439 148.515 37.2279L146.561 37.0067L146.303 35.0533C145.897 32.3259 144.533 29.8565 142.32 27.8662C138.964 24.8439 139.186 24.8808 120.748 24.8071C111.824 24.7702 103.343 24.8808 101.905 25.0651ZM135.83 30.5568C138.743 31.2202 140.329 33.063 140.882 36.4539C141.066 37.7439 141.583 39.3656 141.988 40.029C142.873 41.4664 145.381 42.7195 147.335 42.7195C149.142 42.7195 151.428 44.0095 152.498 45.5944C153.604 47.2161 153.825 49.7592 153.678 59.5631C153.567 67.1925 153.53 67.8191 152.83 68.4457C152.129 69.1091 147.077 71.0994 146.118 71.0994C145.749 71.0994 145.639 69.6619 145.639 65.2022C145.639 59.2683 145.27 56.3566 144.274 54.3295C142.32 50.4963 138.485 47.9532 134.06 47.6215C131.921 47.4372 130.557 47.6215 127.164 48.4324C121.338 49.8329 116.36 49.8329 110.976 48.4324C104.007 46.6264 99.3233 47.6215 95.7096 51.6021C92.9439 54.6612 92.5383 56.3197 92.5383 64.2808C92.5383 69.4777 92.4276 71.0994 92.0958 71.0994C91.0264 71.0994 85.7532 69.1091 85.1263 68.4825C84.4626 67.8191 84.4257 67.082 84.4257 58.2732C84.4257 47.6584 84.6838 45.8524 86.7857 41.6875C89.8095 35.6799 95.7464 31.4413 102.421 30.5936C105.777 30.1513 134.023 30.1145 135.83 30.5568ZM109.612 53.8135C115.954 55.4352 122.776 55.3983 128.529 53.7766C134.466 52.0812 138.485 53.5923 139.702 58.052C139.923 58.826 140.108 62.4011 140.108 65.9394C140.108 71.3574 140.218 72.6105 140.771 73.6793C141.583 75.301 143.537 76.6279 145.123 76.6279H146.376V83.1884C146.376 88.8275 145.971 93.4715 145.418 94.3929C145.307 94.5404 144.496 94.2455 143.537 93.7664C141.951 92.9187 141.472 92.8449 136.272 92.8449C131.184 92.8449 130.594 92.9187 129.229 93.6927C125.21 95.9778 124.177 101.543 127.091 105.045C128.455 106.629 130.52 107.588 133.507 107.883L136.088 108.141L134.134 109.431C129.266 112.6 123.661 114.075 117.614 113.743C110.275 113.374 104.597 110.831 99.3602 105.561C96.6314 102.833 95.7464 101.691 94.4927 99.1106C92.1326 94.2824 91.727 91.9604 91.6533 83.815L91.6164 76.849L93.0176 76.591C94.6033 76.333 96.0046 75.4116 97.1108 73.9005C97.8114 72.9791 97.8852 72.2419 98.0696 65.0548L98.254 57.2043L99.3233 55.8406C100.614 54.1452 102.827 53.0763 105.002 53.0395C105.887 53.0395 107.952 53.3712 109.612 53.8135ZM158.545 76.849V83.3359L157.476 84.4047C156.517 85.363 156.148 85.4736 154.157 85.4736H151.908V75.1905L153.862 74.3059C155.005 73.7899 156.37 72.7579 157.107 71.8734C157.808 71.0625 158.398 70.3622 158.471 70.3622C158.508 70.3622 158.545 73.2739 158.545 76.849ZM81.2544 72.3525C82.2132 73.3108 83.5038 74.1953 84.3888 74.4533L85.9007 74.8956V85.4736H84.0938C79.7425 85.4736 79.2631 84.589 79.2631 76.6279C79.2631 73.3845 79.3369 70.7308 79.4475 70.7308C79.5213 70.7308 80.3325 71.4679 81.2544 72.3525ZM158.398 93.8032C158.066 95.0564 156.333 96.9361 154.968 97.4889C154.305 97.7838 152.977 98.0049 151.981 98.0049H150.211L150.838 95.4986C151.207 94.1349 151.502 92.5869 151.502 91.9972C151.539 91.0021 151.539 91.0021 154.231 90.9652C155.669 90.9652 157.218 90.8178 157.623 90.6704C158.25 90.4124 158.361 90.523 158.471 91.6655C158.545 92.3658 158.508 93.3241 158.398 93.8032ZM141.398 99.1106C142.246 100.069 141.878 101.617 140.624 102.059C140.108 102.28 138.227 102.428 136.42 102.428C134.613 102.428 132.732 102.28 132.216 102.059C131.11 101.654 130.667 100.253 131.257 99.1475C131.626 98.4103 131.958 98.3735 136.199 98.3735C140.218 98.3735 140.808 98.4472 141.398 99.1106ZM109.759 118.166C112.709 119.05 113.52 119.161 118.904 119.161C124.767 119.161 125.689 119.013 130.926 117.318C131.479 117.134 131.552 117.613 131.7 120.93C131.811 122.994 131.995 125.021 132.179 125.353C132.437 125.979 131.663 126.016 118.941 126.016H105.445L105.813 125.058C106.035 124.542 106.182 122.552 106.182 120.635C106.182 118.718 106.256 117.171 106.367 117.171C106.477 117.171 107.989 117.613 109.759 118.166ZM172.078 132.245C173.701 132.982 174.586 134.051 175.102 135.857C175.287 136.484 174.918 145.808 174.18 159.372C173.517 171.756 172.927 182.628 172.927 183.587V185.356H129.414L129.635 184.361C130.114 182.26 131.663 179.348 133.691 176.768C138.448 170.76 139.776 164.053 137.526 157.529C136.088 153.364 133.986 150.526 130.372 147.872C128.602 146.545 127.939 146.287 126.574 146.287C125.173 146.287 124.73 146.472 123.661 147.541L122.407 148.794V155.944C122.407 159.851 122.26 163.279 122.075 163.537C121.891 163.868 120.969 163.979 118.867 163.905L115.954 163.795L115.77 156.423C115.585 148.425 115.364 147.651 113.336 146.73C110.976 145.624 108.1 146.84 104.707 150.379C101.278 153.954 99.5077 158.487 99.5077 163.795C99.5077 168.991 100.835 172.493 104.338 176.879C106.367 179.348 107.842 182.149 108.247 184.176L108.505 185.356H65.3611L65.103 183.66C64.9924 182.702 64.8817 180.896 64.8817 179.606C64.8817 176.879 64.4024 175.626 63.1486 175.073C61.8948 174.483 61.4155 174.557 60.2723 175.478L59.2398 176.289L59.4611 180.786L59.6454 185.319L52.7129 185.54V180.417C52.7129 171.94 54.2248 164.495 57.101 158.929L58.2073 156.792L58.2442 159.556C58.3179 163.795 58.7604 166.227 59.5717 166.817C60.6411 167.591 62.6692 167.259 63.4436 166.19C64.1074 165.306 64.1074 164.79 63.333 151.042C62.9273 143.228 62.6692 136.373 62.8167 135.857C63.1117 134.567 64.808 132.65 66.1724 132.061C67.0574 131.655 76.7925 131.582 118.904 131.582C168.797 131.545 170.567 131.582 172.078 132.245ZM131.774 158.082C132.806 160.219 132.917 160.846 132.917 163.795C132.917 167.738 132.032 169.986 129.045 173.746C126.722 176.658 125.21 179.643 124.362 182.85L123.735 185.356H118.83C114 185.356 113.926 185.356 113.926 184.508C113.926 182.112 111.529 176.989 109.022 173.893C105.777 169.876 104.633 166.374 105.15 161.878C105.297 160.588 105.85 158.708 106.367 157.639C107.325 155.76 109.317 153.29 109.943 153.29C110.091 153.29 110.238 155.87 110.238 159.003C110.238 165.232 110.423 165.932 112.34 167.738C113.852 169.176 115.069 169.507 118.941 169.507C123.919 169.507 125.91 168.586 127.238 165.637C127.791 164.421 127.939 163.168 127.939 158.45L127.976 152.737L129.303 154.212C130.004 155.023 131.147 156.755 131.774 158.082ZM182.551 162.947C184.432 168.033 185.095 172.419 185.095 179.348V185.54L178.458 185.319V183.955C178.458 181.781 179.564 161.436 179.785 159.187L180.007 157.16L180.781 158.635C181.187 159.445 181.998 161.399 182.551 162.947ZM186.349 191.953C187.677 193.206 187.677 195.197 186.349 196.45L185.39 197.334H52.2704L51.3853 196.302C50.4266 195.197 50.2422 193.87 50.906 192.69C51.9016 190.847 48.9516 190.921 119.531 190.995L185.39 191.069L186.349 191.953Z" fill="#020054"/>
<path d="M179.573 27.3622C177.623 28.187 177.157 30.9655 178.725 32.4849C179.531 33.2664 180.209 33.44 182.583 33.44C185.041 33.44 185.55 33.3098 186.44 32.3547C187.034 31.7903 187.5 31.0089 187.5 30.6616C187.5 29.446 186.567 27.8832 185.508 27.4056C184.321 26.8412 180.887 26.7978 179.573 27.3622Z" fill="#828282"/>
<path d="M193.387 27.3619C191.685 28.1434 191.307 30.4878 192.555 32.3112L193.311 33.44H206.927C220.013 33.44 220.542 33.3966 221.261 32.5717C222.395 31.2693 222.282 28.9683 221.034 27.8395C220.051 26.9712 219.635 26.9278 207.116 26.9712C200.043 26.9712 193.841 27.1448 193.387 27.3619Z" fill="#828282"/>
<path d="M179.483 41.4273C177.668 42.1951 177.214 44.3524 178.576 45.6687C179.332 46.4 179.823 46.4 200.091 46.4H220.887L221.455 45.5956C222.324 44.4255 222.211 42.6339 221.266 41.7929C220.509 41.1348 219.526 41.0982 200.544 41.0251C184.399 40.952 180.428 41.0251 179.483 41.4273Z" fill="#828282"/>
</svg>
