<svg width="260" height="250" viewBox="0 0 260 250" fill="none" xmlns="http://www.w3.org/2000/svg">
<path fill-rule="evenodd" clip-rule="evenodd" d="M259.813 116.341C262.512 151.832 235.529 181.511 209.702 205.888C184.842 229.353 154.644 247.216 120.531 247.806C85.8676 248.406 51.1456 235.159 28.2343 209.029C6.45352 184.188 7.21392 149.381 5.26126 116.341C3.11467 80.0192 -10.3588 36.2805 16.5874 11.9567C43.3751 -12.2241 84.9215 6.85348 120.531 12.2886C148.34 16.5331 174.48 22.6404 197.048 39.5003C224.563 60.0558 257.201 82.0019 259.813 116.341Z" fill="white"/>
<path d="M111.575 47.4814C104.345 48.4584 96.4312 50.6079 95.2263 51.9106C93.2071 54.1577 93.3699 57.1865 95.6496 58.9777C97.1152 60.1175 98.3202 60.1175 102.098 59.0428C110.077 56.7631 118.382 55.8186 125.872 56.4049C136.001 57.1865 143.003 59.108 151.307 63.3743C157.332 66.5008 158.733 67.3801 158.505 68.0314C158.407 68.292 158.147 69.5295 157.919 70.7671C156.29 80.635 165.67 89.7865 175.57 88.0278C185.112 86.3017 190.746 76.5641 187.49 67.4778C185.08 60.834 177.687 56.5351 170.718 57.7076C169.48 57.903 167.558 58.5217 166.451 59.0428L164.465 59.9873L161.143 58.0007C151.34 52.1711 142.026 48.8818 131.181 47.4488C126.458 46.83 116.167 46.8626 111.575 47.4814Z" fill="#020054"/>
<path d="M66.96 57.7744C64.6477 58.1978 61.5864 59.761 59.6975 61.4545C54.6495 65.9814 53.1514 73.3091 56.0499 79.334L56.9618 81.2555L55.3335 84.0563C47.4196 97.7021 44 109.915 44 124.472C44 132.81 45.0096 139.714 47.2567 147.009C48.0058 149.419 48.4617 150.331 49.2108 150.982C51.9464 153.262 56.2453 151.797 56.8967 148.377C57.0595 147.563 56.8641 146.39 56.2453 144.404C54.1936 137.499 53.3794 132.028 53.3794 124.472C53.3794 116.461 54.3564 110.208 56.7664 103.011C57.6457 100.275 62.8565 89.3648 63.9313 87.9318C64.3221 87.3782 64.4849 87.3782 66.96 87.8993C75.4276 89.6253 83.7648 83.7306 85.1001 75.0351C86.3376 67.219 80.8989 59.533 73.0176 57.8395C70.6076 57.351 69.3049 57.3185 66.96 57.7744Z" fill="#1CED80"/>
<path d="M188.372 97.4391C186.125 98.807 185.571 100.891 186.613 104.018C190.293 115.188 190.684 129.42 187.623 141.21C186.288 146.453 184.985 149.808 181.891 156.093C179.22 161.564 179.123 161.662 178.243 161.467C173.456 160.392 171.306 160.425 167.854 161.662C161.08 164.04 156.651 171.628 157.954 178.695C159.908 189.475 172.284 194.816 181.468 188.921C187.72 184.915 190.033 177.164 187.102 169.869L186.288 167.85L188.242 164.365C194.039 153.911 197.621 143.001 198.728 132.351C199.282 126.913 198.956 116.524 198.044 111.443C197.263 106.916 195.341 99.9468 194.592 98.807C193.843 97.6671 192.15 96.7878 190.717 96.7878C190 96.7878 188.958 97.0809 188.372 97.4391Z" fill="#1CED80"/>
<path d="M66.7986 160.946C64.0629 161.532 60.8387 163.389 58.787 165.571C49.5053 175.634 56.5398 191.494 70.2182 191.299C72.8561 191.267 75.8197 190.517 77.4481 189.41C78.1972 188.954 78.36 188.987 80.8351 190.42C85.0363 192.83 92.1035 196.282 95.4905 197.519C99.0077 198.855 104.772 200.353 109.625 201.232C112.23 201.688 114.64 201.818 121.512 201.818C129.133 201.818 130.631 201.721 134.376 201.037C139.066 200.223 146.003 198.301 147.175 197.552C149.813 195.826 149.78 191.527 147.142 189.768C145.644 188.791 144.342 188.857 140.238 190.029C125.55 194.263 108.68 193.253 95.4905 187.358C92.5594 186.056 86.1436 182.766 84.7758 181.855C84.4501 181.627 84.4827 181.138 84.9061 179.314C86.6321 171.921 82.2681 164.073 74.973 161.565C72.8235 160.816 68.8829 160.523 66.7986 160.946Z" fill="#020054"/>
<path d="M122.312 86.6745C129.704 87.3707 136.354 89.8591 141.939 94.0363C151.7 101.324 157.27 112.389 157.27 124.506C157.27 136.681 151.715 147.657 141.82 155.079C136.976 158.693 131.066 161.092 124.578 162.085C122.208 162.44 116.772 162.44 114.239 162.07C109.988 161.463 106.166 160.263 102.389 158.367C98.4344 156.367 96.0347 154.56 95.2349 153.005C93.1759 148.946 95.4719 144.177 99.9156 143.317C101.812 142.932 103.204 143.317 105.53 144.828C111.514 148.709 117.824 149.924 124.638 148.502C129.2 147.554 133.599 145.095 136.991 141.599C140.443 138.029 142.576 133.926 143.598 128.831C143.968 127.009 143.968 122.002 143.598 120.18C142.576 115.085 140.443 110.982 136.991 107.412C128.696 98.8651 115.824 97.4876 105.737 104.064C104.833 104.642 103.767 105.249 103.352 105.412C99.1453 107.012 94.4646 103.724 94.4646 99.2058C94.4794 95.7545 96.405 93.666 102.389 90.6442C107.692 87.978 112.61 86.7782 118.683 86.6745C120.312 86.6448 121.942 86.6448 122.312 86.6745Z" fill="#020054"/>
</svg>
