<svg width="260" height="250" viewBox="0 0 260 250" fill="none" xmlns="http://www.w3.org/2000/svg">
<path fill-rule="evenodd" clip-rule="evenodd" d="M259.813 116.341C262.512 151.832 235.529 181.511 209.702 205.888C184.842 229.353 154.644 247.216 120.531 247.806C85.8676 248.406 51.1456 235.159 28.2343 209.029C6.45352 184.188 7.21392 149.381 5.26126 116.341C3.11467 80.0192 -10.3588 36.2805 16.5874 11.9567C43.3751 -12.2241 84.9215 6.85348 120.531 12.2886C148.34 16.5331 174.48 22.6404 197.048 39.5003C224.563 60.0558 257.201 82.0019 259.813 116.341Z" fill="white"/>
<path d="M113.827 31.4153C95.2723 35.1116 84.1835 53.776 89.9292 71.5254C93.1131 81.4065 100.725 88.7625 110.972 91.9098C113.827 92.7515 114.778 92.8613 119.499 92.8613C124.22 92.8613 125.172 92.7515 128.026 91.9098C138.676 88.6527 146.142 81.187 149.399 70.5373C150.241 67.6827 150.35 66.7312 150.35 62.0102C150.35 57.2893 150.241 56.3377 149.399 53.4832C146.142 42.8335 138.566 35.258 128.026 32.1473C124.001 30.9762 117.706 30.6468 113.827 31.4153Z" fill="#020054"/>
<path d="M91.685 99.5601C87.147 101.756 81.6209 105.306 78.6931 107.904L76.8633 109.514L77.7782 109.88C91.7948 115.224 119.133 125.324 119.572 125.324C119.974 125.324 152.985 113.101 161.036 109.954L162.134 109.514L160.341 107.904C157.632 105.416 151.996 101.829 147.312 99.5601C145.006 98.4256 142.884 97.5107 142.628 97.5107C142.372 97.5107 140.834 98.2426 139.151 99.1209C127.184 105.599 112.728 105.672 100.285 99.3405C98.309 98.3524 96.5158 97.5107 96.2962 97.5107C96.0766 97.5107 93.9906 98.4256 91.685 99.5601Z" fill="#020054"/>
<path d="M57.9803 116.649C55.7113 118.149 55.4551 119.174 55.4551 126.677V133.374H57.1019C64.8239 133.374 71.7406 138.936 73.3509 146.475C73.8633 149.001 73.8999 165.286 73.3509 167.848C72.7654 170.666 70.6427 174.435 68.6299 176.338C65.629 179.156 61.1276 180.95 57.1019 180.95H55.4551V187.171C55.4551 193.868 55.7113 195.076 57.3215 196.576C57.8339 197.016 69.7278 201.663 86.0134 207.775L113.827 218.205L113.937 176.814C113.973 154.051 113.9 135.313 113.754 135.167C113.571 135.021 101.97 130.629 87.9164 125.359C69.0691 118.332 61.9327 115.807 60.7982 115.807C59.7735 115.807 58.7854 116.1 57.9803 116.649Z" fill="#2BAA4A"/>
<path d="M150.789 125.506L125.171 135.131L125.061 176.705L124.988 218.279L127.806 217.218C156.279 206.678 180.981 197.2 181.677 196.577C183.287 195.077 183.543 193.869 183.543 187.172V180.951H181.896C174.174 180.951 167.258 175.388 165.647 167.849C165.098 165.324 165.098 149.038 165.647 146.476C166.343 143.256 167.77 140.694 170.185 138.315C173.406 135.131 177.541 133.375 181.896 133.375H183.543V126.678C183.543 119.175 183.287 118.15 181.018 116.65C178.639 115.04 178.42 115.113 150.789 125.506Z" fill="#2BAA4A"/>
<path d="M50.076 144.903C46.3431 146.038 43.635 148.417 41.9515 152.04C41.1464 153.723 41 154.565 41 157.163C41 159.945 41.1464 160.567 42.2077 162.726C43.5984 165.544 45.5746 167.484 48.4657 168.801C50.1492 169.606 51.1739 169.789 54.3944 169.899C59.0788 170.082 60.8355 169.423 62.0431 167.044C62.7019 165.727 62.7751 164.922 62.7751 157.163C62.7751 149.405 62.7019 148.6 62.0431 147.282C60.9086 145.05 59.1886 144.354 55.0166 144.391C53.1501 144.391 50.9177 144.611 50.076 144.903Z" fill="#020054"/>
<path d="M179.079 145.086C178.237 145.525 177.396 146.404 176.957 147.282C176.298 148.6 176.225 149.441 176.225 157.163C176.225 164.922 176.298 165.727 176.957 167.044C178.164 169.423 179.921 170.082 184.642 169.899C188.119 169.789 188.741 169.679 190.937 168.581C193.754 167.191 195.694 165.215 197.048 162.323C197.853 160.603 198 159.762 198 157.163C198 154.565 197.853 153.723 197.048 152.003C195.694 149.112 193.754 147.136 190.937 145.745C188.704 144.647 188.192 144.537 184.459 144.428C180.982 144.354 180.25 144.464 179.079 145.086Z" fill="#020054"/>
</svg>
