<svg width="260" height="250" viewBox="0 0 260 250" fill="none" xmlns="http://www.w3.org/2000/svg">
<path fill-rule="evenodd" clip-rule="evenodd" d="M259.813 116.341C262.512 151.832 235.529 181.511 209.702 205.888C184.842 229.353 154.644 247.216 120.531 247.806C85.8676 248.406 51.1456 235.159 28.2343 209.029C6.45352 184.188 7.21392 149.381 5.26126 116.341C3.11467 80.0192 -10.3588 36.2805 16.5874 11.9567C43.3751 -12.2241 84.9215 6.85348 120.531 12.2886C148.34 16.5331 174.48 22.6404 197.048 39.5003C224.563 60.0558 257.201 82.0019 259.813 116.341Z" fill="white"/>
<path d="M108.795 18.723C96.7526 21.3038 87.2532 32.5829 87.2052 44.3399V46.6339H60.8179C31.696 46.6339 32.4636 46.5383 29.2491 49.6448C26.0827 52.6558 26.0347 52.8469 25.7948 66.1333L25.5549 78.2249L23.0121 79.0851C20.1335 80.0888 17.5908 82.2872 16.0555 85.107C15.048 86.9709 15 87.5444 15 102.073C15 116.077 15.048 117.271 15.9595 119.04C17.4468 122.003 20.0855 124.345 23.1081 125.301L25.7468 126.113L26.0347 167.884L27.474 170.178C28.4815 171.755 29.7289 172.902 31.552 173.954L34.1908 175.435L113.592 175.722V194.696L106.06 194.887C99.3434 195.03 98.1919 195.174 95.937 196.177C91.2832 198.28 87.9728 202.868 87.0133 208.747C86.3896 212.235 83.367 211.997 129.905 211.997C176.538 211.997 173.468 212.235 172.844 208.699C171.836 202.868 168.526 198.232 163.872 196.177C161.617 195.174 160.466 195.03 153.797 194.887L146.217 194.696V175.674H157.395C169.486 175.674 170.445 175.483 170.109 173.237L169.965 172.09L34.6705 171.612L32.9913 170.56C29.537 168.41 29.6329 169.031 29.6329 146.329V125.97H43.4983L49.1116 130.032C52.1821 132.278 55.1087 134.094 55.5884 134.094C56.8838 134.094 57.4595 132.613 57.4595 129.172V126.113L60.3381 125.826C65.6636 125.348 69.7896 121.812 70.8931 116.746C71.2769 115.121 71.3728 109.625 71.2769 100.64C71.1329 87.7356 71.085 86.9231 70.0775 85.107C68.7341 82.6218 66.3353 80.3755 63.9364 79.2763C62.2572 78.5116 60.1942 78.416 45.8491 78.2726L29.6329 78.1293V66.8024C29.6329 56.3358 29.7289 55.38 30.5925 53.8984C31.1202 53.0381 32.2237 51.9389 33.0873 51.4132C34.6225 50.5051 35.5821 50.4573 60.9618 50.4573H87.2052V54.3763C87.2052 57.674 87.0133 58.7732 86.0058 60.6849C84.7104 63.218 84.5185 64.9863 85.2861 67.7583C85.8618 69.8133 88.6925 72.4419 90.2757 72.4419C91.1873 72.4419 91.5231 72.8243 92.0029 74.5926C93.2983 79.1329 97.5682 84.9636 102.03 88.3569L104.861 90.4598L101.934 91.2723C92.4827 93.9008 83.8948 101.07 79.241 110.294C75.7867 117.128 75.5468 118.61 75.3549 137.01C75.163 152.017 75.211 153.594 75.9306 154.359C76.6983 155.075 80.0087 155.123 120.693 155.028L164.688 154.884L166.655 153.833C173.468 150.201 175.147 141.646 170.109 136.197C169.054 135.05 167.806 133.999 167.279 133.856C166.799 133.664 166.367 133.378 166.367 133.186C166.367 132.947 170.493 123.819 175.483 112.875C183.063 96.3383 184.55 92.8016 184.118 92.0369C183.543 90.9377 182.103 90.7943 181.336 91.7024C181.048 92.0369 177.114 100.401 172.604 110.246C168.094 120.091 164.208 128.312 163.92 128.551C163.68 128.837 163.488 127.595 163.488 125.205C163.488 114.977 157.923 104.033 149.479 97.6765C145.305 94.5222 142.954 93.2317 137.917 91.559L134.175 90.2686L135.998 89.0738C140.412 86.1106 144.873 80.3755 146.745 75.2617C147.656 72.8243 147.944 72.4897 149.335 72.2508C153.653 71.4383 155.62 64.7473 152.886 60.1114C152.166 58.8688 151.974 57.6262 151.974 54.4719V50.4573H188.58C224.227 50.4573 225.187 50.5051 226.722 51.4132C227.586 51.9389 228.689 53.0381 229.217 53.8984C230.128 55.4277 230.176 56.3836 230.176 82.335V109.242H197.744L195.105 110.533C192.179 112.062 189.684 114.977 188.916 117.893C188.58 119.135 188.436 124.87 188.532 133.999C188.676 147.476 188.724 148.289 189.732 150.105C191.843 154.024 195.105 156.222 199.855 156.844L202.35 157.178V160.428C202.35 162.722 202.59 163.869 203.117 164.395C204.269 165.59 204.173 165.638 211.321 160.524L216.119 157.035H230.176V161.766C230.176 165.829 230.032 166.641 229.121 168.027C226.626 171.612 226.818 171.564 212.041 171.851L198.751 172.09L198.608 173.237C198.272 175.483 199.231 175.674 211.273 175.674C217.366 175.674 223.555 175.435 224.947 175.196C228.353 174.527 231.04 172.568 232.719 169.461C233.918 167.167 234.014 166.498 234.014 161.766C234.014 156.844 234.062 156.557 234.974 156.557C236.749 156.557 240.251 154.55 241.979 152.59C244.857 149.197 245.145 147.429 244.953 131.848C244.809 118.132 244.809 118.036 243.562 115.694C242.123 112.875 239.052 110.389 236.125 109.625L234.014 109.051V82.0005C234.014 51.8433 234.11 52.9903 230.608 49.6448C227.25 46.4905 229.169 46.6339 188.676 46.6339H151.974V44.8178C151.974 41.6635 150.583 36.4541 148.808 32.8696C145.401 25.9397 137.965 20.3001 130.145 18.6752C125.779 17.7671 113.065 17.7671 108.795 18.723ZM113.592 42.7149C121.029 46.7773 130.145 49.3103 139.164 49.836L144.777 50.1228V57.6262H143.482C142.714 57.6262 141.707 57.2917 141.227 56.9093C139.836 55.8579 123.572 55.8579 122.708 56.9093C121.94 57.8652 118.006 57.8174 116.759 56.9093C115.991 56.3358 114.024 56.1924 107.355 56.1924C100.687 56.1924 98.7197 56.3358 97.952 56.9093C97.4723 57.2917 96.4647 57.6262 95.7451 57.6262H94.4017V50.1228L96.4647 49.5015C101.262 48.0677 104.957 45.5347 107.403 41.998C108.795 40.0385 108.939 39.9429 109.898 40.5642C110.474 40.9466 112.153 41.9024 113.592 42.7149ZM113.401 62.979C113.209 64.6517 112.825 66.1811 112.585 66.4679C111.961 67.0892 102.75 67.0892 102.126 66.4679C101.838 66.1811 101.454 64.6039 101.31 62.979L100.975 60.0159H113.736L113.401 62.979ZM138.061 62.6444C138.061 66.5634 137.245 67.1847 132.16 67.1847C126.786 67.1847 126.066 66.659 126.066 62.8356V60.0159H138.061V62.6444ZM97.4723 61.7364C97.6162 62.1665 97.7601 63.3135 97.7601 64.365C97.7601 65.4164 98.0959 66.898 98.4798 67.6627C99.6792 70.0045 101.358 70.5302 107.355 70.5302C115.08 70.5302 116.471 69.6222 116.951 64.0782L117.191 61.2107L119.734 61.0673L122.228 60.9239V63.1224C122.228 65.8943 123.188 68.1406 124.867 69.4788C126.066 70.4347 126.786 70.5302 132.112 70.5302C137.725 70.5302 138.061 70.4824 139.452 69.2876C141.035 67.9972 141.899 65.6554 141.899 62.74C141.899 61.1151 141.995 60.9717 143.338 60.9717H144.777V64.6995C144.777 71.8206 142.571 77.4124 137.677 82.5262C127.986 92.8016 111.913 93.0884 101.886 83.1953C96.8486 78.2249 94.4017 72.3464 94.4017 65.1775V60.9717H95.7931C96.6087 60.9717 97.2803 61.2585 97.4723 61.7364ZM150.055 62.8834C150.727 64.5084 150.343 67.2803 149.335 68.1406C148.712 68.6663 148.616 68.2362 148.616 64.8429C148.616 60.8283 148.999 60.3026 150.055 62.8834ZM90.5636 65.1297L90.5156 68.8575L89.604 67.7105C88.5486 66.5156 88.3566 63.8871 89.1243 62.3577C90.0838 60.5894 90.5636 61.4974 90.5636 65.1297ZM62.4971 82.9085C64.704 83.9122 66.2873 85.4893 67.0069 87.401C67.3428 88.2613 67.5347 93.8531 67.5347 102.265C67.5347 115.264 67.4867 115.79 66.4792 117.845C64.896 120.904 62.5451 122.146 58.1312 122.146C55.9243 122.146 54.5329 122.385 54.1971 122.768C53.9092 123.102 53.6214 124.488 53.5254 125.922L53.3815 128.407L48.9676 125.301L44.5538 122.146H34.6225C24.8832 122.146 24.6434 122.099 22.6283 120.951C21.285 120.139 20.2775 119.088 19.6058 117.654C18.5983 115.647 18.5503 115.025 18.6942 101.5L18.8382 87.401L20.2295 85.6327C22.9162 82.0961 23.3 82.0005 43.0665 82.0005C59.0907 82.0005 60.722 82.0961 62.4971 82.9085ZM119.11 93.9964C121.557 93.9964 124.147 93.8531 124.867 93.6619L126.21 93.3273L124.675 95.9081C123.86 97.3419 122.804 99.2058 122.372 100.018C121.653 101.404 121.365 101.595 119.638 101.595C117.479 101.595 117.91 102.026 114.408 95.9081C113.161 93.7097 113.065 93.3751 113.832 93.6141C114.312 93.8053 116.711 93.9964 119.11 93.9964ZM111.625 98.6323L114.216 103.077L111.625 105.706C110.234 107.139 108.939 108.286 108.795 108.286C108.555 108.286 105.916 95.3824 105.916 94.2832C105.916 94.0442 106.636 93.9486 107.451 94.0442C108.891 94.1876 109.275 94.6177 111.625 98.6323ZM133.263 94.331C133.263 94.9045 130.864 106.948 130.576 107.761C130.432 108.239 129.569 107.665 127.698 105.849C126.258 104.463 125.155 103.077 125.203 102.79C125.299 102.551 126.45 100.448 127.746 98.1544C130.001 94.2354 130.24 93.9486 131.728 93.9486C132.543 93.9486 133.263 94.1398 133.263 94.331ZM122.324 107.331C123.092 108.669 123.044 108.86 122.084 111.393C121.125 113.783 120.885 114.022 119.542 114.022C118.15 114.022 117.958 113.783 116.999 111.345C116.039 108.812 116.039 108.621 116.807 107.283C117.527 106.136 117.958 105.897 119.59 105.897C121.221 105.897 121.653 106.136 122.324 107.331ZM114.312 118.801C114.264 121.047 113.784 129.172 113.113 136.819C112.249 147.524 111.817 150.822 111.338 150.822C110.81 150.822 110.714 147.19 110.714 131.609C110.714 114.117 110.81 112.349 111.529 111.489C112.345 110.628 112.393 110.676 113.353 112.683C114.072 114.213 114.312 115.742 114.312 118.801ZM127.986 131.275C127.986 143.988 127.842 150.822 127.506 150.822C127.266 150.822 127.026 150.344 127.026 149.723C126.978 149.149 126.402 141.455 125.635 132.661C124.243 115.933 124.243 116.507 126.018 111.919C126.45 110.819 126.69 110.676 127.266 111.154C127.89 111.68 127.986 114.595 127.986 131.275ZM237.805 114.452C240.971 116.698 241.211 117.893 241.211 132.9C241.211 145.899 241.163 146.377 240.155 148.432C237.949 152.638 236.173 153.164 223.795 153.212H214.728L210.794 156.079C208.587 157.656 206.668 158.947 206.524 158.947C206.38 158.947 206.188 157.704 206.092 156.175L205.948 153.451L202.014 153.116C197.504 152.734 195.729 151.969 193.858 149.532L192.514 147.811L192.371 133.569C192.227 120.043 192.275 119.231 193.186 117.415C194.098 115.647 195.825 114.069 197.552 113.4C197.936 113.257 206.812 113.161 217.223 113.209L236.173 113.305L237.805 114.452ZM120.501 119.374C120.645 119.996 121.173 126.256 121.749 133.378C122.276 140.451 122.852 147.285 122.996 148.528L123.284 150.822H115.847L116.135 147.811C116.279 146.186 116.903 138.874 117.479 131.561C118.486 119.565 118.63 118.323 119.446 118.323C119.925 118.323 120.405 118.753 120.501 119.374ZM165.839 137.297C168.046 138.922 169.246 141.168 169.246 143.653C169.246 146.616 167.758 148.815 164.784 150.296C162.241 151.539 160.418 151.443 157.827 149.866C152.694 146.712 153.461 138.922 159.171 136.532C160.898 135.815 164.352 136.197 165.839 137.297ZM142.283 185.089L142.139 194.552H117.671L117.527 185.089L117.431 175.674H142.379L142.283 185.089ZM162.289 199.762C163.632 200.383 165.264 201.482 165.983 202.247C167.183 203.537 168.766 206.596 168.766 207.695C168.766 208.03 156.292 208.173 129.905 208.173C103.517 208.173 91.0434 208.03 91.0434 207.695C91.0434 206.596 92.6266 203.537 93.826 202.247C94.5457 201.482 96.2249 200.383 97.5202 199.762L99.9191 198.615H159.89L162.289 199.762Z" fill="#020054"/>
<path d="M29.0252 94.7685C28.2576 95.5332 28.3055 96.8236 29.1211 97.4927C29.5529 97.875 33.7749 98.0184 43.5622 97.9228C56.1321 97.7795 57.4275 97.6839 57.9073 96.9192C58.2911 96.3457 58.2911 95.8678 57.9073 95.2465C57.4275 94.5296 56.0841 94.434 43.5142 94.2906C33.1032 94.195 29.457 94.3384 29.0252 94.7685Z" fill="#2BAA4A"/>
<path d="M28.642 107.769C28.4981 108.151 28.4501 108.868 28.546 109.346C28.69 110.159 29.6015 110.206 43.3229 110.206H57.9559V107.339L43.4189 107.195C31.0888 107.1 28.8819 107.195 28.642 107.769Z" fill="#2BAA4A"/>
<path d="M203.312 126.017C203.168 126.4 203.121 127.117 203.216 127.595C203.36 128.407 204.272 128.455 217.993 128.455H232.626V125.587L218.089 125.444C205.759 125.348 203.552 125.444 203.312 126.017Z" fill="#2BAA4A"/>
<path d="M203.744 138.109C202.929 138.396 202.977 140.403 203.792 141.072C204.224 141.454 208.446 141.598 218.233 141.502C230.803 141.359 232.099 141.263 232.578 140.499C232.962 139.925 232.962 139.447 232.578 138.826C232.099 138.109 230.803 138.013 218.185 137.918C210.557 137.87 204.032 137.966 203.744 138.109Z" fill="#2BAA4A"/>
<path d="M176.212 172.172C175.348 173.033 175.492 173.845 176.692 174.658C177.555 175.279 179.186 175.422 184.608 175.422C190.845 175.422 191.564 175.327 192.428 174.466C193.196 173.702 193.292 173.272 192.908 172.555C192.428 171.647 191.852 171.599 184.608 171.599C179.138 171.599 176.596 171.79 176.212 172.172Z" fill="#2BAA4A"/>
<path d="M170.62 79.4396H176.658V82.9841H166.01V64.1334H170.62V79.4396Z" fill="#2BAA4A"/>
<path d="M183.466 64.1334V82.9841H178.856V64.1334H183.466Z" fill="#2BAA4A"/>
<path d="M204.571 64.1334L197.859 82.9841H192.09L185.378 64.1334H190.284L194.974 78.3654L199.692 64.1334H204.571Z" fill="#2BAA4A"/>
<path d="M211.107 67.8122V71.6253H217.28V75.1699H211.107V79.3053H218.089V82.9841H206.497V64.1334H218.089V67.8122H211.107Z" fill="#2BAA4A"/>
</svg>
