<svg width="260" height="250" viewBox="0 0 260 250" fill="none" xmlns="http://www.w3.org/2000/svg">
<path fill-rule="evenodd" clip-rule="evenodd" d="M259.813 116.341C262.512 151.832 235.529 181.511 209.702 205.888C184.842 229.353 154.644 247.216 120.531 247.806C85.8676 248.406 51.1456 235.159 28.2343 209.029C6.45352 184.188 7.21392 149.381 5.26126 116.341C3.11467 80.0192 -10.3588 36.2805 16.5874 11.9567C43.3751 -12.2241 84.9215 6.85348 120.531 12.2886C148.34 16.5331 174.48 22.6404 197.048 39.5003C224.563 60.0558 257.201 82.002 259.813 116.341Z" fill="white"/>
<path d="M114.537 31.5333C109.895 32.374 103.937 34.9692 100.537 37.7105L99.5139 38.5512L101.268 40.5981C102.95 42.5719 103.059 42.645 103.827 42.1333C112.015 36.2119 122.176 34.8595 130.875 38.5147C136.724 40.9637 142.097 46.0078 144.802 51.5637C145.679 53.3912 146.702 56.023 147.031 57.4485C147.908 60.994 147.799 66.8423 146.848 70.534C146.044 73.5678 143.595 78.6851 142.389 79.7816C141.695 80.403 141.695 80.3299 141.695 76.1995V71.9961L135.408 69.5471C131.935 68.1582 128.938 66.9154 128.755 66.7692C128.609 66.5864 129.194 65.4899 130.144 64.2837L131.826 62.0906V58.2892C131.826 55.9499 131.606 53.7568 131.277 52.6602C130.437 49.8823 128.353 47.4333 125.648 46.0443C123.638 44.9843 123.017 44.8381 120.495 44.8381C117.973 44.8381 117.351 44.9843 115.341 46.0443C112.636 47.4333 110.553 49.8823 109.712 52.6602C109.383 53.7568 109.164 55.9499 109.164 58.2892V62.0906L110.845 64.2837C111.795 65.4899 112.417 66.5864 112.234 66.7692C112.051 66.952 109.054 68.1947 105.618 69.5471L99.2946 71.9961V76.1995C99.2946 80.3299 99.2946 80.403 98.6001 79.7816C97.4305 78.7216 95.0181 73.714 94.1408 70.5706C93.1539 67.0251 93.0808 61.2133 93.9581 57.5582C94.6526 54.5609 96.1877 51.0519 98.0519 48.274L99.4408 46.2271L97.6132 44.6188C96.6263 43.7416 95.6395 43.0471 95.3836 43.0106C94.6891 43.0106 91.3263 48.4202 90.1201 51.6002C88.4753 55.8037 87.8539 59.0933 87.8539 63.6623C87.7808 78.4658 97.467 91.1858 111.978 95.3527C114.391 96.0472 115.706 96.1934 120.495 96.1934C127.037 96.1934 129.888 95.572 134.933 93.0499C143.23 88.9196 149.005 82.0844 151.746 73.2389L152.77 69.9857L161.652 78.8678L170.571 87.7865L172.581 85.7761L174.591 83.8023L163.845 72.983L153.099 62.2002L152.88 59.4954C152.77 58.0333 152.148 55.2554 151.527 53.3912C146.41 37.9664 130.619 28.6092 114.537 31.5333ZM123.675 51.125C125.502 52.3678 126.343 54.4147 126.343 57.5582C126.343 60.1899 126.306 60.2264 124.442 62.7485L122.542 65.3071H120.495H118.448L116.547 62.7485C114.683 60.2264 114.646 60.1899 114.646 57.5582C114.646 52.843 116.657 50.3209 120.458 50.3209C121.92 50.3209 122.797 50.5402 123.675 51.125ZM129.888 73.2389L136.212 75.7244V80.9147V86.1051L133.799 87.4575C132.484 88.1885 130.144 89.212 128.609 89.7237C126.087 90.5644 125.21 90.674 120.495 90.674C115.743 90.674 114.902 90.5644 112.271 89.6871C110.662 89.1754 108.323 88.1154 107.08 87.3478L104.777 85.9954V80.8782V75.7244L110.918 73.312C116.766 70.9726 117.168 70.863 120.275 70.8264C123.492 70.7899 123.675 70.8264 129.888 73.2389Z" fill="#020054"/>
<path d="M117.645 78.904L117.754 81.5723H120.496H123.237L123.347 78.904L123.457 76.2723H120.496H117.535L117.645 78.904Z" fill="#2BAA4A"/>
<path d="M68.9577 81.1698L58.1749 91.9161L55.4701 92.1354C50.0604 92.6105 43.1521 95.6078 38.6197 99.4823C21.8424 113.847 23.4873 139.835 41.9094 151.971C47.2459 155.516 53.0942 157.161 60.0025 157.124C72.4301 157.088 83.4687 150.18 88.988 139.031C91.1446 134.645 91.9853 131.319 92.2411 126.165C92.5701 118.964 91.0349 112.97 87.3798 107.122C85.077 103.357 85.1135 103.393 82.7377 105.367L80.6908 107.048L82.0798 109.095C85.6253 114.322 86.6853 117.904 86.6853 124.52C86.6853 128.651 86.5391 129.893 85.8446 132.196C85.0039 134.901 83.0301 138.849 81.7142 140.53C81.0563 141.407 81.0563 141.371 80.9466 137.094L80.837 132.744L74.1846 130.149L67.5322 127.591L69.3232 125.069C71.1508 122.62 71.1508 122.583 71.1508 119.769C71.1508 114.249 69.9811 110.85 67.2032 108.401C61.7204 103.613 53.277 105.075 49.768 111.398C48.7445 113.262 48.6714 113.664 48.5618 118.197L48.4156 123.022L50.1335 125.251C51.0839 126.494 51.8149 127.554 51.7418 127.591C51.6687 127.664 48.6349 128.87 45.0163 130.259L38.4369 132.817L38.2542 136.984L38.0714 141.151L37.3038 140.055C32.1866 132.817 31.0535 122.327 34.4894 114.14C36.9383 108.291 41.9825 102.918 47.5383 100.213C51.9611 98.0568 55.0314 97.3623 59.8197 97.3988C65.6315 97.4354 70.6391 99.0071 75.4273 102.26C76.268 102.845 77.0356 103.32 77.1087 103.32C77.2184 103.32 78.0591 102.406 78.9729 101.31L80.6908 99.3361L78.9363 98.0568C76.2315 96.083 72.7591 94.365 69.2135 93.2319L65.9604 92.245L74.8425 83.3629L83.7611 74.4443L81.7508 72.434L79.7404 70.4236L68.9577 81.1698ZM63.0728 112.056C64.7177 113.262 65.4121 114.797 65.5949 117.941L65.7411 120.682L63.8039 123.314L61.9032 125.982H59.6735L57.4439 125.946L55.6894 123.57L53.8983 121.157L54.0445 117.831C54.1542 114.066 54.6294 113.116 56.8956 111.727C58.577 110.74 61.3915 110.886 63.0728 112.056ZM68.9577 134.024L75.3542 136.546V141.736V146.963L72.3935 148.535C68.2632 150.728 64.608 151.642 59.8197 151.642C54.2639 151.642 50.2066 150.545 45.6742 147.804L43.737 146.671V141.663V136.655L50.2432 134.097C56.3108 131.648 56.8956 131.502 59.637 131.502C62.4149 131.502 62.8901 131.611 68.9577 134.024Z" fill="#2BAA4A"/>
<path d="M57.1504 136.474C57.0042 136.584 56.8945 137.827 56.8945 139.216V141.701H59.6359H62.3773V138.96V136.218H59.8918C58.5028 136.218 57.26 136.328 57.1504 136.474Z" fill="white"/>
<path d="M178.43 91.8414C164.869 93.2303 153.465 102.697 149.736 115.746C148.603 119.694 148.347 126.675 149.152 130.732C151.162 140.638 157.741 149.301 166.733 153.87C167.756 154.345 170.023 155.222 171.777 155.77L175.03 156.794L166.148 165.676L157.23 174.595L159.24 176.605L161.214 178.615L172.033 167.869L182.816 157.123L185.521 156.903C188.993 156.611 194.33 154.82 197.692 152.846C214.214 143.123 219.002 121.741 208.256 105.914C207.415 104.708 206.611 103.684 206.465 103.684C206.319 103.684 205.332 104.488 204.272 105.439L202.334 107.157L203.285 108.436C204.747 110.373 206.574 114.174 207.525 117.208C208.768 121.119 208.768 127.918 207.525 131.829C206.648 134.68 205.003 138.226 203.687 140.053L202.919 141.15L202.736 136.983L202.554 132.816L195.974 130.257C192.356 128.832 189.322 127.662 189.249 127.589C189.176 127.516 189.907 126.492 190.857 125.25L192.575 123.02L192.429 118.195C192.319 113.663 192.246 113.261 191.223 111.397C187.714 105.073 179.27 103.611 173.788 108.399C171.01 110.848 169.84 114.248 169.84 119.767C169.84 122.581 169.84 122.618 171.668 125.103L173.495 127.589L168.451 129.526C165.71 130.586 162.712 131.756 161.799 132.121L160.154 132.779L160.044 137.092C159.934 141.369 159.934 141.406 159.276 140.528C157.997 138.92 156.023 134.936 155.219 132.377C153.976 128.43 153.794 122.289 154.817 118.305C157.924 105.804 168.524 97.3972 181.171 97.3972C187.092 97.3972 191.808 98.7862 196.742 102.076L198.789 103.465L200.397 101.637C201.274 100.65 201.969 99.6634 202.005 99.4076C202.005 98.7131 196.596 95.3503 193.416 94.1441C188.81 92.3531 182.706 91.4393 178.43 91.8414ZM184.059 111.762C186.361 113.078 186.836 114.028 186.946 117.83L187.092 121.156L185.301 123.568L183.547 125.944L181.317 125.981H179.088L177.223 123.349C175.432 120.9 175.323 120.644 175.323 118.524C175.359 116.112 175.981 113.919 176.968 112.822C178.649 110.958 181.829 110.483 184.059 111.762ZM190.674 134.059L197.29 136.654L197.181 141.808L197.071 146.961L193.672 148.679C189.395 150.872 186.105 151.64 181.171 151.64C176.383 151.64 172.728 150.726 168.597 148.533L165.636 146.961L165.527 141.808L165.417 136.654L171.923 134.059C177.991 131.646 178.612 131.463 181.244 131.463C183.839 131.463 184.497 131.646 190.674 134.059Z" fill="#2BAA4A"/>
<path d="M178.613 139.69V142.432H181.355H184.096V139.69V136.949H181.355H178.613V139.69Z" fill="white"/>
<path d="M110.445 109.425C103.829 111.8 101.051 119.294 104.45 125.617C105.474 127.554 106.789 128.907 112.967 134.426C117.024 138.045 120.387 140.969 120.496 140.969C120.825 140.969 132.997 130.076 134.532 128.431C137.054 125.654 137.858 123.68 137.858 120.134C137.858 116.479 137.018 114.359 134.642 111.983C132.558 109.9 130.365 109.023 127.258 108.986C125.065 108.986 124.407 109.169 122.616 110.156L120.496 111.289L118.486 110.192C115.854 108.803 113.003 108.511 110.445 109.425ZM115.525 114.798C116.22 115.09 117.536 116.296 118.523 117.503C119.509 118.709 120.387 119.732 120.496 119.732C120.606 119.732 121.483 118.709 122.47 117.503C125.065 114.286 127.332 113.555 129.634 115.09C131.718 116.516 132.376 117.722 132.376 120.098C132.376 121.743 132.193 122.474 131.462 123.534C130.694 124.667 121.3 133.293 120.569 133.549C120.167 133.695 110.554 124.959 109.567 123.57C108.251 121.706 108.105 118.891 109.238 117.21C110.298 115.675 112.272 114.286 113.442 114.286C113.917 114.286 114.867 114.505 115.525 114.798Z" fill="#FF4949"/>
<path d="M113.733 153.25C110.224 154.018 106.203 155.699 103.096 157.636C99.3316 159.939 99.3681 159.903 101.342 162.278L103.023 164.325L105.07 162.936C109.785 159.72 113.514 158.514 119.398 158.258C122.944 158.075 124.114 158.185 126.709 158.843C136.761 161.365 144.254 168.711 146.849 178.507C147.799 182.089 147.872 187.901 147.032 191.593C146.374 194.334 144.144 199.305 142.719 201.096L141.878 202.193L141.695 197.843L141.512 193.53L135.225 191.081C131.753 189.729 128.792 188.523 128.683 188.376C128.536 188.267 129.231 187.097 130.145 185.854L131.899 183.552L131.753 179.165C131.643 175.693 131.461 174.414 130.839 173.098C129.743 170.685 127.696 168.565 125.32 167.396C123.602 166.555 122.761 166.372 120.495 166.409C115.926 166.409 112.381 168.638 110.37 172.696C109.456 174.56 109.347 175.254 109.237 179.165L109.091 183.552L110.845 185.854C111.759 187.097 112.417 188.267 112.307 188.413C112.161 188.523 109.237 189.765 105.765 191.081L99.4778 193.53L99.295 197.88L99.1123 202.193L98.2716 201.096C96.8461 199.305 94.6164 194.334 93.9585 191.593C93.1178 187.974 93.1909 182.126 94.1047 178.58C94.9088 175.62 96.4805 172.147 98.235 169.589C98.8198 168.748 99.295 167.98 99.295 167.907C99.295 167.798 98.3812 166.957 97.2847 166.043L95.3109 164.325L94.0316 166.08C92.0578 168.785 90.3398 172.257 89.2067 175.803L88.2198 179.056L79.3378 170.174L70.4191 161.255L68.4088 163.265L66.3984 165.239L77.1447 176.058L87.8909 186.841L88.1102 189.546C88.7681 196.929 93.1178 204.934 99.4412 210.307C118.192 226.281 147.251 216.229 152.551 191.958C153.83 186.183 153.099 178.727 150.687 172.769C147.105 163.814 138.807 156.467 129.267 153.762C125.539 152.702 117.425 152.409 113.733 153.25ZM123.054 172.476C125.43 173.683 126.343 175.474 126.343 179.019V181.834L124.406 184.319L122.469 186.841H120.495H118.521L116.584 184.319L114.647 181.834V179.019C114.647 176.826 114.83 175.949 115.487 174.779C116.365 173.207 118.814 171.672 120.495 171.672C121.007 171.672 122.176 172.038 123.054 172.476ZM129.998 194.919L136.212 197.368V202.558V207.785L133.398 209.247C128.683 211.696 125.758 212.427 120.678 212.427C115.414 212.427 112.929 211.843 108.177 209.503L104.778 207.822V202.595V197.368L110.918 194.956C116.84 192.616 117.132 192.543 120.422 192.543C123.748 192.507 123.894 192.543 129.998 194.919Z" fill="#020054"/>
<path d="M117.645 199.89L117.754 202.559H120.496H123.237L123.347 199.89L123.457 197.259H120.496H117.535L117.645 199.89Z" fill="#2BAA4A"/>
</svg>
