<svg width="45" height="45" viewBox="0 0 45 45" fill="none" xmlns="http://www.w3.org/2000/svg">
<g clip-path="url(#clip0_318_17)">
<path opacity="0.25" d="M44 22.5C44 34.3741 34.3741 44 22.5 44C10.6259 44 1 34.3741 1 22.5C1 10.6259 10.6259 1 22.5 1C34.3741 1 44 10.6259 44 22.5Z" stroke="white" stroke-width="2"/>
<path d="M19.0075 17.1025C18.1964 17.2804 17.4215 17.5277 16.7008 17.8292C16.3118 17.9951 16.3359 17.9679 15.9379 18.6343C14.5207 20.9953 13.8845 23.4558 14.0172 26.0701C14.0353 26.4319 14.0564 26.7455 14.0624 26.7697C14.0805 26.8239 14.9579 27.4119 15.3409 27.629C15.7359 27.8522 16.3782 28.1657 16.7762 28.3316C17.2556 28.5336 17.9431 28.7658 17.9672 28.7387C18.1512 28.5246 18.7512 27.5325 18.7512 27.4391C18.7512 27.424 18.6608 27.3727 18.5492 27.3275C18.1693 27.1707 17.5149 26.8269 17.5149 26.7847C17.5149 26.7606 17.5752 26.6943 17.6506 26.634L17.7863 26.5224L18.1542 26.6732C20.5363 27.6471 22.9606 27.635 25.3186 26.643C25.4724 26.5797 25.6141 26.5345 25.6352 26.5465C25.7407 26.6098 25.8975 26.7485 25.8975 26.7847C25.8975 26.8239 25.2613 27.1586 24.9176 27.2973C24.803 27.3456 24.6914 27.3968 24.6703 27.4149C24.6432 27.4391 24.6793 27.5295 24.8301 27.7918C25.0171 28.1175 25.4332 28.7598 25.4573 28.7598C25.4965 28.7598 26.2443 28.4884 26.5609 28.3617C27.3298 28.0512 28.3068 27.5205 28.9943 27.044C29.1631 26.9264 29.3169 26.8058 29.332 26.7757C29.3471 26.7455 29.3772 26.4229 29.3953 26.058C29.5039 23.7996 29.0576 21.6858 28.0354 19.6505C27.7761 19.1318 27.4957 18.6434 27.2213 18.2333L27.0464 17.9739L26.6604 17.8141C25.7588 17.4433 24.8844 17.1839 23.9738 17.0181L23.8773 17L23.6752 17.4161C23.5667 17.6423 23.4732 17.8322 23.4732 17.8322C23.4702 17.8352 23.3345 17.8202 23.1687 17.796C22.3063 17.6815 21.1062 17.6815 20.2438 17.796C20.078 17.8202 19.9423 17.8352 19.9423 17.8322C19.894 17.6965 19.5201 17 19.496 17.003C19.4749 17.003 19.2578 17.0482 19.0075 17.1025ZM24.8392 22.0356C25.204 22.2075 25.5236 22.6236 25.6292 23.0608C25.6865 23.305 25.6714 23.7302 25.599 23.9654C25.4663 24.3906 25.1889 24.7222 24.8211 24.9062C24.6281 24.9997 24.601 25.0057 24.2843 25.0057C23.9587 25.0057 23.9436 25.0027 23.7205 24.8911C22.6802 24.3785 22.5927 22.7924 23.5667 22.12C23.9255 21.8758 24.42 21.8426 24.8392 22.0356ZM19.7041 22.0326C20.0749 22.2165 20.3524 22.5603 20.482 22.9975C20.5423 23.2055 20.5453 23.682 20.485 23.9051C20.3674 24.3453 20.0719 24.7222 19.698 24.9032C19.499 24.9997 19.4719 25.0057 19.1583 25.0057C18.8477 25.0057 18.8145 24.9997 18.6216 24.9092C18.3351 24.7735 18.0848 24.5263 17.9401 24.2338C17.7863 23.9292 17.7441 23.7212 17.7652 23.3623C17.7893 22.8859 18.0064 22.4457 18.3411 22.1924C18.6457 21.9602 18.7995 21.912 19.1915 21.921C19.4659 21.9301 19.5141 21.9421 19.7041 22.0326Z" fill="white"/>
</g>
<defs>
<clipPath id="clip0_318_17">
<rect width="45" height="45" fill="white"/>
</clipPath>
</defs>
</svg>
