<svg width="80" height="77" viewBox="0 0 80 77" fill="none" xmlns="http://www.w3.org/2000/svg">
<g clip-path="url(#clip0_582_9)">
<path fill-rule="evenodd" clip-rule="evenodd" d="M79.9424 35.833C80.7729 46.7642 72.4704 55.9053 64.5236 63.4136C56.8744 70.6408 47.5827 76.1425 37.0866 76.3243C26.4208 76.509 15.7371 72.4289 8.68749 64.3808C1.9857 56.7298 2.21967 46.0093 1.61885 35.833C0.958359 24.6459 -3.18731 11.1744 5.10382 3.68267C13.3462 -3.76501 26.1297 2.11087 37.0866 3.7849C45.6432 5.09219 53.6861 6.97324 60.6302 12.1661C69.0964 18.4972 79.1389 25.2566 79.9424 35.833Z" fill="#020054"/>
<path d="M31.7224 14.0406C29.7667 14.3972 28.388 14.8232 27.1853 15.4374L26.5204 15.7743L24.5452 15.7941C22.3646 15.8139 22.2375 15.8436 21.6704 16.4974C21.3672 16.8541 21.1619 17.389 21.1619 17.8447C21.1619 18.0626 21.0934 18.1221 20.7219 18.2311C20.4774 18.3004 19.9787 18.5084 19.6169 18.6868L18.952 19.0038L18.6195 18.7165C18.0524 18.241 17.2604 18.1122 16.5857 18.3896C16.1359 18.5877 13.8869 20.8167 13.6131 21.3516C13.31 21.9559 13.3882 22.8574 13.8087 23.3824C13.9847 23.6004 14.1216 23.8084 14.1216 23.848C14.1216 23.8877 13.9944 24.1849 13.838 24.5217C13.6913 24.8585 13.486 25.3538 13.398 25.6312L13.2317 26.1463L12.6939 26.186C12.0486 26.2454 11.5401 26.602 11.2076 27.2658C10.9925 27.6819 10.9827 27.7809 11.0121 29.6433C11.0414 31.5553 11.0414 31.585 11.3054 31.9813C11.6379 32.4964 12.1659 32.8233 12.7624 32.8828C13.2024 32.9224 13.2415 32.9521 13.3491 33.2889C13.4077 33.4871 13.6131 33.9824 13.7989 34.3985L14.1411 35.1514L13.8184 35.6071C13.4469 36.142 13.3393 36.9048 13.5349 37.519C13.6913 37.9747 15.823 40.2433 16.3706 40.5306C17.1528 40.9367 17.9546 40.8674 18.5609 40.3324L18.8836 40.0452L19.9005 40.481C20.4579 40.7287 20.9761 40.9268 21.0446 40.9268C21.113 40.9268 21.1619 41.0457 21.1619 41.2141C21.1619 41.9076 21.6312 42.6902 22.2375 43.0072C22.5211 43.1558 22.8144 43.2053 23.3816 43.2053C24.242 43.2053 24.1149 43.1063 24.7994 44.3248C25.2785 45.1767 25.787 46.4646 26.0021 47.3463L26.1684 48.0397L25.8163 48.4062C24.7603 49.4761 24.5941 51.1206 25.4154 52.3787C25.7381 52.8741 25.7381 52.9038 25.5621 53.0623C25.1905 53.409 24.9363 54.2015 24.9265 55.0436C24.9265 55.7172 24.9656 55.9253 25.2003 56.4008C25.5132 57.0447 26.1586 57.6688 26.7746 57.9264L27.1951 58.1047L27.244 59.5015C27.2929 60.5912 27.3417 61.0073 27.508 61.4333C27.8013 62.1961 28.3098 62.8598 28.9258 63.2759C29.8548 63.9 30.0894 63.9396 33.2576 63.9892C37.3644 64.0486 38.2054 63.8901 39.2419 62.84C40.1317 61.9385 40.425 61.0469 40.425 59.2241V58.1146L40.9628 57.8769C41.6473 57.5797 42.2927 56.8664 42.5762 56.1036C42.9478 55.1228 42.762 53.9737 42.0776 53.0128C41.9896 52.8939 42.0287 52.7552 42.2633 52.3787C43.0554 51.1206 42.8891 49.5158 41.8722 48.4261L41.4909 48.0199L41.6082 47.5147C42.0091 45.8008 42.8794 44.0969 44.6003 41.6698C46.1649 39.4508 46.9178 38.3214 47.3187 37.5388L47.612 36.9642H49.5872L50.0077 38.8168C50.2424 39.847 50.4771 40.7584 50.5357 40.8476C50.7704 41.2339 51.1909 41.3231 52.7652 41.3231H54.271L54.4079 41.6896C54.4764 41.8977 54.8088 42.3435 55.1413 42.6803C55.6595 43.2053 55.8356 43.3143 56.4516 43.5025C57.0187 43.6808 57.2925 43.7106 57.7716 43.661C58.9157 43.5422 59.962 42.7893 60.4607 41.7194C60.6758 41.2637 60.7149 41.0358 60.7149 40.2829C60.7149 39.5102 60.6758 39.322 60.4411 38.8267C59.8837 37.6775 58.7397 36.9642 57.4392 36.9642C56.1485 36.9642 55.1217 37.5884 54.5155 38.7474L54.1928 39.3517L52.1198 39.2923L51.7091 37.4794C51.4842 36.4887 51.2202 35.5575 51.1322 35.4188C50.9073 35.0622 50.6042 34.9829 49.4601 34.9829C48.5214 34.9829 48.4334 34.9631 48.4823 34.8046C48.7072 34.0715 48.9517 32.8828 49.0494 31.9813L49.1668 30.9213H54.5057L54.7111 31.3374C55.1706 32.2686 55.9236 32.8828 56.8916 33.1502C58.0454 33.4672 59.3362 33.0809 60.1575 32.1695C60.7833 31.476 60.9887 30.9411 60.9985 29.9306C61.0082 29.1678 60.9789 29.0192 60.6856 28.4248C60.0891 27.1964 59.033 26.5426 57.6543 26.5426C57.1165 26.5525 56.8232 26.602 56.4222 26.7903C55.7084 27.1172 55.0533 27.7512 54.7404 28.405L54.4862 28.94H49.157L49.0886 28.1475C49.0201 27.3847 48.629 25.3043 48.4921 24.9477C48.4236 24.7892 48.5116 24.7793 49.5579 24.7793C50.6531 24.7793 50.702 24.7693 50.9855 24.5019C51.2496 24.2641 51.318 24.0561 51.6994 22.3819L52.11 20.5195H54.271L54.3981 20.8662C54.4666 21.0544 54.7306 21.4507 54.9946 21.738C56.3342 23.2239 58.5441 23.2239 59.8837 21.738C61.0669 20.4204 61.0669 18.5382 59.8837 17.2206C58.6223 15.8238 56.5591 15.7445 55.1706 17.0423C54.9262 17.2602 54.6133 17.6862 54.4764 17.9933L54.2026 18.5382H50.966L50.702 18.8056C50.4966 19.0137 50.3793 19.301 50.2326 19.9746C50.1251 20.46 49.9295 21.3021 49.8121 21.8271L49.597 22.798H47.7098L47.2502 21.9262C46.3995 20.2916 45.0208 18.5877 44.483 18.4787C44.1212 18.4094 43.6127 18.6273 43.4563 18.9245C43.2216 19.3703 43.339 19.7864 43.8768 20.4402C44.1505 20.777 44.6395 21.4408 44.9426 21.9064L45.4999 22.7484L43.7496 22.798C42.0776 22.8475 41.9896 22.8574 41.7549 23.0852C41.618 23.214 41.4811 23.4419 41.4517 23.6004C41.3735 23.9669 41.6278 24.5217 41.9504 24.6703C42.1069 24.7396 42.9283 24.7793 44.2874 24.7793H46.3702L46.5267 25.2449C46.7613 25.9482 47.0547 27.4045 47.1329 28.2168L47.2014 28.94H44.0039C40.4641 28.94 40.4348 28.94 40.2295 29.5839C40.1415 29.8415 40.1512 29.9901 40.2686 30.2774C40.5228 30.8916 40.6988 30.9213 44.1505 30.9213H47.1916L47.1231 31.585C47.0351 32.4667 46.8298 33.4871 46.5658 34.3093L46.3507 34.9829H42.0873L41.7744 35.2702C41.5104 35.508 41.4517 35.6269 41.4517 35.9736C41.4517 36.3203 41.5104 36.4392 41.7744 36.677L42.0873 36.9642H43.7007C44.5906 36.9642 45.3142 36.994 45.3142 37.0336C45.3142 37.1723 44.3754 38.6087 43.4367 39.9065C41.2366 42.9379 40.2979 44.7012 39.7797 46.7519L39.6037 47.4651H28.036L27.9089 46.8906C27.7329 46.0782 27.3613 45.0678 26.8822 44.087L26.4617 43.2351L26.9604 42.8982C27.5178 42.5218 27.8111 42.0364 27.8893 41.3627C27.9089 41.125 27.9871 40.9268 28.0458 40.9268C28.1044 40.9268 28.5934 40.7287 29.1409 40.5009L30.1188 40.0749L30.5783 40.3919C31.1846 40.8179 31.7713 40.907 32.3873 40.6792C32.9642 40.4513 35.135 38.3313 35.4479 37.6775C35.7608 37.0435 35.6826 36.2213 35.2523 35.617L34.9297 35.1514L35.2719 34.3985C35.4577 33.9824 35.663 33.4871 35.7217 33.2889C35.8293 32.9521 35.8684 32.9224 36.3182 32.8828C36.9146 32.8233 37.4818 32.4667 37.7947 31.9416C38.0196 31.585 38.0294 31.4661 38.0587 29.6929C38.088 28.1376 38.0685 27.7512 37.9316 27.3946C37.6969 26.7804 37.12 26.3049 36.4062 26.1463L35.8195 26.0176L35.4772 25.1755C35.2817 24.7099 35.0861 24.2146 35.0274 24.0759C34.9297 23.848 34.959 23.7688 35.2426 23.4022C35.5261 23.0456 35.5848 22.8871 35.6141 22.3621C35.6435 21.8767 35.6141 21.6587 35.4577 21.3516C35.1839 20.8167 32.9349 18.5877 32.4851 18.3896C31.7811 18.1023 30.7837 18.3004 30.3046 18.8354C30.1383 19.0236 30.1285 19.0236 29.6396 18.766C29.3658 18.6273 28.8671 18.4094 28.5445 18.2905C27.9969 18.0825 27.9578 18.0428 27.8991 17.6961L27.8404 17.3197L28.5542 16.9927C28.9454 16.8045 29.7863 16.5172 30.4219 16.3488C31.4584 16.0615 31.7517 16.0318 33.3847 15.9922C34.7732 15.9526 35.4088 15.9823 36.0933 16.1012C37.1004 16.2795 37.3449 16.2299 37.6773 15.804C38.176 15.16 37.8142 14.4567 36.856 14.209C36.2791 14.0604 32.3091 13.9316 31.7224 14.0406ZM25.9532 18.558C26.0119 19.509 26.139 19.6576 27.1266 19.9251C27.5275 20.034 28.3489 20.3709 28.9454 20.6681C30.3437 21.3714 30.549 21.3813 31.253 20.7275L31.7908 20.2322L32.7491 21.2129L33.7172 22.1937L33.2087 22.7385C32.7784 23.1942 32.7002 23.3428 32.7002 23.6598C32.7002 23.8679 32.7687 24.1353 32.8469 24.2542C33.1696 24.7297 33.6292 25.76 33.9225 26.711C34.3136 27.9295 34.4603 28.0781 35.4381 28.1276L36.1226 28.1673V30.9213H35.4381C34.5092 30.9213 34.2745 31.1392 33.9225 32.3577C33.7758 32.8431 33.4434 33.6654 33.1794 34.1805C32.5535 35.3891 32.5535 35.5971 33.1794 36.2906L33.6683 36.8355L32.7002 37.8063L31.7322 38.787L31.2433 38.3214C30.5197 37.6379 30.4219 37.6379 29.1409 38.2818C28.5445 38.579 27.6742 38.9455 27.2048 39.0941C26.1097 39.431 25.9532 39.5994 25.9532 40.5405V41.224H23.1175V40.5405C23.1175 39.5994 22.9611 39.431 21.8659 39.0941C21.3966 38.9554 20.5263 38.5889 19.9298 38.2818C18.6587 37.6379 18.5511 37.6379 17.8275 38.3214L17.3386 38.787L16.3706 37.8063L15.3927 36.8256L15.7741 36.4194C16.5172 35.6368 16.5368 35.4287 15.8914 34.1805C15.6274 33.6654 15.2852 32.8431 15.1483 32.3577C14.7767 31.1392 14.6202 30.9807 13.6815 30.9411L12.9482 30.9015V28.1475H13.486C14.5616 28.1475 14.7571 27.9592 15.2069 26.4733C15.3243 26.077 15.6372 25.3241 15.9012 24.8189C16.5074 23.6103 16.5074 23.432 15.8621 22.7385L15.3536 22.1937L16.3217 21.2129L17.2799 20.2322L17.8177 20.7275C18.5218 21.3813 18.776 21.3813 19.9983 20.7275C20.5067 20.4501 21.3183 20.1232 21.7975 19.9845C22.9513 19.6477 23.1175 19.4694 23.1175 18.5481C23.1175 18.1815 23.1469 17.8447 23.186 17.8051C23.2251 17.7754 23.8509 17.7555 24.5745 17.7655L25.9043 17.7952L25.9532 18.558ZM58.1921 18.34C59.2384 18.984 58.8961 20.5987 57.6641 20.8662C57.2632 20.9454 56.5396 20.6383 56.3147 20.2817C55.904 19.6576 56.0898 18.7066 56.696 18.3301C57.0969 18.0825 57.7912 18.0825 58.1921 18.34ZM58.4366 28.7121C58.769 28.9103 59.1015 29.4947 59.1015 29.8811C59.1015 30.8817 57.9965 31.5949 57.1458 31.1491C56.1876 30.6439 56.0898 29.2867 56.9796 28.7419C57.3707 28.4942 58.0454 28.4843 58.4366 28.7121ZM58.2019 39.1437C58.7984 39.5102 58.9841 40.4315 58.5832 41.0358C57.8499 42.1453 56.2756 41.7788 56.0996 40.4513C55.9529 39.322 57.2241 38.5394 58.2019 39.1437ZM40.4837 49.8625C40.8553 50.2885 40.9237 50.7343 40.6695 51.2296C40.3566 51.8438 40.5424 51.824 33.8247 51.824C26.9995 51.824 27.3026 51.8537 26.9702 51.1503C26.6964 50.556 26.9799 49.7932 27.5666 49.5356C27.6742 49.496 30.549 49.4662 33.9518 49.4761L40.1512 49.496L40.4837 49.8625ZM40.0632 53.944C40.2392 54.0133 40.4544 54.1718 40.5522 54.2808C40.8162 54.5681 40.8748 55.1922 40.6793 55.5686C40.3468 56.2126 40.7184 56.1828 33.8932 56.1828C27.0973 56.1828 27.2929 56.2027 26.9799 55.5885C26.6768 54.9842 26.9408 54.2214 27.5471 53.9539C28.0067 53.7458 39.5939 53.7359 40.0632 53.944ZM38.4498 59.4223C38.4107 60.7795 38.2347 61.2153 37.56 61.6611L37.1591 61.9286H33.9127C31.8495 61.9286 30.5588 61.889 30.3828 61.8196C30.2361 61.7701 29.9819 61.6017 29.8352 61.4531C29.3365 60.9776 29.2485 60.6804 29.1996 59.4223L29.1605 58.2632H38.4889L38.4498 59.4223Z" fill="white"/>
<path d="M21.7975 24.274C21.6899 24.3236 21.5237 24.4425 21.4259 24.5514C21.3379 24.6604 20.5752 26.5228 19.7343 28.6824C18.5413 31.7832 18.2284 32.6847 18.2773 32.9026C18.3653 33.3088 18.8445 33.6951 19.2552 33.6951C19.7245 33.6951 20.0374 33.3682 20.3601 32.5559L20.6437 31.8624H23.626L23.8998 32.546C24.2421 33.4376 24.5745 33.7348 25.1123 33.6654C25.6306 33.5961 25.9532 33.2295 25.9532 32.7243C25.9532 32.4865 25.4154 30.9708 24.4572 28.5041C22.9122 24.492 22.8438 24.3632 22.2375 24.2443C22.1006 24.2146 21.9051 24.2344 21.7975 24.274ZM22.5211 28.9697C22.6873 29.3957 22.8242 29.7622 22.8242 29.7821C22.8242 29.8118 22.5113 29.8316 22.13 29.8316C21.6117 29.8316 21.4455 29.8019 21.4748 29.7028C21.7779 28.8211 22.1006 28.0682 22.1495 28.1277C22.1886 28.1673 22.3549 28.5437 22.5211 28.9697Z" fill="#1CED80"/>
<path d="M40.4739 15.8832C39.7503 16.2795 39.7601 17.2602 40.4934 17.6367C41.129 17.9636 41.8917 17.4584 41.8917 16.6956C41.8917 16.329 41.3148 15.7644 40.953 15.7644C40.7966 15.7644 40.5814 15.8238 40.4739 15.8832Z" fill="white"/>
<path d="M27.9282 24.1612C27.3416 24.4188 27.322 24.5575 27.322 28.7677C27.322 31.7694 27.3513 32.6015 27.4589 32.869C27.8207 33.7408 28.8767 33.7408 29.2385 32.869C29.3461 32.6015 29.3754 31.7793 29.3754 28.847C29.3754 26.5883 29.3363 25.0033 29.2679 24.7754C29.1114 24.181 28.5052 23.9036 27.9282 24.1612Z" fill="#1CED80"/>
</g>
<defs>
<clipPath id="clip0_582_9">
<rect width="80" height="77" fill="white"/>
</clipPath>
</defs>
</svg>
