<svg width="80" height="77" viewBox="0 0 80 77" fill="none" xmlns="http://www.w3.org/2000/svg">
<g clip-path="url(#clip0_582_20)">
<path fill-rule="evenodd" clip-rule="evenodd" d="M79.9424 35.833C80.7729 46.7642 72.4704 55.9053 64.5236 63.4136C56.8744 70.6408 47.5827 76.1425 37.0866 76.3243C26.4208 76.509 15.7371 72.4289 8.68749 64.3808C1.9857 56.7298 2.21967 46.0093 1.61885 35.833C0.958359 24.6459 -3.18731 11.1744 5.10382 3.68267C13.3462 -3.76501 26.1297 2.11087 37.0866 3.7849C45.6432 5.09219 53.6861 6.97324 60.6302 12.1661C69.0964 18.4972 79.1389 25.2566 79.9424 35.833Z" fill="#020054"/>
<path d="M53.8154 4.12442C52.0931 4.37386 49.8719 5.30033 48.399 6.38122C47.4369 7.0939 46.0116 8.56676 45.4058 9.49324C44.4318 10.9661 43.6479 13.0091 43.4459 14.6364L43.3628 15.3372L40.132 15.3728L36.9131 15.3966L36.1648 13.4961L35.4046 11.5956H24.2987H13.1929L11.1024 16.8457L9 22.1076L9.99774 24.0912L10.9955 26.0867V33.0946V40.1026H13.8462H16.685L16.7206 46.8493L16.7563 53.5959L17.1958 54.4986C17.7303 55.5795 18.4192 56.2447 19.5238 56.7673L20.3196 57.1474L24.2156 57.183L28.0997 57.2187V59.1191V61.0077H26.1992H24.2987V61.958V62.9082H38.5522H52.8057V61.958V61.0077H50.9053H49.0048V59.1191V57.2187L52.9008 57.183L56.7848 57.1474L57.5806 56.7673C58.6853 56.2447 59.3742 55.5795 59.9087 54.4986L60.3482 53.5959L60.3838 40.6728L60.4076 27.7496L61.2747 27.322C62.9376 26.4905 64.8737 24.7682 65.8833 23.236C68.4252 19.3875 68.6865 14.8145 66.6197 10.7048C65.9902 9.46948 65.2775 8.53113 64.1254 7.42648C63.0207 6.36935 62.4387 5.95362 61.1678 5.32409C58.911 4.18381 56.3216 3.76808 53.8154 4.12442ZM56.2384 6.06052C56.6898 6.29808 57.3787 7.08202 57.7232 7.78282C57.9726 8.25793 58.5071 9.55263 58.5071 9.65953C58.5071 9.68328 57.2243 9.69516 55.6564 9.69516C54.0885 9.69516 52.8057 9.68328 52.8057 9.65953C52.8057 9.55263 53.3402 8.25793 53.5778 7.78282C54.1123 6.73756 55.0269 5.89423 55.6327 5.89423C55.7871 5.89423 56.0484 5.9655 56.2384 6.06052ZM51.7248 7.3077C51.5348 7.69967 51.2497 8.37671 51.0953 8.82807L50.8221 9.63577L49.2661 9.67141C48.399 9.68328 47.6982 9.65953 47.6982 9.60014C47.6982 9.48136 48.5178 8.69742 49.278 8.09164C49.8481 7.6284 51.6773 6.61878 51.9386 6.6069C52.0218 6.6069 51.9268 6.90385 51.7248 7.3077ZM60.3838 7.07014C60.8946 7.33146 61.5954 7.75906 61.9517 8.03225C62.7475 8.6499 63.6146 9.46948 63.6146 9.60014C63.6146 9.65953 62.9138 9.68328 62.0467 9.67141L60.4907 9.63577L60.2175 8.82807C60.0631 8.37671 59.7781 7.69967 59.588 7.3077C59.398 6.92761 59.2911 6.6069 59.3505 6.6069C59.4098 6.6069 59.8731 6.82071 60.3838 7.07014ZM50.3114 11.7976C50.3114 11.9163 50.2639 12.3558 50.2045 12.7834C50.1451 13.211 50.0619 13.9712 50.0144 14.4701L49.9313 15.3966H47.5913H45.2395L45.3464 14.7076C45.4652 13.8881 45.5958 13.4486 46.0116 12.4033L46.3323 11.5956H48.3278C50.1332 11.5956 50.3114 11.6194 50.3114 11.7976ZM59.0298 11.7976C59.101 12.0707 59.3029 13.5555 59.398 14.5889L59.4811 15.3966H55.6564H51.8317L51.9149 14.5889C52.0099 13.5555 52.2118 12.0707 52.2831 11.7976C52.3425 11.6075 52.6038 11.5956 55.6564 11.5956C58.7091 11.5956 58.9704 11.6075 59.0298 11.7976ZM65.3013 12.4033C65.717 13.4486 65.8477 13.8881 65.9665 14.7076L66.0734 15.3966H63.7215H61.3816L61.2984 14.5889C61.2628 14.1494 61.1797 13.3654 61.1203 12.8547C61.049 12.3321 61.0015 11.8451 61.0015 11.75C61.0015 11.6313 61.4053 11.5956 62.997 11.5956H64.9806L65.3013 12.4033ZM20.2365 13.7574C20.2127 13.9118 19.8683 15.6222 19.4882 17.5583L18.7755 21.098H15.1171C12.2308 21.098 11.4587 21.0623 11.5062 20.9435C11.5419 20.8723 12.2189 19.1619 13.0266 17.1426L14.4876 13.4961H17.3858H20.284L20.2365 13.7574ZM27.0901 17.0238C27.4701 18.9718 27.8146 20.6822 27.8384 20.8248L27.8859 21.098H24.2987H20.7116L20.7591 20.8248C20.7829 20.6822 21.1273 18.9718 21.5074 17.0238L22.2201 13.4961H24.2987H26.3774L27.0901 17.0238ZM35.5709 17.1426C36.3786 19.1619 37.0556 20.8723 37.0913 20.9435C37.1388 21.0623 36.3667 21.098 33.4804 21.098H29.822L29.1093 17.5583C28.7292 15.6222 28.3847 13.9118 28.361 13.7574L28.3135 13.4961H31.2117H34.1099L35.5709 17.1426ZM43.4341 17.9741C43.4816 18.3185 43.5528 18.7343 43.5885 18.9005L43.6597 19.1975L41.0347 19.1737L38.4097 19.1381L38.1365 18.4492C37.602 17.1426 37.3051 17.2851 40.5358 17.3208L43.3628 17.3564L43.4341 17.9741ZM50.0144 18.2116C50.0619 18.7224 50.1451 19.4826 50.2045 19.9102C50.3826 21.2286 50.5846 21.098 48.3278 21.098H46.3323L46.0116 20.2903C45.5958 19.245 45.4652 18.8055 45.3464 17.9741L45.2395 17.297H47.5913H49.9313L50.0144 18.2116ZM59.398 18.0928C59.3029 19.1381 59.101 20.6228 59.0298 20.8842C58.9704 21.0861 58.7091 21.098 55.6564 21.098C52.6038 21.098 52.3425 21.0861 52.2831 20.8842C52.2118 20.6228 52.0099 19.1381 51.9149 18.0928L51.8317 17.297H55.6564H59.4811L59.398 18.0928ZM65.9665 18.0216C65.8596 18.663 65.5626 19.6607 65.1469 20.706L64.9925 21.098H62.997C60.7283 21.098 60.9302 21.2286 61.1084 19.9102C61.1678 19.4826 61.2509 18.7224 61.2984 18.2116L61.3816 17.297H63.7215H66.0734L65.9665 18.0216ZM44.7763 22.1076C45.4295 23.3429 46.1185 24.2456 47.1756 25.2671C49.0286 27.0369 51.5348 28.2485 53.946 28.5573L54.6468 28.6404L54.6824 38.1784L54.7062 47.7045H38.5522H22.3983V43.9035V40.1026H29.0499H35.7015V42.9533V45.804H44.2536H52.8057V38.2021V30.6003H45.2039H37.602V28.3435V26.0867L38.5997 24.0912C39.5737 22.1313 39.5975 22.0957 39.4312 21.7037C39.3362 21.4899 39.2649 21.2642 39.2649 21.2049C39.2649 21.1455 40.3814 21.098 41.7474 21.098H44.2299L44.7763 22.1076ZM17.5283 23.9487L17.0532 24.8989H14.7964H12.5396L12.0645 23.9487L11.5894 22.9984H14.7964H18.0035L17.5283 23.9487ZM27.0307 23.9487L26.5555 24.8989H24.2987H22.0419L21.5668 23.9487L21.0917 22.9984H24.2987H27.5058L27.0307 23.9487ZM36.533 23.9487L36.0579 24.8989H33.8011H31.5443L31.0692 23.9487L30.594 22.9984H33.8011H37.0081L36.533 23.9487ZM51.0953 23.8655C51.2497 24.3169 51.5348 24.9939 51.7248 25.3859C51.9149 25.766 52.0218 26.0867 51.9505 26.0867C51.8911 26.0867 51.3685 25.8491 50.8102 25.5522C49.7887 25.0295 48.1852 23.7824 47.8408 23.2597L47.6626 22.9865L49.2424 23.0222L50.8221 23.0578L51.0953 23.8655ZM58.5071 23.0459C58.5071 23.1885 57.7826 24.8395 57.5213 25.2909C57.153 25.9085 56.3691 26.6449 55.9534 26.7518C55.0031 26.9894 53.9698 25.956 53.1502 23.9249C52.9601 23.4735 52.8057 23.0697 52.8057 23.0459C52.8057 23.0222 54.0885 22.9984 55.6564 22.9984C57.2243 22.9984 58.5071 23.0222 58.5071 23.0459ZM63.4721 23.2597C63.1276 23.7824 61.5241 25.0295 60.5026 25.5522C59.9444 25.8491 59.4217 26.0867 59.3623 26.0867C59.2911 26.0867 59.4217 25.7303 59.6355 25.279C59.8493 24.8395 60.1106 24.1862 60.2294 23.8299C60.3482 23.4735 60.467 23.141 60.4907 23.0816C60.5145 23.0341 61.239 22.9984 62.0943 22.9984H63.6384L63.4721 23.2597ZM20.2365 25.5522L20.8542 26.7994H24.2987H27.7433L28.361 25.5522C28.7055 24.8633 29.0143 24.305 29.0499 24.305C29.0855 24.305 29.3944 24.8633 29.7388 25.5522L30.3565 26.7994H33.029H35.7015V32.5008V38.2021H30.0001H24.2987V33.451V28.6998H19.5476H14.7964V33.451V38.2021H13.8462H12.896V32.5008V26.7994H15.5685H18.241L18.8587 25.5522C19.2031 24.8633 19.5119 24.305 19.5476 24.305C19.5832 24.305 19.892 24.8633 20.2365 25.5522ZM58.5071 40.5896C58.5071 49.8663 58.4715 52.9664 58.3646 53.3346C58.1745 53.9879 57.1887 54.9738 56.5354 55.1638C56.2622 55.247 55.7396 55.3063 55.3714 55.3063H54.7062V53.4059V51.5054H48.0546H41.4029V53.4059V55.3063H31.2354C23.598 55.3063 20.9373 55.2707 20.5691 55.1638C19.9158 54.9738 18.9299 53.9879 18.7399 53.3346C18.633 52.9783 18.5974 51.1253 18.5974 46.4692V40.1026H19.5476H20.4859L20.5216 44.248C20.5572 48.2271 20.5691 48.4172 20.8066 48.726C20.9373 48.9041 21.1986 49.1655 21.3768 49.2961C21.6975 49.5456 21.7212 49.5456 38.5522 49.5456C55.3832 49.5456 55.407 49.5456 55.7277 49.2961C55.9059 49.1655 56.1672 48.9041 56.2978 48.726C56.5473 48.4053 56.5473 48.2627 56.6067 38.5229L56.6661 28.6404L57.3787 28.5573C57.7707 28.5098 58.1389 28.4385 58.2102 28.4147C58.2696 28.391 58.3646 28.3554 58.424 28.3554C58.4715 28.3435 58.5071 33.8548 58.5071 40.5896ZM22.3983 34.4012V38.2021H19.5476H16.6969V34.4012V30.6003H19.5476H22.3983V34.4012ZM50.9053 38.2021V43.9035H44.2536H37.602V38.2021V32.5008H44.2536H50.9053V38.2021ZM45.2039 54.3561V55.3063H44.2536H43.3034V54.3561V53.4059H44.2536H45.2039V54.3561ZM49.0048 54.3561V55.3063H48.0546H47.1043V54.3561V53.4059H48.0546H49.0048V54.3561ZM52.8057 54.3561V55.3063H51.8555H50.9053V54.3561V53.4059H51.8555H52.8057V54.3561ZM47.1043 59.1073V61.0077H38.5522H30.0001V59.1073V57.2068H38.5522H47.1043V59.1073Z" fill="white"/>
<path d="M39.5059 27.7509V28.7012H43.3068H47.1077V27.7509V26.8007H43.3068H39.5059V27.7509Z" fill="#1CED80"/>
<path d="M24.2988 42.9482V43.8984H29.05H33.8012V42.9482V41.998H29.05H24.2988V42.9482Z" fill="#1CED80"/>
<path d="M26.1992 32.5018V36.3027H30.0002H33.8011V32.5018V28.7009H30.0002H26.1992V32.5018ZM31.9006 32.5018V34.4023H30.0002H28.0997V32.5018V30.6013H30.0002H31.9006V32.5018Z" fill="#1CED80"/>
<path d="M44.3522 36.7384L41.4065 39.6841L40.8363 39.114C40.5275 38.8051 40.2187 38.5557 40.1474 38.5557C39.993 38.5557 38.9121 39.6603 38.9121 39.8148C38.9121 39.8741 39.4704 40.4799 40.1593 41.1688L41.4065 42.416L45.0292 38.7933C47.0247 36.7978 48.652 35.1111 48.652 35.0517C48.652 34.8973 47.5592 33.8045 47.4048 33.8045C47.3335 33.8045 45.9676 35.123 44.3522 36.7384Z" fill="#1CED80"/>
</g>
<defs>
<clipPath id="clip0_582_20">
<rect width="80" height="77" fill="white"/>
</clipPath>
</defs>
</svg>
