<svg width="80" height="77" viewBox="0 0 80 77" fill="none" xmlns="http://www.w3.org/2000/svg">
<g clip-path="url(#clip0_582_23)">
<path fill-rule="evenodd" clip-rule="evenodd" d="M79.9424 35.833C80.7729 46.7642 72.4704 55.9053 64.5236 63.4136C56.8744 70.6408 47.5827 76.1425 37.0866 76.3243C26.4208 76.509 15.7371 72.4289 8.68749 64.3808C1.9857 56.7298 2.21967 46.0093 1.61885 35.833C0.958359 24.6459 -3.18731 11.1744 5.10382 3.68267C13.3462 -3.76501 26.1297 2.11087 37.0866 3.7849C45.6432 5.09219 53.6861 6.97324 60.6302 12.1661C69.0964 18.4972 79.1389 25.2566 79.9424 35.833Z" fill="#020054"/>
<path d="M34.7464 18.1324C32.7407 18.4035 30.5452 18.9998 30.2109 19.3612C29.6507 19.9846 29.6959 20.8248 30.3283 21.3217C30.7349 21.638 31.0692 21.638 32.1172 21.3398C34.3308 20.7074 36.6347 20.4454 38.7127 20.608C41.5225 20.8248 43.465 21.3579 45.7689 22.5415C47.4404 23.4088 47.8289 23.6527 47.7656 23.8334C47.7385 23.9057 47.6663 24.249 47.603 24.5924C47.1513 27.3299 49.7533 29.8687 52.4999 29.3809C55.1471 28.902 56.7102 26.2006 55.8067 23.6799C55.1381 21.8367 53.0872 20.6441 51.1537 20.9694C50.8104 21.0236 50.2773 21.1953 49.9701 21.3398L49.419 21.6018L48.4975 21.0507C45.778 19.4335 43.194 18.5209 40.1854 18.1234C38.8753 17.9517 36.0203 17.9608 34.7464 18.1324Z" fill="white"/>
<path d="M22.3696 20.9881C21.7281 21.1055 20.8788 21.5392 20.3548 22.009C18.9544 23.2649 18.5388 25.2977 19.3429 26.9692L19.5959 27.5022L19.1441 28.2792C16.9487 32.0648 16 35.4529 16 39.4915C16 41.8044 16.2801 43.7198 16.9035 45.7436C17.1113 46.4122 17.2378 46.6652 17.4456 46.8459C18.2045 47.4783 19.3971 47.0717 19.5778 46.1231C19.623 45.8972 19.5688 45.5719 19.3971 45.0208C18.8279 43.1054 18.602 41.5876 18.602 39.4915C18.602 37.2689 18.8731 35.5342 19.5417 33.5375C19.7856 32.7786 21.2312 29.7519 21.5293 29.3544C21.6378 29.2008 21.6829 29.2008 22.3696 29.3453C24.7186 29.8242 27.0316 28.1889 27.402 25.7765C27.7453 23.6082 26.2365 21.476 24.0501 21.0061C23.3815 20.8706 23.0201 20.8616 22.3696 20.9881Z" fill="#1CED80"/>
<path d="M56.0524 31.992C55.429 32.3715 55.2754 32.9497 55.5645 33.8171C56.5855 36.916 56.6939 40.8643 55.8446 44.1349C55.4742 45.5895 55.1128 46.5201 54.2545 48.2638C53.5136 49.7817 53.4865 49.8088 53.2426 49.7546C51.9144 49.4564 51.3181 49.4655 50.3604 49.8088C48.4812 50.4683 47.2524 52.5734 47.6138 54.534C48.1559 57.5246 51.5892 59.0063 54.137 57.371C55.8717 56.2597 56.5132 54.1094 55.7 52.0856L55.4742 51.5254L56.0163 50.5587C57.6245 47.6585 58.6183 44.6318 58.9255 41.6774C59.0791 40.1686 58.9887 37.2865 58.7358 35.877C58.5189 34.6212 57.9859 32.6877 57.7781 32.3715C57.5703 32.0553 57.1004 31.8113 56.7029 31.8113C56.5041 31.8113 56.215 31.8926 56.0524 31.992Z" fill="#1CED80"/>
<path d="M22.324 49.6105C21.5651 49.7731 20.6706 50.2881 20.1014 50.8934C17.5265 53.6852 19.478 58.0852 23.2727 58.031C24.0045 58.0219 24.8267 57.8141 25.2784 57.5069C25.4862 57.3804 25.5314 57.3895 26.218 57.787C27.3835 58.4556 29.3441 59.4133 30.2837 59.7566C31.2595 60.127 32.8587 60.5426 34.2049 60.7866C34.9277 60.9131 35.5962 60.9492 37.5026 60.9492C39.6167 60.9492 40.0324 60.9221 41.0714 60.7324C42.3724 60.5065 44.2968 59.9735 44.6221 59.7657C45.3539 59.2868 45.3449 58.0942 44.613 57.6063C44.1974 57.3353 43.836 57.3533 42.6976 57.6786C38.6229 58.8531 33.9429 58.573 30.2837 56.9377C29.4706 56.5763 27.6907 55.6638 27.3113 55.4108C27.2209 55.3476 27.2299 55.2121 27.3474 54.7061C27.8262 52.6552 26.6156 50.4778 24.5918 49.7821C23.9955 49.5743 22.9022 49.493 22.324 49.6105Z" fill="white"/>
<path d="M37.7259 29.0062C39.7764 29.1993 41.6215 29.8897 43.1707 31.0485C45.8787 33.0702 47.4238 36.1399 47.4238 39.5013C47.4238 42.8791 45.8828 45.9241 43.1378 47.9828C41.7941 48.9855 40.1545 49.6512 38.3546 49.9265C37.6971 50.0252 36.189 50.0252 35.4864 49.9224C34.307 49.7539 33.2468 49.4211 32.1989 48.8951C31.1017 48.3404 30.436 47.839 30.2141 47.4075C29.6429 46.2816 30.2799 44.9584 31.5127 44.7201C32.0387 44.6132 32.4249 44.7201 33.0701 45.1392C34.7302 46.2159 36.4808 46.5528 38.3711 46.1583C39.6367 45.8953 40.8572 45.2132 41.7982 44.2434C42.7557 43.2531 43.3474 42.1148 43.631 40.7012C43.7337 40.1957 43.7337 38.8068 43.631 38.3014C43.3474 36.8878 42.7557 35.7495 41.7982 34.7592C39.497 32.3881 35.926 32.0059 33.1276 33.8305C32.877 33.9907 32.5811 34.1592 32.466 34.2044C31.299 34.6482 30.0005 33.736 30.0005 32.4826C30.0046 31.5252 30.5388 30.9457 32.1989 30.1075C33.67 29.3678 35.0343 29.0349 36.7191 29.0062C37.1712 28.9979 37.6232 28.9979 37.7259 29.0062Z" fill="white"/>
</g>
<defs>
<clipPath id="clip0_582_23">
<rect width="80" height="77" fill="white"/>
</clipPath>
</defs>
</svg>
