<svg width="80" height="77" viewBox="0 0 80 77" fill="none" xmlns="http://www.w3.org/2000/svg">
<g clip-path="url(#clip0_571_19)">
<path fill-rule="evenodd" clip-rule="evenodd" d="M79.9424 35.833C80.7729 46.7642 72.4704 55.9053 64.5236 63.4136C56.8744 70.6408 47.5827 76.1425 37.0866 76.3243C26.4208 76.509 15.7371 72.4289 8.68749 64.3808C1.9857 56.7298 2.21967 46.0093 1.61885 35.833C0.958359 24.6459 -3.18731 11.1744 5.10382 3.68267C13.3462 -3.76501 26.1297 2.11087 37.0866 3.7849C45.6432 5.09219 53.6861 6.97324 60.6302 12.1661C69.0964 18.4972 79.1389 25.2566 79.9424 35.833Z" fill="#020054"/>
<mask id="path-2-inside-1_571_19" fill="white">
<path d="M34.1341 12.7924C32.371 13.8056 30.8323 14.7326 30.7147 14.8512C30.5117 15.056 30.501 15.2176 30.4796 18.4298L30.4476 21.7928L27.7548 23.4958L25.0514 25.1989L24.9873 24.3582C24.9552 23.8947 24.8911 23.442 24.8484 23.3449C24.7522 23.1186 18.2448 19.3675 17.9563 19.3675C17.7319 19.3675 11.5663 22.8707 11.1923 23.2156C11.0214 23.3773 11 23.6899 11 26.8804C11 30.2111 11.0107 30.3728 11.2137 30.5453C11.3313 30.6423 12.7097 31.4399 14.2804 32.3022L17.1442 33.8867V38.2414V42.5961L14.3125 44.2345C12.7524 45.1291 11.374 45.9375 11.2458 46.0346C11.0107 46.207 11 46.2825 11 47.7592C11 49.4838 11.0641 49.6563 11.7587 49.6778C12.2716 49.6994 12.496 49.3545 12.496 48.5784V47.9532L14.8468 49.2467L17.1976 50.5401V52.7929V55.0565L16.7488 54.787C15.1567 53.8708 11.919 52.1354 11.7907 52.1354C11.5877 52.1354 11.1817 52.3402 11.0855 52.5019C11.0427 52.5666 11 52.7822 11 52.9654C11 53.2564 11.0748 53.3642 11.3954 53.5798C12.3784 54.2157 17.7532 57.0937 17.9563 57.0937C18.0738 57.0937 19.4095 56.4146 20.9054 55.5955L23.6302 54.0972L27.0923 56.4146L30.5544 58.7429V60.4891C30.5544 61.761 30.5865 62.2676 30.6933 62.3538C30.7575 62.4185 32.2855 63.27 34.0806 64.2617C36.5383 65.6091 37.4038 66.0402 37.6069 65.9971C37.9167 65.9324 44.1036 62.5478 44.3387 62.3107C44.4669 62.1921 44.5097 61.7825 44.531 60.4028L44.5738 58.6567L47.9718 56.3715L51.3804 54.0864L54.1052 55.5847C55.6119 56.4146 56.9369 57.0937 57.0544 57.0937C57.2575 57.0937 63.0383 53.9786 63.7115 53.5151L64 53.3103V49.7748C64 46.6166 63.9786 46.2178 63.829 46.0884C63.7329 46.0022 62.3438 45.183 60.7516 44.2668L57.8558 42.5853V38.2414V33.8975L60.8264 32.2483C62.472 31.3537 63.8504 30.5453 63.9038 30.459C63.9573 30.3728 64 28.756 64 26.8481C64 23.6899 63.9786 23.3773 63.8077 23.2264C63.3375 22.8168 63.3054 22.8276 59.5335 24.9079L57.0544 26.2768L54.7571 25.0265C53.4962 24.3258 52.4597 23.733 52.4597 23.6899C52.4597 23.6575 53.5389 23.0216 54.8425 22.2778C57.2681 20.8981 57.8024 20.5101 57.8024 20.1436C57.8024 19.8202 57.3964 19.3675 57.0972 19.3675C56.7766 19.3675 50.2585 23.1078 50.1516 23.3557C50.1089 23.442 50.0448 23.8947 50.0127 24.3582L49.9486 25.1989L47.2452 23.4958L44.5524 21.782L44.5204 18.419C44.499 15.2284 44.4883 15.056 44.2853 14.8512C43.9861 14.5494 37.9488 11.0678 37.6175 11.0031C37.4038 10.96 36.6345 11.3588 34.1341 12.7924ZM39.7333 13.8811C40.8873 14.5494 41.8917 15.1422 41.9665 15.2176C42.0841 15.3254 41.6673 15.5949 39.8081 16.6189L37.5 17.88L35.2026 16.6081C33.7494 15.8213 32.9266 15.3147 32.9907 15.25C33.1831 15.056 37.3397 12.6954 37.4893 12.6846C37.5641 12.6846 38.5792 13.2235 39.7333 13.8811ZM35.1492 18.3759L36.6986 19.2382L36.7306 21.4586C36.7413 22.6767 36.72 23.6791 36.6772 23.6791C36.6452 23.6791 35.5873 23.1078 34.3264 22.418L32.0504 21.1568V18.9148V16.662L32.8304 17.0932C33.2472 17.3303 34.2944 17.9124 35.1492 18.3759ZM22.5403 23.6899C22.5403 23.733 21.5038 24.3258 20.2429 25.0265L17.9563 26.2876L15.6482 25.0157C14.2484 24.2396 13.3829 23.7114 13.447 23.6468C13.5004 23.5929 14.5369 22.9785 15.755 22.2778L17.9563 21.0059L20.2429 22.3209C21.5038 23.0324 22.5403 23.6575 22.5403 23.6899ZM34.273 24.1534L36.6986 25.5007V28.3787V31.2567L34.0272 32.798C32.5633 33.6496 31.3024 34.3394 31.2383 34.3179C31.1849 34.3071 29.7423 33.3801 28.0327 32.2591L24.9446 30.2327L24.998 28.6051L25.0514 26.9882L28.3105 24.9079C30.1056 23.7653 31.6337 22.8276 31.7085 22.8276C31.7833 22.8168 32.9373 23.4204 34.273 24.1534ZM46.6575 24.8971L49.9486 26.9774L50.002 28.6051L50.0554 30.2327L46.9673 32.2699C45.2683 33.3801 43.8258 34.3071 43.7617 34.3179C43.6976 34.3394 42.4474 33.6496 40.9728 32.798L38.3014 31.2567V28.3787V25.5007L40.7056 24.1641C42.0306 23.4312 43.1633 22.8276 43.2381 22.8276C43.3022 22.8168 44.8409 23.7545 46.6575 24.8971ZM15.8085 26.8804L17.1442 27.6134L17.1762 29.8554C17.1869 31.0842 17.1762 32.0866 17.1442 32.0866C17.1121 32.0866 16.0542 31.5154 14.7933 30.8255L12.496 29.5536V27.3116V25.0696L13.4897 25.6085C14.024 25.8995 15.0712 26.4816 15.8085 26.8804ZM54.8639 26.8696L56.253 27.635L56.2851 29.8554C56.2958 31.0842 56.2851 32.0866 56.2423 32.0866C56.2103 32.0866 55.1524 31.5154 53.8915 30.8255L51.6048 29.5644V27.3224V25.0696L52.5452 25.587C53.0581 25.8672 54.1052 26.4385 54.8639 26.8696ZM27.0496 33.4124L30.3942 35.6113L30.4262 38.4139L30.4476 41.2272L27.3808 43.4045C25.6925 44.601 24.2607 45.6034 24.1966 45.625C24.1431 45.6465 22.8823 44.9782 21.4183 44.1267L18.747 42.5745V38.2414V33.8975L21.1512 32.5717C22.4762 31.8387 23.5875 31.2351 23.6302 31.2243C23.6837 31.2243 25.2224 32.216 27.0496 33.4124ZM53.8488 32.5609L56.253 33.8975V38.2414V42.5853L53.5817 44.1267C52.1177 44.9782 50.8675 45.6465 50.8034 45.625C50.75 45.6034 49.3181 44.601 47.6192 43.4045L44.5524 41.2164L44.5738 38.4139L44.6058 35.6113L47.9183 33.4232C49.7456 32.2268 51.2843 31.2351 51.3377 31.2351C51.4018 31.2351 52.5238 31.8279 53.8488 32.5609ZM39.7333 33.822C40.8873 34.4903 41.8917 35.0832 41.9665 35.1586C42.0841 35.2664 41.7208 35.5036 40.0966 36.3982C38.996 37.0126 37.9595 37.5839 37.7992 37.6701C37.5321 37.8318 37.4573 37.7995 35.2026 36.5599C33.931 35.87 32.9266 35.2556 32.98 35.2125C33.1617 35.0293 37.3504 32.6364 37.4893 32.6364C37.5641 32.6256 38.5792 33.1645 39.7333 33.822ZM35.1492 38.3169L36.6986 39.1792L36.7306 41.3996C36.7413 42.6176 36.72 43.6201 36.6879 43.6201C36.6452 43.6201 35.5873 43.0596 34.3371 42.3697L32.0504 41.1194V38.8666V36.603L32.8304 37.0342C33.2472 37.2713 34.2944 37.8534 35.1492 38.3169ZM34.0806 43.9866L36.6986 45.4309V48.4706V51.5102L33.8135 53.181C32.2321 54.0972 30.8323 54.9379 30.7254 55.0457C30.5758 55.1966 30.5117 55.4445 30.469 56.0482L30.4155 56.8674L27.68 55.0242C26.1734 54.011 24.9446 53.181 24.9446 53.1702C24.9446 53.1702 24.9659 51.7582 24.998 50.0335L25.0514 46.9184L28.0968 44.7303C29.7744 43.5338 31.2169 42.553 31.3024 42.553C31.3879 42.553 32.6381 43.1997 34.0806 43.9866ZM46.9353 44.7519L49.9913 46.9076L50.002 49.8934C50.002 51.5318 50.0234 52.9331 50.0554 53.0193C50.0875 53.1055 49.1258 53.8169 47.3413 55.0134L44.5845 56.8566L44.531 56.0482C44.4883 55.4553 44.4242 55.1966 44.2746 55.0457C44.1677 54.9379 42.7786 54.0972 41.1865 53.181L38.3014 51.521L38.2694 48.4921L38.248 45.4741L40.8873 44.0081C42.3512 43.1997 43.6121 42.553 43.7083 42.5745C43.8044 42.5853 45.2577 43.5662 46.9353 44.7519ZM20.3284 45.2477C21.5679 45.9699 22.6044 46.5627 22.6151 46.5735C22.6579 46.6058 18.0631 49.1173 17.9669 49.1173C17.796 49.1173 13.4683 46.6921 13.4577 46.5951C13.4363 46.4873 17.6998 43.965 17.9242 43.9542C17.999 43.9434 19.0782 44.5363 20.3284 45.2477ZM59.4052 45.2477C60.6448 45.9699 61.6278 46.5951 61.5744 46.6382C61.3607 46.843 57.1079 49.1173 56.9903 49.0958C56.9262 49.0742 55.847 48.5029 54.6075 47.8239C52.5558 46.6921 52.3849 46.5735 52.5986 46.4549C52.7268 46.3903 53.7526 45.7974 54.8639 45.1399C55.9859 44.4932 56.9476 43.9542 57.0117 43.9542C57.0865 43.9434 58.155 44.5363 59.4052 45.2477ZM54.0198 49.2898L56.3065 50.5401V52.739C56.3065 54.0648 56.2637 54.9379 56.1996 54.9379C56.1462 54.9379 55.099 54.3882 53.8808 53.7091L51.6583 52.4803L51.6262 50.2599C51.6155 49.0419 51.6369 48.0394 51.669 48.0394C51.7117 48.0394 52.7696 48.5999 54.0198 49.2898ZM39.8401 54.1619C41.0369 54.8625 42.0093 55.4769 42.0093 55.52C42.0093 55.6062 40.3851 56.5332 38.1198 57.762L37.5107 58.0854L35.1919 56.8242C33.931 56.1236 32.9266 55.52 32.98 55.4769C33.1724 55.2721 37.3504 52.9007 37.5 52.9007C37.5855 52.9007 38.6433 53.472 39.8401 54.1619ZM35.0423 58.5381L36.6986 59.4543L36.7306 61.664C36.7413 62.882 36.72 63.8844 36.6879 63.8844C36.6452 63.8844 35.5873 63.3239 34.3371 62.6341L32.0504 61.3837V59.1309V56.8781L32.7236 57.2554C33.0869 57.4602 34.1341 58.0315 35.0423 58.5381Z"/>
</mask>
<path d="M34.1341 12.7924C32.371 13.8056 30.8323 14.7326 30.7147 14.8512C30.5117 15.056 30.501 15.2176 30.4796 18.4298L30.4476 21.7928L27.7548 23.4958L25.0514 25.1989L24.9873 24.3582C24.9552 23.8947 24.8911 23.442 24.8484 23.3449C24.7522 23.1186 18.2448 19.3675 17.9563 19.3675C17.7319 19.3675 11.5663 22.8707 11.1923 23.2156C11.0214 23.3773 11 23.6899 11 26.8804C11 30.2111 11.0107 30.3728 11.2137 30.5453C11.3313 30.6423 12.7097 31.4399 14.2804 32.3022L17.1442 33.8867V38.2414V42.5961L14.3125 44.2345C12.7524 45.1291 11.374 45.9375 11.2458 46.0346C11.0107 46.207 11 46.2825 11 47.7592C11 49.4838 11.0641 49.6563 11.7587 49.6778C12.2716 49.6994 12.496 49.3545 12.496 48.5784V47.9532L14.8468 49.2467L17.1976 50.5401V52.7929V55.0565L16.7488 54.787C15.1567 53.8708 11.919 52.1354 11.7907 52.1354C11.5877 52.1354 11.1817 52.3402 11.0855 52.5019C11.0427 52.5666 11 52.7822 11 52.9654C11 53.2564 11.0748 53.3642 11.3954 53.5798C12.3784 54.2157 17.7532 57.0937 17.9563 57.0937C18.0738 57.0937 19.4095 56.4146 20.9054 55.5955L23.6302 54.0972L27.0923 56.4146L30.5544 58.7429V60.4891C30.5544 61.761 30.5865 62.2676 30.6933 62.3538C30.7575 62.4185 32.2855 63.27 34.0806 64.2617C36.5383 65.6091 37.4038 66.0402 37.6069 65.9971C37.9167 65.9324 44.1036 62.5478 44.3387 62.3107C44.4669 62.1921 44.5097 61.7825 44.531 60.4028L44.5738 58.6567L47.9718 56.3715L51.3804 54.0864L54.1052 55.5847C55.6119 56.4146 56.9369 57.0937 57.0544 57.0937C57.2575 57.0937 63.0383 53.9786 63.7115 53.5151L64 53.3103V49.7748C64 46.6166 63.9786 46.2178 63.829 46.0884C63.7329 46.0022 62.3438 45.183 60.7516 44.2668L57.8558 42.5853V38.2414V33.8975L60.8264 32.2483C62.472 31.3537 63.8504 30.5453 63.9038 30.459C63.9573 30.3728 64 28.756 64 26.8481C64 23.6899 63.9786 23.3773 63.8077 23.2264C63.3375 22.8168 63.3054 22.8276 59.5335 24.9079L57.0544 26.2768L54.7571 25.0265C53.4962 24.3258 52.4597 23.733 52.4597 23.6899C52.4597 23.6575 53.5389 23.0216 54.8425 22.2778C57.2681 20.8981 57.8024 20.5101 57.8024 20.1436C57.8024 19.8202 57.3964 19.3675 57.0972 19.3675C56.7766 19.3675 50.2585 23.1078 50.1516 23.3557C50.1089 23.442 50.0448 23.8947 50.0127 24.3582L49.9486 25.1989L47.2452 23.4958L44.5524 21.782L44.5204 18.419C44.499 15.2284 44.4883 15.056 44.2853 14.8512C43.9861 14.5494 37.9488 11.0678 37.6175 11.0031C37.4038 10.96 36.6345 11.3588 34.1341 12.7924ZM39.7333 13.8811C40.8873 14.5494 41.8917 15.1422 41.9665 15.2176C42.0841 15.3254 41.6673 15.5949 39.8081 16.6189L37.5 17.88L35.2026 16.6081C33.7494 15.8213 32.9266 15.3147 32.9907 15.25C33.1831 15.056 37.3397 12.6954 37.4893 12.6846C37.5641 12.6846 38.5792 13.2235 39.7333 13.8811ZM35.1492 18.3759L36.6986 19.2382L36.7306 21.4586C36.7413 22.6767 36.72 23.6791 36.6772 23.6791C36.6452 23.6791 35.5873 23.1078 34.3264 22.418L32.0504 21.1568V18.9148V16.662L32.8304 17.0932C33.2472 17.3303 34.2944 17.9124 35.1492 18.3759ZM22.5403 23.6899C22.5403 23.733 21.5038 24.3258 20.2429 25.0265L17.9563 26.2876L15.6482 25.0157C14.2484 24.2396 13.3829 23.7114 13.447 23.6468C13.5004 23.5929 14.5369 22.9785 15.755 22.2778L17.9563 21.0059L20.2429 22.3209C21.5038 23.0324 22.5403 23.6575 22.5403 23.6899ZM34.273 24.1534L36.6986 25.5007V28.3787V31.2567L34.0272 32.798C32.5633 33.6496 31.3024 34.3394 31.2383 34.3179C31.1849 34.3071 29.7423 33.3801 28.0327 32.2591L24.9446 30.2327L24.998 28.6051L25.0514 26.9882L28.3105 24.9079C30.1056 23.7653 31.6337 22.8276 31.7085 22.8276C31.7833 22.8168 32.9373 23.4204 34.273 24.1534ZM46.6575 24.8971L49.9486 26.9774L50.002 28.6051L50.0554 30.2327L46.9673 32.2699C45.2683 33.3801 43.8258 34.3071 43.7617 34.3179C43.6976 34.3394 42.4474 33.6496 40.9728 32.798L38.3014 31.2567V28.3787V25.5007L40.7056 24.1641C42.0306 23.4312 43.1633 22.8276 43.2381 22.8276C43.3022 22.8168 44.8409 23.7545 46.6575 24.8971ZM15.8085 26.8804L17.1442 27.6134L17.1762 29.8554C17.1869 31.0842 17.1762 32.0866 17.1442 32.0866C17.1121 32.0866 16.0542 31.5154 14.7933 30.8255L12.496 29.5536V27.3116V25.0696L13.4897 25.6085C14.024 25.8995 15.0712 26.4816 15.8085 26.8804ZM54.8639 26.8696L56.253 27.635L56.2851 29.8554C56.2958 31.0842 56.2851 32.0866 56.2423 32.0866C56.2103 32.0866 55.1524 31.5154 53.8915 30.8255L51.6048 29.5644V27.3224V25.0696L52.5452 25.587C53.0581 25.8672 54.1052 26.4385 54.8639 26.8696ZM27.0496 33.4124L30.3942 35.6113L30.4262 38.4139L30.4476 41.2272L27.3808 43.4045C25.6925 44.601 24.2607 45.6034 24.1966 45.625C24.1431 45.6465 22.8823 44.9782 21.4183 44.1267L18.747 42.5745V38.2414V33.8975L21.1512 32.5717C22.4762 31.8387 23.5875 31.2351 23.6302 31.2243C23.6837 31.2243 25.2224 32.216 27.0496 33.4124ZM53.8488 32.5609L56.253 33.8975V38.2414V42.5853L53.5817 44.1267C52.1177 44.9782 50.8675 45.6465 50.8034 45.625C50.75 45.6034 49.3181 44.601 47.6192 43.4045L44.5524 41.2164L44.5738 38.4139L44.6058 35.6113L47.9183 33.4232C49.7456 32.2268 51.2843 31.2351 51.3377 31.2351C51.4018 31.2351 52.5238 31.8279 53.8488 32.5609ZM39.7333 33.822C40.8873 34.4903 41.8917 35.0832 41.9665 35.1586C42.0841 35.2664 41.7208 35.5036 40.0966 36.3982C38.996 37.0126 37.9595 37.5839 37.7992 37.6701C37.5321 37.8318 37.4573 37.7995 35.2026 36.5599C33.931 35.87 32.9266 35.2556 32.98 35.2125C33.1617 35.0293 37.3504 32.6364 37.4893 32.6364C37.5641 32.6256 38.5792 33.1645 39.7333 33.822ZM35.1492 38.3169L36.6986 39.1792L36.7306 41.3996C36.7413 42.6176 36.72 43.6201 36.6879 43.6201C36.6452 43.6201 35.5873 43.0596 34.3371 42.3697L32.0504 41.1194V38.8666V36.603L32.8304 37.0342C33.2472 37.2713 34.2944 37.8534 35.1492 38.3169ZM34.0806 43.9866L36.6986 45.4309V48.4706V51.5102L33.8135 53.181C32.2321 54.0972 30.8323 54.9379 30.7254 55.0457C30.5758 55.1966 30.5117 55.4445 30.469 56.0482L30.4155 56.8674L27.68 55.0242C26.1734 54.011 24.9446 53.181 24.9446 53.1702C24.9446 53.1702 24.9659 51.7582 24.998 50.0335L25.0514 46.9184L28.0968 44.7303C29.7744 43.5338 31.2169 42.553 31.3024 42.553C31.3879 42.553 32.6381 43.1997 34.0806 43.9866ZM46.9353 44.7519L49.9913 46.9076L50.002 49.8934C50.002 51.5318 50.0234 52.9331 50.0554 53.0193C50.0875 53.1055 49.1258 53.8169 47.3413 55.0134L44.5845 56.8566L44.531 56.0482C44.4883 55.4553 44.4242 55.1966 44.2746 55.0457C44.1677 54.9379 42.7786 54.0972 41.1865 53.181L38.3014 51.521L38.2694 48.4921L38.248 45.4741L40.8873 44.0081C42.3512 43.1997 43.6121 42.553 43.7083 42.5745C43.8044 42.5853 45.2577 43.5662 46.9353 44.7519ZM20.3284 45.2477C21.5679 45.9699 22.6044 46.5627 22.6151 46.5735C22.6579 46.6058 18.0631 49.1173 17.9669 49.1173C17.796 49.1173 13.4683 46.6921 13.4577 46.5951C13.4363 46.4873 17.6998 43.965 17.9242 43.9542C17.999 43.9434 19.0782 44.5363 20.3284 45.2477ZM59.4052 45.2477C60.6448 45.9699 61.6278 46.5951 61.5744 46.6382C61.3607 46.843 57.1079 49.1173 56.9903 49.0958C56.9262 49.0742 55.847 48.5029 54.6075 47.8239C52.5558 46.6921 52.3849 46.5735 52.5986 46.4549C52.7268 46.3903 53.7526 45.7974 54.8639 45.1399C55.9859 44.4932 56.9476 43.9542 57.0117 43.9542C57.0865 43.9434 58.155 44.5363 59.4052 45.2477ZM54.0198 49.2898L56.3065 50.5401V52.739C56.3065 54.0648 56.2637 54.9379 56.1996 54.9379C56.1462 54.9379 55.099 54.3882 53.8808 53.7091L51.6583 52.4803L51.6262 50.2599C51.6155 49.0419 51.6369 48.0394 51.669 48.0394C51.7117 48.0394 52.7696 48.5999 54.0198 49.2898ZM39.8401 54.1619C41.0369 54.8625 42.0093 55.4769 42.0093 55.52C42.0093 55.6062 40.3851 56.5332 38.1198 57.762L37.5107 58.0854L35.1919 56.8242C33.931 56.1236 32.9266 55.52 32.98 55.4769C33.1724 55.2721 37.3504 52.9007 37.5 52.9007C37.5855 52.9007 38.6433 53.472 39.8401 54.1619ZM35.0423 58.5381L36.6986 59.4543L36.7306 61.664C36.7413 62.882 36.72 63.8844 36.6879 63.8844C36.6452 63.8844 35.5873 63.3239 34.3371 62.6341L32.0504 61.3837V59.1309V56.8781L32.7236 57.2554C33.0869 57.4602 34.1341 58.0315 35.0423 58.5381Z" fill="#1CED80" stroke="white" stroke-width="2" mask="url(#path-2-inside-1_571_19)"/>
</g>
<defs>
<clipPath id="clip0_571_19">
<rect width="80" height="77" fill="white"/>
</clipPath>
</defs>
</svg>
