<svg width="30" height="30" viewBox="0 0 30 30" fill="none" xmlns="http://www.w3.org/2000/svg">
<rect width="30" height="30" rx="5" fill="white"/>
<path d="M12.3565 3.67459C11.5153 3.87943 10.8166 4.58745 10.6163 5.43797C10.5629 5.66952 10.5496 6.22615 10.5496 8.66638V11.6187H8.1374C6.16582 11.6187 5.67181 11.632 5.44038 11.6855C4.58144 11.8903 3.87825 12.5894 3.67353 13.4489C3.57562 13.8719 3.57562 21.295 3.67353 21.7181C3.8649 22.533 4.55028 23.2543 5.33357 23.4592L5.5205 23.5126V24.7772C5.5205 26.1398 5.53385 26.2289 5.74747 26.3402C5.91659 26.4248 6.05011 26.4204 6.21033 26.318C6.28598 26.269 7.04702 25.6322 7.90152 24.8931L9.4592 23.5571L13.3979 23.5526C17.7683 23.5526 17.6348 23.5571 18.2089 23.2588C18.5783 23.0628 18.9922 22.6398 19.1836 22.2613C19.4462 21.7359 19.4506 21.7181 19.4506 18.4852V15.5373H19.998L20.541 15.5418L22.0986 16.8776C22.9576 17.6124 23.7187 18.2536 23.7899 18.3026C23.9501 18.405 24.0836 18.4095 24.2527 18.3249C24.4664 18.2136 24.4797 18.1245 24.4797 16.7619V15.4973L24.6666 15.4438C25.4544 15.2345 26.1353 14.522 26.3267 13.7072C26.4246 13.2841 26.4246 5.861 26.3267 5.43797C26.1219 4.57854 25.4232 3.87497 24.5642 3.67014C24.1904 3.58553 20.4608 3.57217 20.274 3.65678C20.1449 3.71467 20.0292 3.90169 20.0292 4.04864C20.0292 4.17778 20.1449 4.38707 20.2383 4.4316C20.2829 4.45386 21.2397 4.48058 22.3657 4.49394L24.4129 4.5162L24.6622 4.64089C24.9559 4.78339 25.2496 5.08173 25.3831 5.37563L25.481 5.58492V13.5558L25.3831 13.7651C25.1695 14.2281 24.7067 14.571 24.2127 14.6245C23.8922 14.6601 23.732 14.7268 23.6652 14.8427C23.6297 14.905 23.6029 15.2746 23.5896 15.947L23.5673 16.9533L22.2411 15.8223C21.5112 15.1989 20.8703 14.6824 20.8169 14.669C20.7635 14.6556 18.8765 14.6423 16.6245 14.6334L12.5301 14.6245L12.2719 14.4953C11.9693 14.3395 11.6933 14.059 11.5599 13.7651L11.4619 13.5558V5.58492L11.5866 5.3311C11.7245 5.04611 12.0093 4.77448 12.3209 4.61862C12.5256 4.5162 12.5523 4.5162 14.5773 4.49394C15.7032 4.48058 16.6602 4.45386 16.7046 4.4316C16.7981 4.38707 16.9139 4.17778 16.9139 4.04864C16.9139 3.90169 16.7981 3.71467 16.6691 3.65678C16.491 3.57217 12.7081 3.58998 12.3565 3.67459ZM10.5496 12.9635C10.5496 13.6448 10.7009 14.1613 11.0258 14.5933C11.1103 14.7047 11.1237 14.7536 11.0881 14.7981C11.0169 14.8827 9.08091 19.9814 9.08091 20.0794C9.08091 20.2263 9.18327 20.3955 9.30789 20.4623C9.46366 20.5424 9.58827 20.5424 9.74404 20.4578C9.8731 20.391 9.93986 20.2619 10.1757 19.6207L10.3048 19.2778H12.7525L12.9662 19.8344C13.1443 20.2976 13.2021 20.4044 13.3089 20.4578C13.4692 20.5424 13.5893 20.5424 13.7495 20.4623C13.8741 20.3955 13.9765 20.2263 13.9765 20.0838C13.9765 20.0393 13.5937 18.9839 13.1264 17.746C12.6591 16.5036 12.2853 15.4795 12.2942 15.4705C12.3031 15.4616 12.3877 15.4705 12.4856 15.4928C12.5834 15.515 13.9765 15.5373 15.6143 15.5373H18.565L18.5516 18.552C18.5383 21.5399 18.5383 21.5756 18.4403 21.7804C18.3069 22.0743 18.0131 22.3727 17.7194 22.5152L17.4701 22.6398L13.3757 22.6487C11.1237 22.6577 9.23668 22.671 9.18327 22.6843C9.12986 22.6977 8.48899 23.2187 7.75911 23.8421L6.43285 24.9776L6.4106 23.9624C6.39725 23.29 6.37054 22.9203 6.33494 22.858C6.26818 22.7378 6.10351 22.6755 5.77862 22.6398C5.30242 22.5864 4.86182 22.2657 4.63929 21.816L4.51913 21.5711L4.50577 17.6792C4.49243 13.3999 4.48798 13.5246 4.76391 13.1416C4.93303 12.9056 5.26236 12.6607 5.5205 12.5805C5.68517 12.5271 6.17027 12.5137 8.1374 12.5137L10.5496 12.5093V12.9635ZM11.9693 18.3783C11.7245 18.3827 11.3329 18.3827 11.0925 18.3783L10.6564 18.365L11.0703 17.274C11.2973 16.6728 11.4976 16.1518 11.5109 16.1162C11.5242 16.0806 11.7334 16.5704 11.9738 17.2072L12.4099 18.365L11.9693 18.3783Z" fill="#00133D"/>
<path d="M18.2022 3.69012C17.5756 4.03451 17.8421 5.02461 18.555 5.02461C18.9223 5.02461 19.2751 4.67305 19.2751 4.31432C19.2751 3.77622 18.6775 3.42466 18.2022 3.69012Z" fill="#2BAA4A"/>
<path d="M18.2422 6.57965L18.1074 6.70561V8.0174H15.2649L15.1255 8.14772C15.0001 8.265 14.9862 8.30409 15.0094 8.45612C15.0605 8.82533 15.2416 8.88614 16.2542 8.88614H16.9787L17.0067 9.24666C17.067 9.96772 17.4154 10.906 17.8241 11.4663L17.9681 11.6617L17.7127 11.8572C17.1506 12.2829 16.5189 12.5609 15.8176 12.6912C15.3159 12.7824 15.1813 12.8866 15.1813 13.1646C15.1813 13.308 15.2091 13.3732 15.3113 13.4687C15.4321 13.5817 15.4506 13.586 15.7851 13.5643C16.5607 13.5122 17.7312 13.017 18.3954 12.4567L18.5719 12.309L18.7484 12.4567C19.4126 13.017 20.5831 13.5122 21.3587 13.5643C21.6931 13.586 21.7118 13.5817 21.8372 13.4687C21.9347 13.3732 21.9626 13.308 21.9626 13.1646C21.9626 12.8866 21.8279 12.7824 21.3262 12.6912C20.6249 12.5609 19.9932 12.2829 19.4312 11.8572L19.1757 11.6617L19.3197 11.4663C19.7285 10.906 20.0768 9.96772 20.1372 9.24666L20.165 8.88614H20.8897C21.9301 8.88614 22.1251 8.8123 22.1251 8.42137C22.1251 8.26065 22.1019 8.20853 21.9951 8.12165L21.865 8.0174H19.041L19.0132 6.66218L18.8831 6.55793C18.6927 6.4059 18.4232 6.41459 18.2422 6.57965ZM19.2036 9.20757C19.185 9.38132 19.1292 9.67235 19.0782 9.84609C18.9853 10.1719 18.6276 10.9277 18.5719 10.9277C18.5301 10.9277 18.1771 10.2153 18.0888 9.95034C18.0052 9.70276 17.9216 9.23363 17.9216 9.02514V8.88614H19.2361L19.2036 9.20757Z" fill="#2BAA4A"/>
</svg>
