<svg width="605" height="122" viewBox="0 0 605 122" fill="none" xmlns="http://www.w3.org/2000/svg">
<path d="M17.0483 110.305C11.4529 110.305 7.21275 109.038 4.32765 106.503C1.44255 103.88 0 99.7714 0 94.1763V10.2521H17.704V88.931C17.704 91.379 18.1411 93.1272 19.0154 94.1763C19.9771 95.1377 21.5508 95.6187 23.7365 95.6187H28.4576V110.305H17.0483ZM74.5874 110.305H60.5553L33.4091 36.7407H52.2934L67.5058 83.1612L82.9804 36.7407H101.865L74.5874 110.305ZM139.398 111.748C133.015 111.748 127.376 110.131 122.48 106.896C117.585 103.661 113.782 99.1593 111.071 93.3895C108.361 87.5321 107.006 80.8885 107.006 73.4575C107.006 66.0265 108.361 59.4264 111.071 53.6566C113.782 47.7994 117.585 43.2536 122.48 40.019C127.376 36.7844 133.015 35.1671 139.398 35.1671C143.944 35.1671 147.834 35.9976 151.069 37.6586C154.391 39.2322 157.451 42.0296 160.249 46.051V10.2521H177.953V110.305H160.249V100.995C157.364 105.017 154.304 107.814 151.069 109.388C147.834 110.961 143.944 111.748 139.398 111.748ZM143.463 96.5366C149.058 96.5366 153.604 94.395 157.102 90.1112C160.686 85.8274 162.478 80.2763 162.478 73.4575C162.478 66.6387 160.686 61.0874 157.102 56.8038C153.604 52.5201 149.058 50.3783 143.463 50.3783C137.867 50.3783 133.365 52.5639 129.955 56.9349C126.546 61.2187 124.841 66.7262 124.841 73.4575C124.841 80.1887 126.546 85.7403 129.955 90.1112C133.365 94.395 137.867 96.5366 143.463 96.5366ZM226.213 111.748C218.781 111.748 212.224 110.131 206.542 106.896C200.859 103.661 196.444 99.2028 193.296 93.5206C190.237 87.7508 188.707 81.2378 188.707 73.982C188.707 67.2508 190.061 60.9563 192.772 55.0991C195.569 49.1545 199.722 44.3463 205.23 40.6746C210.826 37.0029 217.645 35.1671 225.688 35.1671C232.333 35.1671 238.452 36.5658 244.048 39.3633C249.643 42.0734 254.146 46.3133 257.555 52.0831C260.965 57.7654 262.67 64.8464 262.67 73.3264V77.1292H207.066C207.329 80.1887 208.247 83.0736 209.82 85.7839C211.569 89.1933 213.886 91.8595 216.771 93.7829C219.743 95.6187 223.109 96.5366 226.869 96.5366C230.89 96.5366 234.344 95.5311 237.229 93.5206C240.114 91.4225 242.168 88.7563 243.392 85.5216H261.49C259.129 93.3019 254.976 99.6403 249.031 104.536C243.086 109.344 235.48 111.748 226.213 111.748ZM244.573 63.8849C244.223 61.0874 243.305 58.8145 241.819 57.0661C240.157 54.5309 237.972 52.6076 235.262 51.2963C232.551 49.8975 229.535 49.1982 226.213 49.1982C222.891 49.1982 219.875 49.8538 217.164 51.1651C214.541 52.4765 212.399 54.4434 210.738 57.0661C209.164 58.9893 208.203 61.2623 207.853 63.8849H244.573ZM275.607 110.305V36.7407H293.311V45.5265C296.021 41.7674 299.037 39.101 302.36 37.5275C305.769 35.9539 309.747 35.1671 314.293 35.1671H316.392V52.2142H312.326C306.731 52.2142 302.36 53.7003 299.212 56.6727C297.201 58.6833 295.715 61.2623 294.753 64.4094C293.792 67.469 293.311 71.4029 293.311 76.2113V110.305H275.607ZM360.299 111.748C352.868 111.748 346.311 110.131 340.628 106.896C334.945 103.661 330.53 99.2028 327.383 93.5206C324.323 87.7508 322.793 81.2378 322.793 73.982C322.793 67.2508 324.148 60.9563 326.858 55.0991C329.656 49.1545 333.809 44.3463 339.317 40.6746C344.912 37.0029 351.731 35.1671 359.775 35.1671C366.419 35.1671 372.539 36.5658 378.134 39.3633C383.73 42.0734 388.232 46.3133 391.642 52.0831C395.051 57.7654 396.756 64.8464 396.756 73.3264V77.1292H341.153C341.415 80.1887 342.333 83.0736 343.907 85.7839C345.655 89.1933 347.972 91.8595 350.857 93.7829C353.83 95.6187 357.195 96.5366 360.955 96.5366C364.977 96.5366 368.43 95.5311 371.315 93.5206C374.2 91.4225 376.255 88.7563 377.479 85.5216H395.576C393.216 93.3019 389.063 99.6403 383.118 104.536C377.173 109.344 369.567 111.748 360.299 111.748ZM378.659 63.8849C378.309 61.0874 377.391 58.8145 375.905 57.0661C374.244 54.5309 372.058 52.6076 369.348 51.2963C366.637 49.8975 363.621 49.1982 360.299 49.1982C356.977 49.1982 353.961 49.8538 351.25 51.1651C348.628 52.4765 346.486 54.4434 344.825 57.0661C343.251 58.9893 342.289 61.2623 341.939 63.8849H378.659Z" fill="white"/>
<path d="M567.039 3.79061C551.682 14.9558 538.416 30.056 538.416 30.056L506.043 68.9744L483.418 46.5685C475.05 38.3637 466.868 34.1759 460.204 32.0749C450.482 29.0117 440.258 35.3268 438.548 45.3571C434.976 66.314 444.781 94.0738 444.781 94.0738C447.302 101.621 451.258 106.58 454.796 109.734C459.23 113.686 465.966 113.746 470.401 109.797C477.798 103.212 482.369 92.986 484.14 88.4416C484.356 87.8897 484.098 87.269 483.557 87.0265L482.632 86.6105C482.076 86.3614 481.429 86.6077 481.165 87.1567C478.775 92.1238 472.945 98.8559 468.54 103.566C465.574 106.739 460.391 106.196 458.128 102.488C447.402 84.9256 449.48 63.5328 450.96 53.7761C451.385 50.9723 453.919 47.6657 456.676 48.3544C469.495 51.56 485.507 71.4924 485.507 71.4924C490.853 77.6075 492.378 80.5953 497.676 86.1246C503.258 91.9502 512.553 92.0436 518.234 86.3142L556.515 47.6977C561.17 43.1458 565.307 39.5957 568.686 36.9212C572.857 33.6183 579.041 36.191 579.628 41.4731C583.375 75.1773 579.707 92.3436 577.118 99.6823C576.061 102.68 573.289 104.747 570.108 104.881C553.646 105.578 536.023 92.7964 529.438 87.4812C528.878 87.0284 528.077 87.0463 527.536 87.5209L527.002 87.9907C526.468 88.4586 526.341 89.2445 526.708 89.853C538.305 109.07 552.322 117.445 563.953 120.918C578.325 125.205 591.84 116.306 596.719 102.151C606.117 74.8811 604.812 51.345 604.812 51.345C604.852 35.7542 601.025 22.2484 596.854 12.1747C593.647 4.42835 586.254 -0.000943257 578.627 1.50672e-07C574.64 1.50672e-07 570.588 1.21133 567.039 3.79061Z" fill="url(#paint0_linear_306_4)"/>
<defs>
<linearGradient id="paint0_linear_306_4" x1="437.765" y1="60.9996" x2="604.874" y2="60.9996" gradientUnits="userSpaceOnUse">
<stop stop-color="#109AF4"/>
<stop offset="1" stop-color="#1CED80"/>
</linearGradient>
</defs>
</svg>
