<svg width="230" height="40" viewBox="0 0 230 40" fill="none" xmlns="http://www.w3.org/2000/svg">
<path d="M51.0936 0.128279C47.707 0.805591 44.0741 2.24231 43.4789 3.16592C43.2121 3.57641 43.1916 3.76113 43.3968 4.13058C43.6842 4.68474 44.9156 5.42363 46.3729 5.93674L47.3991 6.28566L46.1677 6.18304C44.2794 5.99832 42.7811 5.69045 41.5701 5.21838L40.4618 4.76684L38.6351 6.6551C36.829 8.54337 36.008 9.79537 36.008 10.5958C36.008 12.3609 38.6762 13.8592 43.6021 14.8239C46.7834 15.4602 46.9065 15.4807 45.6545 15.3986C43.0274 15.1933 38.8609 14.6802 38.4299 14.4955C38.1631 14.3929 37.3626 14.1466 36.6237 13.9824C35.8848 13.7977 35.0638 13.5103 34.797 13.3256C34.5302 13.1614 34.2634 13.0998 34.1813 13.2025C33.8118 13.6335 32.724 16.8148 32.724 17.4716C32.724 19.1956 34.0171 20.8787 36.2337 21.987C38.1015 22.9311 42.0217 23.9984 44.6899 24.2652C45.4698 24.3473 46.024 24.4705 45.9214 24.5526C45.7161 24.7373 40.4002 24.2242 38.6762 23.8342C34.8996 22.9927 33.6271 22.6643 32.8677 22.2949C31.7389 21.7407 31.5336 21.7817 31.3899 22.5412C31.2257 23.5469 30.9179 29.1501 31.0205 29.3348C31.3284 29.8479 35.0433 31.2025 37.3831 31.6541C42.4322 32.6187 52.1403 33.0498 57.8667 32.5572C59.1187 32.4545 61.8895 32.2698 64.0241 32.1261C67.1233 31.9414 67.9853 31.8183 68.1906 31.572C68.3548 31.3462 68.4369 30.2995 68.4369 28.1033C68.4369 24.5936 68.7242 21.5354 69.1552 20.2013L69.4631 19.3188L69.3605 20.345C68.7858 26.1535 68.8063 30.4226 69.381 31.5515C69.5862 31.9825 69.8941 32.1467 70.8382 32.3314C71.9876 32.5777 78.5144 33.7886 78.6376 33.7886C78.6786 33.7886 78.6992 32.824 78.6992 31.6541C78.6992 28.5754 79.0686 23.4648 79.438 21.6791C79.8075 19.8935 80.0333 19.483 79.8691 20.9608C79.0891 27.2823 79.2738 32.9266 80.259 33.3166C80.4232 33.3781 81.5931 33.2139 82.8657 32.9677C84.1177 32.7214 85.9033 32.3724 86.8064 32.2082C87.7505 32.0235 88.551 31.7567 88.7152 31.572C89.023 31.182 89.0436 25.6404 88.7562 23.3621C88.4894 21.3097 87.5863 18.4568 86.8885 17.4305C86.1085 16.3222 84.9181 15.337 84.1382 15.2139C83.8098 15.1523 82.2704 15.0291 80.7516 14.947L77.9808 14.8034L77.5498 13.5719C77.1803 12.5046 76.072 10.288 75.5999 9.67222C71.9876 5.01314 67.6159 2.22179 61.4174 0.620869C59.5702 0.148803 58.8108 0.066705 55.609 0.00513115C53.577 -0.0153935 51.5451 0.0256558 51.0936 0.128279ZM47.6659 24.6962C47.4607 24.7373 47.1323 24.7373 46.9476 24.6962C46.7423 24.6347 46.9065 24.5936 47.2965 24.5936C47.6865 24.5936 47.8507 24.6347 47.6659 24.6962Z" fill="#AEC0CE"/>
<path d="M111.641 3.49441C110.245 4.11015 109.896 5.71107 110.902 6.9015C111.415 7.53776 111.62 7.61986 112.441 7.61986C113.221 7.61986 113.488 7.51723 114.042 6.96307C114.576 6.42943 114.72 6.12156 114.72 5.46477C114.72 3.96648 113.016 2.87867 111.641 3.49441Z" fill="#AEC0CE"/>
<path d="M144.583 32.1673L145.979 32.1057C147.128 32.0441 147.354 31.9826 147.333 31.6747C147.333 31.49 147.313 25.1479 147.292 17.5743L147.251 3.82281H144.583V32.1673Z" fill="#AEC0CE"/>
<path d="M126.008 11.499C122.991 12.5252 121.246 13.8593 119.625 16.3838C117.757 19.2778 117.819 24.4089 119.748 27.385C123.278 32.8035 131.16 33.7476 135.839 29.2938L136.825 28.3497L136.702 30.6074C136.599 32.4751 136.476 33.0498 136.004 33.9734C135.039 35.9027 133.13 37.0932 130.421 37.4831C128.697 37.7294 127.383 37.6063 125.454 37.0521C124.346 36.7237 123.833 36.4364 122.847 35.5128C122.17 34.897 121.554 34.1992 121.493 33.9734C121.37 33.645 121.164 33.5834 119.933 33.5834C119.153 33.5834 118.517 33.6245 118.517 33.6861C118.517 34.3018 120.077 36.7442 121.021 37.6063C121.903 38.3862 123.771 39.3098 125.208 39.6587C127.075 40.1103 130.688 40.1103 132.494 39.6793C136.004 38.8172 138.672 35.9438 139.267 32.393C139.37 31.7568 139.452 26.8103 139.452 21.4124V11.6221H136.784V14.9266L135.45 13.7772C134.711 13.1615 133.479 12.3405 132.72 11.9916C131.468 11.3758 131.139 11.3142 129.087 11.2732C127.589 11.2321 126.542 11.3142 126.008 11.499ZM132.781 14.6803C134.341 15.5628 135.101 16.3223 135.963 17.8616C136.578 18.9494 136.66 19.2778 136.743 21.0634C136.784 22.1512 136.722 23.5264 136.599 24.1011C136.188 26.0099 134.752 27.7545 132.679 28.8012C131.611 29.3349 131.386 29.3759 128.984 29.3759C126.48 29.3759 126.378 29.3554 125.044 28.6986C122.396 27.4055 120.98 25.0247 120.98 21.8639C120.98 19.442 122.088 16.9585 123.73 15.6655C124.14 15.3576 125.044 14.824 125.741 14.475C126.973 13.8798 127.137 13.8593 129.292 13.9209C131.427 13.9824 131.611 14.0235 132.781 14.6803Z" fill="#AEC0CE"/>
<path d="M159.463 11.4989C154.845 13.0177 151.767 17.1637 151.767 21.8844C151.767 23.4647 152.259 25.5993 152.937 26.9745C153.634 28.4112 156.015 30.8331 157.39 31.5104C158.745 32.1672 161.085 32.7624 162.419 32.7624C163.609 32.7624 165.559 32.3314 166.852 31.7772C169.89 30.5047 172.414 27.1592 172.928 23.7316C173.707 18.6004 171.347 14.2081 166.585 11.971C165.313 11.3552 165.026 11.3142 162.747 11.2731C161.126 11.2321 159.997 11.3142 159.463 11.4989ZM165.949 14.6597C167.447 15.5217 168.843 17.02 169.562 18.5388C170.075 19.6061 170.136 19.955 170.136 21.987C170.136 24.101 170.095 24.3268 169.5 25.5788C168.268 28.1238 166.442 29.4785 163.609 29.93C162.357 30.1147 161.865 30.0942 160.592 29.8069C159.053 29.4785 158.519 29.2116 157.37 28.2265C156.426 27.426 155.256 25.7019 154.927 24.6141C154.599 23.5058 154.558 20.6734 154.866 19.5651C155.338 17.841 157.062 15.6654 158.622 14.8444C160.264 13.9619 160.654 13.8798 162.747 13.9413C164.636 14.0029 164.902 14.0645 165.949 14.6597Z" fill="#AEC0CE"/>
<path d="M184.914 11.3963C182.821 11.9504 180.276 13.7156 178.982 15.5012C177.361 17.7794 176.581 20.8581 176.992 23.5058C177.115 24.3063 177.32 25.1272 177.423 25.3325C177.525 25.5172 177.771 26.0508 177.936 26.5024C178.654 28.288 180.809 30.6484 182.615 31.572C183.724 32.1261 186.33 32.7624 187.521 32.7624C188.814 32.7624 191.461 32.1261 192.549 31.5514C193.842 30.8947 195.546 29.2937 196.449 27.8981C197.578 26.174 198.152 24.4089 198.296 22.3975C198.378 20.9402 198.317 20.5297 197.762 18.8057C196.716 15.5628 194.91 13.4487 191.995 12.0736C190.517 11.3758 190.333 11.3347 187.993 11.2731C186.638 11.2526 185.263 11.2937 184.914 11.3963ZM189.963 14.1261C194.15 15.5833 196.49 20.3861 195.053 24.5936C193.699 28.6575 189.984 30.7305 185.756 29.8069C183.067 29.1911 181.199 27.5081 180.214 24.7988C179.475 22.7259 179.496 21.0634 180.276 19.0725C181.22 16.6506 183.149 14.8034 185.427 14.085C186.228 13.8182 189.183 13.8592 189.963 14.1261Z" fill="#AEC0CE"/>
<path d="M111.128 32.1468H113.796V11.6222H111.128V32.1468Z" fill="#AEC0CE"/>
</svg>
