<svg width="230" height="40" viewBox="0 0 230 40" fill="none" xmlns="http://www.w3.org/2000/svg">
<path d="M101.346 15.3916C101.582 16.1765 101.833 16.9977 102.098 17.8553C102.363 18.6983 102.636 19.5486 102.916 20.4061C103.211 21.2492 103.499 22.0849 103.779 22.9134C104.073 23.7273 104.354 24.4977 104.619 25.2244C104.84 24.4395 105.054 23.5893 105.26 22.6736C105.467 21.7433 105.673 20.784 105.88 19.7957C106.086 18.7928 106.285 17.7753 106.477 16.7434C106.683 15.7114 106.875 14.694 107.052 13.6911H109.927C109.411 16.4236 108.836 19.0544 108.202 21.5835C107.568 24.098 106.86 26.5035 106.079 28.8H103.425C102.275 25.8639 101.162 22.659 100.086 19.1852C99.5401 20.9439 98.9872 22.6154 98.4271 24.1997C97.867 25.784 97.3065 27.3174 96.7464 28.8H94.0927C93.2965 26.5035 92.5816 24.098 91.9476 21.5835C91.3284 19.0544 90.7607 16.4236 90.2448 13.6911H93.2302C93.4071 14.6794 93.5913 15.6896 93.7831 16.7216C93.9893 17.7535 94.196 18.771 94.4023 19.7739C94.6234 20.7622 94.8446 21.7215 95.0657 22.6518C95.2868 23.582 95.508 24.4395 95.7291 25.2244C96.0094 24.4831 96.2892 23.7055 96.5695 22.8916C96.8642 22.0631 97.1517 21.2274 97.4319 20.3843C97.7122 19.5268 97.9775 18.6765 98.228 17.8335C98.4934 16.9904 98.7367 16.1765 98.9578 15.3916H101.346ZM111.097 23.1532C111.097 22.1503 111.244 21.271 111.539 20.5151C111.849 19.7593 112.254 19.1344 112.755 18.6402C113.257 18.1315 113.832 17.7535 114.48 17.5064C115.129 17.2448 115.792 17.114 116.471 17.114C118.063 17.114 119.301 17.6009 120.186 18.5748C121.085 19.5486 121.535 21.002 121.535 22.9352C121.535 23.0805 121.528 23.2477 121.513 23.4366C121.513 23.6111 121.505 23.7709 121.491 23.9163H113.861C113.935 24.832 114.259 25.5442 114.834 26.0529C115.424 26.5471 116.272 26.7942 117.377 26.7942C118.026 26.7942 118.616 26.736 119.147 26.6198C119.692 26.5035 120.12 26.3799 120.429 26.2491L120.783 28.4075C120.635 28.4802 120.429 28.5601 120.164 28.6474C119.913 28.72 119.618 28.7854 119.279 28.8436C118.955 28.9162 118.601 28.9744 118.218 29.018C117.835 29.0616 117.444 29.0834 117.046 29.0834C116.028 29.0834 115.144 28.938 114.392 28.6474C113.64 28.3421 113.021 27.9279 112.534 27.4046C112.048 26.8668 111.687 26.2419 111.451 25.5296C111.215 24.8029 111.097 24.0108 111.097 23.1532ZM118.859 21.9759C118.859 21.6125 118.808 21.271 118.704 20.9512C118.601 20.6169 118.446 20.3335 118.24 20.1009C118.048 19.8538 117.805 19.6649 117.51 19.534C117.23 19.3887 116.891 19.316 116.493 19.316C116.08 19.316 115.719 19.396 115.409 19.5559C115.1 19.7012 114.834 19.8974 114.613 20.1445C114.407 20.3916 114.244 20.675 114.127 20.9948C114.009 21.3146 113.928 21.6416 113.883 21.9759H118.859ZM123.731 23.1532C123.731 22.1503 123.878 21.271 124.173 20.5151C124.483 19.7593 124.888 19.1344 125.389 18.6402C125.89 18.1315 126.465 17.7535 127.114 17.5064C127.763 17.2448 128.426 17.114 129.105 17.114C130.697 17.114 131.935 17.6009 132.82 18.5748C133.719 19.5486 134.169 21.002 134.169 22.9352C134.169 23.0805 134.161 23.2477 134.147 23.4366C134.147 23.6111 134.139 23.7709 134.124 23.9163H126.495C126.569 24.832 126.893 25.5442 127.468 26.0529C128.058 26.5471 128.906 26.7942 130.011 26.7942C130.66 26.7942 131.25 26.736 131.78 26.6198C132.326 26.5035 132.753 26.3799 133.063 26.2491L133.417 28.4075C133.269 28.4802 133.063 28.5601 132.798 28.6474C132.547 28.72 132.252 28.7854 131.913 28.8436C131.589 28.9162 131.235 28.9744 130.852 29.018C130.468 29.0616 130.078 29.0834 129.68 29.0834C128.662 29.0834 127.778 28.938 127.026 28.6474C126.274 28.3421 125.655 27.9279 125.168 27.4046C124.682 26.8668 124.32 26.2419 124.085 25.5296C123.849 24.8029 123.731 24.0108 123.731 23.1532ZM131.493 21.9759C131.493 21.6125 131.441 21.271 131.338 20.9512C131.235 20.6169 131.08 20.3335 130.874 20.1009C130.682 19.8538 130.439 19.6649 130.144 19.534C129.864 19.3887 129.525 19.316 129.127 19.316C128.714 19.316 128.353 19.396 128.043 19.5559C127.733 19.7012 127.468 19.8974 127.247 20.1445C127.04 20.3916 126.878 20.675 126.76 20.9948C126.642 21.3146 126.561 21.6416 126.517 21.9759H131.493ZM141.76 28.9744C140.949 28.9744 140.131 28.9453 139.305 28.8872C138.48 28.8436 137.757 28.7418 137.138 28.5819V13.9091C137.463 13.8509 137.809 13.8001 138.178 13.7565C138.546 13.6983 138.922 13.6547 139.305 13.6257C139.689 13.5966 140.065 13.5748 140.433 13.5603C140.817 13.5457 141.178 13.5385 141.517 13.5385C142.446 13.5385 143.308 13.6111 144.104 13.7565C144.9 13.8873 145.586 14.1126 146.161 14.4323C146.751 14.7521 147.208 15.1736 147.532 15.6969C147.856 16.2201 148.019 16.8669 148.019 17.6373C148.019 18.3495 147.842 18.9599 147.488 19.4686C147.149 19.9773 146.67 20.3843 146.05 20.6896C146.979 20.9948 147.665 21.4454 148.107 22.0413C148.549 22.6372 148.77 23.393 148.77 24.3087C148.77 25.8639 148.195 27.034 147.046 27.8189C145.896 28.5892 144.134 28.9744 141.76 28.9744ZM139.88 21.9977V26.598C140.19 26.627 140.522 26.6488 140.876 26.6634C141.229 26.6779 141.554 26.6852 141.849 26.6852C142.424 26.6852 142.954 26.6488 143.441 26.5761C143.942 26.5035 144.37 26.3799 144.723 26.2055C145.092 26.0165 145.38 25.7695 145.586 25.4642C145.807 25.159 145.918 24.7666 145.918 24.2869C145.918 23.4294 145.601 22.8334 144.967 22.4991C144.333 22.1649 143.456 21.9977 142.335 21.9977H139.88ZM139.88 19.8393H141.849C142.91 19.8393 143.743 19.6939 144.348 19.4032C144.952 19.098 145.254 18.5602 145.254 17.7899C145.254 17.0631 144.937 16.5472 144.303 16.2419C143.684 15.9367 142.873 15.7841 141.871 15.7841C141.443 15.7841 141.06 15.7913 140.721 15.8059C140.396 15.8204 140.116 15.8422 139.88 15.8713V19.8393ZM162 23.0878C162 23.9889 161.867 24.8102 161.602 25.5514C161.337 26.2927 160.961 26.925 160.474 27.4482C159.988 27.9715 159.398 28.3785 158.705 28.6692C158.027 28.9598 157.275 29.1052 156.449 29.1052C155.623 29.1052 154.872 28.9598 154.194 28.6692C153.515 28.3785 152.933 27.9715 152.447 27.4482C151.96 26.925 151.577 26.2927 151.296 25.5514C151.031 24.8102 150.899 23.9889 150.899 23.0878C150.899 22.1867 151.031 21.3727 151.296 20.646C151.577 19.9047 151.96 19.2724 152.447 18.7492C152.948 18.2259 153.537 17.8262 154.216 17.5501C154.894 17.2594 155.638 17.114 156.449 17.114C157.26 17.114 158.005 17.2594 158.683 17.5501C159.376 17.8262 159.965 18.2259 160.452 18.7492C160.939 19.2724 161.314 19.9047 161.58 20.646C161.86 21.3727 162 22.1867 162 23.0878ZM159.258 23.0878C159.258 21.9541 159.007 21.0602 158.506 20.4061C158.019 19.7375 157.334 19.4032 156.449 19.4032C155.565 19.4032 154.872 19.7375 154.371 20.4061C153.884 21.0602 153.641 21.9541 153.641 23.0878C153.641 24.2361 153.884 25.1445 154.371 25.8131C154.872 26.4817 155.565 26.816 156.449 26.816C157.334 26.816 158.019 26.4817 158.506 25.8131C159.007 25.1445 159.258 24.2361 159.258 23.0878Z" fill="#AEC0CE"/>
<path fill-rule="evenodd" clip-rule="evenodd" d="M79.9556 10.0437C77.6827 8.54643 75.0105 7.74725 72.2768 7.74725V13.1978C73.917 13.1978 75.5204 13.6773 76.8841 14.5757C78.2479 15.474 79.3108 16.7509 79.9385 18.2449C80.5661 19.7388 80.7304 21.3827 80.4104 22.9686C80.0904 24.5546 79.3006 26.0114 78.1408 27.1548C76.981 28.2982 75.5034 29.0769 73.8947 29.3923C72.286 29.7078 70.6186 29.5459 69.1033 28.9271C67.588 28.3083 66.2928 27.2604 65.3816 25.9159C64.4703 24.5713 63.984 22.9906 63.984 21.3736H58.4554C58.4554 24.0687 59.266 26.7031 60.7847 28.944C62.3034 31.1849 64.462 32.9314 66.9876 33.9627C69.5131 34.9941 72.2922 35.264 74.9733 34.7381C77.6544 34.2124 80.1171 32.9146 82.0501 31.0089C83.9831 29.1032 85.2994 26.6752 85.8327 24.032C86.3661 21.3887 86.0923 18.6489 85.0462 16.159C84.0001 13.6691 82.2286 11.541 79.9556 10.0437Z" fill="#AEC0CE"/>
<path d="M55 7.05364L59.1514 11.2462C61.4314 13.5488 63.2947 15.4553 63.2947 15.4965C63.2947 15.5295 61.6766 15.5543 59.6989 15.5543H56.1032V20.011H70.8947V5.23796H66.4001V12.4594L58.0237 4L55 7.05364Z" fill="#AEC0CE"/>
</svg>
