<svg width="230" height="40" viewBox="0 0 230 40" fill="none" xmlns="http://www.w3.org/2000/svg">
<path d="M138.25 20.375V35.75H162.125H186V20.375V5.00003H162.125H138.25V20.375ZM155.75 10.875C158.575 11.85 161.075 14.525 161.775 17.3C162.3 19.3 162.175 22.575 161.5 24.325C160.175 27.85 156.875 30.225 153.025 30.45C147.875 30.75 143.9 28.15 142.6 23.65C141.975 21.425 142.175 17.825 143.05 15.95C144.3 13.25 146.625 11.35 149.625 10.575C151.15 10.175 154.2 10.325 155.75 10.875ZM169.95 12.15L170.025 13.65L173.25 16.875L176.5 20.125V15.3V10.5H179H181.5V20.375V30.25H179H176.5V28.675V27.125L173.25 23.875L170 20.65L169.95 25.375L169.875 30.125L167.45 30.2L165 30.275V20.375V10.475L167.45 10.55L169.875 10.625L169.95 12.15Z" fill="#AEC0CE"/>
<path d="M150.125 15.475C148.2 16.35 147.25 18.025 147.25 20.425C147.275 23.6 149.25 25.75 152.15 25.75C154.875 25.75 156.7 24.1 157.125 21.2C157.75 17.075 153.75 13.8 150.125 15.475Z" fill="#AEC0CE"/>
<path d="M45 12.6008V15.0008H47.7C49.75 15.0008 50.6 15.1258 51.375 15.4758C55.625 17.4008 55.325 24.0758 50.925 25.3758C50.2 25.6008 48.675 25.7508 47.325 25.7508H45V28.1508V30.5508L48.7 30.4508C52.2 30.3758 52.45 30.3508 54 29.6008C57.525 27.9258 59.6 24.5008 59.6 20.3758C59.6 16.2758 57.5 12.8008 54.05 11.1758C52.45 10.4008 52.225 10.3758 48.7 10.3008L45 10.2008V12.6008Z" fill="#AEC0CE"/>
<path d="M77.4239 10.5256C73.6739 11.4006 70.8739 14.5756 70.2489 18.6506C69.3489 24.5255 72.8239 29.6005 78.3489 30.4505C83.1739 31.2255 87.3739 29.1255 89.3489 25.0005C90.0239 23.5506 90.1239 23.0756 90.1989 20.5506L90.2989 17.7506H85.2739H80.2489V20.2506V22.7256L82.5489 22.8006L84.8739 22.8756L83.9239 23.9255C81.5989 26.5005 77.7739 26.2505 76.1489 23.4256C74.7739 21.1006 75.1489 18.0756 76.9739 16.4256C77.9239 15.5756 78.1489 15.4506 79.5739 15.1506L80.2489 15.0006V12.6256V10.2506L79.3239 10.2756C78.7989 10.3006 77.9489 10.4006 77.4239 10.5256Z" fill="#AEC0CE"/>
<path d="M62.25 20.375V30.25H64.875H67.5V20.375V10.5H64.875H62.25V20.375Z" fill="#AEC0CE"/>
<path d="M93 20.375V30.25H95.5H98V20.375V10.5H95.5H93V20.375Z" fill="#AEC0CE"/>
<path d="M100.75 13.125V15.75H103.125H105.5V23V30.25H108.125H110.75V23V15.75H113.125H115.5V13.125V10.5H108.125H100.75V13.125Z" fill="#AEC0CE"/>
<path d="M118.75 20.375V30.25H121.25H123.75V26.625V23H126.875H130V26.625V30.25H132.5H135V20.375V10.5H132.5H130V14.125V17.75H126.875H123.75V14.125V10.5H121.25H118.75V20.375Z" fill="#AEC0CE"/>
</svg>
