<svg width="230" height="40" viewBox="0 0 230 40" fill="none" xmlns="http://www.w3.org/2000/svg">
<path d="M130.765 0.155423C129.317 0.663715 128.56 2.29025 129.023 3.87161C129.227 4.54933 130.143 5.43037 130.867 5.63369C132.914 6.20975 134.792 5.08021 134.962 3.16C135.086 1.83844 134.294 0.573352 133.107 0.166718C132.462 -0.047894 131.365 -0.0591894 130.765 0.155423Z" fill="#AEC0CE"/>
<path d="M82.4781 0.550775C81.8899 1.08166 81.494 1.79327 81.1321 2.92281C80.9058 3.6683 80.8719 3.99587 80.8719 5.6337C80.8719 7.07951 80.9172 7.66687 81.0755 8.23164C81.1886 8.63827 81.313 8.99973 81.3696 9.0562C81.4148 9.10139 81.7542 9.03361 82.1274 8.89807C83.0323 8.5818 84.3897 8.5818 85.2041 8.88677L85.8036 9.11268L85.9167 8.819C86.2334 8.00573 86.3804 6.68417 86.3239 5.23836C86.256 3.69089 86.075 2.82115 85.6 1.80456C85.0457 0.641138 84.3784 0.0989597 83.4735 0.0989597C83.0323 0.0989597 82.8966 0.166732 82.4781 0.550775ZM84.3331 3.02447C84.5706 3.27296 84.6611 3.46499 84.6611 3.76996C84.6611 4.34603 84.1634 4.84302 83.5866 4.84302C83.0097 4.84302 82.512 4.34603 82.512 3.76996C82.512 3.1939 83.0097 2.6969 83.5866 2.6969C83.892 2.6969 84.0843 2.78726 84.3331 3.02447ZM83.9259 5.81443C84.1521 6.04033 83.9712 6.31142 83.5866 6.31142C83.1115 6.31142 82.9871 5.8822 83.4169 5.71277C83.6884 5.61111 83.7336 5.62241 83.9259 5.81443ZM83.9598 7.3506C84.1521 7.54262 84.1295 7.64428 83.8694 7.77982C83.564 7.94926 83.1907 7.81371 83.1907 7.55392C83.1907 7.23765 83.711 7.1021 83.9598 7.3506Z" fill="#AEC0CE"/>
<path d="M105.36 27.7727H110.337V25.0844L111.106 25.8411C113.618 28.3148 117.531 28.8005 120.913 27.061C122.022 26.4963 123.628 24.9488 124.284 23.8193C125.336 22.0007 125.777 20.2273 125.766 17.8327C125.766 15.1331 125.2 13.2355 123.843 11.3266C120.913 7.19246 114.556 6.55991 111.106 10.0615L110.337 10.8296V1.4544H105.36V27.7727ZM116.66 12.3093C117.916 12.5917 119.024 13.3823 119.748 14.4893C120.393 15.4946 120.642 16.4095 120.642 17.8327C120.642 19.8094 120.189 21.0067 119.002 22.1814C117.803 23.3787 116.298 23.887 114.726 23.616C111.638 23.0851 109.76 19.9224 110.496 16.466C111.129 13.5179 113.866 11.6654 116.66 12.3093Z" fill="#AEC0CE"/>
<path d="M139.972 8.11867H137.71V12.185H139.95L140.006 17.6294C140.063 23.5369 140.074 23.695 140.73 25.0053C141.058 25.6717 141.884 26.5528 142.517 26.9255C143.581 27.5467 144.372 27.6936 147.019 27.7501L149.474 27.7952V23.6272L147.856 23.5708C146.092 23.503 145.673 23.3787 145.323 22.8366C145.142 22.5542 145.119 22.0685 145.085 17.3583L145.051 12.185H149.474V8.11867H145.062V3.26166H139.972V8.11867Z" fill="#AEC0CE"/>
<path d="M62.9777 4.68489C61.7788 5.11412 60.1047 7.82501 59.4374 10.4342C58.0461 15.8673 60.0368 21.5376 64.516 24.9036C70.0132 29.0265 77.6935 28.5069 82.5573 23.6611C84.8308 21.3908 86.1768 18.6234 86.584 15.3477C86.8215 13.4953 86.5614 12.5013 85.6226 11.6316C85.1362 11.1797 84.2652 10.8296 83.6431 10.8296C83.021 10.8296 82.1501 11.1797 81.6637 11.6316C80.9511 12.2867 80.7249 12.8402 80.5891 14.2295C80.4534 15.6753 80.2498 16.3869 79.6503 17.5503C78.7567 19.2785 77.0714 20.6566 75.0693 21.3117C73.9495 21.6732 72.004 21.7183 70.8616 21.4021C68.6446 20.8034 66.8688 19.3463 65.8394 17.3131C65.2513 16.1271 65.0477 15.2574 65.0477 13.8229C65.0477 12.0947 65.4549 10.7957 66.5181 9.20305C67.5927 7.57651 67.0724 5.55464 65.3757 4.77526C64.7083 4.45899 63.7243 4.4251 62.9777 4.68489Z" fill="#AEC0CE"/>
<path d="M80.1141 7.45224C79.5146 8.23162 79.2092 9.47412 79.4015 10.4455L79.4807 10.8747L79.9444 10.3665C80.2046 10.0954 80.5665 9.7565 80.7362 9.62096L81.0529 9.37246L80.8267 8.60437C80.7136 8.18644 80.5665 7.65556 80.51 7.44095L80.4082 7.0569L80.1141 7.45224Z" fill="#AEC0CE"/>
<path d="M86.4935 8.18645L86.2334 9.24822L87.0025 9.98242C87.421 10.3891 87.7943 10.7166 87.8169 10.7166C87.8395 10.7166 87.8395 10.2648 87.8056 9.72263C87.7717 8.93195 87.6925 8.59309 87.455 8.09609C87.2853 7.75723 87.0591 7.39578 86.946 7.29412C86.7537 7.12469 86.7311 7.16987 86.4935 8.18645Z" fill="#AEC0CE"/>
<path d="M100.836 7.89277C99.0375 8.16386 97.1938 9.32729 96.1758 10.8296C95.9949 11.1007 95.9835 11.0555 95.9835 9.60967L95.9722 8.11868H90.9954V27.7727H95.9722V22.8253C95.9722 17.3696 96.0514 16.2062 96.5039 15.2009C97.1373 13.789 98.2458 13.2129 100.553 13.0999L102.024 13.0322V7.8363L101.741 7.825C101.583 7.8137 101.175 7.84759 100.836 7.89277Z" fill="#AEC0CE"/>
<path d="M129.34 27.7727H134.43V8.11868H129.34V27.7727Z" fill="#AEC0CE"/>
<path d="M150.752 8.19774C150.808 8.28811 158.342 26.5528 158.523 27.0385C158.579 27.2079 158.048 28.552 156.498 32.1214L154.383 36.9784L156.984 37.0123C158.41 37.0236 159.62 37.001 159.676 36.9445C159.722 36.8993 162.482 30.4045 165.796 22.5203L171.836 8.17515L169.234 8.14127C167.798 8.12997 166.587 8.15256 166.542 8.19774C166.497 8.25422 165.321 11.304 163.941 14.9863C162.425 19.0526 161.396 21.6393 161.339 21.5376C161.283 21.4246 157.052 10.0615 156.464 8.42365L156.351 8.11867H153.523C151.974 8.11867 150.729 8.15256 150.752 8.19774Z" fill="#AEC0CE"/>
<path d="M103.03 34.1997C102.374 34.4934 102.046 35.013 101.99 35.8037C101.967 36.1538 102.001 36.6282 102.08 36.8542C102.499 38.1305 104.128 38.5485 105.146 37.6335L105.587 37.2382V37.6448C105.587 37.9272 105.632 38.0515 105.756 38.0515C105.903 38.0515 105.926 37.7465 105.926 36.0183C105.926 34.2901 105.903 33.9851 105.756 33.9851C105.632 33.9851 105.587 34.1094 105.587 34.4595V34.9452L105.327 34.6403C104.818 34.0077 103.856 33.827 103.03 34.1997ZM104.772 34.5499C105.53 35.013 105.768 36.1425 105.293 37.0575C104.908 37.7917 103.619 38.0063 102.917 37.4528C101.978 36.7186 102.193 34.8775 103.268 34.4369C103.686 34.2562 104.388 34.3127 104.772 34.5499Z" fill="#AEC0CE"/>
<path d="M108.019 34.1433C107.295 34.4595 106.933 35.126 106.933 36.0974C106.933 37.1252 107.419 37.8143 108.324 38.0628C109.003 38.2435 109.613 38.0966 110.145 37.6109L110.597 37.2043L110.53 37.9837C110.417 39.1923 109.964 39.678 108.969 39.6667C108.335 39.6554 107.917 39.4295 107.645 38.9438C107.532 38.7631 107.385 38.6162 107.317 38.6162C106.91 38.6162 107.476 39.5424 108.041 39.8022C108.607 40.0733 109.534 40.062 110.021 39.7909C110.236 39.6667 110.507 39.3617 110.654 39.068C110.892 38.5823 110.903 38.4581 110.88 36.312C110.858 34.629 110.812 34.0529 110.711 34.0077C110.609 33.9851 110.564 34.1094 110.564 34.4595V34.9452L110.269 34.6177C109.704 34.019 108.754 33.8157 108.019 34.1433ZM109.659 34.5273C110.19 34.7984 110.484 35.3293 110.484 36.0635C110.484 36.8316 110.202 37.306 109.568 37.6109C108.437 38.1644 107.283 37.3624 107.283 36.0409C107.283 34.7193 108.494 33.9399 109.659 34.5273Z" fill="#AEC0CE"/>
<path d="M112.995 34.1432C111.774 34.6741 111.457 36.5943 112.419 37.5545C113.267 38.4016 114.862 38.2774 115.427 37.3398C115.552 37.1365 115.654 36.9106 115.654 36.8316C115.654 36.5943 115.314 36.6847 115.201 36.9671C114.952 37.6448 114.025 37.9724 113.222 37.6674C112.701 37.4641 112.407 37.1252 112.294 36.5831L112.238 36.2442H115.654V35.7585C115.654 35.4987 115.563 35.1034 115.45 34.8887C115.054 34.1432 113.844 33.7705 112.995 34.1432ZM114.873 34.7306C115.065 34.9339 115.235 35.2389 115.28 35.4874L115.348 35.9053H113.799C112.328 35.9053 112.26 35.894 112.26 35.6794C112.26 35.2954 112.588 34.7871 112.973 34.5386C113.516 34.1997 114.421 34.2901 114.873 34.7306Z" fill="#AEC0CE"/>
<path d="M116.672 36.0183C116.672 37.7465 116.694 38.0515 116.841 38.0515C116.977 38.0515 117.011 37.8369 117.011 36.809C117.011 35.3632 117.192 34.7532 117.701 34.4934C118.085 34.2901 118.708 34.2788 119.103 34.4595C119.612 34.6854 119.726 35.0695 119.726 36.6395C119.726 37.9724 119.737 38.0515 119.952 38.0515C120.167 38.0515 120.178 37.9724 120.178 36.9219C120.178 34.8549 119.827 34.132 118.775 34.019C118.119 33.9399 117.791 34.0303 117.362 34.3918L117.011 34.6854V34.3353C117.011 34.0981 116.954 33.9851 116.841 33.9851C116.694 33.9851 116.672 34.2901 116.672 36.0183Z" fill="#AEC0CE"/>
<path d="M122.157 34.1433C121.422 34.4708 121.083 35.0921 121.083 36.1087C121.083 36.8993 121.422 37.5432 121.988 37.8707C122.485 38.1644 123.47 38.1757 124.001 37.9046C124.363 37.7013 124.816 37.1252 124.816 36.8316C124.816 36.5492 124.51 36.7073 124.34 37.0801C124.205 37.3624 124.012 37.5093 123.639 37.6561C122.146 38.2209 120.97 36.8203 121.603 35.2276C122.067 34.0868 123.899 33.9964 124.363 35.1034C124.521 35.4874 124.816 35.5778 124.816 35.2389C124.816 34.9339 124.273 34.324 123.831 34.1433C123.368 33.9399 122.599 33.9512 122.157 34.1433Z" fill="#AEC0CE"/>
<path d="M125.381 34.0642C125.381 34.1094 125.743 35.0017 126.173 36.0296C126.614 37.0688 126.965 37.995 126.965 38.0853C126.965 38.1757 126.806 38.6162 126.625 39.068C126.275 39.9039 126.263 40.0507 126.546 39.9378C126.671 39.8926 128.899 34.4482 128.899 34.1546C128.899 34.0981 128.854 34.0303 128.786 34.0077C128.65 33.9625 128.627 33.9964 127.836 36.0635L127.236 37.6335L126.49 35.8376C126.015 34.6854 125.675 34.0303 125.562 34.0077C125.46 33.9851 125.381 34.0077 125.381 34.0642Z" fill="#AEC0CE"/>
</svg>
