<svg width="230" height="40" viewBox="0 0 230 40" fill="none" xmlns="http://www.w3.org/2000/svg">
<path d="M79.6392 2.01022C79.6347 2.0147 79.3699 2.03265 79.0466 2.0461C78.5573 2.06853 77.6146 2.22102 77.2734 2.32866C77.2375 2.34211 77.1387 2.36005 77.0579 2.36902C76.7751 2.39593 75.0019 2.92068 74.8717 3.01038C74.8492 3.02832 74.728 3.08214 74.6023 3.12699C74.4811 3.17184 74.2252 3.28845 74.0412 3.38264C73.8571 3.48131 73.498 3.66968 73.2466 3.79975C72.8291 4.01951 72.3936 4.27964 72.0435 4.51735C71.7113 4.7416 70.9885 5.27083 70.7775 5.44575C70.6473 5.55339 70.3555 5.7911 70.1266 5.97947C69.7046 6.32033 68.6855 7.32049 68.7215 7.35637C68.7484 7.38328 68.928 7.26218 69.0896 7.11418C69.1569 7.05139 69.3051 6.92581 69.4128 6.83162C69.525 6.74192 69.6417 6.63428 69.6822 6.58943C69.7181 6.54907 69.7719 6.51319 69.7989 6.51319C69.8438 6.51319 70.4498 6.10953 70.5665 5.99741C70.8628 5.72831 71.5137 5.23495 71.9986 4.91652C72.1737 4.79991 72.4026 4.64741 72.5104 4.57117C72.8381 4.34243 73.7179 3.88945 74.7819 3.39609C74.957 3.31536 75.2577 3.19427 75.4553 3.12699C75.6528 3.05972 75.8458 2.98796 75.8862 2.96553C75.9266 2.94759 76.0074 2.92068 76.0658 2.90723C76.1242 2.89825 76.3666 2.83546 76.6045 2.77267C76.9906 2.674 77.3318 2.60224 78.3284 2.42284C78.6381 2.36902 81.4843 2.3466 81.9646 2.39593C82.1397 2.41387 82.4629 2.46769 82.6829 2.51703C82.9073 2.56188 83.1183 2.60224 83.1543 2.60224C83.1902 2.60224 83.3338 2.64261 83.4685 2.69194C83.6032 2.74128 83.8366 2.81752 83.9848 2.85789C84.1329 2.89825 84.3035 2.95208 84.3663 2.9745C84.4292 2.99693 84.519 3.02384 84.5684 3.03281C84.8018 3.07766 85.0622 3.16287 85.336 3.28397C85.4976 3.36021 85.6458 3.41852 85.6682 3.41852C85.7041 3.41852 86.0408 3.57998 86.3865 3.75489C86.4987 3.8132 86.6109 3.86254 86.6424 3.86254C86.6738 3.86702 86.7726 3.92084 86.8668 3.98363C86.9611 4.04642 87.1586 4.15855 87.3068 4.23479C87.5492 4.35589 88.1687 4.74609 88.2271 4.80888C88.2405 4.82682 88.3393 4.89858 88.4515 4.97482C88.5637 5.05107 88.7164 5.16768 88.7882 5.23047C88.8645 5.29774 89.0037 5.4009 89.1025 5.46817C89.2012 5.53545 89.3224 5.62964 89.3718 5.68346C89.4212 5.73279 89.5918 5.88528 89.7534 6.01983C90.5929 6.72847 91.2752 7.43262 91.8139 8.14573C91.9441 8.32065 92.1327 8.55387 92.2269 8.66151C92.3257 8.76467 92.402 8.87679 92.402 8.90819C92.402 8.93958 92.4649 9.02031 92.5367 9.09208C92.613 9.16384 92.6714 9.24008 92.6714 9.26251C92.6714 9.28942 92.7477 9.41051 92.842 9.53609C93.035 9.79622 93.2774 10.1909 93.677 10.9175C93.7622 11.0745 93.9059 11.3211 93.9957 11.4691C94.0855 11.6171 94.2067 11.8369 94.2695 11.9625C94.3324 12.0836 94.3997 12.2181 94.4222 12.254C94.6287 12.6263 95.2123 14.0884 95.4681 14.8778C96.0832 16.7884 96.2986 19.2641 96.0338 21.4259C95.9216 22.3274 95.4996 23.8792 95.127 24.7358C95.0911 24.8166 95.0058 25.0184 94.9384 25.1933C94.3728 26.6061 93.0574 28.6423 92.1102 29.5842C92.0115 29.6828 91.9576 29.7456 91.9845 29.7277C92.0249 29.7053 92.0339 29.7187 92.0159 29.7636C92.0025 29.8039 91.9711 29.8353 91.9486 29.8353C91.8813 29.8353 91.6613 30.0641 91.5401 30.2614C91.365 30.5395 90.2786 31.5979 89.7534 32.0016C89.493 32.2034 89.1743 32.4546 89.0486 32.5577C88.7164 32.8223 88.2181 33.1453 88.0744 33.1811C87.9891 33.1991 87.9532 33.1901 87.9308 33.1363C87.9173 33.0959 87.8769 33.0645 87.8455 33.0645C87.8141 33.0645 87.7377 33.0376 87.6749 33.0062L87.5582 32.9434L87.7826 32.7237C87.9038 32.6026 88.0475 32.4366 88.1014 32.3559C88.1507 32.2707 88.2719 32.1496 88.3662 32.0778C88.4605 32.0106 88.5233 31.9433 88.5099 31.9253C88.4964 31.9119 88.5099 31.8984 88.5413 31.8984C88.5727 31.8984 88.5862 31.885 88.5727 31.8715C88.5278 31.8267 88.7254 31.6697 88.7837 31.7056C88.8107 31.719 88.8196 31.7145 88.7972 31.6966C88.7613 31.6518 89.1159 31.3154 89.2012 31.3154C89.2326 31.3154 89.2596 31.284 89.2596 31.2481C89.2596 31.2122 89.3045 31.1629 89.3583 31.1315C89.4616 31.0732 89.7758 30.7458 89.7758 30.6875C89.7803 30.6247 89.8566 30.5484 89.906 30.5664C89.933 30.5753 90.0093 30.5126 90.0811 30.4229C90.3864 30.0237 90.9475 29.3151 90.9924 29.2747C91.0149 29.2478 91.1181 29.1222 91.2124 28.9966C91.3111 28.8666 91.4054 28.7589 91.4234 28.7589C91.4413 28.7589 91.4593 28.7365 91.4593 28.7096C91.4593 28.6827 91.4862 28.6378 91.5176 28.6019C91.6254 28.4808 92.209 27.6063 92.3796 27.3013C92.4469 27.1757 92.5232 27.0456 92.5547 27.0098C92.5861 26.9739 92.6489 26.8528 92.6938 26.7407C92.7432 26.6285 92.8464 26.4267 92.9273 26.2921C93.0081 26.1576 93.0754 26.032 93.0754 26.0141C93.0754 25.9961 93.1697 25.7853 93.2819 25.5431C93.5243 25.0274 93.6545 24.7314 93.6545 24.7C93.6545 24.6865 93.6859 24.6461 93.7218 24.6103C93.8071 24.525 93.9418 24.0631 93.9014 23.9958C93.8835 23.9689 93.8879 23.9599 93.9149 23.9734C93.9732 24.0093 94.2561 23.0943 94.3952 22.4126C94.6646 21.0985 94.714 20.5917 94.7095 19.0264C94.7095 17.645 94.705 17.5329 94.5883 16.8512C94.3638 15.5415 94.09 14.4607 93.7308 13.4739C93.6949 13.3708 93.659 13.2676 93.6545 13.2497C93.6186 13.0793 93.4256 12.6442 93.2325 12.2764C93.1203 12.0656 93.0305 11.8683 93.0305 11.8414C93.0305 11.8145 93.0036 11.7562 92.9677 11.7203C92.9362 11.6799 92.7926 11.4243 92.6489 11.1552C92.5098 10.8816 92.3571 10.6215 92.3122 10.5721C92.2673 10.5228 92.1551 10.3613 92.0608 10.2133C91.4548 9.25354 89.6232 7.18594 88.8107 6.5401C87.9622 5.86286 87.5043 5.53994 86.8578 5.15871C85.4213 4.31104 84.2855 3.91187 82.3462 3.57998C80.2632 3.22118 78.0994 3.26603 76.3531 3.70107C75.4912 3.91636 75.2443 3.99709 74.7864 4.19891C74.6427 4.26619 74.4272 4.33795 74.306 4.36486C74.0726 4.41419 72.8021 5.02864 72.3802 5.29326C71.6484 5.75522 71.3476 5.96601 71.1591 6.1499C70.8853 6.40554 70.8583 6.57598 71.1142 6.39657C71.1726 6.35621 71.2309 6.33827 71.2489 6.35621C71.2803 6.3876 71.0963 6.57149 70.6743 6.92132C70.5171 7.05139 70.2523 7.28461 70.0907 7.44159C69.9246 7.59856 69.7674 7.72414 69.7405 7.72414C69.7136 7.72414 69.6687 7.76451 69.6462 7.80936C69.5834 7.92148 68.919 8.5763 68.8651 8.5763C68.8427 8.5763 68.708 8.68842 68.5688 8.82297C67.4869 9.87247 67.3478 9.97114 67.1233 9.89041C66.9931 9.84107 66.9707 9.84556 66.8988 9.92629C66.8495 9.9846 66.7956 10.007 66.7597 9.9846C66.6385 9.90835 66.5262 9.93975 66.3781 10.0922C66.2928 10.1775 66.2389 10.2582 66.2659 10.2761C66.3377 10.321 66.3063 10.5228 66.221 10.5407C66.1536 10.5542 66.1447 10.5318 66.1671 10.4196C66.1896 10.3075 66.1806 10.2806 66.1222 10.2806C66.0639 10.2806 66.0549 10.2985 66.0953 10.3658C66.1312 10.4331 66.1267 10.4645 66.0683 10.4959C66.0324 10.5183 65.9965 10.5676 65.9875 10.608C65.983 10.6484 65.9651 10.6977 65.9471 10.7112C65.9292 10.7291 65.9157 10.8009 65.9157 10.8726C65.9157 10.9489 65.8978 10.9937 65.8708 10.9758C65.8484 10.9623 65.8259 10.9713 65.8259 10.9937C65.8259 11.0206 65.7945 11.0431 65.7586 11.0431C65.6868 11.0431 65.6643 11.1731 65.7361 11.1821C65.7631 11.1866 65.808 11.1911 65.8394 11.1956C65.9202 11.2045 65.9337 11.3974 65.8529 11.4288C65.8125 11.4422 65.781 11.4871 65.781 11.523C65.781 11.5588 65.7586 11.5723 65.7361 11.5588C65.7092 11.5409 65.7047 11.5095 65.7182 11.4826C65.7361 11.4557 65.7272 11.4467 65.7047 11.4602C65.6778 11.4781 65.6688 11.5364 65.6778 11.5992C65.7092 11.7517 65.606 11.7965 65.5027 11.6754C65.4578 11.6171 65.395 11.5813 65.359 11.5947C65.3276 11.6082 65.2782 11.6037 65.2603 11.5902C65.2378 11.5723 65.2558 11.5947 65.3052 11.6396C65.3501 11.6844 65.377 11.7293 65.3635 11.7472C65.3456 11.7607 65.3546 11.801 65.3815 11.8324C65.4354 11.8952 65.3725 11.949 65.2289 11.958C65.1346 11.9625 65.0583 12.0746 65.1481 12.0746C65.175 12.0746 65.1615 12.115 65.1211 12.1598C65.0807 12.2092 65.0268 12.2361 64.9999 12.2226C64.973 12.2047 64.9775 12.2226 65.0089 12.263C65.0538 12.3213 65.0493 12.3437 64.9864 12.3931C64.9101 12.4514 64.9101 12.4514 64.9685 12.3661C65.0313 12.2809 65.0313 12.2809 64.9505 12.3527C64.8832 12.4155 64.8787 12.4424 64.9281 12.4962C64.973 12.5545 64.973 12.568 64.9191 12.568C64.8877 12.568 64.8563 12.6128 64.8518 12.6666C64.8473 12.716 64.8159 12.7788 64.7844 12.7967C64.753 12.8146 64.744 12.846 64.762 12.864C64.7799 12.8819 64.762 12.9447 64.7261 12.9985C64.6902 13.0524 64.6812 13.1062 64.7036 13.1151C64.7306 13.1241 64.7171 13.1869 64.6767 13.2631C64.6408 13.3349 64.6094 13.4022 64.6094 13.4067C64.6273 13.4605 64.6049 13.5098 64.5779 13.4919C64.533 13.465 64.5375 13.6489 64.5824 13.7206C64.6049 13.7565 64.5959 13.7789 64.5555 13.7789C64.5151 13.7789 64.4971 13.8193 64.5016 13.8911C64.5106 13.9538 64.5016 14.0032 64.4837 14.0032C64.4657 14.0032 64.4567 14.0615 64.4612 14.1377C64.4657 14.2095 64.4522 14.2723 64.4298 14.2723C64.4118 14.2723 64.4028 14.2992 64.4163 14.3306C64.4298 14.3665 64.4073 14.4203 64.3669 14.4517C64.331 14.4831 64.2996 14.5324 64.2996 14.5593C64.2996 14.5862 64.322 14.5773 64.3445 14.5414C64.3804 14.4876 64.3894 14.4876 64.3894 14.5369C64.3894 14.5728 64.358 14.6221 64.3131 14.6535C64.2547 14.6939 64.2547 14.7163 64.2996 14.7432C64.34 14.7701 64.349 14.7611 64.322 14.7163C64.2906 14.6625 64.2996 14.6625 64.349 14.7118C64.3939 14.7522 64.3939 14.7791 64.3624 14.8015C64.2861 14.8508 64.2457 15.0706 64.3086 15.1065C64.34 15.1289 64.3445 15.1199 64.322 15.0796C64.2996 15.0392 64.3041 15.0302 64.3355 15.0527C64.4163 15.102 64.3984 15.1738 64.3131 15.1603C64.2502 15.1513 64.2278 15.1827 64.2188 15.3038C64.1919 15.6492 64.2008 15.99 64.2367 16.017C64.2771 16.0394 64.2816 16.1201 64.2592 16.3578C64.2547 16.4341 64.2457 16.4341 64.2098 16.3802C64.1784 16.3309 64.1694 16.3488 64.1784 16.4565C64.1829 16.5327 64.2008 16.5866 64.2143 16.5776C64.2323 16.5686 64.2412 16.609 64.2367 16.6718C64.2367 16.7346 64.2188 16.7839 64.1963 16.7839C64.1649 16.7839 64.1963 16.9902 64.2457 17.0709C64.2592 17.0934 64.2771 17.5284 64.2861 18.0352C64.2906 18.542 64.3176 19.0668 64.3445 19.2013C64.3669 19.3359 64.3894 19.5377 64.3894 19.6498C64.3894 19.9862 64.5465 21.0312 64.8203 22.5158C64.8518 22.6952 64.9011 22.879 64.9281 22.9284C64.955 22.9777 64.964 23.0405 64.9505 23.0629C64.9371 23.0854 64.964 23.1795 65.0089 23.2737C65.0583 23.3679 65.1211 23.5249 65.1481 23.6236C65.1795 23.7222 65.2244 23.8433 65.2468 23.8927C65.2693 23.942 65.3142 24.0945 65.3501 24.229C65.386 24.3636 65.4847 24.6327 65.5745 24.8255C65.6643 25.0184 65.7361 25.1978 65.7361 25.2247C65.7361 25.2471 65.8035 25.4131 65.8888 25.588C65.9741 25.7674 66.0728 25.9872 66.1132 26.0814C66.1491 26.1755 66.2389 26.337 66.3108 26.4402C66.3781 26.5433 66.4499 26.6599 66.4634 26.6958C66.4993 26.79 67.0605 27.6556 67.1368 27.7318C67.1727 27.7677 67.2625 27.8843 67.3388 27.9965C67.4151 28.1086 67.5363 28.2521 67.6036 28.3149C67.6755 28.3822 67.7967 28.5122 67.8685 28.6064C68.0077 28.7858 68.3623 29.176 68.8023 29.629C68.9414 29.777 69.0582 29.916 69.0582 29.934C69.0582 29.9519 69.0896 29.9699 69.1255 29.9699C69.1614 29.9699 69.1928 29.9878 69.1928 30.0102C69.1928 30.0461 69.7315 30.535 70.2119 30.9431C70.4812 31.1674 70.7416 31.3199 70.7865 31.2795C70.8045 31.2616 70.8089 31.275 70.8 31.3109C70.7865 31.3692 71.5317 31.9298 71.6305 31.9388C71.6484 31.9433 71.7921 32.024 71.9402 32.1227C72.0929 32.2214 72.232 32.3021 72.2545 32.3021C72.2724 32.3021 72.3622 32.3514 72.452 32.4142C72.5418 32.477 72.645 32.5263 72.6765 32.5263C72.7079 32.5263 72.7797 32.5712 72.8381 32.6295C72.8964 32.6878 73.0535 32.7685 73.1882 32.8134C73.3229 32.8582 73.5788 32.9614 73.7583 33.0466C74.1085 33.2081 74.1534 33.226 74.1085 33.1542C74.095 33.1273 74.113 33.1094 74.1534 33.1094C74.1938 33.1094 74.2118 33.087 74.1983 33.0601C74.1803 33.0331 74.1399 33.0242 74.104 33.0376C74.0681 33.0511 74.0277 33.0331 74.0142 32.9973C73.9963 32.9614 73.9604 32.93 73.9289 32.93C73.8975 32.93 73.8571 32.9031 73.8481 32.8717C73.8302 32.8313 73.8212 32.8358 73.8212 32.8807C73.8167 32.9255 73.7898 32.912 73.7314 32.8448C73.682 32.7865 73.5429 32.6878 73.4217 32.625C72.9593 32.3738 72.6854 32.2034 72.7124 32.181C72.7258 32.1675 72.7617 32.1765 72.7932 32.1989C72.8246 32.2258 73.0625 32.3559 73.3229 32.486C73.5833 32.616 73.8212 32.7461 73.8526 32.782C73.884 32.8134 73.9514 32.8403 73.9963 32.8403C74.0816 32.8403 74.7684 33.078 74.8941 33.1498C74.9345 33.1677 75.1769 33.2529 75.4328 33.3292C75.6932 33.4099 75.985 33.5041 76.0838 33.54C76.3037 33.6162 77.5966 33.9122 77.8121 33.9346C77.8974 33.9436 78.1533 33.9795 78.3733 34.0109C78.8356 34.0782 80.5505 34.0916 81.3047 34.0378C82.2923 33.9615 83.8187 33.6386 84.8916 33.2708C85.4617 33.078 86.2743 32.7013 86.6603 32.4546C86.8219 32.3514 86.9925 32.2572 87.0419 32.2393C87.0868 32.2258 87.2035 32.1451 87.3023 32.0599C87.3966 31.9747 87.4998 31.9164 87.5357 31.9298C87.6165 31.9567 87.6165 31.9567 87.5178 32.0599C87.41 32.1765 87.1901 32.329 87.0688 32.3649C87.015 32.3828 86.9701 32.4187 86.9701 32.4411C86.9701 32.468 86.9521 32.4725 86.9252 32.4591C86.9027 32.4456 86.8803 32.4501 86.8803 32.4725C86.8803 32.4994 86.8174 32.5398 86.7411 32.5667C86.6648 32.5936 86.5616 32.6564 86.5167 32.7102C86.4718 32.7596 86.4134 32.791 86.391 32.773C86.364 32.7596 86.3416 32.7685 86.3416 32.7954C86.3416 32.8223 86.2877 32.8627 86.2204 32.8896C86.0049 32.9704 85.7804 33.0825 85.7535 33.1184C85.74 33.1408 85.6817 33.1677 85.6233 33.1767C85.565 33.1856 85.5066 33.2125 85.4931 33.2305C85.4797 33.2529 85.4168 33.2664 85.354 33.2664C85.2821 33.2664 85.2462 33.2888 85.2552 33.3292C85.2642 33.3785 85.2552 33.383 85.2058 33.3426C85.1564 33.2978 85.116 33.3022 85.0218 33.3471C84.9589 33.383 84.923 33.4278 84.941 33.4458C84.9589 33.4682 84.9454 33.4682 84.914 33.4458C84.8736 33.4278 84.8018 33.4502 84.7255 33.5041C84.6357 33.5713 84.5908 33.5848 84.5504 33.5444C84.5145 33.5086 84.501 33.5175 84.501 33.5848C84.501 33.6341 84.4875 33.6521 84.4651 33.6252C84.4471 33.5983 84.4067 33.5803 84.3798 33.5848C84.3484 33.5893 84.281 33.5938 84.2272 33.5983C84.1778 33.5983 84.1509 33.6252 84.1643 33.6476C84.1778 33.6745 84.1643 33.6924 84.1239 33.6924C84.088 33.6924 84.0252 33.7059 83.9803 33.7238C83.9264 33.7418 83.9129 33.7373 83.9354 33.6969C83.9623 33.6521 83.9533 33.6521 83.8815 33.6969C83.8276 33.7283 83.7917 33.7642 83.7962 33.7777C83.8097 33.8135 83.7558 33.827 83.6615 33.8225C83.5942 33.8225 83.5942 33.8135 83.6705 33.7821C83.7513 33.7463 83.7513 33.7418 83.6795 33.7418C83.6346 33.7373 83.5897 33.7687 83.5718 33.8091C83.5493 33.8674 83.5358 33.8674 83.5044 33.818C83.473 33.7732 83.455 33.7732 83.4371 33.8135C83.4281 33.8449 83.3652 33.8718 83.3069 33.8718C83.2126 33.8718 83.1991 33.8898 83.2171 33.9885C83.2351 34.0826 83.2261 34.0961 83.1767 34.0512C83.1408 34.0243 83.1228 33.975 83.1363 33.9436C83.1498 33.9122 83.1273 33.8853 83.0869 33.8853C83.0465 33.8853 83.0241 33.9122 83.0375 33.9391C83.0465 33.9705 83.0106 33.9929 82.9388 33.9929C82.5572 33.9929 82.0499 34.0647 81.9467 34.132C81.8659 34.1903 81.8434 34.1903 81.8748 34.1454C81.9018 34.0961 81.8928 34.0871 81.8344 34.1095C81.7895 34.1275 81.7446 34.1409 81.7357 34.1409C81.7222 34.1409 81.7222 34.1589 81.7357 34.1768C81.7491 34.1992 81.7312 34.2172 81.6953 34.2172C81.6594 34.2172 81.6414 34.1992 81.6549 34.1813C81.6908 34.123 81.61 34.1051 81.5022 34.1454C81.4439 34.1679 81.4124 34.2082 81.4259 34.2351C81.4484 34.2665 81.4124 34.2755 81.3316 34.2665C81.2598 34.2576 81.2059 34.2306 81.2104 34.2037C81.2239 34.1409 81.0578 34.1723 80.959 34.2486C80.9097 34.2845 80.9007 34.2845 80.9276 34.2441C80.9501 34.1992 80.7705 34.1903 80.1151 34.1903C79.3205 34.1903 78.1533 34.0916 77.6595 33.984C77.6101 33.975 77.5383 33.9885 77.5023 34.0198C77.4575 34.0557 77.444 34.0557 77.4664 34.0243C77.5068 33.9526 77.3991 33.9167 77.1612 33.9167C77.0534 33.9167 76.9592 33.8988 76.9502 33.8763C76.9367 33.836 76.6584 33.7911 76.2768 33.7687C76.0658 33.7597 76.0478 33.8404 76.2499 33.8763C76.3307 33.8943 76.4653 33.9391 76.5461 33.984C76.627 34.0243 76.7347 34.0512 76.7841 34.0378C76.829 34.0243 76.8694 34.0333 76.8694 34.0512C76.8694 34.0871 77.5068 34.2441 77.8345 34.2934C77.9109 34.3024 78.1084 34.3338 78.2745 34.3652C78.4406 34.3966 78.6381 34.41 78.7099 34.4011C78.7818 34.3921 78.8312 34.3966 78.8222 34.4145C78.7503 34.5267 81.2867 34.567 81.4932 34.4549C81.5561 34.419 81.6908 34.3921 81.794 34.3876C81.9063 34.3876 82.014 34.3517 82.0724 34.3024C82.1262 34.2531 82.1666 34.2396 82.1666 34.2665C82.1666 34.2979 82.1442 34.3203 82.1128 34.3203C82.0858 34.3203 82.0724 34.3338 82.0858 34.3473C82.1038 34.3607 82.1532 34.3517 82.207 34.3248C82.2699 34.2889 82.3058 34.2889 82.3238 34.3248C82.3462 34.3562 82.3821 34.3473 82.436 34.2979C82.4854 34.2531 82.5303 34.2441 82.5437 34.2665C82.5707 34.3114 82.7053 34.2979 82.8625 34.2306C83.0465 34.1499 83.473 34.0468 83.5134 34.0737C83.5358 34.0871 83.5807 34.0692 83.6122 34.0378C83.6436 34.0019 83.7019 33.984 83.7468 33.9974C83.7917 34.0064 83.8276 33.9929 83.8276 33.9615C83.8276 33.9301 83.8591 33.9167 83.895 33.9346C83.9713 33.9615 83.9848 33.8718 83.9174 33.7911C83.886 33.7507 83.886 33.7507 83.9264 33.7821C83.9982 33.8404 84.0656 33.8404 84.0297 33.7821C84.0162 33.7597 84.0341 33.7373 84.0701 33.7373C84.1105 33.7373 84.1419 33.7687 84.1419 33.8046C84.1419 33.8808 84.2541 33.8988 84.299 33.827C84.3125 33.8046 84.3574 33.8001 84.3978 33.8135C84.4427 33.8315 84.4606 33.8225 84.4427 33.7956C84.4202 33.7642 84.4427 33.7552 84.501 33.7687C84.5504 33.7821 84.6177 33.7687 84.6492 33.7418C84.6851 33.7149 84.721 33.7059 84.7389 33.7194C84.7524 33.7328 84.8063 33.7194 84.8602 33.6924C84.914 33.6655 85.0667 33.6117 85.2058 33.5758C85.3405 33.54 85.4931 33.4861 85.547 33.4592C85.6009 33.4278 85.6682 33.4009 85.6907 33.4009C85.7176 33.3964 85.767 33.383 85.8029 33.365C85.96 33.2933 86.2967 33.2125 86.2698 33.2484C86.2383 33.3067 86.795 33.2574 86.8534 33.1991C86.8803 33.1722 86.9431 33.1542 86.997 33.1542C87.0554 33.1542 87.1272 33.1228 87.1676 33.087C87.2035 33.0511 87.2574 33.0197 87.2843 33.0197C87.3786 33.0197 87.2394 33.1991 86.8354 33.5938C86.2698 34.1544 86.171 34.2396 86.1171 34.2082C86.0947 34.1948 86.0812 34.2082 86.0947 34.2396C86.1306 34.3428 84.8377 35.0828 84.6267 35.0828C84.5818 35.0828 84.5459 35.1007 84.5459 35.1232C84.5459 35.1725 84.1688 35.334 83.9623 35.3743C83.8411 35.3968 83.8231 35.3923 83.8725 35.3519C83.9264 35.316 83.9174 35.307 83.8276 35.325C83.7648 35.3384 83.6032 35.3609 83.4685 35.3743C83.3338 35.3878 83.1049 35.4147 82.9612 35.4371C82.6604 35.4775 80.4832 35.4685 80.0567 35.4192C79.7155 35.3833 78.9524 35.2308 78.8805 35.186C78.8446 35.168 78.8581 35.1456 78.912 35.1276C78.9973 35.0963 78.9973 35.0963 78.912 35.0514C78.8626 35.029 78.6202 34.9617 78.3733 34.9079C77.5562 34.7195 75.4912 34.132 74.5664 33.818C74.1983 33.6969 73.7449 33.5534 73.5563 33.5041C73.3678 33.4547 73.1523 33.4009 73.076 33.383C72.7977 33.3067 72.4385 33.1811 72.2096 33.0825C72.0794 33.0242 71.9582 32.9748 71.9357 32.9748C71.8819 32.9748 71.3476 32.7596 71.1546 32.6609C71.0558 32.6115 70.9526 32.5712 70.9167 32.5712C70.8808 32.5712 70.8538 32.5488 70.8538 32.5174C70.8538 32.4905 70.8404 32.477 70.8269 32.4949C70.8134 32.5084 70.7506 32.5039 70.6967 32.4815C70.6249 32.4546 70.5845 32.4591 70.5755 32.4905C70.5575 32.5398 70.4588 32.4994 69.6148 32.0958C69.4352 32.0106 69.2781 31.9433 69.2647 31.9433C69.1883 31.9433 68.8831 31.6518 68.8696 31.571C68.8606 31.5172 68.7664 31.4096 68.6541 31.3288C68.5419 31.2481 68.4297 31.1584 68.3982 31.136C68.3668 31.1091 68.3264 31.0911 68.3085 31.0911C68.1917 31.0911 67.7159 30.8534 67.6306 30.7547C67.5767 30.692 67.5318 30.6516 67.5318 30.665C67.5318 30.683 67.4106 30.5753 67.267 30.4318C66.9392 30.1089 66.8001 29.9923 66.7687 30.0147C66.7552 30.0237 66.625 29.8802 66.4769 29.6918C66.3287 29.5034 66.1851 29.3465 66.1536 29.3465C66.0639 29.3375 65.5566 28.6513 65.5566 28.5302C65.5566 28.5033 65.5207 28.4898 65.4803 28.4988C65.386 28.5167 65.1525 28.1669 65.1525 28.0054C65.1525 27.9471 65.1346 27.9157 65.1077 27.9292C65.0852 27.9426 65.0628 27.9247 65.0628 27.8843C65.0628 27.7767 65.1436 27.844 65.2154 28.0099C65.2513 28.0906 65.368 28.2431 65.4847 28.3553C65.597 28.4674 65.6912 28.575 65.6912 28.593C65.6912 28.6602 65.8753 28.8935 65.9067 28.8755C65.9247 28.8666 65.9786 28.8845 66.0279 28.9204C66.0728 28.9563 66.0998 28.9832 66.0818 28.9832C66.0683 28.9832 66.0998 29.0325 66.1536 29.0908C66.2075 29.1536 66.3018 29.2657 66.3646 29.342C66.5711 29.6066 67.0021 30.0147 67.0694 30.0147C67.1053 30.0147 67.1233 30.0327 67.1053 30.0551C67.0919 30.0775 67.1188 30.1089 67.1682 30.1268C67.2176 30.1403 67.267 30.1852 67.2804 30.221C67.2939 30.2569 67.3253 30.2749 67.3523 30.2614C67.4016 30.23 67.3163 30.1179 67.2445 30.1224C67.2221 30.1268 67.1906 30.082 67.1682 30.0282C67.1413 29.9564 67.1098 29.934 67.056 29.9564C67.0021 29.9744 66.9886 29.9699 67.0111 29.9295C67.0515 29.8667 66.9572 29.7366 66.8988 29.7725C66.8764 29.786 66.8584 29.777 66.8584 29.7546C66.8584 29.7366 66.7103 29.5572 66.5307 29.3599C65.6598 28.427 65.4668 28.1938 65.4668 28.0951C65.4668 28.0368 65.4129 27.9337 65.3456 27.8619C65.0987 27.6107 65.0044 27.4762 64.9236 27.3013C64.8787 27.1981 64.7934 27.0636 64.735 26.9963C64.6273 26.8662 64.6138 26.8348 64.4118 26.18C64.3445 25.9558 64.2727 25.745 64.2502 25.7046C64.2008 25.6015 64.1021 25.2471 64.111 25.2023C64.1155 25.1843 64.0976 25.1709 64.0706 25.1709C64.0482 25.1709 64.0347 25.153 64.0482 25.135C64.0572 25.1171 64.0437 25.0408 64.0078 24.9691C63.936 24.8031 63.8776 24.5834 63.8911 24.5071C63.8956 24.4802 63.8776 24.4533 63.8552 24.4533C63.8103 24.4533 63.716 24.1662 63.6936 23.9599C63.6891 23.8971 63.6711 23.8164 63.6576 23.7805C63.6442 23.7447 63.6217 23.6415 63.6038 23.5563C63.5858 23.4711 63.5589 23.3231 63.5364 23.2289C63.5185 23.1392 63.523 23.0629 63.5409 23.0629C63.5634 23.0629 63.5813 23.0405 63.5813 23.0136C63.5813 22.9912 63.5634 22.9777 63.5409 22.9912C63.4915 23.0226 63.4736 22.9463 63.3838 22.3453C63.1773 20.9864 63.1234 19.9817 63.1953 18.9457C63.2132 18.69 63.2087 18.5331 63.1818 18.5331C63.1369 18.5331 63.1189 18.3043 63.1279 17.7706C63.1369 17.3086 63.1728 17.0395 63.2357 16.9992C63.2761 16.9723 63.2761 16.9633 63.2357 16.9633C63.2042 16.9633 63.1773 16.9409 63.1773 16.914C63.1773 16.887 63.2087 16.8736 63.2446 16.8915C63.2895 16.9095 63.312 16.887 63.3075 16.8153C63.3075 16.7615 63.3209 16.6045 63.3389 16.4699C63.3569 16.3354 63.3703 16.1784 63.3703 16.1246C63.3658 16.0573 63.3838 16.0349 63.4197 16.0528C63.4466 16.0708 63.4422 16.0483 63.4062 16.0035C63.3658 15.9542 63.3569 15.9138 63.3838 15.8959C63.4107 15.8779 63.4287 15.8151 63.4287 15.7523C63.4287 15.6895 63.4511 15.6402 63.4781 15.6402C63.5679 15.6402 63.5858 15.5864 63.514 15.5281C63.4646 15.4877 63.4466 15.4877 63.4466 15.5236C63.4466 15.555 63.4287 15.564 63.4018 15.5505C63.3209 15.5012 63.3569 15.4384 63.4646 15.4384C63.5993 15.4384 63.6352 15.3487 63.5409 15.268C63.496 15.2276 63.4915 15.2186 63.5319 15.241C63.5813 15.2635 63.5903 15.2545 63.5679 15.2007C63.5544 15.1603 63.5589 15.1155 63.5813 15.102C63.6083 15.0841 63.6262 15.0527 63.6262 15.0302C63.6262 15.0033 63.6083 14.9944 63.5858 15.0078C63.5454 15.0347 63.5454 14.9764 63.5948 14.8553C63.6352 14.7387 63.6846 14.519 63.6756 14.4831C63.6711 14.4607 63.6891 14.4562 63.7115 14.4696C63.7923 14.5234 63.8956 14.4472 63.8552 14.3665C63.8282 14.3216 63.8282 14.2633 63.8552 14.2185C63.8866 14.1646 63.8776 14.1288 63.8193 14.0974C63.7564 14.0615 63.7519 14.048 63.8058 14.0435C63.8417 14.0391 63.8866 14.0391 63.9001 14.0391C63.9135 14.0435 63.927 14.0121 63.927 13.9808C63.927 13.9314 63.909 13.9269 63.8641 13.9673C63.8148 14.0077 63.8103 13.9987 63.8327 13.9314C63.8507 13.8866 63.8821 13.8193 63.909 13.7924C63.9315 13.761 63.9405 13.6937 63.927 13.6444C63.909 13.5771 63.9225 13.5547 63.9764 13.5636C64.0347 13.5726 64.0482 13.5502 64.0392 13.4605C64.0302 13.3932 64.0617 13.317 64.1155 13.2676C64.1829 13.2048 64.2008 13.151 64.1784 13.0748C64.1649 13.003 64.1739 12.9492 64.2143 12.9223C64.2682 12.8864 64.2682 12.8774 64.2143 12.8416C64.1649 12.8102 64.1649 12.8012 64.2143 12.7833C64.2682 12.7653 64.2682 12.7474 64.2098 12.6846C64.129 12.5814 64.111 12.4783 64.1784 12.4783C64.2143 12.4783 64.2098 12.4603 64.1694 12.4379C64.12 12.4065 64.1245 12.3931 64.1874 12.3572C64.2592 12.3168 64.2547 12.3078 64.1694 12.2854C64.0796 12.263 64.0482 12.3168 64.0706 12.4469C64.0751 12.4648 64.0572 12.5231 64.0302 12.568C63.9943 12.6308 63.9943 12.6577 64.0302 12.6577C64.0572 12.6577 64.0662 12.6801 64.0527 12.7025C64.0347 12.7294 64.0033 12.7384 63.9809 12.7249C63.9584 12.707 63.9405 12.7519 63.9405 12.8146C63.9405 12.8864 63.9225 12.9223 63.8911 12.9043C63.8641 12.8864 63.8552 12.846 63.8686 12.8102C63.8821 12.7788 63.8552 12.7294 63.8148 12.7025C63.7429 12.6622 63.7429 12.6532 63.8193 12.5949C63.9001 12.5321 63.918 12.4783 63.8597 12.4783C63.8372 12.4783 63.7923 12.5321 63.7564 12.5994C63.7205 12.6711 63.6576 12.7563 63.6172 12.7967C63.5723 12.8371 63.5499 12.8819 63.5679 12.8999C63.5813 12.9133 63.5768 12.9268 63.5499 12.9268C63.4197 12.9268 62.9753 13.5816 62.8945 13.8911C62.8765 13.9673 62.872 13.9673 62.8675 13.8776C62.863 13.8103 62.8451 13.7834 62.8092 13.8058C62.7778 13.8238 62.7733 13.8193 62.7912 13.7834C62.8092 13.7565 62.8496 13.7475 62.8765 13.761C62.9169 13.7834 62.9169 13.7789 62.8765 13.7341C62.8406 13.6982 62.8361 13.6444 62.863 13.5726C62.9259 13.4112 62.8406 13.4426 62.7598 13.6085C62.4904 14.1781 62.1448 15.7972 62.0505 16.9409C61.9832 17.7661 61.9832 19.4256 62.0505 19.9907C62.3333 22.3139 63.1818 26.18 63.7025 27.5031C64.3804 29.2254 65.2468 30.4767 66.5666 31.6248C66.6923 31.7325 66.9437 31.9657 67.1278 32.1451C67.6171 32.6115 68.4207 33.3381 68.8786 33.7238C69.6822 34.4011 71.0469 35.325 71.6843 35.6165C73.0446 36.2444 73.6596 36.4642 74.8133 36.7378C76.4519 37.128 76.7392 37.1504 80.0792 37.1325L82.9073 37.119L83.4909 37.0024C84.932 36.7153 86.1351 36.2803 86.7905 35.8139C87.3966 35.3788 87.4774 35.3115 88.3168 34.4818C88.8466 33.9571 89.4167 33.4547 89.8881 33.087C90.6871 32.468 91.356 31.9119 91.4593 31.7863C91.4952 31.7415 91.8005 31.4679 92.1327 31.1808C92.7387 30.6516 93.4884 29.916 93.8386 29.4989C93.9418 29.3734 94.0675 29.2298 94.1124 29.176C94.4177 28.8127 95.0731 27.8126 95.5355 27.0008C95.8901 26.3729 96.5411 24.7358 96.8284 23.7357C97.1561 22.601 97.2593 21.8654 97.2818 20.4526C97.2997 19.4121 97.2908 19.152 97.21 18.4792C97.0708 17.3894 96.8149 16.0483 96.5994 15.3263C96.4962 14.963 96.0652 13.7475 95.8812 13.2856C95.3469 11.9401 93.5872 9.08311 92.5053 7.81384C92.0743 7.31152 91.1944 6.419 90.3415 5.62067C89.9105 5.21701 89.0396 4.53977 88.9543 4.53977C88.9319 4.53977 88.8825 4.50838 88.8511 4.46801C88.8196 4.42765 88.6311 4.31552 88.4336 4.22134C88.236 4.12267 88.043 4.01503 88.0071 3.98363C87.8904 3.88496 86.9297 3.39161 86.5661 3.24809C85.8702 2.9745 85.3719 2.7951 85.1744 2.74576C85.0622 2.71885 84.941 2.68297 84.905 2.66952C84.8691 2.65606 84.7883 2.63364 84.7255 2.62467C84.6626 2.6157 84.4202 2.55739 84.1868 2.49909C83.4057 2.30175 83.1632 2.25241 82.6604 2.18065C82.5751 2.17168 82.4539 2.14926 82.3911 2.13132C82.3282 2.11786 82.0499 2.09992 81.7671 2.09544C81.4888 2.08647 81.2059 2.06404 81.1386 2.0461C81.0354 2.01919 79.6661 1.98331 79.6392 2.01022ZM81.1521 6.37863C81.2508 6.40106 81.3451 6.41003 81.3631 6.39657C81.381 6.3876 81.5651 6.40554 81.7716 6.44143C84.1913 6.8675 86.1082 7.72414 87.9128 9.18626C88.869 9.96217 89.5514 10.6618 90.2427 11.5813C91.1495 12.7833 91.9351 14.2812 92.2718 15.4429C92.7342 17.062 92.8734 18.0307 92.8689 19.587C92.8644 20.9819 92.6938 22.1883 92.3571 23.2648C92.1192 24.0093 91.8364 24.7807 91.6972 25.0677C91.4413 25.5835 91.0238 26.3684 90.9296 26.5074C90.8847 26.5747 90.7096 26.8393 90.539 27.0995C90.0991 27.7767 89.1563 28.9338 88.7747 29.2702C88.7164 29.324 88.6131 29.4137 88.5458 29.4765C88.3707 29.638 87.6435 30.2569 87.3202 30.5126C87.1048 30.683 86.5346 31.0642 86.2698 31.2077C86.1441 31.2795 85.8927 31.423 85.7086 31.5262C85.5246 31.6338 85.3405 31.719 85.3001 31.719C85.2552 31.719 85.2193 31.737 85.2193 31.7639C85.2193 31.7863 85.1385 31.8312 85.0397 31.8581C84.941 31.8895 84.8602 31.9253 84.8602 31.9433C84.8602 31.9657 84.8063 31.9926 84.7389 32.0106C84.6671 32.024 84.5324 32.0733 84.4337 32.1182C84.0656 32.2797 83.5762 32.4321 83.3338 32.4591C83.271 32.468 83.0196 32.5218 82.7727 32.5846C82.5258 32.6474 82.1397 32.7326 81.9152 32.773C81.4798 32.8493 79.9175 33.0197 79.8726 32.9928C79.8547 32.9838 79.5539 32.9659 79.2038 32.9524C78.8536 32.939 78.4092 32.9076 78.2206 32.8807C78.0321 32.8537 77.7807 32.8268 77.655 32.8134C77.0265 32.7506 75.5361 32.4052 75.4149 32.2931C75.3879 32.2752 75.3341 32.2572 75.2847 32.2572C75.2398 32.2572 75.0557 32.1944 74.8807 32.1182C74.7011 32.0464 74.517 31.9657 74.4676 31.9478C74.1669 31.8312 73.1613 31.2974 72.8156 31.0687C72.5912 30.9207 72.3757 30.7772 72.3398 30.7547C71.9312 30.4901 71.9043 30.4722 71.1905 29.8667C70.4498 29.2388 69.35 28.0368 68.8786 27.3461C68.5868 26.9111 68.1917 26.189 67.671 25.135C67.231 24.238 66.7821 22.5427 66.6385 21.2151C66.5666 20.5693 66.5756 18.9636 66.6564 18.3178C66.7956 17.21 67.1143 15.8689 67.4241 15.1065C68.0167 13.6578 68.5958 12.6083 69.2871 11.7248C70.1805 10.5811 71.5542 9.27596 72.4924 8.67945C72.6136 8.59872 72.8201 8.45969 72.9458 8.36999C73.7763 7.77796 75.6528 6.96169 76.7122 6.73744C76.9367 6.6881 77.2644 6.60737 77.4485 6.55804C77.6325 6.5087 77.9019 6.45937 78.05 6.44591C78.1937 6.43246 78.3373 6.41003 78.3643 6.39209C78.5034 6.30239 80.748 6.29342 81.1521 6.37863ZM74.333 7.27115C74.306 7.29807 74.1489 7.38777 73.9738 7.47747C73.8032 7.56717 73.5878 7.67929 73.5025 7.73311C70.6069 9.52712 68.8965 11.348 67.5857 14.0256C67.4645 14.2723 67.3298 14.5728 67.2849 14.6984C67.24 14.8195 67.1862 14.945 67.1682 14.9719C67.0919 15.0706 66.6654 16.5058 66.5666 17.0037C66.3287 18.1877 66.2614 18.8111 66.2614 19.901C66.2569 21.0222 66.3063 21.4707 66.5487 22.6996C66.7193 23.5697 66.8899 24.1393 67.2041 24.8973C68.1828 27.2878 69.9335 29.5214 71.9492 30.9521C73.5249 32.0689 75.0916 32.782 76.8469 33.1901C78.5169 33.5758 79.5898 33.6835 80.7615 33.5803C81.1521 33.5489 81.5651 33.4996 81.6773 33.4727C81.785 33.4458 82.0454 33.3964 82.2474 33.3561C83.1273 33.1901 84.4561 32.7282 85.3585 32.2797C86.6199 31.6518 87.6659 30.9386 88.5952 30.0641C89.5065 29.2074 90.1978 28.4001 90.8532 27.4134C92.4963 24.9332 93.43 21.7578 93.3223 19.0174C93.255 17.3535 93.0305 16.2726 92.4065 14.6087C92.1012 13.8058 91.2752 12.2899 90.8622 11.7831C90.8039 11.7068 90.7275 11.5992 90.6961 11.5364C90.6647 11.4736 90.4582 11.1552 90.2382 10.8278C90.0227 10.5049 89.8611 10.2358 89.8791 10.2358C89.9285 10.2358 90.539 10.9399 90.8353 11.3346C91.5984 12.3392 92.393 13.7475 92.7477 14.7208C92.833 14.954 92.9407 15.2455 92.9856 15.3711C93.2864 16.1874 93.5557 17.4656 93.7084 18.8022C93.879 20.3136 93.5243 22.8207 92.9048 24.5026C91.9621 27.0456 91.0418 28.4719 89.0351 30.5036C88.4425 31.1001 88.3752 31.1494 86.9027 32.0375C85.951 32.616 84.4606 33.226 83.895 33.2708C83.7468 33.2843 83.6166 33.3157 83.5987 33.3381C83.5852 33.3605 83.464 33.4009 83.3293 33.4233C82.6694 33.54 82.3372 33.6027 82.3013 33.6252C82.2564 33.6521 82.2654 33.5579 82.3148 33.4772C82.3417 33.4413 82.3148 33.4233 82.2295 33.4233C82.1307 33.4233 82.1172 33.4368 82.1577 33.4772C82.1891 33.5086 82.2115 33.5534 82.2115 33.5803C82.2115 33.6027 82.1891 33.5938 82.1666 33.5534C82.1128 33.4592 81.6773 33.4906 81.5965 33.5938C81.5561 33.6386 81.5381 33.6431 81.5381 33.6072C81.5381 33.5713 81.4888 33.5624 81.3945 33.5758C81.3137 33.5893 81.1251 33.6117 80.977 33.6252C80.8288 33.6431 80.537 33.6745 80.3261 33.7014C79.8008 33.7687 78.1712 33.7373 77.6774 33.6521C76.7796 33.4906 76.3531 33.3875 75.7201 33.1767C75.0872 32.9659 74.9031 32.8807 74.8807 32.7865C74.8672 32.7371 74.8178 32.7057 74.7505 32.7057C74.6697 32.7057 74.6607 32.7147 74.7146 32.7461C74.7505 32.773 74.7954 32.7775 74.8133 32.7685C74.8313 32.7551 74.8492 32.7685 74.8492 32.791C74.8492 32.8627 74.7998 32.8537 74.4452 32.7057C74.1399 32.5846 73.893 32.4366 74.1085 32.5039C74.1758 32.5263 74.1848 32.5218 74.1354 32.4905C74.0995 32.4635 74.0457 32.4546 74.0097 32.468C73.9783 32.4815 73.9514 32.4725 73.9514 32.4456C73.9514 32.4187 73.9155 32.4097 73.8706 32.4232C73.7853 32.4456 72.8426 31.9702 72.2724 31.6204C71.3028 31.0194 70.5037 30.378 69.6866 29.5348C67.9044 27.7094 66.7193 25.6373 66.0818 23.2423C65.8349 22.3139 65.7451 21.7668 65.6823 20.7801C65.6284 19.8741 65.6419 19.5332 65.781 18.2864C66.0055 16.2726 66.8315 14.0794 68.0391 12.2764C68.8965 10.9937 69.8034 9.99805 71.0289 8.98892C71.7382 8.3969 72.8156 7.7959 73.884 7.39225C74.315 7.2263 74.4003 7.20388 74.333 7.27115ZM65.1525 12.4962C65.1525 12.5455 65.0672 12.5635 65.0403 12.5231C65.0268 12.5007 65.0448 12.4783 65.0807 12.4783C65.1211 12.4783 65.1525 12.4872 65.1525 12.4962ZM63.716 12.9716C63.716 12.994 63.6936 13.0165 63.6666 13.0165C63.6442 13.0165 63.6352 12.994 63.6487 12.9716C63.6621 12.9447 63.6846 12.9268 63.698 12.9268C63.707 12.9268 63.716 12.9447 63.716 12.9716ZM63.9405 13.4201C63.9405 13.4426 63.9315 13.465 63.9225 13.465C63.909 13.465 63.8866 13.4426 63.8731 13.4201C63.8597 13.3932 63.8686 13.3753 63.8911 13.3753C63.918 13.3753 63.9405 13.3932 63.9405 13.4201ZM65.0134 27.7274C65.0134 27.7677 64.9864 27.7453 64.9505 27.6825C64.8652 27.5345 64.8652 27.4627 64.9505 27.5749C64.9864 27.6197 65.0134 27.6915 65.0134 27.7274ZM89.3 30.8579C89.2147 30.9476 89.1294 31.0418 89.1069 31.0687C89.0845 31.0911 89.1025 31.0508 89.1429 30.979C89.2506 30.8041 89.4032 30.6381 89.4347 30.665C89.4436 30.6785 89.3853 30.7637 89.3 30.8579ZM88.9768 31.2033C88.9768 31.2391 88.9498 31.2705 88.9229 31.2705C88.8555 31.2705 88.676 31.4768 88.7119 31.5172C88.7298 31.5307 88.7029 31.5307 88.6535 31.5127C88.5862 31.4858 88.5772 31.4948 88.5997 31.5531C88.6221 31.6159 88.6131 31.6248 88.5458 31.589C88.5009 31.5621 88.4515 31.5531 88.438 31.5665C88.4246 31.58 88.4201 31.5351 88.4201 31.4634C88.4291 31.3109 88.4785 31.2705 88.658 31.2705C88.7343 31.2705 88.8241 31.2391 88.8555 31.2033C88.887 31.1674 88.9274 31.136 88.9453 31.136C88.9588 31.136 88.9768 31.1674 88.9768 31.2033ZM71.6664 31.5262C71.7247 31.5979 71.7203 31.6024 71.6529 31.5441C71.5766 31.4858 71.5542 31.4499 71.5901 31.4499C71.599 31.4499 71.635 31.4858 71.6664 31.5262ZM72.5822 32.1586C72.5373 32.1675 72.4879 32.1496 72.4699 32.1227C72.452 32.0913 72.4161 32.0778 72.3891 32.0958C72.3667 32.1092 72.3353 32.0913 72.3173 32.0554C72.3038 32.0195 72.25 31.9881 72.1961 31.9881C72.1422 31.9881 72.0929 31.9523 72.0794 31.8984C72.0659 31.8491 72.021 31.8087 71.9806 31.8087C71.9402 31.8087 71.8729 31.7594 71.8325 31.7011C71.7741 31.6248 71.8819 31.6697 72.2096 31.8715C72.5059 32.0509 72.636 32.1496 72.5822 32.1586ZM87.8545 31.8805C87.8634 31.9074 87.8185 31.9523 87.7557 31.9792C87.6614 32.024 87.6435 32.0195 87.6435 31.9657C87.6435 31.9298 87.6165 31.8984 87.5896 31.8939C87.5582 31.8895 87.5806 31.8715 87.6435 31.8536C87.7736 31.8132 87.832 31.8177 87.8545 31.8805Z" fill="#AEC0CE"/>
<path d="M79.0543 6.49927C79.0408 6.50824 78.8702 6.52618 78.6772 6.53515C78.4842 6.54412 78.2687 6.56206 78.1924 6.57551C78.1205 6.58897 77.9185 6.62036 77.7434 6.64727C77.5728 6.6697 77.3708 6.71455 77.299 6.73697C77.2272 6.76388 77.1284 6.78182 77.0745 6.78182C76.9578 6.78182 75.9702 7.09577 75.6964 7.22135C75.5841 7.27069 75.4405 7.329 75.3776 7.34245C75.3103 7.36039 75.234 7.40076 75.2025 7.43664C75.1756 7.47252 75.1217 7.49943 75.0903 7.49943C75.0544 7.49943 74.9511 7.54876 74.8569 7.60707C74.7671 7.66089 74.6414 7.72368 74.5785 7.7461C74.5157 7.76404 74.4169 7.80889 74.3541 7.84926C74.2912 7.88962 74.0892 8.00175 73.9052 8.09593C73.7211 8.19461 73.4607 8.35158 73.3261 8.44577C73.1914 8.54444 73.0657 8.62068 73.0432 8.62068C72.9939 8.62068 72.3609 9.06021 71.8267 9.46387C71.1533 9.97516 69.6718 11.4732 69.2678 12.0472C68.8234 12.6841 68.3475 13.4421 68.2263 13.7112C68.1455 13.8816 68.0108 14.1776 67.9255 14.3615C67.8358 14.5454 67.7415 14.7786 67.7101 14.8773C67.6786 14.976 67.6382 15.0791 67.6203 15.1015C67.5574 15.1823 67.3958 15.6128 67.3015 15.9672C66.8347 17.6625 66.6641 19.2906 66.7943 20.7975C66.9334 22.3942 67.2342 23.6276 67.8088 24.9462C67.9794 25.3364 68.5271 26.4038 68.5899 26.4756C68.6259 26.5114 68.6528 26.5563 68.6528 26.5698C68.6528 26.6281 69.4743 27.8256 69.5282 27.8435C69.5596 27.857 69.6359 27.9422 69.6988 28.0319C69.9502 28.4041 71.4361 29.8169 71.7369 29.9694C71.8042 30.0053 71.9658 30.1174 72.087 30.2161C72.2127 30.3148 72.3429 30.4134 72.3878 30.4403C72.4282 30.4628 72.5988 30.5794 72.7694 30.6915C73.0522 30.8843 73.3575 31.0638 73.4113 31.0682C73.4248 31.0682 73.4966 31.1131 73.5774 31.1714C73.6538 31.2252 73.748 31.2701 73.7884 31.2701C73.8288 31.2701 73.8603 31.288 73.8603 31.3059C73.8603 31.3239 73.959 31.3777 74.0847 31.427C74.2059 31.4764 74.3092 31.5302 74.3092 31.5481C74.3092 31.5661 74.3406 31.584 74.3765 31.584C74.4124 31.584 74.4798 31.602 74.5247 31.6244C74.6908 31.7141 74.9332 31.8083 74.9915 31.8083C75.023 31.8083 75.0903 31.8352 75.1397 31.8711C75.2519 31.9473 75.4719 32.0146 75.409 31.9563C75.3866 31.9294 75.1846 31.8352 74.9601 31.741C74.0398 31.3553 73.1151 30.8305 72.3205 30.2475C71.8401 29.8932 70.9109 29.0903 70.6505 28.7943C69.3531 27.3591 68.6573 26.2917 68.0333 24.7847C67.0861 22.5018 66.8751 20.1203 67.3779 17.3665C67.7235 15.4693 68.7381 13.3658 70.1118 11.7109C70.655 11.0516 71.4316 10.2712 72.0377 9.76436C72.9086 9.04227 74.2329 8.25291 75.3417 7.79992C76.1228 7.48149 77.4067 7.13614 78.0577 7.06886C78.1834 7.05541 78.3315 7.03747 78.3944 7.02401C78.5201 6.9971 79.5481 6.94328 79.9207 6.9388C82.6636 6.92983 85.4155 7.9255 87.7095 9.76885C88.2661 10.2129 88.9575 10.8946 88.9171 10.9619C88.8991 10.9888 88.9036 10.9977 88.9305 10.9843C89.0248 10.926 89.7206 11.7557 90.2908 12.6079C92.2391 15.5187 92.8855 19.1022 92.064 22.448C91.4939 24.7802 90.3042 26.9555 88.6881 28.606C86.8475 30.4942 84.8319 31.7051 82.5828 32.2747C82.1743 32.3823 81.4605 32.5259 81.2226 32.5483C80.5537 32.6201 80.0599 32.6604 79.8264 32.6604C79.6828 32.6604 79.5616 32.6784 79.5616 32.7008C79.5616 32.7411 80.4235 32.7322 80.7063 32.6873C80.7826 32.6784 81.0834 32.6335 81.3797 32.5976C81.676 32.5573 81.9588 32.5169 82.0082 32.5034C82.6187 32.3554 82.8836 32.2971 83.0138 32.2747C83.0946 32.2657 83.2068 32.2299 83.2607 32.2029C83.31 32.1716 83.3639 32.1446 83.3774 32.1446C83.539 32.1132 83.97 31.9652 83.9879 31.9383C84.0014 31.9159 84.0508 31.898 84.1001 31.898C84.145 31.898 84.1854 31.88 84.1854 31.8576C84.1854 31.8307 84.2258 31.8217 84.2752 31.8307C84.3246 31.8397 84.356 31.8307 84.3426 31.8038C84.3246 31.7814 84.3381 31.7634 84.3605 31.7634C84.3875 31.7634 84.4189 31.7634 84.4323 31.7589C84.4413 31.7589 84.6748 31.6468 84.9486 31.5123C85.2224 31.3777 85.4604 31.2701 85.4828 31.2701C85.5053 31.2701 85.5457 31.2387 85.5771 31.2028C85.6085 31.1669 85.6714 31.1355 85.7163 31.1355C85.7567 31.1355 85.824 31.1041 85.8644 31.0682C85.9003 31.0324 85.9407 31.001 85.9587 31.001C85.9766 31.001 86.1293 30.9113 86.2999 30.7991C86.4704 30.687 86.6231 30.5973 86.6365 30.5973C86.65 30.5973 86.6814 30.5749 86.7129 30.5525C86.7443 30.5255 86.9508 30.3686 87.1708 30.2071C87.3952 30.0412 87.5972 29.8842 87.6242 29.8573C87.6511 29.8349 87.7409 29.7631 87.8262 29.7003C87.9115 29.642 88.2661 29.2967 88.6163 28.9378C89.4154 28.1171 89.3839 28.1485 89.5725 27.9063C89.6578 27.7942 89.7521 27.6731 89.7835 27.6372C89.999 27.3726 90.596 26.4711 90.7891 26.1257C90.8654 25.9822 91.009 25.7355 91.0988 25.5741C91.1931 25.4126 91.3098 25.1929 91.3637 25.0807C91.4175 24.9686 91.4759 24.8475 91.4984 24.8116C91.6061 24.6098 91.6375 24.5336 91.6375 24.4573C91.6375 24.4125 91.6869 24.2645 91.7453 24.1344C91.8665 23.8608 92.2211 22.7395 92.3244 22.3C92.4007 21.9905 92.495 21.4568 92.5847 20.7975C92.688 20.0934 92.6566 17.815 92.5443 17.3889C92.5174 17.2902 92.4635 17.0256 92.4231 16.8059C92.2705 15.9941 91.8979 14.8549 91.5028 13.9848C91.1841 13.2851 90.6364 12.3657 90.1157 11.6705C89.5411 10.8991 88.8452 10.1725 88.1404 9.60739C87.9115 9.4235 87.6376 9.19925 87.5344 9.11404C87.2022 8.84045 86.7308 8.51304 86.4839 8.38746C86.3492 8.3157 86.1876 8.22152 86.1158 8.17218C85.6759 7.85823 83.8936 7.12717 83.0631 6.92086C82.8521 6.86704 82.5918 6.79528 82.4795 6.7594C82.3673 6.72352 81.9768 6.66521 81.6041 6.62485C81.236 6.58448 80.8949 6.54412 80.85 6.53066C80.7467 6.49927 79.0812 6.47236 79.0543 6.49927Z" fill="#AEC0CE"/>
<path d="M79.3828 7.36832C79.3828 7.39074 79.4053 7.39971 79.4277 7.38626C79.4546 7.3728 79.4726 7.35038 79.4726 7.33692C79.4726 7.32795 79.4546 7.31898 79.4277 7.31898C79.4053 7.31898 79.3828 7.34141 79.3828 7.36832Z" fill="#AEC0CE"/>
<path d="M81.0439 7.58992C81.0035 7.61683 80.999 7.63477 81.0304 7.63477C81.0573 7.63477 81.0977 7.61234 81.1112 7.58992C81.1471 7.5361 81.1292 7.5361 81.0439 7.58992Z" fill="#AEC0CE"/>
<path d="M84.5918 8.39761C84.5918 8.42004 84.6232 8.42901 84.6591 8.41555C84.695 8.39761 84.7265 8.37967 84.7265 8.3707C84.7265 8.36173 84.695 8.35276 84.6591 8.35276C84.6232 8.35276 84.5918 8.3707 84.5918 8.39761Z" fill="#AEC0CE"/>
<path d="M79.3748 8.77278C79.0202 8.90733 78.908 8.97461 78.6925 9.18541C78.3962 9.47245 78.2211 9.75949 78.1448 10.0869C78.1134 10.2214 78.0819 10.3381 78.073 10.347C78.0595 10.3605 76.8968 11.0691 75.5904 11.854C75.2942 12.0334 74.5893 12.4595 74.0237 12.8003L72.9912 13.4238L72.8026 13.3789C72.4794 13.2982 71.9677 13.3161 71.6848 13.4238C71.3481 13.5493 70.9082 13.9575 70.7376 14.3073C70.6164 14.5495 70.6074 14.5988 70.6074 15.1236C70.6074 15.6483 70.6164 15.6977 70.7331 15.9309C70.8049 16.0654 70.9306 16.2493 71.0159 16.3345L71.1686 16.496V19.7835V23.0755L71.007 23.2549C70.9172 23.3536 70.7915 23.5465 70.7286 23.681C70.6299 23.9008 70.6164 23.9905 70.6164 24.43C70.6164 24.874 70.6299 24.9592 70.7331 25.188C70.9037 25.5602 71.3392 25.9953 71.6579 26.1164C71.8779 26.1971 71.9811 26.2061 72.448 26.1926L72.9867 26.1747L75.366 27.6054C76.6768 28.3948 77.835 29.0944 77.9473 29.1572C78.1044 29.2559 78.1538 29.3097 78.1807 29.4443C78.266 29.8614 78.688 30.3772 79.101 30.5835C79.4287 30.7404 80.0033 30.7808 80.3849 30.6687C80.8563 30.5296 81.3905 29.978 81.5117 29.4936L81.5656 29.2738L82.1671 28.9105C82.4993 28.7087 83.6531 28.018 84.726 27.3677L86.6788 26.1881L87.2848 26.1837C87.828 26.1792 87.9088 26.1702 88.0884 26.0715C88.3802 25.919 88.7528 25.5244 88.892 25.2283C89.0042 24.9906 89.0132 24.9234 89.0132 24.43C89.0132 23.9636 88.9997 23.8604 88.9099 23.6631C88.8516 23.533 88.7438 23.376 88.672 23.3043L88.5418 23.1787V19.8239V16.4646L88.7169 16.2448C88.9862 15.9085 89.0446 15.6708 89.0266 15.0428C89.0087 14.406 88.9324 14.2221 88.5193 13.8005C88.1557 13.4327 87.8909 13.3296 87.3297 13.3296C87.1097 13.3296 86.8808 13.3475 86.8179 13.3744C86.7192 13.4103 86.6474 13.3834 86.3062 13.1771C86.0907 13.047 85.4532 12.6613 84.8831 12.3204C84.3175 11.9796 83.7787 11.6567 83.6935 11.6028C83.5363 11.4997 83.2221 11.3113 82.1716 10.6834C81.6105 10.347 81.606 10.3425 81.5745 10.1452C81.5207 9.83574 81.3366 9.50833 81.0583 9.23026C80.6902 8.858 80.5331 8.79072 79.9584 8.75933C79.6936 8.74587 79.4287 8.75036 79.3748 8.77278ZM79.6038 9.80883C79.9674 9.95683 80.4388 10.2663 80.6408 10.4816C80.9505 10.8135 81.7227 11.3248 84.1199 12.76C85.1076 13.352 86.0413 13.9171 86.1939 14.0113C86.3466 14.1055 86.6833 14.2669 86.9436 14.3656C87.5362 14.5854 88.5418 15.2222 88.5418 15.3703C88.5373 15.3927 88.4655 15.4869 88.3802 15.5721C88.0749 15.8726 88.0166 16.1417 88.1827 16.4691C88.2859 16.6754 88.2949 16.8817 88.2051 17.254C88.1512 17.4692 88.1378 17.9536 88.1378 19.7656C88.1423 21.9946 88.1378 22.0126 88.0255 22.6136C87.8909 23.3043 87.8998 23.5465 88.0704 23.8918C88.2141 24.1744 88.3488 24.3269 88.6091 24.4928C88.7932 24.6094 88.8067 24.6318 88.7348 24.6677C88.6899 24.6901 88.5687 24.726 88.461 24.744C88.2769 24.7754 88.268 24.7798 88.3398 24.8561C88.3802 24.9009 88.4026 24.9592 88.3892 24.9817C88.3757 25.0041 88.03 25.0355 87.6215 25.0489C86.782 25.0759 86.589 25.1342 86.2074 25.466C85.8258 25.8024 85.6418 25.9235 84.6317 26.529C82.0594 28.0718 81.8978 28.175 81.3905 28.6325C81.2738 28.7401 81.0987 28.933 81.0089 29.0675C80.744 29.4577 80.6588 29.4981 80.1784 29.4981C79.6711 29.4936 79.4871 29.4129 79.1773 29.0496C78.9169 28.7491 78.679 28.5787 77.7004 28.0091C76.6948 27.417 73.9923 25.789 73.696 25.5916C73.2516 25.3001 72.8071 25.0893 72.4615 25.0175C72.026 24.9234 71.8016 24.7664 71.6444 24.4435C71.4649 24.0757 71.4604 23.9681 71.5906 23.5689C71.806 22.923 71.806 22.8872 71.8375 20.0795C71.8689 17.5141 71.8734 17.3661 71.9721 16.94C72.0395 16.6305 72.0619 16.4287 72.044 16.2897C72.0081 16.0385 71.8016 15.442 71.6444 15.137C71.5816 15.007 71.5277 14.8814 71.5277 14.8545C71.5277 14.8276 71.4963 14.7737 71.4604 14.7334C71.3661 14.6437 71.402 14.5585 71.5232 14.5719C71.6354 14.5854 71.6399 14.536 71.5457 14.2535C71.5053 14.1369 71.4828 14.0292 71.4963 14.0158C71.5098 14.0023 71.5771 14.0337 71.6489 14.0831C71.8958 14.258 72.1113 14.3163 72.4974 14.3163C72.9418 14.3163 73.0181 14.2804 73.6152 13.7781C74.091 13.3789 74.2437 13.2757 74.962 12.8542C75.1595 12.7375 75.4243 12.5806 75.5455 12.4998C75.6712 12.4236 76.0932 12.1679 76.4838 11.9347C77.1482 11.5445 77.5208 11.253 77.7812 10.9121C77.853 10.8224 77.8934 10.809 78.073 10.8314C78.2615 10.8538 78.3064 10.8359 78.486 10.7058C78.5982 10.6251 78.7688 10.4726 78.8631 10.3739C79.0202 10.2125 79.0426 10.1631 79.0561 9.93441C79.083 9.5756 79.0965 9.53972 79.1863 9.607C79.2222 9.63839 79.4108 9.73258 79.6038 9.80883Z" fill="#AEC0CE"/>
<path d="M79.0153 11.1501C78.921 11.1815 78.5574 11.4013 78.2072 11.6345C77.8526 11.8677 76.9008 12.4597 76.0838 12.9486C74.5036 13.8949 74.2836 14.0474 74.131 14.2941C74.0367 14.4466 74.0322 14.5049 74.1086 14.6843C74.1355 14.7516 74.1175 14.765 74.0188 14.765C73.9245 14.765 73.9021 14.783 73.9245 14.8368C73.9425 14.8772 73.929 14.9399 73.9021 14.9713C73.8751 15.0027 73.8437 15.1507 73.8302 15.2988C73.8078 15.5544 73.8123 15.5768 73.9649 15.7831C74.2118 16.1195 74.5126 16.3303 76.2409 17.3663C77.893 18.362 78.5529 18.6984 79.1185 18.833C79.527 18.9271 80.4069 18.9406 80.6493 18.8554C80.8424 18.7881 81.4529 18.3844 81.7851 18.1064C81.9108 18.0032 82.1801 17.8193 82.3911 17.6938C82.8625 17.4157 83.3698 17.1107 83.8771 16.7967C84.0881 16.6667 84.2811 16.559 84.2991 16.559C84.3439 16.559 84.73 16.2496 84.7974 16.1599C84.8243 16.124 84.8378 16.0612 84.8288 16.0208C84.8018 15.9132 84.9724 15.7831 85.161 15.7697C85.2553 15.7607 85.345 15.7562 85.3585 15.7562C85.372 15.7517 85.381 15.7069 85.381 15.6531C85.3765 15.5679 85.4079 15.5454 85.5605 15.5275C85.8344 15.4871 86.1531 15.2449 86.2519 14.9983C86.3102 14.8682 86.2384 14.7247 85.9645 14.4197C85.6862 14.1147 85.3765 13.9084 83.3429 12.6885C81.3631 11.4954 80.8917 11.2488 80.4383 11.1546C80.0433 11.0739 79.2397 11.0694 79.0153 11.1501ZM79.1634 12.2534C79.4462 12.379 80.2633 12.379 80.5461 12.2534L80.7436 12.1637L81.3092 12.4956C83.3339 13.6886 85.6009 15.079 85.6099 15.1283C85.6189 15.1642 85.5156 15.2539 85.3854 15.3301C85.2597 15.4064 84.528 15.8459 83.7603 16.3124C82.9972 16.7743 82.0185 17.3663 81.5921 17.622L80.8109 18.0929L80.582 17.9853C80.3845 17.8956 80.2767 17.8821 79.8503 17.8821C79.4193 17.8821 79.3205 17.8956 79.1275 17.9898L78.8985 18.0974L78.6112 17.9225C78.4586 17.8238 78.2925 17.7251 78.2476 17.7027C78.2027 17.6758 77.7807 17.4247 77.3049 17.1376C76.829 16.8506 75.9177 16.2989 75.2758 15.9087C74.6338 15.523 74.0906 15.1911 74.0726 15.1687C74.0502 15.1507 74.0906 15.0969 74.1624 15.0476C74.2881 14.9534 78.9345 12.1637 78.9569 12.1637C78.9659 12.1637 79.0557 12.2041 79.1634 12.2534Z" fill="#AEC0CE"/>
<path d="M86.3864 16.0491C86.3011 16.085 86.0677 16.233 85.8702 16.3765C85.6726 16.52 84.7658 17.0896 83.85 17.6368C82.9387 18.184 82.0454 18.7446 81.8658 18.8792C81.5246 19.1393 80.9994 19.6685 80.9994 19.7537C80.9994 19.7851 80.8602 20.1081 80.6851 20.4713C80.5145 20.8391 80.3709 21.162 80.3709 21.1979C80.3709 21.2293 80.4158 21.3549 80.4652 21.4715C80.5594 21.6868 80.5594 21.6913 80.4786 22.0276C80.4113 22.3281 80.4023 22.5703 80.4113 24.0549C80.4158 25.3555 80.4023 25.8623 80.3484 26.266C80.2317 27.1585 80.2587 27.4949 80.4607 27.7326C80.5729 27.8716 80.5998 27.8806 80.8378 27.8761C81.1745 27.8671 81.5964 27.6698 81.9107 27.3783C82.0454 27.2482 82.629 26.8625 83.3113 26.4499C84.7164 25.6022 84.6895 25.6201 84.8601 25.3735C84.9364 25.2613 85.089 25.1178 85.2058 25.055C85.3853 24.9474 85.4257 24.9384 85.5469 24.9833C85.6906 25.0371 85.7534 25.0012 85.7579 24.8711C85.7579 24.8398 85.8567 24.7052 85.9779 24.5707C86.1261 24.4092 86.2203 24.2567 86.2473 24.1311C86.3056 23.8934 86.566 23.3732 86.6468 23.3462C86.6737 23.3328 86.7007 23.2879 86.7007 23.2431C86.7007 23.1668 86.997 22.8394 87.0688 22.8394C87.1316 22.8394 87.2259 22.5972 87.3112 22.2115C87.3875 21.8617 87.3965 21.624 87.3965 19.2514V16.6725L87.2618 16.4258C87.1675 16.2599 87.0688 16.1478 86.9476 16.0805C86.7366 15.9639 86.6019 15.9549 86.3864 16.0491ZM86.7007 19.1258C86.7007 20.3682 86.7096 21.6778 86.7231 22.0411L86.7411 22.7004L86.5346 22.8215C86.2562 22.983 85.9151 23.3507 85.7714 23.6423C85.6861 23.8172 85.6457 23.9741 85.6322 24.2298L85.6143 24.5751L85.3808 24.7097C85.2551 24.7814 84.2047 25.4138 83.0465 26.1135C81.8882 26.8087 80.9051 27.3917 80.8602 27.4007C80.7794 27.4231 80.7749 27.3245 80.7749 24.3105V21.1979L81.0039 20.9826C81.2912 20.709 81.4797 20.413 81.5156 20.1708C81.5336 20.0677 81.5605 19.9645 81.574 19.9421C81.592 19.9197 82.0319 19.6461 82.5482 19.3321C83.0689 19.0227 84.2002 18.341 85.0621 17.8207C85.9285 17.3004 86.6468 16.8744 86.6692 16.8744C86.6872 16.8744 86.7007 17.888 86.7007 19.1258Z" fill="#AEC0CE"/>
<path d="M72.8287 16.323C72.6761 16.5607 72.6671 16.6773 72.7614 16.9913C72.7973 17.1124 72.8287 17.2155 72.8287 17.22C72.8287 17.2245 72.7973 17.2604 72.7524 17.3008C72.6895 17.3635 72.6895 17.3994 72.7299 17.5205C72.8063 17.7268 72.7973 17.9331 72.7075 18.0722C72.6357 18.1798 72.6222 18.3816 72.5998 20.0142C72.5818 21.131 72.5504 21.9607 72.519 22.167C72.4875 22.3509 72.4696 22.6828 72.483 22.907C72.51 23.4452 72.5459 23.526 73.2148 24.5172C73.3629 24.7369 73.9375 25.2617 74.3326 25.5353C74.5301 25.6743 75.3606 26.1856 76.1732 26.6789C78.0586 27.8137 78.301 27.9034 78.8263 27.6522C79.0687 27.5401 79.1809 27.3965 79.136 27.271C79.1046 27.1813 79.1675 27.1095 79.2932 27.0961C79.3785 27.0826 79.4233 27.0288 79.4907 26.8539C79.576 26.6431 79.585 26.4771 79.6119 24.2301C79.6299 22.9115 79.6658 21.6512 79.6882 21.4315C79.7421 20.9247 79.7017 20.7139 79.4548 20.216C79.0911 19.485 79.0956 19.485 75.814 17.516C74.8264 16.924 73.9286 16.3948 73.8163 16.3454C73.3854 16.1526 73.2597 16.1122 73.116 16.1122C72.9813 16.1122 72.9454 16.1391 72.8287 16.323ZM75.5851 18.3861C76.9678 19.2159 78.117 19.92 78.1349 19.9469C78.1529 19.9693 78.1709 20.0411 78.1709 20.1084C78.1709 20.3012 78.3819 20.66 78.6647 20.9516L78.934 21.2252V24.3198C78.934 26.8045 78.9206 27.4145 78.8757 27.4145C78.8128 27.4145 78.6737 27.3338 76.2854 25.8896C75.3337 25.3155 74.4448 24.7773 74.3057 24.6966L74.0543 24.5486L74.0049 24.1673C73.9779 23.9565 73.9106 23.7009 73.8567 23.5977C73.7355 23.3555 73.3719 22.9698 73.1654 22.8577C73.0756 22.8129 72.9948 22.7276 72.9769 22.6693C72.9634 22.611 72.9634 21.6826 72.9769 20.6062C72.9948 19.5298 73.0083 18.2471 73.0083 17.7582C73.0083 17.2738 73.0217 16.8747 73.0352 16.8747C73.0487 16.8747 74.1979 17.5564 75.5851 18.3861Z" fill="#AEC0CE"/>
<path d="M75.522 32.0067C75.5938 32.0785 75.9664 32.2085 75.9934 32.1682C76.0024 32.1502 75.8901 32.0964 75.742 32.0471C75.5938 31.9977 75.4951 31.9798 75.522 32.0067Z" fill="#AEC0CE"/>
<path d="M76.0899 32.2213C76.1033 32.2437 76.1258 32.2527 76.1392 32.2392C76.1527 32.2303 76.2111 32.2347 76.2694 32.2572C76.3368 32.2841 76.3772 32.2841 76.3772 32.2572C76.3772 32.2303 76.3412 32.2123 76.3008 32.2078C76.256 32.2078 76.1841 32.1989 76.1392 32.1899C76.0988 32.1809 76.0764 32.1944 76.0899 32.2213Z" fill="#AEC0CE"/>
<path d="M76.5027 32.3337C76.5341 32.3471 76.5745 32.3426 76.588 32.3292C76.606 32.3157 76.579 32.3023 76.5296 32.3068C76.4803 32.3068 76.4668 32.3202 76.5027 32.3337Z" fill="#AEC0CE"/>
<path d="M76.6445 32.3477C76.6445 32.3702 76.6894 32.3926 76.7478 32.3926C76.8286 32.3926 76.8331 32.3836 76.7792 32.3477C76.6939 32.2894 76.6445 32.2894 76.6445 32.3477Z" fill="#AEC0CE"/>
<path d="M76.9149 32.4362C76.9508 32.4586 77.0226 32.4766 77.072 32.4766H77.1618L77.072 32.4362C77.0226 32.4138 76.9508 32.3958 76.9149 32.3958C76.8565 32.3913 76.8565 32.3958 76.9149 32.4362Z" fill="#AEC0CE"/>
<path d="M77.4073 32.5274C77.4432 32.5498 77.533 32.5723 77.6048 32.5723C77.7799 32.5723 77.7395 32.5454 77.5195 32.514C77.3983 32.496 77.3624 32.5005 77.4073 32.5274Z" fill="#AEC0CE"/>
<path d="M77.8933 32.6013C77.9248 32.6147 77.9652 32.6102 77.9786 32.5968C77.9966 32.5833 77.9697 32.5699 77.9203 32.5743C77.8709 32.5743 77.8574 32.5878 77.8933 32.6013Z" fill="#AEC0CE"/>
<path d="M78.1765 32.634C78.2214 32.6744 78.5312 32.6968 78.5312 32.6564C78.5312 32.634 78.4459 32.6161 78.3426 32.6161C78.2394 32.6161 78.1676 32.625 78.1765 32.634Z" fill="#AEC0CE"/>
<path d="M78.7441 32.6925C78.8205 32.7015 78.9551 32.7015 79.0359 32.6925C79.1123 32.6835 79.0494 32.6746 78.8878 32.6746C78.7262 32.6746 78.6633 32.6835 78.7441 32.6925Z" fill="#AEC0CE"/>
<path d="M79.2031 32.7141C79.2031 32.7321 79.2211 32.75 79.2435 32.75C79.2705 32.75 79.2974 32.7321 79.3109 32.7141C79.3243 32.6917 79.3064 32.6738 79.2705 32.6738C79.2345 32.6738 79.2031 32.6917 79.2031 32.7141Z" fill="#AEC0CE"/>
<path d="M74.3105 32.5704C74.3105 32.5973 74.342 32.6152 74.3779 32.6152C74.4138 32.6152 74.4452 32.6063 74.4452 32.5973C74.4452 32.5883 74.4138 32.5704 74.3779 32.5524C74.342 32.539 74.3105 32.548 74.3105 32.5704Z" fill="#AEC0CE"/>
<path d="M74.5162 32.6692C74.5297 32.6871 74.5566 32.7051 74.5835 32.7051C74.606 32.7051 74.6239 32.6871 74.6239 32.6692C74.6239 32.6468 74.5925 32.6288 74.5566 32.6288C74.5207 32.6288 74.5027 32.6468 74.5162 32.6692Z" fill="#AEC0CE"/>
<path d="M74.9395 32.791C74.9395 32.818 74.9933 32.8493 75.0652 32.8673C75.1325 32.8807 75.2268 32.9077 75.2761 32.9301C75.4378 33.0018 75.7026 33.0601 75.7026 33.0243C75.7026 32.9929 75.4737 32.9077 75.0427 32.7776C74.9799 32.7552 74.9395 32.7641 74.9395 32.791Z" fill="#AEC0CE"/>
<path d="M68.5908 7.43735C68.5638 7.50911 68.5998 7.51808 68.6895 7.45978C68.7389 7.42838 68.7389 7.41941 68.6851 7.39698C68.6446 7.38353 68.6042 7.40147 68.5908 7.43735Z" fill="#AEC0CE"/>
<path d="M66.7945 9.36948C66.8035 9.40087 66.7811 9.42778 66.7496 9.42778C66.6374 9.42778 66.5117 9.58476 66.5117 9.7238C66.5117 9.85835 66.5207 9.86283 66.6823 9.85835C66.8349 9.85386 66.8439 9.84938 66.808 9.75519C66.79 9.70137 66.79 9.64307 66.808 9.62961C66.8305 9.62064 66.8574 9.54888 66.8664 9.47712C66.8753 9.40087 66.8709 9.35154 66.8529 9.36499C66.8349 9.37396 66.8125 9.36948 66.799 9.35154C66.79 9.32911 66.79 9.34257 66.7945 9.36948Z" fill="#AEC0CE"/>
<path d="M66.4321 9.74226C66.4456 9.76468 66.468 9.78711 66.4815 9.78711C66.4905 9.78711 66.4994 9.76468 66.4994 9.74226C66.4994 9.71535 66.477 9.69741 66.4501 9.69741C66.4276 9.69741 66.4186 9.71535 66.4321 9.74226Z" fill="#AEC0CE"/>
<path d="M65.5117 11.2766C65.5117 11.2946 65.5297 11.3125 65.5521 11.3125C65.5791 11.3125 65.606 11.2946 65.6195 11.2766C65.6329 11.2542 65.615 11.2363 65.5791 11.2363C65.5431 11.2363 65.5117 11.2542 65.5117 11.2766Z" fill="#AEC0CE"/>
<path d="M65.3635 11.4751C65.3724 11.5065 65.4128 11.52 65.4488 11.5065C65.534 11.4751 65.5296 11.4617 65.4263 11.4348C65.3679 11.4213 65.3455 11.4303 65.3635 11.4751Z" fill="#AEC0CE"/>
<path d="M63.8806 11.7791C63.8402 11.8105 63.8043 11.8509 63.8043 11.8688C63.8043 11.8868 63.728 12.0034 63.6337 12.1335C63.4676 12.3577 63.297 12.6582 63.333 12.6582C63.3644 12.6582 63.7145 12.1693 63.7145 12.1245C63.7145 12.1021 63.728 12.0751 63.7505 12.0662C63.7953 12.0482 63.9974 11.7567 63.9749 11.7388C63.9659 11.7298 63.9255 11.7477 63.8806 11.7791Z" fill="#AEC0CE"/>
<path d="M65.0984 11.8376C65.1298 11.851 65.1702 11.8465 65.1837 11.8331C65.2017 11.8196 65.1747 11.8062 65.1254 11.8107C65.076 11.8107 65.0625 11.8241 65.0984 11.8376Z" fill="#AEC0CE"/>
<path d="M64.2369 12.0651C64.2234 12.0875 64.2414 12.1055 64.2773 12.1055C64.3132 12.1055 64.3312 12.0875 64.3177 12.0651C64.3042 12.0472 64.2863 12.0292 64.2773 12.0292C64.2683 12.0292 64.2504 12.0472 64.2369 12.0651Z" fill="#AEC0CE"/>
<path d="M64.6181 12.1032C64.6181 12.1525 64.6315 12.166 64.645 12.1301C64.6585 12.0987 64.654 12.0584 64.6405 12.0449C64.627 12.027 64.6136 12.0539 64.6181 12.1032Z" fill="#AEC0CE"/>
<path d="M65.0176 12.1242C65.0176 12.1466 65.04 12.1556 65.0625 12.1421C65.0894 12.1287 65.1074 12.1062 65.1074 12.0928C65.1074 12.0838 65.0894 12.0748 65.0625 12.0748C65.04 12.0748 65.0176 12.0973 65.0176 12.1242Z" fill="#AEC0CE"/>
<path d="M118.709 12.1905C117.505 12.3655 116.742 12.6974 116.002 13.3746C115.387 13.9352 114.915 14.8143 114.763 15.6799C114.695 16.0611 114.704 16.8953 114.776 17.29C115.086 18.9046 116.266 20.1335 117.927 20.582C118.332 20.6897 118.444 20.7031 119.202 20.7031C120.105 20.7031 120.406 20.6538 121.074 20.3892C122.78 19.7164 123.817 18.0928 123.719 16.245C123.611 14.0922 122.071 12.4866 119.853 12.213C119.472 12.1681 118.956 12.1547 118.709 12.1905ZM120.123 13.6885C120.608 13.841 120.944 14.0384 121.294 14.3837C121.842 14.9309 122.12 15.6306 122.12 16.4648C122.12 17.2721 121.878 17.909 121.371 18.4427C120.787 19.0616 120.109 19.3397 119.184 19.3397C117.856 19.3397 116.796 18.5683 116.415 17.3214C116.28 16.8909 116.271 16.1105 116.392 15.6664C116.545 15.1013 116.886 14.5631 117.308 14.2088C117.582 13.9801 118.156 13.711 118.551 13.6258C118.978 13.5316 119.705 13.5585 120.123 13.6885Z" fill="#AEC0CE"/>
<path d="M105.609 16.4561L105.622 20.6182L106.394 20.6317L107.171 20.6406L107.18 17.8375L107.193 15.0299L107.736 15.6936C108.203 16.2677 109.914 18.3533 111.332 20.08L111.772 20.6182H112.423H113.074L113.088 16.4561L113.097 12.2985L112.302 12.3074L111.503 12.3209L111.48 15.0702L111.458 17.8195L111.296 17.6267C111.13 17.4249 109.24 15.124 107.781 13.339L106.924 12.2985H106.264H105.6L105.609 16.4561Z" fill="#AEC0CE"/>
<path d="M124.15 12.9578L124.164 13.6216L125.546 13.635L126.925 13.644V17.1423V20.6406H127.71H128.496V17.1423V13.644H129.887H131.279V12.9712V12.2985H127.71H124.137L124.15 12.9578Z" fill="#AEC0CE"/>
<path d="M134.121 13.3207C133.869 13.8813 133.384 14.9442 133.052 15.6843C131.423 19.2678 130.83 20.5909 130.83 20.6133C130.83 20.6313 131.194 20.6357 131.643 20.6313L132.455 20.6178L132.859 19.6625L133.268 18.7117L135.36 18.7206L137.447 18.7341L137.86 19.6759L138.269 20.6178L139.086 20.6313C139.804 20.6402 139.903 20.6357 139.889 20.5729C139.88 20.5371 139.036 18.6578 138.013 16.4019L136.15 12.2981H135.364H134.579L134.121 13.3207ZM135.961 15.2806C136.271 15.9937 136.603 16.7696 136.706 16.9984C136.81 17.2271 136.891 17.4245 136.891 17.4334C136.891 17.4469 136.204 17.4559 135.36 17.4559C133.919 17.4559 133.829 17.4514 133.856 17.3751C134.013 16.949 135.346 13.9217 135.369 13.9486C135.387 13.9665 135.651 14.563 135.961 15.2806Z" fill="#AEC0CE"/>
<path d="M140.939 16.4561L140.952 20.6182H141.738H142.523L142.537 19.4207L142.546 18.2232L143.637 18.2097L144.728 18.1963L145.396 19.1561C145.769 19.6853 146.155 20.237 146.258 20.3805L146.451 20.6406H147.282C147.74 20.6406 148.112 20.6272 148.112 20.6137C148.112 20.5823 147.717 20.0172 146.752 18.6538C146.46 18.2367 146.227 17.8913 146.231 17.8868C146.24 17.8778 146.393 17.7971 146.564 17.7074C146.977 17.4921 147.246 17.2589 147.502 16.8867C147.807 16.4382 147.942 16.0166 147.964 15.4156C148.032 13.8638 147.219 12.8322 145.594 12.4016C145.347 12.3388 144.988 12.3254 143.116 12.3119L140.93 12.294L140.939 16.4561ZM145.019 13.6888C145.37 13.7561 145.787 13.9669 145.998 14.1822C146.254 14.4468 146.366 14.7787 146.366 15.2631C146.362 16.1063 145.958 16.6041 145.109 16.8149C144.943 16.8597 144.463 16.8867 143.704 16.9046L142.546 16.9315V15.2855V13.644H143.664C144.274 13.644 144.885 13.6664 145.019 13.6888Z" fill="#AEC0CE"/>
<path d="M149.684 16.4696V20.6406H150.469H151.255V16.4696V12.2985H150.469H149.684V16.4696Z" fill="#AEC0CE"/>
<path d="M153.5 16.4696V20.6406H154.286H155.071V19.0484V17.4563H157.091H159.112V16.7835V16.1107H157.091H155.071V14.8549V13.5991H157.361H159.65V12.9488V12.2985H156.575H153.5V16.4696Z" fill="#AEC0CE"/>
<path d="M159.889 12.3299C159.974 12.4734 161.927 15.6847 162.47 16.5772L163.152 17.694V19.1695V20.6406L163.952 20.6317L164.746 20.6182L164.76 19.1292L164.769 17.6401L166.385 14.9895C167.274 13.5319 168.001 12.3299 168.001 12.3164C168.001 12.3074 167.651 12.2985 167.229 12.2985H166.452L165.94 13.1417C165.657 13.6036 165.164 14.4154 164.836 14.9446C164.513 15.4739 164.194 15.9941 164.136 16.0973C164.077 16.2049 164.019 16.2902 164.005 16.2902C163.992 16.2902 163.808 16.0031 163.597 15.6488C163.386 15.299 162.838 14.402 162.389 13.653L161.568 12.2985H160.719C160.252 12.2985 159.88 12.3119 159.889 12.3299Z" fill="#AEC0CE"/>
<path d="M64.3541 12.3837C64.3721 12.442 64.4349 12.4555 64.4394 12.4017C64.4394 12.3837 64.417 12.3613 64.39 12.3478C64.3586 12.3389 64.3407 12.3568 64.3541 12.3837Z" fill="#AEC0CE"/>
<path d="M64.6802 12.4337C64.6936 12.4561 64.7161 12.4785 64.7295 12.4785C64.7385 12.4785 64.7475 12.4561 64.7475 12.4337C64.7475 12.4068 64.725 12.3888 64.6981 12.3888C64.6757 12.3888 64.6667 12.4068 64.6802 12.4337Z" fill="#AEC0CE"/>
<path d="M64.2917 12.4994C64.2738 12.5174 64.2738 12.5622 64.2873 12.6026C64.3097 12.6519 64.3007 12.6609 64.2513 12.634C64.1975 12.5981 64.1975 12.6071 64.2513 12.6698C64.2828 12.7102 64.3366 12.7461 64.3636 12.7461C64.3905 12.7461 64.3815 12.7237 64.3456 12.7012C64.2917 12.6698 64.3007 12.6519 64.3905 12.616C64.4623 12.5891 64.4758 12.5712 64.4264 12.5712C64.386 12.5667 64.3456 12.5443 64.3366 12.5174C64.3277 12.4949 64.3097 12.486 64.2917 12.4994Z" fill="#AEC0CE"/>
<path d="M63.2497 12.7419C63.2362 12.7598 63.2048 12.8361 63.1779 12.9079C63.133 13.0334 63.1375 13.0334 63.2048 12.9482C63.3215 12.8002 63.3664 12.7015 63.3171 12.7015C63.2946 12.7015 63.2632 12.7195 63.2497 12.7419Z" fill="#AEC0CE"/>
<path d="M64.3887 12.9888C64.3887 12.9978 64.4201 13.0202 64.4605 13.0337C64.4964 13.0471 64.5144 13.0426 64.5009 13.0157C64.474 12.9709 64.3887 12.9529 64.3887 12.9888Z" fill="#AEC0CE"/>
<path d="M64.2109 13.2628C64.2109 13.2987 64.2424 13.3301 64.2783 13.3301C64.3142 13.3301 64.3456 13.3121 64.3456 13.2897C64.3456 13.2673 64.3142 13.2404 64.2783 13.2224C64.2379 13.209 64.2109 13.2224 64.2109 13.2628Z" fill="#AEC0CE"/>
<path d="M64.2539 13.627C64.2539 13.6629 64.2764 13.6809 64.2988 13.6674C64.3257 13.6495 64.3347 13.6181 64.3212 13.5956C64.2808 13.5329 64.2539 13.5463 64.2539 13.627Z" fill="#AEC0CE"/>
<path d="M105.609 25.5394L105.622 26.8535H106.408C107.153 26.8535 107.207 26.8445 107.418 26.7414C107.71 26.5934 107.808 26.4499 107.808 26.1718C107.808 25.8848 107.705 25.6874 107.499 25.5843C107.346 25.5035 107.341 25.4946 107.427 25.4362C107.593 25.3152 107.665 25.1582 107.665 24.9115C107.665 24.6917 107.651 24.6514 107.499 24.4989C107.279 24.2791 107.036 24.2298 106.224 24.2298H105.6L105.609 25.5394ZM107.198 24.6155C107.341 24.7186 107.4 24.8936 107.355 25.0685C107.288 25.3152 107.135 25.3735 106.493 25.3869L105.914 25.4049V24.9474V24.4899L106.493 24.5078C106.996 24.5213 107.09 24.5348 107.198 24.6155ZM107.319 25.7681C107.494 25.8803 107.548 26.0507 107.485 26.257C107.409 26.5261 107.261 26.5799 106.533 26.5979L105.914 26.6158V26.1359V25.656L106.556 25.674C107.081 25.6829 107.22 25.7009 107.319 25.7681Z" fill="#AEC0CE"/>
<path d="M109.08 24.2881C109.066 24.3195 109.062 24.907 109.066 25.5977L109.08 26.8535H109.955H110.83V26.719V26.5844L110.103 26.571L109.371 26.562V25.3959V24.2298H109.237C109.16 24.2298 109.089 24.2567 109.08 24.2881Z" fill="#AEC0CE"/>
<path d="M112.487 24.3236C111.625 24.6554 111.36 25.7408 111.971 26.4405C112.164 26.6603 112.532 26.8307 112.873 26.8621C113.987 26.9652 114.732 25.9202 114.247 24.9335C113.96 24.346 113.156 24.0634 112.487 24.3236ZM113.524 24.624C113.991 24.8618 114.189 25.3551 114.036 25.9023C113.901 26.3822 113.295 26.7006 112.757 26.5661C112.245 26.436 111.953 26.0637 111.953 25.53C111.953 25.0681 112.2 24.7227 112.644 24.5568C112.864 24.476 113.304 24.5074 113.524 24.624Z" fill="#AEC0CE"/>
<path d="M116.245 24.3268C115.437 24.6363 115.163 25.6589 115.698 26.363C116.106 26.9057 116.959 27.0313 117.57 26.6456L117.776 26.511L117.677 26.4034L117.579 26.3002L117.421 26.4079C116.618 26.9506 115.54 26.2509 115.747 25.327C115.814 25.022 116.021 24.7484 116.272 24.6273C116.663 24.4389 117.17 24.4703 117.444 24.6991L117.574 24.8067L117.673 24.7036L117.772 24.5959L117.614 24.4748C117.278 24.2192 116.69 24.1564 116.245 24.3268Z" fill="#AEC0CE"/>
<path d="M118.987 25.5365L119.001 26.8506H119.136H119.27L119.284 26.4918L119.297 26.133L119.531 25.8953C119.656 25.7697 119.773 25.6621 119.787 25.6621C119.8 25.6621 120.051 25.9357 120.343 26.2676C120.828 26.8192 120.886 26.873 121.026 26.873C121.111 26.873 121.178 26.8551 121.178 26.8327C121.178 26.8147 120.918 26.4873 120.595 26.1106L120.011 25.4289L120.572 24.8413L121.138 24.2493L120.967 24.2359C120.801 24.2179 120.783 24.2314 120.047 24.9983L119.297 25.7742L119.284 25.0118L119.27 24.2493L119.122 24.2359L118.979 24.2224L118.987 25.5365Z" fill="#AEC0CE"/>
<path d="M122.927 24.2682C122.681 24.3489 122.443 24.5014 122.286 24.6719C122.039 24.9454 121.971 25.1383 121.967 25.5509C121.967 25.8514 121.985 25.9456 122.084 26.1385C122.303 26.5601 122.716 26.8247 123.219 26.865C123.569 26.8919 123.956 26.7843 124.153 26.6049L124.297 26.4748L124.207 26.3851L124.117 26.2954L123.924 26.4255C123.682 26.587 123.394 26.6318 123.085 26.5645C122.429 26.4165 122.075 25.7258 122.348 25.1248C122.519 24.7436 122.806 24.5463 123.242 24.5104C123.525 24.4835 123.74 24.5373 123.978 24.6988C124.131 24.8019 124.135 24.8019 124.207 24.7212C124.315 24.6001 124.274 24.5373 124 24.3848C123.798 24.2772 123.695 24.2548 123.399 24.2413C123.201 24.2368 122.99 24.2458 122.927 24.2682Z" fill="#AEC0CE"/>
<path d="M125.509 24.2866C125.496 24.318 125.491 24.9055 125.496 25.5962L125.509 26.852L125.657 26.8655L125.801 26.8789V26.2734V25.6635H126.609H127.417V26.2734V26.8789L127.565 26.8655L127.709 26.852L127.722 25.5379L127.731 24.2283H127.574H127.417V24.8113V25.3944H126.609H125.801V24.8113V24.2283H125.666C125.59 24.2283 125.518 24.2552 125.509 24.2866Z" fill="#AEC0CE"/>
<path d="M129.854 24.4825C129.792 24.626 129.518 25.2091 129.253 25.7832C128.992 26.3573 128.786 26.8327 128.799 26.8461C128.813 26.8641 128.88 26.873 128.948 26.873C129.064 26.873 129.091 26.8372 129.239 26.5142L129.405 26.1554H130.115H130.829L130.99 26.5142C131.138 26.8372 131.165 26.873 131.282 26.873C131.349 26.873 131.417 26.8596 131.426 26.8372C131.439 26.8192 131.183 26.2317 130.856 25.5275C130.272 24.2583 130.267 24.2493 130.119 24.2359C129.98 24.2224 129.967 24.2359 129.854 24.4825ZM130.416 25.245C130.568 25.5814 130.685 25.8639 130.676 25.8729C130.667 25.8819 130.407 25.8819 130.097 25.8774L129.531 25.8639L129.81 25.2495C129.962 24.9086 130.097 24.6305 130.11 24.6305C130.124 24.6305 130.263 24.9041 130.416 25.245Z" fill="#AEC0CE"/>
<path d="M132.511 24.2866C132.498 24.318 132.493 24.9055 132.498 25.5962L132.511 26.852L132.659 26.8655L132.803 26.8789V25.5558V24.2283H132.668C132.592 24.2283 132.52 24.2552 132.511 24.2866Z" fill="#AEC0CE"/>
<path d="M134.294 25.5365L134.308 26.8506H134.442H134.577L134.59 25.828L134.599 24.801L135.43 25.837C136.112 26.6892 136.283 26.873 136.373 26.873H136.485V25.5455V24.2224L136.341 24.2359L136.193 24.2493L136.171 25.2495L136.148 26.2496L135.34 25.2405C134.64 24.3614 134.514 24.2269 134.406 24.2269H134.285L134.294 25.5365Z" fill="#AEC0CE"/>
<path d="M139.593 25.5386L139.606 26.8527H139.741H139.876L139.898 25.8346L139.921 24.8165L140.747 25.8481C141.483 26.7675 141.586 26.8796 141.689 26.8662L141.806 26.8527V25.5521V24.2514L141.662 24.238L141.514 24.2245L141.505 25.2606L141.492 26.2921L140.666 25.2606C139.939 24.3546 139.822 24.229 139.71 24.229H139.584L139.593 25.5386Z" fill="#AEC0CE"/>
<path d="M143.273 25.5365L143.286 26.8506L144.22 26.8641L145.154 26.873L145.14 26.7295L145.127 26.5815L144.355 26.5681L143.578 26.5591V26.1106V25.6621H144.251H144.925V25.5275V25.393H144.251H143.578V24.9445V24.496H144.341H145.104V24.3614V24.2269H144.184H143.264L143.273 25.5365Z" fill="#AEC0CE"/>
<path d="M145.973 24.2818C146.193 24.7931 147.1 26.7755 147.136 26.8159C147.194 26.8921 147.378 26.8921 147.428 26.8159C147.49 26.7172 148.563 24.3087 148.563 24.2639C148.563 24.2415 148.5 24.228 148.42 24.237C148.276 24.2504 148.267 24.2639 147.782 25.3403C147.513 25.9368 147.284 26.4167 147.275 26.4077C147.266 26.3988 147.041 25.9099 146.777 25.3179L146.296 24.2504L146.121 24.237C145.991 24.2235 145.955 24.237 145.973 24.2818Z" fill="#AEC0CE"/>
<path d="M149.594 25.55V26.873L150.528 26.8641L151.457 26.8506V26.7161V26.5815L150.685 26.5681L149.908 26.5591V26.1106V25.6666L150.572 25.6531L151.232 25.6397L151.246 25.5141L151.259 25.393H150.586H149.908V24.9445V24.496H150.649H151.389V24.3614V24.2269H150.492H149.594V25.55Z" fill="#AEC0CE"/>
<path d="M152.736 25.5513V26.8789L152.884 26.8655L153.028 26.852L153.042 26.4349L153.055 26.0223H153.477H153.904L154.218 26.4483C154.492 26.8206 154.55 26.8744 154.667 26.8744C154.743 26.8744 154.801 26.852 154.801 26.8296C154.801 26.8027 154.671 26.6008 154.51 26.3811C154.348 26.1613 154.218 25.9684 154.218 25.955C154.218 25.9415 154.249 25.9326 154.285 25.9326C154.321 25.9326 154.429 25.8563 154.523 25.7621C154.797 25.5065 154.873 25.1253 154.716 24.7889C154.523 24.3673 154.272 24.2641 153.401 24.2372L152.736 24.2193V25.5513ZM154.159 24.6005C154.577 24.8203 154.586 25.4527 154.173 25.6724C154.052 25.7352 153.917 25.7532 153.535 25.7532H153.051V25.1208V24.4839L153.535 24.5063C153.868 24.5198 154.061 24.5512 154.159 24.6005Z" fill="#AEC0CE"/>
<path d="M157.697 24.2881C157.683 24.3195 157.679 24.907 157.683 25.5977L157.697 26.8535H158.572H159.448V26.719V26.5844L158.72 26.571L157.989 26.562V25.3959V24.2298H157.854C157.778 24.2298 157.706 24.2567 157.697 24.2881Z" fill="#AEC0CE"/>
<path d="M160.549 25.5513V26.8789L160.697 26.8655L160.841 26.852V25.5513V24.2507L160.697 24.2372L160.549 24.2238V25.5513Z" fill="#AEC0CE"/>
<path d="M162.322 24.2881C162.308 24.3195 162.304 24.907 162.308 25.5977L162.322 26.8535H163.242H164.162V26.719V26.5844L163.39 26.571L162.614 26.562V26.1135V25.665H163.287H163.96V25.5304V25.3959H163.287H162.614V24.9474V24.4989H163.377H164.14V24.3643V24.2298H163.242C162.56 24.2298 162.335 24.2432 162.322 24.2881Z" fill="#AEC0CE"/>
<path d="M165.829 24.2745C165.465 24.3911 165.227 24.7096 165.276 25.0191C165.335 25.3779 165.514 25.5124 166.179 25.6918C166.812 25.8667 167.014 26.082 166.807 26.378C166.596 26.674 165.86 26.6785 165.452 26.3915L165.321 26.2973L165.267 26.4094C165.2 26.5619 165.245 26.6112 165.546 26.7413C166.053 26.9611 166.74 26.8893 167.005 26.5888C167.256 26.3018 167.225 25.8757 166.942 25.6784C166.78 25.5662 166.637 25.5124 166.179 25.3958C165.591 25.2388 165.425 24.9877 165.707 24.6692C165.838 24.5257 165.847 24.5212 166.215 24.5212C166.489 24.5212 166.641 24.5436 166.78 24.6064C166.991 24.7006 167.005 24.6961 167.023 24.5392C167.032 24.4539 167 24.4136 166.857 24.3463C166.659 24.2476 166.044 24.2028 165.829 24.2745Z" fill="#AEC0CE"/>
<path d="M93.2451 27.3565C93.2047 27.4014 93.1508 27.4866 93.1194 27.5494C93.0161 27.7512 92.5851 28.3701 92.3652 28.6347C92.2485 28.7738 91.9522 29.1236 91.7053 29.4107C91.4583 29.6977 91.2159 29.9892 91.1666 30.061C90.9376 30.3794 90.6593 30.7337 90.4573 30.9714C90.3316 31.1105 90.2418 31.2405 90.2552 31.254C90.2956 31.2944 91.0005 30.6665 91.1576 30.4467C91.3057 30.2449 91.6469 29.8098 92.1407 29.1999C92.4954 28.7648 92.5672 28.6661 92.9218 28.0876C93.2047 27.6301 93.3618 27.3296 93.3303 27.2937C93.3214 27.2848 93.281 27.3161 93.2451 27.3565Z" fill="#AEC0CE"/>
<path d="M69.5697 31.8761C69.6057 31.912 69.6461 31.9434 69.6595 31.9434C69.673 31.9434 69.673 31.912 69.6595 31.8761C69.6416 31.8402 69.6012 31.8088 69.5652 31.8088C69.5114 31.8088 69.5114 31.8178 69.5697 31.8761Z" fill="#AEC0CE"/>
<path d="M74.2656 33.0624C74.2656 33.0848 74.2926 33.1073 74.3285 33.1073C74.3644 33.1073 74.4048 33.1342 74.4138 33.1611C74.4317 33.2059 74.4407 33.2059 74.4407 33.1656C74.4452 33.1342 74.4048 33.0893 74.3554 33.0624C74.2926 33.031 74.2656 33.031 74.2656 33.0624Z" fill="#AEC0CE"/>
<path d="M74.5468 33.1887C74.5917 33.2336 74.6231 33.2919 74.6231 33.3188C74.6231 33.3457 74.686 33.3905 74.7578 33.4174C74.8386 33.4443 74.8925 33.4443 74.8925 33.4174C74.8925 33.395 74.9239 33.3771 74.9643 33.3771C75.0047 33.3771 75.0272 33.404 75.0137 33.4354C75.0002 33.4757 75.1529 33.552 75.503 33.6776C75.8621 33.8032 76.0148 33.839 76.0148 33.7987C76.0148 33.7673 76.0462 33.7224 76.0866 33.7C76.1495 33.6641 76.1495 33.6551 76.0686 33.6372C76.0193 33.6238 75.9519 33.6282 75.9205 33.6507C75.8352 33.7045 75.732 33.7 75.7679 33.6462C75.7858 33.6193 75.7813 33.6058 75.7589 33.6103C75.7409 33.6148 75.6242 33.561 75.4985 33.4892C75.3773 33.4174 75.2381 33.3502 75.1888 33.3457C75.1394 33.3367 75.081 33.3143 75.0541 33.2919C75.0002 33.2515 74.5872 33.108 74.5199 33.108C74.4929 33.108 74.5064 33.1439 74.5468 33.1887Z" fill="#AEC0CE"/>
<path d="M74.2227 33.1993C74.2227 33.2217 74.2451 33.2441 74.2675 33.2441C74.2945 33.2441 74.3124 33.2217 74.3124 33.1993C74.3124 33.1724 74.2945 33.1544 74.2675 33.1544C74.2451 33.1544 74.2227 33.1724 74.2227 33.1993Z" fill="#AEC0CE"/>
<path d="M74.4453 33.2835C74.4453 33.3059 74.4767 33.3373 74.5171 33.3508C74.58 33.3732 74.5845 33.3687 74.5351 33.3104C74.4722 33.2342 74.4453 33.2252 74.4453 33.2835Z" fill="#AEC0CE"/>
<path d="M82.5614 35.1048C82.5479 35.1183 82.1663 35.1407 81.7174 35.1497C80.9228 35.1676 80.7028 35.208 80.8599 35.3067C81.0799 35.4367 82.3369 35.4009 82.6287 35.2528C82.723 35.208 82.7858 35.1497 82.7723 35.1273C82.7409 35.0779 82.6018 35.0645 82.5614 35.1048Z" fill="#AEC0CE"/>
<path d="M84.0294 35.2624C83.9711 35.2848 83.9666 35.3027 84.007 35.3027C84.0429 35.3027 84.1147 35.2848 84.1641 35.2624C84.2225 35.2399 84.2269 35.222 84.1865 35.222C84.1506 35.222 84.0788 35.2399 84.0294 35.2624Z" fill="#AEC0CE"/>
</svg>
