<svg width="230" height="40" viewBox="0 0 230 40" fill="none" xmlns="http://www.w3.org/2000/svg">
<path d="M91.854 3.44804C91.5796 3.74558 91.4151 3.93913 91.4353 3.95068C91.4555 3.96224 91.6056 4.02001 91.7731 4.07779C92.3073 4.26844 92.6019 4.43888 92.8993 4.73353C93.2603 5.09173 93.4942 5.54815 93.5837 6.07679C93.6241 6.32522 93.627 6.42921 93.5981 6.8943C93.5808 7.18606 93.5693 7.42871 93.5721 7.4316C93.575 7.43449 93.7685 7.28427 94.0024 7.0994C94.5395 6.67186 94.8803 6.46099 95.5993 6.0999C96.8352 5.47882 98.2588 4.99351 99.7287 4.69597L100.306 4.57754L100.453 4.41577C100.534 4.32333 100.829 4.00268 101.106 3.70225C101.386 3.39893 101.609 3.1505 101.606 3.14473C101.585 3.12162 99.9279 3.38449 99.3533 3.50004C97.8141 3.81202 96.4396 4.26555 95.3105 4.84041C95.042 4.97618 94.811 5.08884 94.7965 5.08884C94.785 5.08884 94.733 4.99062 94.681 4.8693C94.2998 3.99401 93.5952 3.34116 92.7405 3.07251C92.2842 2.92807 92.3709 2.89341 91.854 3.44804Z" fill="#AEC0CE"/>
<path d="M88.6246 5.5411C88.1395 5.94841 87.4984 6.58682 87.1952 6.96813C86.6004 7.70765 86.225 8.47316 86.1123 9.15779C86.069 9.42933 86.0777 9.98686 86.1297 10.2411C86.1528 10.3624 86.2192 10.5733 86.2741 10.709C86.3318 10.8448 86.3809 10.9748 86.3896 10.9979C86.4011 11.0297 86.3463 11.0586 86.1788 11.1077C85.1825 11.411 84.244 12.2718 83.704 13.3782C83.3431 14.1177 83.1871 14.7735 83.0976 15.9405L83.0832 16.1312L83.2189 16.163L83.3546 16.1947L83.2247 16.1774C83.1525 16.1687 81.0705 16.1572 78.5986 16.1485L74.0996 16.137V24.8638V33.5878H75.9766H77.8536V30.959V28.3303H79.4505H81.0445L82.7626 30.959L84.4779 33.5878H86.3925H88.307V35.581V37.5742H94.7321H101.157L101.163 35.8179L101.172 34.0644L102.939 34.0557L104.709 34.05L104.715 28.5729L104.723 23.0959L109.814 29.4973C112.615 33.0187 114.911 35.8988 114.92 35.8988C114.926 35.8988 114.931 31.1035 114.931 25.2393V14.5799H113.127H111.322L111.316 20.161L111.307 25.7391L108.174 21.7844C106.45 19.6092 104.155 16.7147 103.077 15.3541L101.114 12.8756L101.105 23.4628L101.099 34.05H96.5224H91.9455V32.389V30.7279H95.1508H98.3561V28.9802V27.2326H95.1508H91.9455V25.7738V24.315H96.0748H100.204V22.5673V20.8196H94.3509H88.4947L88.4167 20.4989C88.0817 19.147 87.2126 17.9366 86.0113 17.1509C85.5204 16.8303 84.836 16.5385 84.1776 16.3681C83.9986 16.3218 83.8455 16.2785 83.8426 16.2756C83.8397 16.2727 84.1112 16.2698 84.4462 16.267C85.1479 16.267 85.4799 16.2265 86.1557 16.0532C86.9758 15.8452 87.845 15.4783 88.6304 15.0046C88.8325 14.8833 89.0029 14.7821 89.0058 14.7821C89.0116 14.7821 89.0116 15.0046 89.0058 15.2732C88.9769 16.8678 89.4476 18.1851 90.3977 19.1701C90.7788 19.563 91.2784 19.9241 91.6798 20.0974L91.8242 20.161L92.3382 19.8981C93.3489 19.3897 93.9726 18.9621 94.5444 18.3931C95.2287 17.7084 95.5464 17.1422 95.7312 16.2785C95.8669 15.6372 95.8409 14.9872 95.6561 14.3864C95.6186 14.2651 95.5897 14.1582 95.5955 14.1553C95.6013 14.1495 95.8611 14.0917 96.173 14.0311C98.4514 13.5718 100.25 12.9074 101.792 11.957C102.434 11.5612 102.976 11.1395 103.519 10.6079C104.651 9.50733 105.359 8.28828 105.679 6.88147C105.746 6.58971 105.76 6.45105 105.772 5.99752L105.783 5.45733L105.327 5.43711C104.755 5.40822 103.392 5.46022 102.63 5.53821C99.9328 5.81842 97.3743 6.60415 95.0526 7.87231C94.2729 8.29695 93.2796 8.92958 92.8031 9.30223C92.7425 9.34845 92.6876 9.38022 92.6789 9.37156C92.6703 9.36578 92.6789 9.27623 92.6934 9.17512C92.8175 8.40383 92.7309 7.68454 92.4364 7.08368C92.1591 6.5146 91.7375 6.09574 91.1138 5.77509C90.5825 5.50066 89.8057 5.27823 89.2282 5.23201L89.0145 5.21468L88.6246 5.5411ZM89.6931 6.62149C90.5305 6.88725 91.108 7.43322 91.3015 8.14096C91.3795 8.42405 91.3708 9.07402 91.2813 9.438C91.0243 10.5039 90.3399 11.8096 89.6151 12.6214C88.691 13.6555 87.3425 14.4297 85.8236 14.7937C85.454 14.8833 84.9948 14.9555 84.7898 14.9555C84.6483 14.9555 84.6396 14.9526 84.6541 14.889C84.7927 14.2448 84.9342 13.8606 85.1681 13.4678C85.4828 12.9391 85.9189 12.5289 86.4444 12.269C86.9238 12.0321 87.1837 11.9714 88.2868 11.8472C88.5351 11.8183 88.7401 11.7865 88.7401 11.775C88.7401 11.7634 88.5727 11.6305 88.3676 11.4774C87.8103 11.0644 87.536 10.7293 87.3598 10.2411C87.2905 10.0504 87.2819 9.99263 87.2819 9.62576C87.2819 9.24445 87.2876 9.2069 87.3772 8.94691C87.562 8.41539 87.9143 7.89542 88.4658 7.34078C88.821 6.98547 89.3668 6.52038 89.4159 6.53482C89.4332 6.5406 89.5573 6.58104 89.6931 6.62149ZM103.814 6.99413C103.814 7.01724 103.768 7.16746 103.71 7.33211C103.028 9.29067 101.082 10.8766 98.024 11.9656C96.586 12.4769 94.8158 12.8871 93.4182 13.0374C93.1727 13.0634 92.9648 13.0894 92.959 13.0951C92.9533 13.098 93.0659 13.2396 93.2103 13.4042C93.7127 13.982 93.9553 14.3777 94.0997 14.8601C94.1978 15.1923 94.2065 15.6372 94.117 15.9694C93.9611 16.5529 93.5164 17.1653 92.8609 17.6969C92.5663 17.9366 92.0119 18.3064 91.9455 18.3064C91.8848 18.3064 91.3159 17.7229 91.1167 17.4571C90.08 16.0619 90.0858 14.5222 91.1311 12.9594C91.7433 12.0465 92.9215 10.8679 94.0246 10.0649C96.4704 8.28539 99.7393 7.17901 103.121 6.98547C103.759 6.94791 103.814 6.94791 103.814 6.99413ZM83.0283 19.901C83.9062 20.1407 84.4664 20.6434 84.7234 21.4147C84.9024 21.9491 84.9024 22.547 84.7234 23.0872C84.4519 23.9048 83.7416 24.4565 82.7598 24.6183C82.5316 24.6529 82.11 24.6616 80.1724 24.6616H77.8536V22.2351V19.8056L80.3023 19.8143L82.7482 19.823L83.0283 19.901ZM88.307 28.1887V32.2647L86.6783 29.9104C85.7803 28.6134 85.0266 27.5243 85.0006 27.4839L84.9544 27.4117L85.3385 27.2268C85.9997 26.9061 86.4589 26.5884 86.9469 26.1204C87.4955 25.5918 88.0096 24.8465 88.2348 24.2485C88.2637 24.1734 88.2897 24.1127 88.2954 24.1127C88.3012 24.1127 88.307 25.9471 88.307 28.1887Z" fill="#AEC0CE"/>
<path d="M62 11.8924V13.799H64.57H67.1401V23.7217V33.6445H69.147H71.1539L71.1597 23.7275L71.1684 13.8134L73.7326 13.8047L76.294 13.799V11.8924V9.98584H69.147H62V11.8924Z" fill="#AEC0CE"/>
<path d="M135.664 23.0674V34.8592H137.469H139.274L139.279 28.7899L139.288 22.7178L143.363 28.3913C145.603 31.5111 147.899 34.7061 148.459 35.4889L149.482 36.9102L149.496 30.6792L149.51 24.4453L149.646 24.8208C150.351 26.7476 151.668 28.3595 153.409 29.4341C155.941 30.994 159.225 31.2714 162.04 30.1621C164.677 29.1221 166.669 26.9412 167.446 24.2489C167.899 22.6716 167.925 20.8604 167.518 19.2889C166.759 16.3626 164.633 14.0459 161.754 13.0059C160.143 12.4224 158.266 12.2895 156.502 12.6333C153.952 13.1301 151.72 14.6872 150.391 16.8913C150.143 17.3015 149.817 17.9861 149.666 18.4078C149.6 18.5985 149.534 18.7661 149.519 18.7805C149.508 18.7978 149.496 18.067 149.496 17.157V15.5047H147.691H145.886V20.508C145.886 25.3899 145.886 25.5112 145.832 25.4563C145.803 25.4246 144.63 23.7924 143.227 21.831C138.552 15.2938 135.716 11.3305 135.69 11.3016C135.676 11.2871 135.664 16.1258 135.664 23.0674ZM159.069 16.1835C159.242 16.2066 159.519 16.2586 159.687 16.302C161.572 16.7728 163.152 18.3616 163.643 20.2769C163.787 20.8315 163.804 20.9904 163.802 21.6721C163.802 22.247 163.793 22.3423 163.724 22.6716C163.498 23.7404 163.025 24.6475 162.291 25.4217C160.998 26.7852 159.202 27.3831 157.457 27.0278C156.091 26.7534 154.832 25.8897 154.024 24.6764C153.068 23.2407 152.834 21.5479 153.368 19.9389C154.189 17.4748 156.637 15.86 159.069 16.1835Z" fill="#AEC0CE"/>
<path d="M130.555 25.8883V34.8867H132.359H134.164V25.8883V16.8899H132.359H130.555V25.8883Z" fill="#AEC0CE"/>
<path d="M115.826 18.7969V20.6745H118.31H120.793V29.2396V37.8047H122.728H124.662V29.2396V20.6745H127.16H129.658V18.7969V16.9192H122.742H115.826V18.7969Z" fill="#AEC0CE"/>
</svg>
