<svg width="230" height="40" viewBox="0 0 230 40" fill="none" xmlns="http://www.w3.org/2000/svg">
<g clip-path="url(#clip0_113_321)">
<g filter="url(#filter0_d_113_321)">
<path d="M78.7433 23.563C80.5056 19.1111 76.9076 16.3549 76.9076 16.3549C75.4482 21.1957 78.7433 23.563 78.7433 23.563Z" fill="#AEC0CE"/>
<path d="M80.6462 21.7246C85.4313 22.2533 87.1722 18.078 87.1722 18.078C82.0964 17.9443 80.6462 21.7246 80.6462 21.7246Z" fill="#AEC0CE"/>
<path d="M80.6308 17.4854C82.1055 13.7719 79.101 11.4685 79.101 11.4685C77.8803 15.498 80.6308 17.4854 80.6308 17.4854Z" fill="#AEC0CE"/>
<path d="M82.1607 15.9508C86.1595 16.3945 87.6098 12.912 87.6098 12.912C83.3753 12.7965 82.1607 15.9508 82.1607 15.9508Z" fill="#AEC0CE"/>
<path d="M82.6168 11.6356C82.9046 10.9309 82.9587 10.1534 82.7711 9.41618C82.5834 8.67893 82.1639 8.02035 81.5735 7.5362C80.7413 10.2803 82.6168 11.6356 82.6168 11.6356Z" fill="#AEC0CE"/>
<path d="M87.2581 8.52077C84.3638 8.43264 83.5469 10.5902 83.5469 10.5902C84.3066 10.6822 85.0762 10.5311 85.7436 10.159C86.411 9.78679 86.9416 9.21293 87.2581 8.52077Z" fill="#AEC0CE"/>
<path d="M84.1494 6.67634C84.4373 5.97169 84.4913 5.19421 84.3037 4.45696C84.116 3.7197 83.6965 3.06112 83.1061 2.57697C82.2739 5.32103 84.1494 6.67634 84.1494 6.67634Z" fill="#AEC0CE"/>
<path d="M85.0795 5.63094C85.8382 5.72365 86.607 5.57392 87.2743 5.20346C87.9416 4.83301 88.4727 4.26109 88.7907 3.57062C85.8933 3.47946 85.0795 5.63094 85.0795 5.63094Z" fill="#AEC0CE"/>
<path d="M86.5053 0C84.691 1.58626 85.0062 3.3427 85.1561 3.86538L77.0758 29.5404L67.6493 3.75598C67.6509 3.74796 67.6509 3.73969 67.6493 3.73167C67.5942 3.6162 67.533 3.50376 67.4687 3.38828L67.1873 2.94462C66.9525 2.59919 66.6829 2.27845 66.3826 1.98739C65.6641 1.26513 64.7541 0.759893 63.7583 0.530239C62.7625 0.300585 61.7215 0.355914 60.7561 0.689812L60.5878 0.753627C59.8931 1.00914 59.2611 1.40843 58.7336 1.925C58.2061 2.44157 57.7953 3.06362 57.5282 3.7499C57.2728 4.36962 57.1279 5.02874 57.0999 5.69779C57.0671 6.51818 57.1971 7.33698 57.4823 8.10757L66.4224 32.2966C66.6619 32.9376 66.7718 33.6193 66.7456 34.3025C66.7194 34.9858 66.5577 35.6572 66.2698 36.2782C65.9819 36.8993 65.5734 37.4578 65.0677 37.9218C64.562 38.3857 63.9692 38.746 63.323 38.982L63.1395 39.0458C62.4977 39.2765 61.8141 39.37 61.1335 39.3202C60.4528 39.2705 59.7904 39.0786 59.1896 38.7571C57.9472 38.101 56.9911 37.014 56.5033 35.7031C56.3806 35.4108 56.2943 35.1046 56.2463 34.7915L57.7761 30.7924L49.9528 10.256C48.888 7.24455 48.6371 6.33898 48.6371 5.95913C48.6371 3.99909 50.4453 3.61924 52.0883 3.45514H40C41.6981 3.67393 43.7571 3.9687 44.6414 6.06549C44.6414 6.06549 45.3389 7.31748 46.5138 10.6997L55.8241 35.8581C56.0682 36.5214 56.4252 37.1381 56.8796 37.6814C56.9194 37.733 56.9561 37.7786 56.9989 37.8272C57.5223 38.45 58.1624 38.966 58.8836 39.3467C59.6909 39.7735 60.5911 39.9978 61.5057 40C62.1416 39.9996 62.7724 39.8875 63.3689 39.6688L63.5525 39.6019C65.0197 39.0644 66.2119 37.9701 66.8671 36.5598C67.5223 35.1494 67.5869 33.5384 67.0465 32.0808L58.1065 7.87966C57.1091 5.18423 58.3176 2.25784 60.7958 1.35228L60.9641 1.2915C63.1486 0.498367 65.685 1.55284 66.9058 3.75294L65.4586 8.08326L75.8122 35.9432H76.0875L77.4766 30.6799L85.3397 3.914C85.9123 3.45728 86.3308 2.83768 86.5392 2.13818C86.7475 1.43868 86.7357 0.692656 86.5053 0Z" fill="#AEC0CE"/>
<path d="M105.93 25.3528C105.712 25.5018 105.545 25.7141 105.453 25.9606C105.415 26.0659 105.389 26.1749 105.374 26.2857C105.352 26.4377 105.331 26.6109 105.312 26.8084C105.294 27.0059 105.279 27.2156 105.27 27.4374C105.26 27.6593 105.254 27.8781 105.254 28.0938C105.254 28.501 105.233 28.9508 105.217 29.4522C105.202 29.9536 105.187 30.5158 105.169 31.1478C105.169 31.3271 105.147 31.552 105.132 31.8255C105.116 32.1189 105.071 32.41 104.997 32.6946C104.915 33.0122 104.794 33.3184 104.636 33.6062C104.458 33.9261 104.219 34.2088 103.932 34.4389C103.586 34.7149 103.189 34.9214 102.764 35.0466C101.622 35.3342 100.427 35.3342 99.285 35.0466C98.8678 34.9298 98.4765 34.736 98.1316 34.4753C97.8482 34.258 97.6093 33.9888 97.4279 33.6822C97.2712 33.4151 97.1469 33.1305 97.0577 32.8344C96.9823 32.5861 96.9351 32.3303 96.9169 32.0716C96.9169 31.8407 96.8955 31.6705 96.8955 31.555C96.8955 31.2937 96.8955 30.9473 96.8955 30.5249C96.8955 30.1025 96.8955 29.6315 96.8955 29.1118V26.7233C96.8955 26.5562 96.8955 26.3982 96.8741 26.2523C96.8608 26.1184 96.8394 25.9855 96.8098 25.8542C96.7883 25.7546 96.7444 25.6611 96.6813 25.5807C96.552 25.4228 96.3817 25.3029 96.1887 25.2343C95.9756 25.1572 95.7536 25.1072 95.5279 25.0854V24.9426H99.7684V25.0854C99.6241 25.1052 99.481 25.1337 99.3401 25.1705C99.1936 25.2065 99.0541 25.266 98.927 25.3467C98.8015 25.4331 98.697 25.5463 98.6211 25.678C98.53 25.8429 98.4816 26.0277 98.4803 26.2158C98.4803 26.462 98.462 26.6777 98.4589 26.8661C98.4559 27.0545 98.4589 27.2369 98.4589 27.4162V30.2271C98.4589 30.4459 98.4589 30.6555 98.4589 30.8561C98.4589 31.0597 98.4589 31.2755 98.4589 31.5003C98.4627 31.9641 98.5391 32.4244 98.6853 32.8648C98.8185 33.2496 99.0264 33.6048 99.2972 33.9101C99.5558 34.1988 99.8769 34.4253 100.237 34.5726C100.638 34.7344 101.067 34.814 101.5 34.8066C101.965 34.818 102.429 34.7554 102.874 34.6212C103.219 34.5176 103.538 34.3449 103.813 34.1137C104.059 33.9049 104.261 33.6511 104.41 33.3662C104.559 33.0781 104.669 32.7715 104.737 32.4545C104.809 32.1312 104.857 31.8032 104.881 31.473C104.902 31.1387 104.915 30.8105 104.915 30.4914V28.0938C104.915 27.9054 104.915 27.714 104.915 27.5164C104.915 27.3189 104.915 27.1305 104.893 26.9512C104.872 26.7719 104.869 26.6048 104.85 26.4498C104.839 26.3209 104.81 26.1941 104.765 26.073C104.673 25.8138 104.502 25.5897 104.275 25.4318C103.963 25.2394 103.61 25.1209 103.244 25.0854V24.9426H106.772V25.0854C106.475 25.1112 106.187 25.2025 105.93 25.3528Z" fill="#AEC0CE"/>
<path d="M118.095 25.3528C117.87 25.4981 117.698 25.711 117.603 25.9606C117.515 26.2128 117.472 26.4779 117.474 26.7446C117.456 27.1275 117.438 27.5327 117.419 27.9601C117.398 28.3673 117.382 28.8444 117.367 29.3944C117.352 29.9445 117.346 30.537 117.346 31.1691V32.0808C117.346 32.4089 117.346 32.7463 117.346 33.0896C117.346 33.433 117.346 33.7764 117.346 34.1137V35.0254C117.347 35.0427 117.344 35.0601 117.337 35.0763C117.331 35.0926 117.321 35.1073 117.309 35.1196C117.28 35.1436 117.243 35.1556 117.205 35.153C117.104 35.1415 117.012 35.0913 116.948 35.0132C116.132 34.0894 115.397 33.2416 114.742 32.4697L112.842 30.2575L111.071 28.2032C110.492 27.5316 109.88 26.8418 109.235 26.1247V32.0868C109.235 32.567 109.235 32.9985 109.269 33.3874C109.273 33.6881 109.335 33.9852 109.452 34.2626C109.554 34.4768 109.728 34.6489 109.945 34.7488C110.236 34.8753 110.546 34.9543 110.863 34.9828V35.1226H107.375V34.9828C107.608 34.9513 107.837 34.8921 108.057 34.8066C108.28 34.7179 108.47 34.5616 108.598 34.3599C108.752 34.0924 108.839 33.7923 108.852 33.4847C108.892 33.0988 108.92 32.6369 108.938 32.099C108.96 31.6948 108.972 31.2177 108.981 30.6647C108.99 30.1116 108.996 29.5221 108.996 28.893V27.167C108.996 26.9786 108.996 26.7476 108.981 26.4772C108.965 26.2416 108.897 26.0124 108.782 25.8056C108.691 25.6431 108.565 25.5029 108.412 25.3953C108.272 25.2966 108.116 25.2245 107.95 25.1826C107.793 25.1417 107.634 25.1112 107.473 25.0915V24.9486H110.37L117.101 32.7766V27.9662C117.101 27.5894 117.101 27.2308 117.101 26.8874C117.103 26.6108 117.06 26.3357 116.972 26.073C116.878 25.8109 116.701 25.5861 116.468 25.4318C116.149 25.241 115.792 25.1227 115.421 25.0854V24.9426H118.937V25.0854C118.64 25.1146 118.354 25.2057 118.095 25.3528Z" fill="#AEC0CE"/>
<path d="M120.008 35.1165V34.9767C120.235 34.9417 120.457 34.8794 120.668 34.7914C120.869 34.7111 121.047 34.5851 121.189 34.4237C121.243 34.353 121.279 34.2708 121.296 34.1836C121.321 34.0623 121.34 33.9395 121.351 33.8159C121.366 33.6761 121.375 33.5272 121.381 33.3723C121.387 33.2173 121.381 33.0684 121.381 32.9134C121.381 32.7584 121.381 32.6095 121.381 32.3755C121.381 32.1415 121.381 31.9015 121.397 31.634C121.412 31.3666 121.397 31.0901 121.397 30.8075V26.7233C121.398 26.566 121.391 26.4088 121.375 26.2523C121.365 26.1181 121.343 25.9849 121.311 25.8542C121.292 25.7544 121.249 25.6606 121.186 25.5807C121.056 25.4228 120.886 25.3029 120.693 25.2343C120.48 25.1575 120.258 25.1075 120.032 25.0854V24.9426H124.285V25.0854C124.067 25.1171 123.853 25.169 123.645 25.2404C123.417 25.3168 123.228 25.4794 123.119 25.6932C123.026 25.8822 122.98 26.0906 122.985 26.3009C122.985 26.544 122.985 26.775 122.963 26.9938C122.942 27.2126 122.963 27.4617 122.963 27.6927C122.963 27.9236 122.963 28.1576 122.963 28.3916V33.1261C122.963 33.3996 122.963 33.6609 122.978 33.9162C122.97 34.1039 123.014 34.2902 123.107 34.4541C123.243 34.6301 123.431 34.7589 123.645 34.8218C123.862 34.8997 124.087 34.9517 124.315 34.9767V35.1165H120.008Z" fill="#AEC0CE"/>
<path d="M134.369 25.3103C134.253 25.3731 134.145 25.4496 134.048 25.5382C134.02 25.5655 133.98 25.6111 133.928 25.6719C133.861 25.7552 133.801 25.8448 133.751 25.9393C133.684 26.0578 133.604 26.2067 133.515 26.386C133.427 26.5653 133.323 26.7902 133.209 27.0637C133.02 27.5164 132.812 28.0209 132.598 28.5831L131.885 30.3122C131.65 30.9078 131.416 31.5044 131.181 32.102C130.946 32.6997 130.726 33.2669 130.52 33.8038L129.822 35.2168H129.645C129.333 34.4551 129.041 33.7268 128.77 33.0319C128.501 32.3421 128.238 31.6736 127.981 31.0324C127.724 30.3912 127.479 29.7743 127.243 29.1756C127.008 28.577 126.766 27.9783 126.53 27.3736C126.463 27.1933 126.402 27.0383 126.347 26.9087C126.289 26.775 126.234 26.6534 126.182 26.541C126.13 26.4285 126.078 26.3191 126.026 26.2158L125.863 25.8907C125.833 25.8329 125.79 25.763 125.735 25.678C125.669 25.583 125.59 25.498 125.499 25.4257C125.389 25.3349 125.267 25.2602 125.135 25.2039C124.963 25.1375 124.781 25.1025 124.597 25.1006V24.9426H128.85V25.0854L128.593 25.1279C128.463 25.1486 128.337 25.1843 128.216 25.2343C128.09 25.2846 127.974 25.359 127.877 25.4531C127.828 25.4977 127.789 25.5522 127.763 25.6131C127.737 25.6739 127.725 25.7396 127.727 25.8056C127.755 26.0134 127.808 26.2173 127.883 26.4134C127.987 26.7172 128.121 27.1092 128.287 27.556C128.452 28.0027 128.642 28.4949 128.85 29.0267C129.058 29.5585 129.266 30.0812 129.461 30.5948C129.657 31.1083 129.859 31.5854 130.04 32.0291C130.22 32.4728 130.361 32.8344 130.465 33.117C130.514 33.0137 130.6 32.7979 130.728 32.4667L131.212 31.2512C131.407 30.7619 131.622 30.2058 131.86 29.5859L132.601 27.635C132.749 27.2501 132.873 26.8563 132.971 26.4559C133.014 26.2722 133.042 26.0851 133.053 25.8968C133.055 25.8316 133.044 25.7667 133.02 25.7061C132.995 25.6455 132.959 25.5904 132.913 25.5442C132.809 25.4458 132.689 25.3665 132.558 25.3103C132.413 25.2496 132.262 25.2028 132.108 25.1705C131.97 25.1398 131.83 25.1185 131.689 25.1067V24.9638H135.002V25.1219C134.78 25.1386 134.564 25.2029 134.369 25.3103Z" fill="#AEC0CE"/>
<path d="M143.808 35.1167H135.1V34.9769C135.327 34.9427 135.549 34.8804 135.761 34.7915C135.956 34.7155 136.13 34.5947 136.269 34.439C136.323 34.3652 136.361 34.2815 136.382 34.1929C136.41 34.0835 136.437 33.9589 136.459 33.816C136.48 33.6732 136.498 33.5274 136.511 33.3724C136.523 33.2174 136.511 33.0685 136.511 32.9135C136.511 32.7585 136.511 32.6096 136.511 32.3756C136.511 32.1417 136.511 31.9016 136.526 31.6342C136.541 31.3668 136.526 31.0902 136.526 30.8076V27.234C136.526 27.0638 136.526 26.8875 136.526 26.7113C136.526 26.535 136.511 26.3618 136.498 26.2008C136.485 26.0555 136.462 25.9113 136.428 25.7693C136.407 25.6676 136.36 25.5733 136.29 25.4958C136.172 25.3532 136.015 25.2477 135.838 25.1919C135.631 25.1407 135.422 25.1011 135.21 25.0734V24.9305H143.064L144.031 27.2644L143.89 27.3342C143.119 26.3841 142.398 25.7439 141.727 25.4137C141.439 25.3077 141.137 25.2403 140.831 25.2131C140.302 25.1522 139.769 25.1238 139.237 25.1281C139.038 25.1281 138.83 25.1281 138.625 25.1493C138.47 25.158 138.316 25.1752 138.163 25.201C138.141 25.3499 138.126 25.6629 138.111 26.1339C138.096 26.6049 138.089 27.1489 138.089 27.7718V28.6835C138.089 28.9266 138.089 29.1271 138.089 29.2912C138.089 29.4553 138.089 29.5678 138.089 29.6529V29.8078H138.374C138.515 29.8078 138.68 29.8078 138.867 29.8078L139.42 29.7744C139.576 29.7632 139.73 29.7418 139.882 29.7106C140.132 29.6582 140.371 29.5669 140.592 29.4401C140.772 29.3367 140.929 29.1982 141.054 29.0329C141.178 28.8623 141.275 28.6737 141.342 28.4738C141.419 28.2395 141.482 28.0011 141.531 27.7597H141.703V32.2115H141.531C141.449 31.8892 141.332 31.5764 141.183 31.2786C141.064 31.0113 140.899 30.7673 140.693 30.5584C140.531 30.4195 140.346 30.3095 140.145 30.2333C139.906 30.1428 139.654 30.0905 139.399 30.0783L139.044 30.057H138.105C138.08 30.2495 138.07 30.4435 138.074 30.6374V32.3331C138.074 32.485 138.074 32.637 138.074 32.7646C138.074 32.8922 138.074 33.0168 138.074 33.111C138.074 33.4149 138.099 33.6975 138.123 33.965C138.13 34.1775 138.187 34.3856 138.288 34.5727C138.449 34.7407 138.668 34.8417 138.9 34.8553C139.248 34.9132 139.6 34.9416 139.953 34.9404C140.115 34.9404 140.32 34.9404 140.565 34.9252C140.809 34.91 141.079 34.8918 141.354 34.8553C141.642 34.82 141.924 34.7464 142.192 34.6365C142.461 34.5198 142.71 34.3642 142.933 34.1746C143.189 33.9586 143.421 33.715 143.624 33.4483C143.877 33.118 144.107 32.7707 144.313 32.4091L144.472 32.4516L143.808 35.1167Z" fill="#AEC0CE"/>
<path d="M153.054 35.1165C152.971 35.0314 152.907 34.9676 152.87 34.9251L152.742 34.7792C152.696 34.7215 152.635 34.6394 152.564 34.53C152.494 34.4207 152.381 34.2596 152.231 34.0438C152.05 33.7795 151.891 33.5424 151.754 33.3297C151.616 33.117 151.475 32.9073 151.334 32.7007C151.194 32.494 151.028 32.2844 150.872 32.0716C150.716 31.8589 150.508 31.6219 150.282 31.3575C150.093 31.1402 149.889 30.9371 149.67 30.7498C149.471 30.5732 149.228 30.4517 148.966 30.3972C148.832 30.3664 148.694 30.3481 148.556 30.3425C148.471 30.3425 148.361 30.3425 148.229 30.3425V31.941C148.229 32.3907 148.229 32.7736 148.229 33.0836C148.229 33.3935 148.247 33.6457 148.26 33.8615C148.26 34.0518 148.314 34.2382 148.416 34.3994C148.531 34.5565 148.682 34.6845 148.856 34.7731C149.14 34.9185 149.455 34.9936 149.774 34.9919V35.1317H145.215V34.9919C145.449 34.9561 145.678 34.8991 145.901 34.8218C146.1 34.7587 146.277 34.6406 146.412 34.4814C146.468 34.4067 146.506 34.3205 146.525 34.2292C146.556 34.1034 146.577 33.9754 146.589 33.8463C146.604 33.7065 146.617 33.5424 146.626 33.3935C146.635 33.2446 146.626 33.0896 146.626 32.9286C146.626 32.7675 146.626 32.6247 146.626 32.3907C146.626 32.1567 146.626 31.9167 146.626 31.6492C146.626 31.3818 146.626 31.1053 146.626 30.8227V27.2338C146.626 27.0637 146.626 26.8904 146.626 26.7172C146.626 26.544 146.626 26.3769 146.598 26.2219C146.586 26.0795 146.562 25.9383 146.528 25.7995C146.507 25.6977 146.46 25.6028 146.393 25.523C146.264 25.3821 146.099 25.2773 145.916 25.2191C145.703 25.1593 145.486 25.1146 145.267 25.0854V24.9426H145.852C146.173 24.9426 146.54 24.9426 146.947 24.9426C147.354 24.9426 147.761 24.9426 148.171 24.9426H149.165C149.802 24.9426 150.365 24.9608 150.86 24.9973C151.332 25.0307 151.791 25.1611 152.209 25.3802C152.616 25.585 152.964 25.8894 153.219 26.2645C153.489 26.6824 153.623 27.1723 153.605 27.6684C153.61 27.9916 153.544 28.3121 153.412 28.6074C153.289 28.8818 153.116 29.1311 152.901 29.3428C152.681 29.5605 152.429 29.7439 152.154 29.8867C151.867 30.0396 151.567 30.1677 151.258 30.2696V30.3122C151.434 30.4075 151.592 30.5318 151.726 30.6799C151.886 30.8477 152.035 31.0264 152.17 31.2147C152.414 31.5733 152.684 31.9592 152.971 32.3725C153.259 32.7858 153.519 33.1565 153.748 33.4756C154.024 33.8898 154.37 34.2537 154.77 34.5513C155.122 34.7831 155.521 34.9327 155.939 34.9889V35.1287L153.054 35.1165ZM151.647 26.304C151.39 25.9215 151.031 25.6182 150.609 25.4288C150.38 25.3247 150.138 25.2491 149.89 25.2039C149.63 25.1544 149.366 25.13 149.101 25.131C148.902 25.131 148.74 25.131 148.618 25.131L148.333 25.1583C148.326 25.2085 148.316 25.2582 148.302 25.3072C148.292 25.3615 148.285 25.4163 148.281 25.4713C148.281 25.5351 148.281 25.6293 148.281 25.7448C148.281 25.8603 148.281 26.0305 148.26 26.2462C148.26 26.5774 148.241 26.9482 148.238 27.3645C148.235 27.7808 148.238 28.1789 148.238 28.58V30.1359C148.627 30.1359 148.988 30.1177 149.324 30.0842C149.656 30.0522 149.984 29.9839 150.3 29.8806C150.581 29.7971 150.846 29.6677 151.084 29.4978C151.292 29.3487 151.472 29.1646 151.616 28.9538C151.753 28.753 151.857 28.5313 151.922 28.2974C151.989 28.058 152.022 27.8105 152.02 27.562C152.021 27.1184 151.891 26.6842 151.647 26.3131V26.304Z" fill="#AEC0CE"/>
<path d="M163.135 33.5486C162.949 33.9047 162.687 34.216 162.367 34.4603C162.018 34.726 161.618 34.9183 161.192 35.0255C160.705 35.1536 160.203 35.216 159.699 35.2109C159.299 35.2161 158.899 35.1877 158.503 35.1258C158.223 35.082 157.947 35.0129 157.68 34.9191C157.51 34.8615 157.345 34.7893 157.187 34.7034C157.126 34.6575 157.056 34.6234 156.982 34.6031C156.955 34.6031 156.891 34.6578 156.796 34.7733C156.701 34.8887 156.615 34.9921 156.542 35.0984H156.413L156.37 32.2845H156.511C156.598 32.5408 156.708 32.7889 156.839 33.0259C156.969 33.2614 157.114 33.4887 157.273 33.7066C157.42 33.9083 157.587 34.0946 157.772 34.2627C157.923 34.4067 158.093 34.5303 158.277 34.6304C158.482 34.7334 158.696 34.8188 158.916 34.8857C159.164 34.9677 159.423 35.0107 159.684 35.0133C160.305 35.0418 160.915 34.8368 161.391 34.439C161.609 34.2459 161.782 34.0068 161.895 33.7392C162.008 33.4716 162.06 33.1822 162.046 32.8922C162.051 32.655 162.007 32.4193 161.917 32.1994C161.835 32.0076 161.717 31.8333 161.569 31.6858C161.416 31.5357 161.242 31.4088 161.052 31.309C160.843 31.2022 160.629 31.1078 160.409 31.0264C160.183 30.9444 159.984 30.8714 159.812 30.8167L159.335 30.6526L158.879 30.4976C158.723 30.446 158.537 30.3791 158.319 30.294C158.066 30.1956 157.826 30.0649 157.606 29.9051C157.149 29.5722 156.799 29.1153 156.597 28.5893C156.492 28.3167 156.439 28.0271 156.441 27.7354C156.429 27.2818 156.525 26.832 156.722 26.4226C156.902 26.0674 157.16 25.7561 157.475 25.5109C157.801 25.262 158.171 25.0774 158.567 24.967C158.991 24.849 159.43 24.7897 159.871 24.7907C160.239 24.7853 160.606 24.821 160.966 24.8971C161.221 24.9526 161.471 25.0309 161.712 25.1311C161.866 25.1941 162.014 25.2715 162.153 25.362C162.203 25.403 162.258 25.4386 162.315 25.4684C162.346 25.4684 162.404 25.4137 162.496 25.3013C162.587 25.1888 162.667 25.0734 162.743 24.9609H162.9V27.5773H162.743C162.624 27.261 162.477 26.9559 162.303 26.6657C162.129 26.3671 161.919 26.0915 161.676 25.8452C161.44 25.6064 161.166 25.4082 160.865 25.2587C160.551 25.1053 160.205 25.0282 159.855 25.0338C159.572 25.0282 159.289 25.0661 159.017 25.1463C158.765 25.226 158.533 25.3563 158.335 25.5292C158.137 25.7026 157.982 25.9175 157.879 26.1582C157.765 26.4284 157.708 26.7192 157.714 27.0121C157.702 27.2349 157.736 27.4577 157.815 27.6668C157.893 27.8759 158.014 28.0668 158.169 28.2276C158.505 28.5492 158.907 28.7949 159.347 28.9478C159.537 29.0208 159.715 29.0876 159.88 29.1454L160.369 29.3064L160.859 29.4705C161.024 29.5252 161.195 29.589 161.376 29.6529C161.961 29.8479 162.48 30.2028 162.872 30.6769C163.17 31.0922 163.351 31.5791 163.396 32.0872C163.442 32.5952 163.349 33.1061 163.129 33.5669L163.135 33.5486Z" fill="#AEC0CE"/>
<path d="M164.735 35.1165V34.9767C164.962 34.9421 165.184 34.8798 165.396 34.7914C165.597 34.7119 165.775 34.5858 165.916 34.4237C165.97 34.353 166.007 34.2708 166.023 34.1836C166.05 34.0623 166.07 33.9395 166.082 33.8159C166.082 33.6761 166.103 33.5272 166.109 33.3723C166.115 33.2173 166.109 33.0684 166.109 32.9134C166.109 32.7584 166.109 32.6095 166.109 32.3755C166.109 32.1415 166.109 31.9015 166.109 31.634C166.109 31.3666 166.109 31.0901 166.109 30.8075V26.7233C166.11 26.566 166.103 26.4088 166.088 26.2523C166.077 26.1181 166.056 25.9849 166.023 25.8542C166.004 25.7544 165.961 25.6606 165.898 25.5807C165.769 25.4228 165.598 25.3029 165.405 25.2343C165.192 25.1575 164.97 25.1075 164.744 25.0854V24.9426H168.997V25.0854C168.78 25.1171 168.566 25.169 168.358 25.2404C168.129 25.3168 167.94 25.4794 167.832 25.6932C167.739 25.8822 167.693 26.0906 167.697 26.3009C167.697 26.544 167.697 26.775 167.676 26.9938C167.654 27.2126 167.676 27.4617 167.676 27.6927C167.676 27.9236 167.676 28.1576 167.676 28.3916V33.1261C167.676 33.3996 167.676 33.6609 167.691 33.9162C167.682 34.1039 167.727 34.2902 167.819 34.4541C167.955 34.6301 168.144 34.7589 168.358 34.8218C168.574 34.8997 168.799 34.9517 169.028 34.9767V35.1165H164.735Z" fill="#AEC0CE"/>
<path d="M180.299 27.6017C180.218 27.42 180.127 27.2425 180.027 27.0699C179.923 26.8876 179.816 26.7143 179.721 26.5563C179.626 26.3983 179.504 26.2524 179.4 26.1096C179.32 26 179.23 25.8982 179.131 25.8057C178.95 25.6282 178.727 25.4995 178.482 25.432C178.191 25.3635 177.894 25.3278 177.595 25.3256H177.124C176.992 25.3256 176.857 25.3256 176.726 25.3256H175.787C175.787 25.5626 175.787 25.8817 175.787 26.2859C175.787 26.69 175.787 27.1155 175.787 27.5591V33.0837C175.787 33.3572 175.787 33.6185 175.808 33.8677C175.797 34.0882 175.866 34.3052 176.002 34.48C176.137 34.6548 176.331 34.776 176.548 34.8219C176.78 34.8914 177.015 34.9482 177.252 34.9921V35.1319H172.602V34.9921C172.843 34.9638 173.081 34.9161 173.314 34.8493C173.577 34.7613 173.809 34.5998 173.981 34.3843C174.038 34.3178 174.075 34.2367 174.088 34.1503C174.115 34.0289 174.134 33.9062 174.147 33.7826C174.147 33.6459 174.168 33.5 174.174 33.339C174.18 33.1779 174.174 33.0351 174.174 32.871C174.174 32.7069 174.174 32.5671 174.174 32.3483C174.174 32.1295 174.174 31.8925 174.174 31.6281C174.174 31.3637 174.174 31.0903 174.174 30.8107V25.3408H172.366C172.065 25.341 171.765 25.3839 171.476 25.4684C171.233 25.5502 171.013 25.6852 170.83 25.8635C170.731 25.9549 170.643 26.0568 170.567 26.1674C170.466 26.298 170.362 26.4409 170.261 26.5989C170.15 26.7606 170.048 26.928 169.955 27.1003C169.861 27.267 169.784 27.442 169.722 27.623L169.594 27.5804L170.031 24.8728C170.252 24.9214 170.451 24.9579 170.643 24.9853C170.91 25.0215 171.179 25.0408 171.448 25.043L172.415 25.0643C172.699 25.0643 172.975 25.0643 173.238 25.0643H175.943C176.227 25.0643 176.502 25.0643 176.769 25.0643H178.558C178.819 25.0603 179.079 25.0339 179.336 24.9853C179.549 24.9426 179.761 24.8889 179.969 24.8242L180.422 27.5804L180.299 27.6017Z" fill="#AEC0CE"/>
<path d="M189.261 25.2829C189.068 25.379 188.891 25.503 188.734 25.6506C188.564 25.8138 188.409 25.9929 188.272 26.1854C188.126 26.3951 187.967 26.6291 187.795 26.8935C187.682 27.0728 187.523 27.3159 187.318 27.6198L186.706 28.574C186.492 28.9052 186.287 29.2212 186.094 29.5221C185.901 29.8229 185.736 30.0599 185.623 30.2271V33.0684C185.623 33.3419 185.623 33.6093 185.644 33.8676C185.64 34.0575 185.686 34.2453 185.779 34.4115C185.91 34.6095 186.107 34.7548 186.336 34.8218C186.55 34.8843 186.768 34.936 186.987 34.9767V35.1165H182.591V34.9767C182.81 34.9527 183.026 34.9079 183.236 34.843C183.469 34.7482 183.673 34.5941 183.827 34.3963C183.884 34.3274 183.921 34.2444 183.934 34.1563C183.96 34.0309 183.979 33.904 183.989 33.7764C184.004 33.6336 184.014 33.4725 184.02 33.3236C184.026 33.1747 184.02 33.0197 184.02 32.8557C184.02 32.5913 184.035 32.2783 184.041 31.9167C184.047 31.555 184.041 31.1144 184.041 30.5948L183.873 30.3274C183.775 30.1754 183.662 29.99 183.524 29.7682C183.386 29.5464 183.233 29.3002 183.068 29.0267C182.903 28.7532 182.738 28.4889 182.579 28.2275L182.123 27.5013C181.979 27.2764 181.86 27.091 181.765 26.9512C181.584 26.6777 181.422 26.4285 181.275 26.2006C181.144 25.9946 180.993 25.8013 180.825 25.6233C180.693 25.4777 180.543 25.349 180.379 25.2404C180.227 25.1448 180.053 25.0913 179.874 25.0854V24.9426H184.197V25.0854C184.053 25.0854 183.913 25.1097 183.769 25.1279C183.633 25.1447 183.5 25.1752 183.371 25.2191C183.258 25.2532 183.153 25.3112 183.065 25.3893C183.024 25.428 182.992 25.4754 182.972 25.528C182.952 25.5806 182.944 25.6371 182.949 25.6932C182.975 25.8926 183.046 26.0837 183.157 26.2523C183.295 26.5015 183.438 26.7537 183.591 27.009C183.695 27.1761 183.818 27.3827 183.958 27.6167C184.099 27.8507 184.264 28.1121 184.43 28.3795C184.595 28.6469 184.772 28.9234 184.95 29.206C185.127 29.4886 185.286 29.7561 185.439 30.0113C185.562 29.832 185.715 29.6041 185.895 29.3276L186.443 28.4767C186.626 28.1911 186.804 27.9145 186.969 27.6502C187.134 27.3858 187.275 27.1791 187.345 27.0424C187.394 26.9664 187.446 26.8783 187.501 26.781C187.557 26.6838 187.615 26.5774 187.667 26.4772C187.718 26.3683 187.763 26.2567 187.801 26.1429C187.836 26.0451 187.856 25.9427 187.859 25.839C187.866 25.7112 187.825 25.5855 187.743 25.4865C187.664 25.3982 187.564 25.3304 187.452 25.289C187.326 25.2393 187.195 25.2036 187.061 25.1826L186.648 25.1188V24.976H189.934V25.1188C189.702 25.138 189.475 25.1934 189.261 25.2829Z" fill="#AEC0CE"/>
<path d="M122.725 6.54868L115.841 19.883H113.212L109.263 11.4837L105.31 19.883H102.684L95.7974 6.54868H100.209L103.93 14.6441L107.632 6.54868H110.89L114.592 14.6441L118.313 6.54868H122.725Z" fill="#AEC0CE"/>
<path d="M141.329 14.796H128.898V16.5889H141.828V19.883H125.141V6.54868H141.788V9.8458H128.898V11.6174H141.329V14.796Z" fill="#AEC0CE"/>
<path d="M170.805 6.54868L163.921 19.883H161.293L157.343 11.4837L153.39 19.883H150.765L143.878 6.54868H148.29L152.011 14.6441L155.713 6.54868H158.974L162.673 14.6441L166.397 6.54868H170.805Z" fill="#AEC0CE"/>
<path d="M189.411 14.796H176.983V16.5889H189.909V19.883H173.223V6.54868H189.87V9.8458H176.983V11.6174H189.411V14.796Z" fill="#AEC0CE"/>
</g>
</g>
<defs>
<filter id="filter0_d_113_321" x="36" y="0" width="157.934" height="48" filterUnits="userSpaceOnUse" color-interpolation-filters="sRGB">
<feFlood flood-opacity="0" result="BackgroundImageFix"/>
<feColorMatrix in="SourceAlpha" type="matrix" values="0 0 0 0 0 0 0 0 0 0 0 0 0 0 0 0 0 0 127 0" result="hardAlpha"/>
<feOffset dy="4"/>
<feGaussianBlur stdDeviation="2"/>
<feComposite in2="hardAlpha" operator="out"/>
<feColorMatrix type="matrix" values="0 0 0 0 0 0 0 0 0 0 0 0 0 0 0 0 0 0 0.25 0"/>
<feBlend mode="normal" in2="BackgroundImageFix" result="effect1_dropShadow_113_321"/>
<feBlend mode="normal" in="SourceGraphic" in2="effect1_dropShadow_113_321" result="shape"/>
</filter>
<clipPath id="clip0_113_321">
<rect width="230" height="40" fill="white"/>
</clipPath>
</defs>
</svg>
