<svg width="230" height="40" viewBox="0 0 230 40" fill="none" xmlns="http://www.w3.org/2000/svg">
<path d="M67.7765 6.67799C67.0792 7.10058 66.6144 7.54429 66.6144 7.77672C66.6144 8.13591 66.2974 8.22043 65.7692 8.03027C65.5368 7.94575 57.8457 12.235 57.8457 12.4463C57.8457 12.5308 58.4796 12.9534 59.2191 13.3971C60.339 14.0521 60.677 14.1578 61.0151 13.9676C61.4377 13.7563 61.4377 13.7986 61.4377 17.0736V20.412L62.7688 21.1516C63.4872 21.553 64.1422 21.9122 64.2268 21.9545C64.3113 21.9967 64.4169 19.7782 64.438 17.0102L64.5014 11.9814L66.4665 10.8193C68.2202 9.76287 68.3892 9.61497 68.0512 9.36141C67.8399 9.21351 67.692 8.98109 67.7342 8.87544C67.7553 8.74866 67.692 8.70641 67.5652 8.79092C67.2482 8.98109 66.4242 8.47398 66.6778 8.22043C66.9524 7.94575 68.2413 8.66415 68.0512 8.95996C67.9878 9.08673 68.03 9.10786 68.1357 9.04448C68.347 8.9177 70.2063 9.80513 70.3965 10.1432C70.4599 10.2277 69.2555 11.0095 67.7131 11.8758L64.924 13.4394L64.8606 15.1931C64.8184 16.1439 64.8395 16.9257 64.9029 16.9257C64.9663 16.9257 66.8679 15.827 69.171 14.4958C71.453 13.1647 73.418 12.066 73.5659 12.066C73.6927 12.066 74.8337 12.6576 76.1226 13.3549C78.0453 14.4324 78.489 14.6015 78.8271 14.4113C79.0384 14.2634 79.3131 14.2212 79.461 14.3057C79.6089 14.3902 79.6512 14.3691 79.5455 14.2845C79.461 14.1789 79.7779 13.8831 80.2428 13.6084C80.7076 13.3337 81.0879 13.0379 81.0879 12.9534C81.0668 12.8055 69.5725 6.08637 69.171 6.00185C69.0442 5.9596 68.4104 6.27654 67.7765 6.67799Z" fill="#AEC0CE"/>
<path d="M135.18 16.335C135.18 24.0261 135.222 24.9135 135.56 25.5685C136.215 26.8997 136.828 27.1744 139.321 27.2377L141.518 27.3223V25.5263V23.7092L140.737 23.6458L139.934 23.5824L139.828 15.7645L139.722 7.94669L137.462 7.8833L135.18 7.81991V16.335Z" fill="#AEC0CE"/>
<path d="M92.2012 12.8269C90.1939 13.4608 88.6303 14.8342 87.764 16.6936C87.4048 17.4965 87.3203 18.067 87.3203 19.9898C87.3203 22.1027 87.3626 22.4197 87.9119 23.5184C89.1374 26.0328 91.6096 27.5118 94.6311 27.5329C97.9695 27.5541 100.209 26.2652 101.583 23.5818C102.28 22.2295 102.322 22.0393 102.322 20.0109C102.322 18.1515 102.259 17.7289 101.752 16.6936C101.054 15.1512 99.7443 13.8623 98.223 13.165C96.7229 12.4677 93.8281 12.2987 92.2012 12.8269ZM96.2369 16.7147C97.2511 17.3275 97.6525 18.2572 97.6525 19.9898C97.6525 21.7224 97.2511 22.6521 96.2369 23.2648C94.8212 24.1311 93.0041 23.624 92.2434 22.145C91.673 21.0251 91.6941 18.9544 92.2646 17.8135C92.983 16.3978 94.8635 15.8696 96.2369 16.7147Z" fill="#AEC0CE"/>
<path d="M110.458 12.8272C110.056 12.9962 109.528 13.3343 109.274 13.5667L108.831 13.9893L108.852 13.3977L108.873 12.8061L106.612 12.7427L104.33 12.6793V19.99V27.3008L106.612 27.2374L108.873 27.174L108.936 22.4199C108.957 19.7365 109.084 17.4334 109.211 17.1165C109.781 15.6797 112.486 15.743 112.993 17.201C113.12 17.5602 113.204 19.7999 113.204 22.5467V27.2797H115.444H117.663L117.599 21.5114C117.536 16.06 117.515 15.7219 117.071 14.8979C116.479 13.7992 115.55 12.9962 114.514 12.7004C113.395 12.4046 111.324 12.4469 110.458 12.8272Z" fill="#AEC0CE"/>
<path d="M124.233 12.7849C122.247 13.44 120.641 15.1937 120.261 17.1165L120.134 17.7715H122.332H124.529L124.762 17.1165C124.931 16.6939 125.1 16.5248 125.269 16.6305C125.417 16.715 125.459 16.6939 125.374 16.546C125.184 16.229 125.903 15.8698 126.727 15.8698C127.889 15.8698 129.03 17.5602 128.058 17.856C127.846 17.9194 126.769 18.1095 125.67 18.3208C122.881 18.8068 121.613 19.3139 120.726 20.307C119.733 21.4057 119.416 22.6101 119.712 24.0891C120.198 26.3922 121.782 27.5332 124.508 27.5332C125.586 27.5121 126.367 27.3853 127.022 27.1106C127.53 26.8782 128.037 26.7514 128.121 26.8148C128.206 26.8993 128.227 26.8571 128.142 26.7514C128.079 26.6246 128.1 26.3922 128.227 26.2232C128.354 25.9908 128.417 26.0964 128.417 26.5824V27.2797H130.636H132.854V22.2509C132.854 18.511 132.77 16.9474 132.558 16.2079C131.861 13.8625 130.002 12.6582 126.959 12.5525C125.818 12.5103 124.804 12.5948 124.233 12.7849ZM128.417 21.9973C128.332 22.4622 128.142 22.9904 127.973 23.1806C127.318 23.9835 125.48 24.3638 124.593 23.899C124.022 23.582 124.043 22.3143 124.614 21.9973C125.057 21.7649 127.403 21.2155 128.121 21.1733C128.523 21.1522 128.565 21.2155 128.417 21.9973Z" fill="#AEC0CE"/>
<path d="M143.207 17.7722C143.207 20.5613 143.313 23.287 143.439 23.8786C143.735 25.2731 144.644 26.4775 145.827 27.048C147.158 27.703 149.651 27.7241 150.729 27.0902C151.131 26.8367 151.574 26.7099 151.701 26.7733C151.828 26.8578 151.87 26.8367 151.807 26.731C151.743 26.6043 151.764 26.393 151.891 26.2239C152.018 25.9915 152.081 26.0972 152.081 26.5831V27.2804H154.3H156.518V19.9908V12.7012H154.3H152.081V17.3496C152.081 22.2939 151.933 23.2024 151.067 23.6673C150.391 24.0265 149.018 23.942 148.489 23.5194C147.813 22.97 147.665 21.8079 147.644 16.9693V12.7012H145.426H143.207V17.7722Z" fill="#AEC0CE"/>
<path d="M157.998 12.848C157.998 12.9536 159.033 14.5806 160.301 16.4822L162.604 19.9263L160.386 23.3281C159.16 25.2086 158.125 26.8567 158.061 27.0046C157.977 27.2159 158.484 27.2793 160.386 27.2793H162.837L164.041 25.272C164.696 24.1733 165.309 23.2647 165.393 23.2647C165.478 23.2647 166.091 24.1733 166.746 25.272L167.95 27.2793H170.485C171.88 27.2793 173 27.2159 172.958 27.1103C172.936 27.0257 171.838 25.3777 170.528 23.4549L168.161 19.9263L170.591 16.44C171.922 14.4961 173 12.8691 173 12.8057C173 12.7423 171.859 12.7001 170.485 12.7001H167.971L166.661 14.813L165.351 16.9259L164.104 14.813L162.837 12.7001H160.428C159.097 12.7001 157.998 12.7635 157.998 12.848Z" fill="#AEC0CE"/>
<path d="M57 19.9703V27.0275L58.3734 27.7882C59.1341 28.2108 59.8102 28.5488 59.8525 28.5488C59.9158 28.5488 59.9581 27.4078 59.9581 25.9922C59.9581 24.323 60.0215 23.4989 60.1694 23.5834C60.2962 23.668 60.3384 23.8159 60.275 23.9215C60.2117 24.0272 60.275 24.0694 60.4229 24.006C60.5709 23.9426 61.7964 24.5554 63.1275 25.3583L65.5574 26.7951L66.973 26.0344C67.7548 25.6119 68.4098 25.1681 68.3887 25.0625C68.3887 24.9357 67.2055 24.1962 65.7687 23.3933C64.3319 22.5904 63.1909 21.8508 63.2543 21.7663C63.3177 21.6607 63.1909 21.6395 63.0007 21.7241C62.726 21.8297 62.6838 21.7874 62.8106 21.5762C62.9162 21.386 62.8951 21.3437 62.7472 21.4494C62.4302 21.6395 61.5851 21.0691 61.8175 20.8366C61.902 20.731 61.8386 20.731 61.6907 20.8155C61.5428 20.9 61.1202 20.7732 60.7188 20.5408L60.0004 20.0971L59.9158 17.3292C59.8525 15.1951 59.7679 14.519 59.5355 14.3711C59.3665 14.2865 58.7115 13.9062 58.1199 13.547L57 12.9131V19.9703Z" fill="#AEC0CE"/>
<path d="M71.3061 13.7784C70.7356 14.1164 70.2074 14.3489 70.1229 14.3066C70.0384 14.2432 69.975 14.3911 69.9538 14.6024C69.9327 14.8982 70.5032 15.3208 72.2358 16.2928C73.5036 17.0111 74.4755 17.6873 74.4121 17.8141C74.3487 17.9197 74.1586 17.962 73.9895 17.8986C73.736 17.7929 73.6937 18.5958 73.6937 22.8006L73.6726 27.8082L71.2639 29.2661L68.834 30.7029V32.2665C68.834 33.1328 68.8974 33.8301 69.003 33.8301C69.2988 33.8301 81.1946 26.9419 81.1524 26.794C81.1101 26.7095 81.089 25.9911 81.089 25.1882C81.089 24.0895 81.0045 23.7091 80.772 23.6035C80.603 23.5401 80.4762 23.6035 80.5185 23.7514C80.5396 23.8993 80.3917 23.9838 80.2016 23.9838C79.9903 23.9627 79.8635 24.0049 79.9269 24.0895C79.9903 24.2162 77.7294 25.5896 76.8209 25.97C76.7152 26.0122 76.6518 24.5754 76.6518 22.7583V19.4621L75.4686 18.8071C74.7079 18.3634 74.3699 18.0676 74.4966 17.9408C74.6445 17.7929 75.0037 17.8986 75.5742 18.2366C76.0602 18.5325 76.3771 18.8071 76.3138 18.8705C76.2504 18.9339 76.3349 18.9762 76.4828 18.9762C76.6307 18.955 77.1167 19.1241 77.5604 19.3565L78.3422 19.758V22.0188C78.3422 24.0895 78.3844 24.2796 78.7648 24.3853C78.9761 24.4487 79.1451 24.4064 79.124 24.3008C79.1028 24.1951 79.5677 23.8359 80.1382 23.519L81.1946 22.9485L81.258 18.3846L81.3003 13.7995L80.7932 13.8418C80.5185 13.8418 80.3283 13.9474 80.4128 14.053C80.4762 14.1587 80.3706 14.1798 80.1593 14.1164C79.948 14.0319 79.8424 14.053 79.9269 14.1798C80.0748 14.4334 79.2507 14.8771 78.9338 14.6869C78.7859 14.5813 78.7648 14.6235 78.8704 14.8137C78.9972 15.0039 78.9549 15.0673 78.7436 14.9827C78.5112 14.8982 78.4056 15.0461 78.3844 15.511C78.3422 15.8702 78.2999 16.1871 78.2577 16.2294C78.2154 16.2716 76.9476 15.5955 75.4475 14.7081C73.9473 13.8418 72.6161 13.1234 72.5105 13.1445C72.4048 13.1445 71.8555 13.4403 71.3061 13.7784Z" fill="#AEC0CE"/>
<path d="M70.5652 24.4494C69.1284 25.3157 67.8395 25.9496 67.7127 25.865C67.586 25.7805 67.5648 25.8439 67.6705 26.0129C67.7972 26.2242 67.755 26.2665 67.5014 26.1608C67.2901 26.0763 67.1634 26.1186 67.2056 26.2876C67.2268 26.4355 67.0789 26.52 66.8887 26.52C66.6774 26.4989 66.5717 26.5834 66.6563 26.7102C66.7408 26.837 66.6563 26.8792 66.4238 26.7947C66.2125 26.7102 66.1069 26.7313 66.1914 26.8581C66.2548 26.9638 65.9379 27.2384 65.473 27.492L64.6279 27.9146L62.684 26.8581C61.6064 26.2665 60.6555 25.8017 60.5499 25.8017C60.4654 25.8017 60.3809 26.4989 60.3809 27.3652V28.9288L64.2898 31.1685C66.4238 32.394 68.241 33.4082 68.3044 33.4082C68.3677 33.4082 68.41 32.6475 68.41 31.7179C68.41 30.3445 68.3466 30.0064 68.0508 29.8373C67.8395 29.7317 67.7127 29.6049 67.7761 29.5415C67.8395 29.4993 69.0861 28.7598 70.5863 27.9146L73.2697 26.3721V24.6184C73.2697 23.6465 73.2486 22.8435 73.2275 22.8647C73.1852 22.8647 71.9809 23.5831 70.5652 24.4494Z" fill="#AEC0CE"/>
</svg>
