<svg width="45" height="45" viewBox="0 0 45 45" fill="none" xmlns="http://www.w3.org/2000/svg">
<g clip-path="url(#clip0_318_7)">
<path opacity="0.25" d="M44 22.5C44 34.3741 34.3741 44 22.5 44C10.6259 44 1 34.3741 1 22.5C1 10.6259 10.6259 1 22.5 1C34.3741 1 44 10.6259 44 22.5Z" stroke="white" stroke-width="2"/>
<path d="M22.308 20.6056C22.2947 25.7957 22.3107 25.384 22.0838 25.8237C21.8836 26.2126 21.5819 26.4998 21.1787 26.6904C20.8397 26.848 20.6555 26.8887 20.271 26.8887C19.8972 26.8887 19.7077 26.848 19.39 26.7006C18.9868 26.5099 18.6611 26.2024 18.4689 25.8237C18.3141 25.5161 18.2713 25.3408 18.2713 24.9849C18.2687 24.6164 18.3114 24.4461 18.4876 24.108C18.5917 23.9047 18.6478 23.831 18.8534 23.6378C19.1177 23.3862 19.3606 23.2464 19.7104 23.1422C19.9667 23.0659 20.3911 23.0481 20.6581 23.1015C20.7676 23.1244 20.8744 23.1422 20.8931 23.1422C20.9171 23.1422 20.9251 22.9109 20.9251 22.0772V21.0097L20.7996 20.9894C20.7275 20.9792 20.4792 20.9716 20.2443 20.9716C19.5582 20.9741 19.0162 21.091 18.4235 21.363C16.0795 22.4356 15.2839 25.1527 16.7122 27.2038C16.9605 27.5597 17.4944 28.0705 17.8549 28.2993C18.9708 29.0033 20.3137 29.1864 21.5925 28.8051C22.7379 28.4645 23.7604 27.5724 24.2223 26.515C24.3397 26.2405 24.4305 25.9381 24.4919 25.6203C24.5346 25.3865 24.5373 25.1679 24.532 22.8168C24.5266 21.4164 24.532 20.2701 24.5426 20.2701C24.5533 20.2701 24.6067 20.3031 24.6601 20.3438C24.9591 20.57 25.5678 20.8775 26.0297 21.0427C26.5503 21.2257 27.2872 21.363 27.7597 21.363H28L27.9947 20.3133L27.9867 19.2661L27.7277 19.2508C26.9107 19.2 26.1659 18.8747 25.5545 18.3002C24.9565 17.7411 24.6067 17.0243 24.54 16.2211L24.5213 16H23.4213H22.3187L22.308 20.6056Z" fill="white"/>
</g>
<defs>
<clipPath id="clip0_318_7">
<rect width="45" height="45" fill="white"/>
</clipPath>
</defs>
</svg>
