<svg width="45" height="45" viewBox="0 0 45 45" fill="none" xmlns="http://www.w3.org/2000/svg">
<g clip-path="url(#clip0_318_20)">
<path opacity="0.25" d="M44 22.5C44 34.3741 34.3741 44 22.5 44C10.6259 44 1 34.3741 1 22.5C1 10.6259 10.6259 1 22.5 1C34.3741 1 44 10.6259 44 22.5Z" stroke="white" stroke-width="2"/>
<path d="M21.5971 15.044C18.1515 15.4697 15.4414 18.2361 15.0846 21.6911C15.0314 22.2012 15.0627 23.1713 15.1503 23.6627C15.2849 24.4356 15.5102 25.1179 15.8607 25.8157L16.036 26.1663L15.5134 28.0784C15.2254 29.133 14.9939 29.9967 15.0001 29.9999C15.0064 30.0061 15.8826 29.7777 16.9498 29.496C18.502 29.0861 18.9057 28.989 18.9683 29.0141C19.0121 29.0297 19.2155 29.1205 19.4221 29.2144C20.0918 29.5179 20.7959 29.7182 21.5376 29.8184C22.054 29.8872 22.9584 29.8872 23.4591 29.8184C25.1052 29.5868 26.573 28.8607 27.7309 27.7028C28.338 27.0988 28.7417 26.5449 29.1235 25.7907C29.4678 25.1116 29.7119 24.3699 29.8496 23.5876C29.9278 23.1306 29.9278 21.7818 29.8496 21.303C29.715 20.4925 29.5053 19.8447 29.1517 19.128C28.1409 17.0907 26.2757 15.6386 24.0443 15.1536C23.3496 15.0034 22.3137 14.9564 21.5971 15.044ZM23.553 16.3397C24.4512 16.5055 25.196 16.8059 25.9314 17.2973C27.1895 18.1391 28.1127 19.4441 28.4788 20.8899C28.748 21.954 28.7261 23.1619 28.4225 24.1853C27.928 25.8377 26.7545 27.2303 25.2148 27.9814C24.3197 28.4195 23.4936 28.6104 22.489 28.6104C21.3373 28.6104 20.3203 28.3319 19.2781 27.731L19.1029 27.6309L17.9512 27.9344C17.3191 28.1003 16.7933 28.2317 16.7902 28.2255C16.7839 28.2192 16.9122 27.7247 17.0781 27.1239C17.2408 26.523 17.3785 26.0098 17.3785 25.9847C17.3817 25.9566 17.3003 25.8001 17.2002 25.6374C15.723 23.2339 16.1111 20.0669 18.1234 18.064C19.1248 17.0688 20.3954 16.4554 21.8162 16.2802C22.2011 16.2333 23.1587 16.2677 23.553 16.3397Z" fill="white"/>
<path d="M19.5665 19.0729C19.3882 19.1605 19.0564 19.5517 18.9187 19.8396C18.6465 20.4029 18.6527 21.1164 18.9344 21.7736C19.2786 22.5842 20.183 23.7358 21.0749 24.4994C21.7008 25.0346 22.2235 25.3506 22.9902 25.6511C23.7757 25.9578 23.9259 25.9922 24.4454 25.9922C24.8554 25.9922 24.9211 25.9859 25.1089 25.914C25.4218 25.795 25.6565 25.6479 25.8881 25.4195C26.0696 25.2411 26.1072 25.1848 26.1666 24.997C26.2386 24.7592 26.2824 24.3805 26.248 24.2491C26.2323 24.1802 26.1416 24.1239 25.6972 23.9017C24.8835 23.4949 24.5549 23.354 24.4172 23.354C24.3014 23.354 24.2827 23.3665 24.145 23.5481C23.8289 23.9643 23.5379 24.2866 23.4627 24.3054C23.372 24.3273 23.1936 24.2616 22.7836 24.055C22.1171 23.7233 21.5757 23.2758 21.1094 22.6781C20.8559 22.3526 20.6274 21.9833 20.6274 21.8957C20.6274 21.8613 20.7463 21.6766 20.8903 21.4889C21.172 21.1227 21.2533 20.985 21.2533 20.8817C21.2533 20.8473 21.1907 20.6752 21.1188 20.4968C21.0437 20.3216 20.8934 19.9585 20.7839 19.6925C20.6462 19.3608 20.5523 19.1762 20.4835 19.1042L20.3833 19.004H20.0453C19.7606 19.004 19.6823 19.0166 19.5665 19.0729Z" fill="white"/>
</g>
<defs>
<clipPath id="clip0_318_20">
<rect width="45" height="45" fill="white"/>
</clipPath>
</defs>
</svg>
