<svg width="264" height="250" viewBox="0 0 264 250" fill="none" xmlns="http://www.w3.org/2000/svg">
<path fill-rule="evenodd" clip-rule="evenodd" d="M262.821 117.362C265.541 153.164 238.348 183.103 212.32 207.695C187.267 231.366 156.835 249.385 122.458 249.98C87.5246 250.585 52.5329 237.222 29.4439 210.863C7.49389 185.804 8.2602 150.692 6.29236 117.362C4.12909 80.7213 -9.44898 36.5988 17.7065 12.0616C44.7023 -12.3313 86.5711 6.91362 122.458 12.3965C150.483 16.6782 176.825 22.839 199.569 39.8469C227.298 60.5829 260.189 82.7213 262.821 117.362Z" fill="white"/>
<path d="M67.5186 44.6251H110.506V93.7537H67.5186V44.6251Z" fill="#EBEBFF"/>
<path d="M74.8048 180.165L79.34 175.63C81.56 173.41 82.7391 170.462 82.7913 167.447H42.9541V195.081H73.6595V179.729L74.8048 180.165Z" fill="#EBEBFF"/>
<path d="M85.9417 136.741H92.0827V142.882H85.9417V136.741Z" fill="#020054"/>
<path d="M98.2239 136.741H104.365V142.882H98.2239V136.741Z" fill="#020054"/>
<path d="M73.6594 136.741H79.8005V142.882H73.6594V136.741Z" fill="#020054"/>
<path d="M67.5186 41.5546H110.506V47.6956H67.5186V41.5546Z" fill="#020054"/>
<path d="M67.5186 53.8367H110.506V59.9777H67.5186V53.8367Z" fill="#020054"/>
<path d="M67.5186 66.1189H110.506V72.26H67.5186V66.1189Z" fill="#020054"/>
<path d="M67.5186 78.401H79.8007V84.5421H67.5186V78.401Z" fill="#020054"/>
<path d="M85.9417 78.401H110.506V84.5421H85.9417V78.401Z" fill="#020054"/>
<path d="M67.5186 90.6831H110.506V96.8242H67.5186V90.6831Z" fill="#020054"/>
<path d="M42.9541 188.94H49.0952V195.082H42.9541V188.94Z" fill="#020054"/>
<path d="M55.2363 188.94H61.3774V195.082H55.2363V188.94Z" fill="#020054"/>
<path d="M67.5186 188.94H73.6596V195.082H67.5186V188.94Z" fill="#020054"/>
<path d="M144.282 72.26C145.978 72.26 147.353 70.8852 147.353 69.1894C147.353 67.4936 145.978 66.1189 144.282 66.1189C142.586 66.1189 141.211 67.4936 141.211 69.1894C141.211 70.8852 142.586 72.26 144.282 72.26Z" fill="#020054"/>
<path d="M96.5166 181.436C95.7306 181.436 94.9445 181.737 94.3457 182.336C93.1452 183.536 93.1452 185.48 94.3457 186.677C94.9445 187.276 95.7306 187.577 96.5166 187.577C97.3027 187.577 98.0887 187.276 98.6875 186.677C99.8881 185.477 99.8881 183.533 98.6875 182.336C98.0887 181.737 97.3027 181.436 96.5166 181.436Z" fill="#020054"/>
<path d="M144.282 207.364C145.978 207.364 147.353 205.989 147.353 204.293C147.353 202.597 145.978 201.223 144.282 201.223C142.586 201.223 141.211 202.597 141.211 204.293C141.211 205.989 142.586 207.364 144.282 207.364Z" fill="#020054"/>
<path d="M192.047 181.436C191.261 181.436 190.475 181.737 189.876 182.336C188.676 183.536 188.676 185.48 189.876 186.677C190.475 187.276 191.261 187.577 192.047 187.577C192.833 187.577 193.619 187.276 194.218 186.677C195.419 185.477 195.419 183.533 194.218 182.336C193.619 181.737 192.833 181.436 192.047 181.436Z" fill="#020054"/>
<path d="M211.834 139.812C213.53 139.812 214.904 138.437 214.904 136.741C214.904 135.045 213.53 133.671 211.834 133.671C210.138 133.671 208.763 135.045 208.763 136.741C208.763 138.437 210.138 139.812 211.834 139.812Z" fill="#020054"/>
<path d="M192.047 85.9055C191.261 85.9055 190.475 86.2064 189.876 86.8052C188.676 88.0058 188.676 89.9494 189.876 91.1469C190.475 91.7457 191.261 92.0466 192.047 92.0466C192.833 92.0466 193.619 91.7457 194.218 91.1469C195.419 89.9463 195.419 88.0027 194.218 86.8052C193.619 86.2034 192.833 85.9055 192.047 85.9055Z" fill="#020054"/>
<path d="M217.701 158.235H227.186V115.248H217.701C214.121 115.248 210.925 113.107 209.497 109.644C208.121 106.328 208.864 102.551 211.395 100.024L218.101 93.3177L187.705 62.9225L180.999 69.6285C178.469 72.1587 174.699 72.9048 171.229 71.4647C167.916 70.0953 165.776 66.8988 165.776 63.3217V53.8368H128.929V35.4135C128.929 32.0267 126.175 29.2725 122.788 29.2725H55.2362C51.8494 29.2725 49.0951 32.0267 49.0951 35.4135V81.9782L39.9449 87.1275C38.0136 88.2145 36.813 90.2656 36.813 92.4795V152.094C36.813 155.481 39.5673 158.235 42.9541 158.235H70.8622C74.4424 158.235 77.6389 160.375 79.0667 163.839C79.1404 164.017 79.1833 164.198 79.2448 164.376H42.9541V170.517H79.0943C78.6614 171.595 78.0257 172.602 77.1691 173.459L73.9696 176.658H42.9541V182.799H73.0945L100.858 210.563L107.564 203.857C110.094 201.33 113.871 200.584 117.335 202.021C120.648 203.387 122.788 206.584 122.788 210.161V219.646H165.776V210.161C165.776 206.581 167.916 203.384 171.382 201.956C174.692 200.578 178.469 201.324 180.999 203.854L187.705 210.56L218.101 180.165L211.395 173.459C208.864 170.929 208.121 167.152 209.558 163.688C210.928 160.375 214.124 158.235 217.701 158.235ZM135.07 95.9338V148.099L100.195 115.552L135.07 95.9338ZM128.929 92.3413V89.0251L131.877 90.6832L128.929 92.3413ZM141.211 152.094V96.9471C142.234 96.8704 143.259 96.8243 144.282 96.8243C166.291 96.8243 184.199 114.732 184.199 136.741C184.199 158.751 166.291 176.658 144.282 176.658C130.639 176.658 117.94 169.559 110.666 158.235H135.07C138.457 158.235 141.211 155.481 141.211 152.094ZM103.57 158.235C111.501 173.21 127.253 182.799 144.282 182.799C169.678 182.799 190.34 162.138 190.34 136.741C190.34 111.345 169.678 90.6832 144.282 90.6832C143.179 90.6832 142.071 90.7231 140.969 90.803C140.53 89.2677 139.51 87.932 138.082 87.1275L135.003 85.3958C138.049 84.8461 141.147 84.5421 144.282 84.5421C173.065 84.5421 196.481 107.958 196.481 136.741C196.481 165.525 173.065 188.94 144.282 188.94C123.675 188.94 105.086 176.766 96.71 158.235H103.57ZM122.788 35.4135V95.7957L95.362 111.222C91.6436 108.581 86.3807 108.581 82.6623 111.222L55.2362 95.7957V35.4135H122.788ZM77.8292 115.552L42.9541 148.099V95.9338L77.8292 115.552ZM49.0951 92.3413L46.1474 90.6832L49.0951 89.0251V92.3413ZM47.6735 152.094L85.7942 116.516C87.5444 114.879 90.4799 114.879 92.2331 116.516L130.354 152.094H47.6735ZM207.053 177.801L209.417 180.165L187.705 201.877L185.341 199.512C181.048 195.22 174.649 193.952 168.886 196.344C163.267 198.662 159.635 204.084 159.635 210.161V213.505H128.929V210.161C128.929 204.084 125.297 198.662 119.539 196.285C113.923 193.952 107.518 195.217 103.223 199.512L100.858 201.877L79.1465 180.165L81.5108 177.801C85.8034 173.508 87.0716 167.103 84.6796 161.346C84.2129 160.216 83.5926 159.19 82.8956 158.235H90.0807C98.8532 180.352 120.335 195.082 144.282 195.082C176.452 195.082 202.622 168.911 202.622 136.741C202.622 104.571 176.452 78.4011 144.282 78.4011C139.056 78.4011 133.916 79.1288 128.929 80.486V59.9778H159.635V63.3217C159.635 69.3983 163.267 74.8208 169.024 77.1974C174.64 79.531 181.048 78.2598 185.341 73.9703L187.705 71.606L209.417 93.3177L207.053 95.6821C202.76 99.9747 201.492 106.38 203.884 112.137C206.202 117.759 211.625 121.389 217.701 121.389H221.045V152.094H217.701C211.625 152.094 206.202 155.726 203.826 161.484C201.492 167.103 202.76 173.508 207.053 177.801Z" fill="#020054"/>
</svg>
