<svg width="263" height="250" viewBox="0 0 263 250" fill="none" xmlns="http://www.w3.org/2000/svg">
<path fill-rule="evenodd" clip-rule="evenodd" d="M261.831 117.362C264.551 153.164 237.358 183.103 211.33 207.695C186.277 231.366 155.845 249.385 121.468 249.98C86.5343 250.585 51.5427 237.222 28.4536 210.863C6.50366 185.804 7.26997 150.692 5.30213 117.362C3.13886 80.7213 -10.4392 36.5988 16.7162 12.0616C43.712 -12.3313 85.5809 6.91362 121.468 12.3965C149.492 16.6782 175.835 22.839 198.578 39.8469C226.307 60.5829 259.199 82.7213 261.831 117.362Z" fill="white"/>
<path d="M177.068 201.223C160.137 201.223 146.363 187.448 146.363 170.517C146.363 153.586 160.137 139.812 177.068 139.812C193.999 139.812 207.774 153.586 207.774 170.517C207.774 187.448 193.999 201.223 177.068 201.223ZM177.068 155.165C168.603 155.165 161.715 162.052 161.715 170.517C161.715 178.983 168.603 185.87 177.068 185.87C185.534 185.87 192.421 178.983 192.421 170.517C192.421 162.052 185.534 155.165 177.068 155.165Z" fill="#EBEBFF"/>
<path d="M48.105 63.0483H103.375V106.036H48.105V63.0483Z" fill="#EBEBFF"/>
<path d="M177.067 152.094C166.907 152.094 158.644 160.357 158.644 170.517C158.644 180.678 166.907 188.94 177.067 188.94C187.228 188.94 195.49 180.678 195.49 170.517C195.49 160.357 187.228 152.094 177.067 152.094ZM177.067 182.799C170.294 182.799 164.785 177.291 164.785 170.517C164.785 163.744 170.294 158.235 177.067 158.235C183.841 158.235 189.349 163.744 189.349 170.517C189.349 177.291 183.841 182.799 177.067 182.799Z" fill="#020054"/>
<path d="M207.773 132.228V72.0143C218.173 70.5159 226.196 61.5714 226.196 50.7662C226.196 38.917 216.555 29.2725 204.702 29.2725C192.85 29.2725 183.209 38.917 183.209 50.7662H35.8228V173.588H128.095C129.692 199.245 151.017 219.646 177.067 219.646C204.156 219.646 226.196 197.605 226.196 170.517C226.196 155.045 218.99 141.24 207.773 132.228ZM204.702 35.4135C213.168 35.4135 220.055 42.3008 220.055 50.7662C220.055 59.2317 213.168 66.1189 204.702 66.1189C196.237 66.1189 189.35 59.2317 189.35 50.7662C189.35 42.3008 196.237 35.4135 204.702 35.4135ZM128.095 167.447H41.9638V56.9073H184.114C184.848 59.3576 186.015 61.6144 187.513 63.6164L168.734 82.3958C167.53 81.8186 166.204 81.4716 164.785 81.4716C163.367 81.4716 162.04 81.8186 160.84 82.3958L154.653 76.2087C155.227 75.0051 155.574 73.6786 155.574 72.26C155.574 67.1813 151.441 63.0484 146.362 63.0484C141.283 63.0484 137.151 67.1813 137.151 72.26C137.151 73.6786 137.497 75.0051 138.075 76.2056L122.676 91.6044C121.472 91.0302 120.146 90.6832 118.727 90.6832C113.649 90.6832 109.516 94.8162 109.516 99.8948C109.516 104.974 113.649 109.106 118.727 109.106C123.806 109.106 127.939 104.974 127.939 99.8948C127.939 98.4762 127.592 97.1498 127.015 95.9492L142.413 80.5504C143.617 81.1246 144.944 81.4716 146.362 81.4716C147.781 81.4716 149.107 81.1246 150.308 80.5474L156.495 86.7345C155.921 87.9382 155.574 89.2646 155.574 90.6832C155.574 95.7619 159.707 99.8948 164.785 99.8948C169.864 99.8948 173.997 95.7619 173.997 90.6832C173.997 89.2646 173.65 87.9382 173.073 86.7376L191.855 67.9582C194.665 70.0646 197.999 71.4924 201.632 72.0174V128.039C194.395 123.836 186.021 121.389 177.067 121.389C162.39 121.389 149.23 127.892 140.221 138.132V124.459H121.798V161.306H128.835C128.452 163.311 128.224 165.365 128.095 167.447ZM167.856 90.6832C167.856 92.3782 166.477 93.7538 164.785 93.7538C163.093 93.7538 161.715 92.3782 161.715 90.6832C161.715 88.9883 163.093 87.6127 164.785 87.6127C166.477 87.6127 167.856 88.9883 167.856 90.6832ZM149.433 72.26C149.433 73.9549 148.054 75.3305 146.362 75.3305C144.67 75.3305 143.292 73.9549 143.292 72.26C143.292 70.5651 144.67 69.1895 146.362 69.1895C148.054 69.1895 149.433 70.5651 149.433 72.26ZM121.798 99.8948C121.798 101.59 120.419 102.965 118.727 102.965C117.035 102.965 115.657 101.59 115.657 99.8948C115.657 98.1999 117.035 96.8243 118.727 96.8243C120.419 96.8243 121.798 98.1999 121.798 99.8948ZM127.939 155.165V130.6H134.08V146.785C132.609 149.438 131.393 152.241 130.429 155.165H127.939ZM215.689 189.269L205.037 183.119C204.186 185.001 203.149 186.773 201.954 188.431L212.649 194.606C204.911 206.003 191.849 213.505 177.067 213.505C162.286 213.505 149.224 206.003 141.486 194.606L152.181 188.431C150.983 186.773 149.949 184.998 149.098 183.119L138.446 189.269C135.677 183.595 134.08 177.245 134.08 170.517C134.08 147.85 151.726 129.271 173.997 127.686V139.968C175.007 139.867 176.03 139.812 177.067 139.812C178.105 139.812 179.128 139.867 180.138 139.968V127.686C202.409 129.271 220.055 147.85 220.055 170.517C220.055 177.245 218.458 183.595 215.689 189.269Z" fill="#020054"/>
<path d="M48.105 63.0483H54.2461V69.1894H48.105V63.0483Z" fill="#020054"/>
<path d="M60.3872 63.0483H103.375V69.1894H60.3872V63.0483Z" fill="#020054"/>
<path d="M48.105 75.3306H54.2461V81.4716H48.105V75.3306Z" fill="#020054"/>
<path d="M60.3872 75.3306H103.375V81.4716H60.3872V75.3306Z" fill="#020054"/>
<path d="M48.105 87.6127H54.2461V93.7537H48.105V87.6127Z" fill="#020054"/>
<path d="M60.3872 87.6127H103.375V93.7537H60.3872V87.6127Z" fill="#020054"/>
<path d="M48.105 99.8948H54.2461V106.036H48.105V99.8948Z" fill="#020054"/>
<path d="M60.3872 99.8948H103.375V106.036H60.3872V99.8948Z" fill="#020054"/>
<path d="M48.105 161.306H66.5282V130.6H48.105V161.306ZM54.2461 136.741H60.3871V155.165H54.2461V136.741Z" fill="#020054"/>
<path d="M72.6694 161.306H91.0927V136.741H72.6694V161.306ZM78.8105 142.882H84.9516V155.165H78.8105V142.882Z" fill="#020054"/>
<path d="M97.2334 161.306H115.657V112.177H97.2334V161.306ZM103.374 118.318H109.516V155.165H103.374V118.318Z" fill="#020054"/>
</svg>
