<svg width="263" height="250" viewBox="0 0 263 250" fill="none" xmlns="http://www.w3.org/2000/svg">
<path fill-rule="evenodd" clip-rule="evenodd" d="M261.831 117.362C264.551 153.164 237.358 183.103 211.33 207.695C186.277 231.366 155.845 249.385 121.468 249.98C86.5343 250.585 51.5427 237.222 28.4536 210.863C6.50366 185.804 7.26997 150.692 5.30213 117.362C3.13886 80.7213 -10.4392 36.5988 16.7162 12.0616C43.712 -12.3313 85.5809 6.91362 121.468 12.3965C149.492 16.6782 175.835 22.839 198.578 39.8469C226.307 60.5829 259.199 82.7213 261.831 117.362Z" fill="white"/>
<g clip-path="url(#clip0_210_215)">
<path d="M111.992 89.5938H131.009V184.681H111.992V89.5938Z" fill="#EBEBFF"/>
<path d="M184.893 127.629H207.08V146.646H184.893V127.629Z" fill="#EBEBFF"/>
<path d="M92.9746 222.716H42.2612C37.0193 222.716 32.7524 218.449 32.7524 213.208V187.851C32.7524 182.609 37.0193 178.342 42.2612 178.342H63.7008L92.9746 163.704V178.342C98.2165 178.342 102.483 182.609 102.483 187.851V213.208C102.483 218.449 98.2165 222.716 92.9746 222.716Z" fill="#EBEBFF"/>
<path d="M213.418 111.781H207.079C182.826 111.781 159.339 104.671 139.154 91.2172L131.97 86.4242H108.822V114.57L83.6075 79.2678L78.4507 82.9497L108.822 125.473V127.629H92.7928V133.968H108.822V187.851H131.97L139.157 183.058C150.819 175.284 163.605 169.702 176.986 166.311C177.944 167.476 178.553 168.546 178.553 170.428C178.553 172.789 177.609 173.851 176.185 175.457C174.509 177.344 172.214 179.924 172.214 184.697C172.214 189.467 174.509 192.048 176.185 193.933C177.612 195.54 178.553 196.598 178.553 198.96C178.553 201.316 177.612 202.374 176.185 203.974C174.512 205.861 172.214 208.438 172.214 213.208C172.214 218.45 176.48 222.716 181.722 222.716H194.401C199.643 222.716 203.909 218.45 203.909 213.208V162.612C204.968 162.582 206.017 162.494 207.079 162.494H213.418C222.156 162.494 229.266 155.384 229.266 146.646V127.629C229.266 118.891 222.156 111.781 213.418 111.781ZM178.553 159.349V149.816H203.909V156.273C195.32 156.482 186.828 157.474 178.553 159.349ZM203.909 143.477H178.553V130.798H203.909V143.477ZM203.909 124.459H178.553V114.926C186.828 116.801 195.32 117.793 203.909 118.002V124.459ZM135.639 177.785L130.048 181.512H115.161V92.7633H130.048L135.639 96.4901C146.968 104.044 159.308 109.631 172.214 113.26V161.018C159.308 164.644 146.968 170.231 135.639 177.785ZM197.57 213.208C197.57 214.956 196.149 216.377 194.401 216.377H181.722C179.973 216.377 178.553 214.956 178.553 213.208C178.553 210.852 179.494 209.79 180.921 208.19C182.597 206.304 184.892 203.727 184.892 198.96C184.892 194.19 182.597 191.61 180.921 189.724C179.494 188.117 178.553 187.059 178.553 184.697C178.553 182.335 179.497 181.273 180.921 179.667C182.597 177.782 184.892 175.2 184.892 170.428C184.892 168.098 184.344 166.295 183.589 164.833C188.198 163.934 192.858 163.239 197.57 162.878V213.208ZM222.927 146.646C222.927 151.888 218.66 156.155 213.418 156.155H210.249V118.12H213.418C218.66 118.12 222.927 122.387 222.927 127.629V146.646Z" fill="#020054"/>
<path d="M64.4483 89.5936C46.9707 89.5936 32.7524 75.3754 32.7524 57.8978C32.7524 40.4202 46.9707 26.2019 64.4483 26.2019C81.9259 26.2019 96.1442 40.4202 96.1442 57.8978C96.1442 75.3754 81.9259 89.5936 64.4483 89.5936Z" fill="#EBEBFF"/>
<path d="M64.4483 159.324C46.9707 159.324 32.7524 145.106 32.7524 127.629C32.7524 110.151 46.9707 95.9327 64.4483 95.9327C81.9259 95.9327 96.1442 110.151 96.1442 127.629C96.1442 145.106 81.9259 159.324 64.4483 159.324Z" fill="#EBEBFF"/>
<path d="M51.7705 76.4974V39.2981L79.6731 57.8977L51.7705 76.4974ZM58.1097 51.1407V64.6548L68.2421 57.8977L58.1097 51.1407Z" fill="#020054"/>
<path d="M64.4492 140.307C59.2073 140.307 54.9404 136.04 54.9404 130.798C54.9404 125.556 59.2073 121.289 64.4492 121.289C69.6911 121.289 73.958 125.556 73.958 130.798C73.958 136.04 69.6911 140.307 64.4492 140.307ZM64.4492 127.629C62.7003 127.629 61.2796 129.049 61.2796 130.798C61.2796 132.547 62.7003 133.968 64.4492 133.968C66.198 133.968 67.6188 132.547 67.6188 130.798C67.6188 129.049 66.198 127.629 64.4492 127.629Z" fill="#020054"/>
<path d="M86.6359 130.798H80.2968C80.2968 122.06 73.1869 114.95 64.4488 114.95C55.7108 114.95 48.6009 122.06 48.6009 130.798H42.2617C42.2617 118.567 52.2178 108.611 64.4488 108.611C76.6799 108.611 86.6359 118.567 86.6359 130.798Z" fill="#020054"/>
<path d="M83.4658 203.699H89.805V210.038H83.4658V203.699Z" fill="#020054"/>
<path d="M45.4312 203.699H77.127V210.038H45.4312V203.699Z" fill="#020054"/>
<path d="M45.4312 191.021H89.8054V197.36H45.4312V191.021Z" fill="#020054"/>
</g>
<defs>
<clipPath id="clip0_210_215">
<rect width="196.514" height="196.514" fill="white" transform="translate(32.7524 26.2019)"/>
</clipPath>
</defs>
</svg>
